<?xml version="1.0" encoding="utf-8"?>
<!-- Generator: Adobe Illustrator 14.0.0, SVG Export Plug-In . SVG Version: 6.00 Build 43363)  -->
<!DOCTYPE svg PUBLIC "-//W3C//DTD SVG 1.1//EN" "http://www.w3.org/Graphics/SVG/1.1/DTD/svg11.dtd">
<svg version="1.1" id="レイヤー_1" xmlns="http://www.w3.org/2000/svg" xmlns:xlink="http://www.w3.org/1999/xlink" x="0px"
	 y="0px" width="840.114px" height="297.538px" viewBox="0 148.445 840.114 297.538"
	 enable-background="new 0 148.445 840.114 297.538" xml:space="preserve">
<g id="アートワーク_111">
	<g id="グループ_2042">
		<g id="レイヤー_2">
			<g id="グループ_2041">
				<path id="パス_31104" d="M65.859,380.283c-3.552,10.781-7.992,23.676-17.762,37.708c-7.312,10.406-16.519,19.343-27.139,26.34
					l-10.906-8.348c12.625-7,23.369-16.952,31.313-29.005c6.072-8.91,10.55-18.809,13.232-29.253H28.933
					c-5.471,8.919-11.846,17.252-19.022,24.866L0,394.954c12.819-11.516,22.356-26.225,27.637-42.627l10.302,4.334
					c0.604,0.213,2.611,1.226,2.611,2.326c0,1.102-1.102,1.119-2.505,1.563c-0.604,1.669-1.776,3.89-2.806,6.003h22.414
					c1.625-0.317,3.142-1.045,4.405-2.113l8.117,10.656c-1.958,1.284-3.467,3.147-4.316,5.329"/>
				<path id="パス_31105" d="M109.286,358.49c-1.492,1.226-1.599,1.332-1.599,1.67v46.925H95.769v-52.484l11.918,1.119
					c0.8,0.106,2.593,0.213,2.593,1.226C110.28,357.495,109.677,358.046,109.286,358.49 M150.83,357.709
					c-1.314,1.456-1.314,1.775-1.314,4.901c-0.089,0.995,0.106,6.004,0.106,7.105c0,21.687-0.195,30.46-3.393,41.259
					c-5.914,19.68-18.934,27.903-29.342,33.747l-8.703-10.781c20.532-9.005,29.129-19.537,29.129-53.142
					c0-2.665-0.195-18.117-0.71-27.033l12.823,0.781c0.497,0,2.505,0.106,2.505,1.457c0,0.319-0.107,0.764-1.102,1.651"/>
				<path id="パス_31106" d="M177.028,404.297c-1.738-6.262-4.301-12.264-7.62-17.851l9.219-3.89
					c3.337,5.607,5.928,11.626,7.708,17.903L177.028,404.297z M229.069,384.405c-0.906,0.551-1.013,0.994-2.008,5.328
					c-7.513,34.138-27.726,47.139-37.299,53.373l-8.01-7.886c19.431-10.657,33.036-25.914,36.837-57.37l9.804,3.322
					c1.314,0.443,2.008,1.226,2.008,2.007s-0.195,0.781-1.297,1.226 M195.376,398.88c-1.576-6.287-3.965-12.341-7.104-18.011
					l8.88-3.783c3.089,5.663,5.384,11.723,6.82,18.011L195.376,398.88z"/>
				<path id="パス_31107" d="M307.023,380.283c-3.552,10.781-7.992,23.676-17.761,37.689
					c-7.297,10.419-16.499,19.362-27.122,26.358l-10.905-8.348c12.625-7,23.368-16.952,31.313-29.005
					c6.072-8.91,10.55-18.809,13.231-29.253h-25.683c-5.471,8.919-11.846,17.252-19.022,24.866l-9.911-7.566
					c12.818-11.517,22.354-26.226,27.637-42.627l10.302,4.333c0.604,0.214,2.611,1.226,2.611,2.327s-1.102,1.119-2.505,1.562
					c-0.604,1.67-1.775,3.891-2.806,6.004h22.415c1.624-0.317,3.141-1.045,4.404-2.113l8.117,10.656
					c-1.958,1.284-3.467,3.146-4.316,5.328"/>
				<path id="パス_31108" d="M382.67,440.761l-5.08-7.549c-3.304,3.002-11.226,10.231-21.936,10.231
					c-12.61,0-22.504-9.787-22.504-23.57c0-14.688,10.799-22.13,17.104-26.642l-0.994-1.438c-1.776-2.664-5.809-8.881-5.809-15.79
					c-0.431-10.124,7.428-18.68,17.552-19.11c0.005-0.001,0.01-0.001,0.015-0.001h1.314c9.91,0,17.903,6.785,17.903,18.578
					c0,11.119-7.193,16.679-12.913,21.012l10.319,15.115c1.745-3.954,2.63-8.235,2.594-12.558h12.717
					c-0.37,8.536-2.966,16.827-7.53,24.049l12.113,17.762L382.67,440.761z M357.004,403.072c-4.99,3.339-10.301,7.229-10.301,15.452
					c0,7.798,4.6,12.238,10.515,12.238c6.305,0,11.101-5.223,13.409-7.78L357.004,403.072z M360.556,386.624
					c2.699-2.22,7.513-6.003,7.513-11.562c0.202-3.477-2.452-6.458-5.929-6.66c-0.001,0-0.002,0-0.003,0l0,0
					c-3.59,0.048-6.461,2.998-6.412,6.588c0,0.006,0,0.013,0,0.019c-0.009,0.137-0.009,0.272,0,0.409
					c0.127,2.77,0.992,5.455,2.504,7.779L360.556,386.624z"/>
				<path id="パス_31109" d="M470.144,416.428c-7.407-7.673-17.424-16.678-29.431-22.237v47.956h-11.812v-87.99l12.007,2.327
					c0.302,0.124,2.397,0.462,2.397,1.775c0,0.676-2.611,2.451-2.611,3.002v29.253l4.707-8.224
					c6.046,2.713,11.761,6.11,17.033,10.124c5.56,4.013,10.781,8.474,15.612,13.339L470.144,416.428z"/>
				<path id="パス_31110" d="M563.995,394.635c-3.801,10-7.495,20.123-16.518,30.904c-7.546,8.896-17.072,15.897-27.814,20.443
					l-9.308-9.556c10.941-3.913,20.625-10.705,28.028-19.661c5.805-6.909,10.127-14.938,12.699-23.588h-51.988v-12.22h56.837
					c1.779-0.303,3.46-1.028,4.902-2.113l8.099,9.556c-2.07,1.693-3.744,3.822-4.901,6.234 M509.183,356.057h47.547v12.629h-47.582
					L509.183,356.057z"/>
				<path id="パス_31111" d="M650.955,364.05c-1.492,0.106-1.688,0.337-3.091,2.007c-4.985,6.252-10.513,12.053-16.518,17.335
					v59.27h-12.433v-48.933c-7.941,5.975-16.379,11.257-25.222,15.79l-8.703-9.893c20.923-9.112,42.947-27.353,58.044-47.246
					l8.703,8.011c0.409,0.319,1.776,1.776,1.776,2.664c0,0.889-0.391,0.889-2.397,0.995"/>
			</g>
		</g>
	</g>
</g>
<g id="アートワーク_110">
	<g id="グループ_2047">
		<g id="レイヤー_2-2">
			<g id="グループ_2046">
				<g id="グループ_2045">
					<path id="パス_31121" d="M59.145,248.636c0.052,16.112-12.841,29.282-28.951,29.573C16.128,278.209,0,271.389,0,248.086
						v-70.247c0-16.678,12.007-29.395,29.751-29.395c16.838,0,29.395,12.717,29.395,30.461v7.104H40.851v-6.021
						c0-7.104-4.299-13.268-11.296-13.268c-9.13,0-11.279,6.27-11.279,14.884v65.237c0,7.354,2.86,13.091,11.102,13.091
						c5.026,0,11.474-2.878,11.474-12.913v-6.216h18.294V248.636z"/>
					<path id="パス_31122" d="M95.521,149.528h18.276v109.321h36.197v18.276H95.521V149.528z"/>
					<path id="パス_31123" d="M183.866,149.528h18.276v127.598h-18.276V149.528z"/>
					<path id="パス_31124" d="M303.045,248.636c0.041,16.143-12.899,29.32-29.04,29.573c-13.978,0-30.194-6.82-30.194-30.194
						v-70.176c0.089-16.678,12.096-29.395,29.84-29.395c16.838,0,29.395,12.717,29.395,30.461v7.104h-18.294v-6.021
						c0-7.104-4.298-13.268-11.278-13.268c-9.147,0-11.297,6.27-11.297,14.884v65.237c0,7.354,2.878,13.091,11.119,13.091
						c5.009,0,11.474-2.878,11.474-12.913v-6.216h18.276V248.636z"/>
					<path id="パス_31125" d="M339.421,149.528h18.276v58.24h0.354l26.643-58.24h18.276l-24.866,51.064l29.573,76.533h-19.36
						l-20.78-56.641l-9.84,18.543v38.098h-18.276V149.528z"/>
					<path id="パス_31126" d="M515.578,267.446c-7.104,7.104-14.707,10.657-24.369,10.657c-14.528,0-26.357-11.812-26.357-29.556
						c0-13.978,7.53-24.208,17.565-33.16c-6.447-9.147-11.118-18.649-11.118-29.395c0-13.623,8.437-24.742,24.866-24.742
						c15.594,0,24.19,10.657,24.19,23.09c0,11.829-8.597,23.09-18.632,32.077c4.477,6.998,10.568,17.762,16.855,26.643l9.84-13.446
						l11.297,7.887l-13.623,17.565l13.854,22.06H521.67L515.578,267.446z M494.601,263.894c5.56,0,10.941-4.299,13.623-7.709
						l-17.566-27.992c-5.328,5.56-9.68,11.652-9.68,19.538c0,8.881,5.737,16.127,13.623,16.127V263.894z M494.424,204.926
						c4.494-4.299,10.941-11.102,10.941-20.07c0.089-4.947-3.845-9.032-8.792-9.13c-5.56,0-9.13,5.187-9.13,10.746
						C487.443,192.031,490.48,198.478,494.424,204.926L494.424,204.926z"/>
					<path id="パス_31127" d="M612.875,166.721h-21.137v-17.193h60.566v17.193h-21.153v110.404h-18.276V166.721z"/>
					<path id="パス_31128" d="M681.878,149.528h29.395c21.669,0,32.255,12.718,32.255,37.459c0,14.688-4.12,25.435-15.771,31.971
						l19.715,58.239h-19.36l-17.033-54.474h-10.923v54.402h-18.276V149.528z M700.154,206.506h10.391
						c12.734,0,14.706-7.104,14.706-19.893s-2.149-19.893-15.595-19.893h-9.502V206.506z"/>
					<path id="パス_31129" d="M796.74,223.185l-25.097-73.657h19.36l14.688,50.709h0.355l14.706-50.709h19.36l-25.097,73.657
						v53.94H796.74V223.185z"/>
				</g>
			</g>
		</g>
	</g>
</g>
</svg>
