<svg id="レイヤー_1" data-name="レイヤー 1" xmlns="http://www.w3.org/2000/svg" viewBox="0 0 218 181"><defs><style>.cls-1{fill:#3f3f3f;}</style></defs><g id="アートワーク_113" data-name="アートワーク 113"><g id="グループ_2039" data-name="グループ 2039"><g id="レイヤー_2" data-name="レイヤー 2"><g id="グループ_2038" data-name="グループ 2038"><path id="パス_31093" data-name="パス 31093" class="cls-1" d="M158.79,37.16a10.45,10.45,0,0,0-10.71,10.19c0,.24,0,.47,0,.7V71.59A10.71,10.71,0,1,0,169.5,72v-24a10.47,10.47,0,0,0-10-10.89Z"/><path id="パス_31094" data-name="パス 31094" class="cls-1" d="M159.41,0c-32.06,0-58.14,40.47-58.14,90.21s26.08,90.2,58.14,90.2,58.14-40.46,58.14-90.2S191.47,0,159.41,0ZM138.64,166.06a53.87,53.87,0,0,1-10-9.62V126.68h10Zm50.28-8.15a51.61,51.61,0,0,1-10,9.08l-.36-2.39V126.68h10.41ZM201,107.08c-.82-11.4-7.08-18.26-19.17-19.45l0-.07h-.67c-1.05-.09-2.14-.14-3.28-.14H138.32c-13.12,0-21.19,7-21.83,19.66h-.06v27.8a122.85,122.85,0,0,1-8-44.67c0-45.81,22.88-83.08,51-83.08s51,37.27,51,83.08c0,17.74-3.44,34.18-9.28,47.69V107.08Z"/><path id="パス_31095" data-name="パス 31095" class="cls-1" d="M89.38,85.1a6,6,0,1,0-8.32-8.52l-.09.1-5.9,5.9V78.81L87,66.92a5.95,5.95,0,1,0-8.31-8.51l-.1.09L75.07,62V58.22l.7-.7a5.81,5.81,0,0,0,.35-8.21L75.84,49a5.3,5.3,0,0,0-.77-.65V33.52H16.13v66.81l-4.42,4.42a31.4,31.4,0,1,0,48.73,36.4H75.07V120l14-14a5.95,5.95,0,0,0-8.31-8.51.94.94,0,0,0-.1.1l-5.62,5.62V99.4ZM68.78,48v77.78H27.6l16.58-16.59a7.2,7.2,0,0,0,2.14-7s-.11-.36-.27-.79a7.31,7.31,0,0,0-3.28-4,7.1,7.1,0,0,0-6.32-.63A7.61,7.61,0,0,0,34.57,98a9.29,9.29,0,0,0-.91.75L22.43,109.94V40.64H68.77Z"/></g></g></g></g></svg>