<svg id="レイヤー_1" data-name="レイヤー 1" xmlns="http://www.w3.org/2000/svg" viewBox="0 0 146.8 37"><defs><style>.cls-1{fill:#191B1D;}</style></defs><title>logo_onward</title><path class="cls-1" d="M37.48,36.32a5.06,5.06,0,0,1-2.64.68,4,4,0,0,1-3-1.19,4.58,4.58,0,0,1-1.11-3.25,4.57,4.57,0,0,1,1.07-3.24,3.87,3.87,0,0,1,3-1.15,7.27,7.27,0,0,1,1.16.1c.44.07.92.18,1.46.32v1.54h-.64l-.1-.87a3.55,3.55,0,0,0-.9-.4,3,3,0,0,0-.88-.14,2.54,2.54,0,0,0-2.12,1.06A4.7,4.7,0,0,0,32,32.61a4.15,4.15,0,0,0,.88,2.72A2.8,2.8,0,0,0,35.1,36.4a4.18,4.18,0,0,0,2.38-.74Z"/><path class="cls-1" d="M45.5,33.07v3.16h.84v.56H43.47v-.56h.84v-7.3h-.84v-.55h3a3.56,3.56,0,0,1,2.13.52,1.86,1.86,0,0,1,.71,1.59,2.35,2.35,0,0,1-.44,1.44,2.74,2.74,0,0,1-1.31.9l2.24,3.4h.63v.56H48.66l-2.3-3.72Zm0-.55h.36a2.34,2.34,0,0,0,1.63-.5A1.93,1.93,0,0,0,48,30.53a1.46,1.46,0,0,0-.49-1.26,3.44,3.44,0,0,0-1.83-.34H45.5Z"/><path class="cls-1" d="M60,37a3.59,3.59,0,0,1-2.85-1.19,4.67,4.67,0,0,1-1-3.23,4.73,4.73,0,0,1,1-3.23A3.62,3.62,0,0,1,60,28.17a3.58,3.58,0,0,1,2.84,1.18,4.68,4.68,0,0,1,1,3.23,4.66,4.66,0,0,1-1,3.23A3.58,3.58,0,0,1,60,37Zm0-.56a2.22,2.22,0,0,0,1.91-1,5,5,0,0,0,.71-2.81,5,5,0,0,0-.71-2.81,2.27,2.27,0,0,0-3.83,0,4.9,4.9,0,0,0-.72,2.81,4.87,4.87,0,0,0,.72,2.81A2.22,2.22,0,0,0,60,36.44Z"/><path class="cls-1" d="M70,36.61V35h.63l.07.84a4.54,4.54,0,0,0,.87.45,2,2,0,0,0,.71.15A1.66,1.66,0,0,0,73.44,36a1.43,1.43,0,0,0,.46-1.1,1.61,1.61,0,0,0-.29-1,3.4,3.4,0,0,0-1-.81L72,32.79a5.41,5.41,0,0,1-1.5-1.14,1.91,1.91,0,0,1-.43-1.24,2.12,2.12,0,0,1,.69-1.61,2.48,2.48,0,0,1,1.74-.63,6.87,6.87,0,0,1,1.12.08,6.54,6.54,0,0,1,1.08.26V30h-.63L74,29.18a3.54,3.54,0,0,0-.74-.35,2.5,2.5,0,0,0-.71-.11,1.19,1.19,0,0,0-.91.42,1.41,1.41,0,0,0-.38,1,1.83,1.83,0,0,0,1.14,1.52L73,32a6.42,6.42,0,0,1,1.67,1.23,2,2,0,0,1,.43,1.31,2.26,2.26,0,0,1-.78,1.75,2.89,2.89,0,0,1-2,.7,8.63,8.63,0,0,1-1.28-.1A5.79,5.79,0,0,1,70,36.61Z"/><path class="cls-1" d="M81.08,36.61V35h.63l.07.84a5.2,5.2,0,0,0,.87.45,2,2,0,0,0,.72.15A1.65,1.65,0,0,0,84.54,36,1.43,1.43,0,0,0,85,34.9a1.54,1.54,0,0,0-.29-1,3.28,3.28,0,0,0-1-.81l-.59-.34a5.33,5.33,0,0,1-1.49-1.14,1.92,1.92,0,0,1-.44-1.24,2.09,2.09,0,0,1,.7-1.61,2.47,2.47,0,0,1,1.73-.63,7,7,0,0,1,1.13.08,6.54,6.54,0,0,1,1.08.26V30h-.63l-.07-.81a3.72,3.72,0,0,0-.73-.35,2.56,2.56,0,0,0-.71-.11,1.21,1.21,0,0,0-.92.42,1.46,1.46,0,0,0-.38,1,1.83,1.83,0,0,0,1.14,1.52l.6.34a6.24,6.24,0,0,1,1.67,1.23,2,2,0,0,1,.43,1.31,2.26,2.26,0,0,1-.78,1.75,2.84,2.84,0,0,1-2,.7,8.52,8.52,0,0,1-1.28-.1A5.89,5.89,0,0,1,81.08,36.61Z"/><path class="cls-1" d="M97.81,36.79H92v-.56h.85v-7.3H92v-.55h5.54v1.39h-.63v-.84H94.06v3.23h2v-.7h.56v2h-.56v-.7h-2v3.44h3.12v-.91h.63Z"/><path class="cls-1" d="M106.21,29h-2.42v1h-.63v-1.6h7.3V30h-.63V29h-2.42v7.22h.84v.56h-2.88v-.56h.84Z"/><path class="cls-1" d="M68.37.23c.12.32,4.14,11.39,4.53,12.45.07.18.23.21.32,0,.58-1.47,2.76-7.43,3.42-9.25.18-.49.71-2-.3-2.51-.12-.05-.12-.21,0-.21h4.35c.18,0,.17.16,0,.25-.8.48-1.14,1.34-1.73,3-.7,1.92-3.09,8.71-5.78,15.75a.25.25,0,0,1-.47,0c-.61-1.5-3.72-10.2-4.62-12.51-.07-.18-.2-.17-.27,0-.92,2.3-4.06,11.09-4.62,12.51a.24.24,0,0,1-.46,0c-1-2.47-5.59-14.77-6.15-16.27A4.3,4.3,0,0,0,55,1c-.16-.08-.13-.28,0-.28h4.82a.11.11,0,0,1,0,.21c-.89.33-.78,1.38-.35,2.58.65,1.81,2.85,7.72,3.4,9.17.09.24.23.21.3,0C63.58,12,67.75.56,67.87.23S68.25-.07,68.37.23Z"/><path class="cls-1" d="M84,12c-.14,0-.25-.06-.15-.29.94-2.31,2.29-5.52,2.65-6.33q.11-.23.21,0c.49,1.14,1.55,4,2.48,6.33.09.24,0,.29-.17.29Zm5.88,2.14c.14,0,.22.06.28.22.35.84.82,2.08,1.08,2.78s.22,1.54-.52,1.74a.13.13,0,0,0,.06.26h5a.14.14,0,0,0,.08-.27,3.16,3.16,0,0,1-1.48-1.7c-.51-1.14-7.45-16.84-7.54-17a.33.33,0,0,0-.55,0c-.08.19-7.37,16.63-7.56,17a2.94,2.94,0,0,1-1.38,1.71c-.15.06-.13.26,0,.26h4.56c.18,0,.22-.2,0-.26-.75-.26-.7-1-.28-1.94.29-.66.66-1.6,1.1-2.59.08-.18.16-.21.3-.21Z"/><path class="cls-1" d="M28.85.57A10.65,10.65,0,0,0,25.66.14a11.09,11.09,0,0,0-3.53.55c-3.54,1.23-6,4.45-6,9a9.36,9.36,0,0,0,5.33,8.88,10.31,10.31,0,0,0,4.18.85,10.6,10.6,0,0,0,4.3-.82c3-1.31,5.21-4.4,5.21-8.83C35.17,5.1,32.56,1.75,28.85.57ZM25.66,17.18c-4,0-6.63-2.83-6.63-7.4,0-4.4,2.6-7.41,6.63-7.41a6.56,6.56,0,0,1,2.63.48c2.46,1,4,3.64,4,6.93C32.3,14.21,29.67,17.18,25.66,17.18Z"/><path class="cls-1" d="M50.67,13.13c0,.24-.1.25-.24.12S38.39.14,38.39.14C38.18-.09,38,0,38,.17V15.41a7.46,7.46,0,0,1-.38,2.85,1.36,1.36,0,0,1-.84.68c-.11,0-.09.22,0,.22h5.09c.13,0,.17-.18,0-.22a1.65,1.65,0,0,1-1-.69,5.89,5.89,0,0,1-.42-2.84V6.67c0-.17.07-.31.28-.09.43.42,12,13.15,12,13.15.21.24.45.06.45-.17V4.43a7.05,7.05,0,0,1,.38-2.8,1.38,1.38,0,0,1,.86-.7c.11,0,.09-.24,0-.24H49.31c-.15,0-.18.2,0,.25a1.38,1.38,0,0,1,1,.73,7.24,7.24,0,0,1,.41,2.86Z"/><path class="cls-1" d="M101.1,2.92a8,8,0,0,1,4.34.27,3,3,0,0,1,1.75,2.9,3,3,0,0,1-1.82,2.79,5.85,5.85,0,0,1-3.16.33.21.21,0,0,0-.21.34c.06.09,5,7.8,5.42,8.42a2.43,2.43,0,0,0,2.14,1.37,21,21,0,0,0,2.55-.13c.13,0,.13-.24,0-.27-.55-.19-.83-.41-1.45-1.26s-4.32-6.38-4.53-6.72a.14.14,0,0,1,.06-.21,7.72,7.72,0,0,0,1.18-.45,4.8,4.8,0,0,0,2.69-4.47,5,5,0,0,0-1.23-3.37c-1.23-1.33-3.11-1.77-5.39-1.77H96.9c-.14,0-.15.22,0,.26a1.4,1.4,0,0,1,.85.72,8,8,0,0,1,.4,3V15.19a8,8,0,0,1-.39,3,1.44,1.44,0,0,1-.86.71c-.13,0-.08.26,0,.26h5.29a.14.14,0,0,0,0-.28,1.43,1.43,0,0,1-.81-.66,8.09,8.09,0,0,1-.43-3.3V3.17A.21.21,0,0,1,101.1,2.92Z"/><path class="cls-1" d="M125.68,2.06A11.34,11.34,0,0,0,119.9.71c-1.06,0-6,0-6.33,0a.14.14,0,0,0,0,.26,1.47,1.47,0,0,1,.87.72,8.12,8.12,0,0,1,.39,3V15.18a7.91,7.91,0,0,1-.39,2.94,1.46,1.46,0,0,1-.87.75.14.14,0,0,0,0,.27c.55,0,5.35.05,6.73.05,3.67,0,6.69-1.42,8.29-4.12A9.7,9.7,0,0,0,129.81,10,8.8,8.8,0,0,0,125.68,2.06Zm-5.43,15a3.25,3.25,0,0,1-2.33-.6,2.16,2.16,0,0,1-.3-1.45V3.32c0-.09,0-.21.15-.25a10.21,10.21,0,0,1,2.43-.21A6.74,6.74,0,0,1,125.27,5a7.54,7.54,0,0,1,1.61,5.08C126.88,14.59,124.31,17,120.25,17Z"/><rect class="cls-1" y="8.28" width="25.64" height="2.53"/><rect class="cls-1" x="121.97" y="8.28" width="24.83" height="2.53"/></svg>