<?xml version="1.0" encoding="UTF-8"?>
<svg xmlns="http://www.w3.org/2000/svg" width="126" height="12.6" version="1.1" viewBox="0 0 126 12.6">
  <defs>
    <style>
      .cls-1 {
        fill: #251e1c;
      }

      .cls-2 {
        fill: #fff;
      }

      .cls-3 {
        fill: #e5b3ab;
      }
    </style>
  </defs>
  <!-- Generator: Adobe Illustrator 28.7.5, SVG Export Plug-In . SVG Version: 1.2.0 Build 176)  -->
  <g>
    <g id="_アートボード" data-name="アートボード">
      <g>
        <g>
          <path class="cls-1" d="M18.9,10.2c-.3,0-.5-.2-.5-.5s0-.2.1-.3c1.4-1.4,1.4-3.1,1.4-4.8s0-1.3,0-1.8h0c0-.3.2-.4.4-.4s.5.1.5.4c0,.2,0,.4,0,.7,0,.6,0,1.3,0,1.8,0,1.3-.2,3.2-1.5,4.6-.1.1-.2.2-.4.2ZM22.3,3.1c0-.3.2-.4.4-.4s.5.1.5.4v6c0,.2-.2.4-.5.4s-.4-.1-.4-.4V3.1ZM24.8,2.9c0-.3.2-.4.4-.4s.5.1.5.4v7c0,.2-.2.4-.5.4s-.5-.1-.5-.4V2.9Z"/>
          <path class="cls-1" d="M30.2,7.3v1.7c.5.2,1.1.3,2.4.3s2,0,2.8-.1h0c.2,0,.4.2.4.4s-.1.4-.4.5c-.6,0-1.4.1-2.1.1-1.9,0-3.6-.2-4.5-1.4-.3,1.2-.5,1.3-.8,1.3s-.4-.1-.4-.3,0-.1,0-.2c.4-.8.6-1.9.6-2.8s.2-.3.4-.3.4.1.4.3,0,1,0,1c0,.3.2.5.4.6v-2.6h-1.2c-.2,0-.4-.2-.4-.3s.1-.4.4-.4h1.2v-.8h-.9c-.3,0-.4-.2-.4-.3s.1-.4.4-.4h.9v-.9c0-.2.2-.4.4-.4s.4.1.4.4v.9h.7c.2,0,.4.2.4.4s-.1.4-.4.4h-.8v.8h1c.2,0,.3.2.3.3s-.1.3-.3.3h-1v.8h.8c.2,0,.3.2.3.3s-.1.3-.3.3h-.8ZM33.8,4.6c0,.7,0,1.4.2,2,.2-.4.4-.9.5-1.5,0-.2.2-.2.3-.2.2,0,.4.2.4.4s-.2,1.1-.9,2.1c0,.1.3.5.5.5s.2-.2.3-.5c0-.2.2-.3.3-.3.2,0,.4.2.4.4s-.3,1.3-1.1,1.3-.9-.5-1-.8c-.8.8-1.6,1-1.7,1-.2,0-.4-.2-.4-.3s0-.3.3-.4c.6-.2,1.1-.5,1.4-1-.3-.8-.4-1.8-.4-2.7h-.3c-.3,0-.3.1-.3.3,0,.4,0,.9,0,1.4v.6c.1,0,.2-.1.3-.2,0,0,.1,0,.2,0,.2,0,.3.2.3.3s0,.2-.2.3c-.9.6-1.8,1-2,1s-.3-.2-.3-.4,0-.3.3-.4c.2,0,.5-.1.7-.3v-.8c0-.7,0-1.3,0-1.9,0-.4.2-.8.9-.8.2,0,.3,0,.5,0,0-.4,0-.8,0-1.2h0c0-.2.2-.4.4-.4s.4.1.4.4c0,.4,0,.8,0,1.2.4,0,.8,0,1.2,0,.2,0,.4.2.4.4s-.1.4-.4.4h-1.2ZM34.6,3.6c-.2-.3-.4-.4-.5-.5,0,0-.1-.1-.1-.2,0-.2.2-.3.4-.3s.9.4.9.8-.2.4-.4.4-.2,0-.2-.1Z"/>
          <path class="cls-1" d="M44,4.2c-.7,0-2.1,0-3.3,0s-1.3,0-1.7,0-.4.2-.4.4c0,1.7.1,3.9-.9,5.2-.1.2-.3.2-.4.2-.2,0-.5-.2-.5-.4s0-.1,0-.2c.8-.9.9-2.3.9-3.5s0-.9,0-1.3h0c0-.8.4-1.1,1.2-1.2.4,0,1,0,1.6,0v-.7c0-.3.2-.4.5-.4s.5.1.5.4v.7c1,0,2,0,2.6,0,.3,0,.4.2.4.4s-.1.4-.4.4h0ZM41.7,6.2v1c.4,0,.8,0,1.2,0,.5,0,.9.4.9.8,0,.2,0,.4,0,.5s0,.4,0,.6c0,.5-.4.9-1,.9-.5,0-1,0-1.5,0s-1,0-1.4,0c-.6,0-1-.4-1-.9,0-.2,0-.4,0-.5,0-.2,0-.4,0-.6,0-.4.3-.8,1-.9.3,0,.6,0,.9,0v-2.5c0-.3.2-.4.4-.4s.4.1.4.4v.7s2.2,0,2.2,0c.3,0,.4.2.4.4s-.1.4-.4.4h-2.2ZM43,8.6c0-.5,0-.7-.4-.7-.3,0-.7,0-1.1,0s-.9,0-1.3,0c-.3,0-.4.2-.4.7s0,.2,0,.3c0,.4.2.4,1.6.4s1.5,0,1.5-.4c0-.1,0-.2,0-.3Z"/>
          <path class="cls-1" d="M53.3,5.5c.6,0,.8-.4.8-.9s-.4-.8-.9-.8-.7.2-1,.5c0,0-.2.1-.3.1-.3,0-.5-.2-.5-.5,0-.5,1-1,1.8-1,1.2,0,1.9.7,1.9,1.8s-.3,1.1-.7,1.3c1.1.5,1.1,1.6,1.1,1.8,0,1.3-1,2.2-2.4,2.2s-2.2-.8-2.2-1.2.3-.5.5-.5.2,0,.4.2c.4.5.7.6,1.3.6s1.3-.5,1.3-1.2-.6-1.2-1.2-1.2h0c0,0-.1,0-.1,0-.3,0-.5-.2-.5-.5s.2-.5.5-.5h.3Z"/>
          <path class="cls-1" d="M57.3,10.3c-.2,0-.4-.1-.4-.4,0-1.7,0-4.7,0-6.6,0-.9.5-.9,1.3-.9s.3,0,.5,0c.5,0,.8.3.8.7s0,.4-.5,1.4c0,.1,0,.2,0,.3,0,.1,0,.3.2.4.3.4.4.8.4,1.4s-.4,1.4-1.1,1.4-.6,0-.6-.4.1-.4.3-.4,0,0,0,0c0,0,0,0,.1,0,0,0,.4,0,.4-.7s0-.7-.3-1c-.2-.3-.3-.5-.3-.8s0-.3.1-.6c0-.2.3-.8.3-1s-.1-.2-.4-.2c-.3,0-.5,0-.5.3,0,.8,0,1.9,0,3.1v3.4c0,.3-.2.4-.4.4ZM60.6,4.2v1c.3,0,.7-.2,1-.3,0,0,0,0,.1,0,.2,0,.3.2.3.3s0,.2-.2.3c-.7.4-1.7.6-1.9.6s-.4-.2-.4-.4,0-.3.2-.3h.1v-2.6c0-.3.2-.4.4-.4s.4.1.4.4v.7h.9c.2,0,.4.2.4.4s-.1.4-.4.4h-.9ZM63.1,6.6c.5,0,.9.4.9.8,0,.4,0,1,0,1.5s0,.3,0,.4c0,.5-.4.8-.9.9-.3,0-.7,0-1.1,0s-.7,0-1,0c-.6,0-.9-.4-1-.9,0-.1,0-.3,0-.4,0-.5,0-1,0-1.4,0-.8.7-.9,1.3-.9,0-.2,0-.4,0-.6,0-.2.2-.3.4-.3s.4.1.4.4,0,.4-.1.5c.4,0,.7,0,1,0ZM60.7,8.6c0,.2,0,.3,0,.4,0,.4.3.4,1.2.4s.6,0,.8,0c.4,0,.4-.2.4-.8h-2.4ZM63.2,7.9c0-.1,0-.2,0-.3,0-.4-.1-.4-1.2-.4s-.6,0-.8,0c-.4,0-.4.3-.4.7h2.4ZM62.9,5c0,.2.1.3.5.3s.6-.2.6-.6.2-.4.4-.4.4,0,.4.4c0,1-.5,1.3-1.4,1.3s-1.2-.2-1.2-1,0-1.7,0-2.3c0-.2.2-.4.4-.4s.4.1.4.4h0c0,.2,0,.5,0,.8.3-.1.7-.3.9-.5,0,0,.1,0,.2,0,.2,0,.4.2.4.5s0,.2-.2.3c-.4.3-1,.5-1.4.6v.6Z"/>
          <path class="cls-1" d="M69.7,5.6c-.9,0-1.8,0-2.7,0-.1,0-.2-.1-.2-.3s0-.3.2-.3c.9,0,1.8,0,2.7,0s1.8,0,2.8,0c.2,0,.2.1.2.3s0,.3-.2.3c-.9,0-1.8,0-2.8,0ZM69.7,7.3c-.9,0-1.8,0-2.7,0-.1,0-.2-.1-.2-.3s0-.3.2-.3c.9,0,1.8,0,2.7,0s1.8,0,2.8,0c.2,0,.2.1.2.3s0,.3-.2.3c-.9,0-1.8,0-2.8,0Z"/>
          <path class="cls-1" d="M76.1,7.2c-.2,0-.5-.2-.5-.5,0-.9,0-2.3,0-3.2,0-.6.9-.6.9,0,0,.8,0,2.4,0,3.2,0,.3-.2.5-.5.5ZM76.2,9.4c1.6-.9,2-2.1,2-3.5s0-1.8,0-2.6,1-.6,1,0c0,.8,0,1.8,0,2.5,0,1.6-.5,3.1-2.4,4.2-.7.4-1.1-.4-.6-.7Z"/>
          <path class="cls-1" d="M82.1,8.9c2-.6,3.2-2.3,3.6-3.6,0-.2,0-.5-.3-.5-.9,0-2.3,0-3.6,0-.6,0-.7-.9,0-.9,1.2,0,2.9,0,4.1,0,.7,0,1.3.6,1,1.3-.6,1.8-1.7,3.6-4.3,4.6-.8.3-1.1-.7-.4-.9Z"/>
          <path class="cls-1" d="M90.3,9.2c-.6.3-1.4.1-1.4-.8,0-1,0-3.2,0-3.9,0-.7.9-.6,1,0,0,.6,0,2.7,0,3.4,0,.3.2.3.4.2,1.4-.7,2.7-2,3.3-3,.4-.6,1.2,0,.8.5-.7,1.1-2.6,2.8-4.1,3.6Z"/>
          <path class="cls-1" d="M99.6,3.9c.4,0,.8,0,1.2,0,.7,0,1.3.5,1,1.1-1.1,2.1-2.4,4-4.9,5-.8.3-1.1-.6-.4-.9,2-.7,3.5-2.5,4.2-4.1,0-.2,0-.3-.2-.3-.4,0-1,0-1.5.1-.6.8-1.4,1.8-2,2.2-.6.4-1.1-.4-.5-.8.9-.5,2.1-2.2,2.5-2.9.3-.5,1.2,0,.8.5h0Z"/>
          <path class="cls-1" d="M105.2,9.6c0,.7-1,.8-1,0,0-1.5,0-5,0-6.4,0-.6,1-.6.9,0,0,.4,0,1.2,0,2.1,0,0,0,0,.2,0,.5,0,1.7.4,2.2.8.5.4,0,1.2-.6.8-.4-.3-1.3-.6-1.8-.7,0,1.3,0,2.6,0,3.3Z"/>
        </g>
        <rect class="cls-3" y="0" width="126" height="12.6" rx="4.9" ry="4.9"/>
        <g>
          <path class="cls-2" d="M18.9,10.2c-.3,0-.5-.2-.5-.5s0-.2.1-.3c1.4-1.4,1.4-3.1,1.4-4.8s0-1.3,0-1.8h0c0-.3.2-.4.4-.4s.5.1.5.4c0,.2,0,.4,0,.7,0,.6,0,1.3,0,1.8,0,1.3-.2,3.2-1.5,4.6-.1.1-.2.2-.4.2ZM22.3,3.1c0-.3.2-.4.4-.4s.5.1.5.4v6c0,.2-.2.4-.5.4s-.4-.1-.4-.4V3.1ZM24.8,2.9c0-.3.2-.4.4-.4s.5.1.5.4v7c0,.2-.2.4-.5.4s-.5-.1-.5-.4V2.9Z"/>
          <path class="cls-2" d="M30.2,7.3v1.7c.5.2,1.1.3,2.4.3s2,0,2.8-.1h0c.2,0,.4.2.4.4s-.1.4-.4.5c-.6,0-1.4.1-2.1.1-1.9,0-3.6-.2-4.5-1.4-.3,1.2-.5,1.3-.8,1.3s-.4-.1-.4-.3,0-.1,0-.2c.4-.8.6-1.9.6-2.8s.2-.3.4-.3.4.1.4.3,0,1,0,1c0,.3.2.5.4.6v-2.6h-1.2c-.2,0-.4-.2-.4-.3s.1-.4.4-.4h1.2v-.8h-.9c-.3,0-.4-.2-.4-.3s.1-.4.4-.4h.9v-.9c0-.2.2-.4.4-.4s.4.1.4.4v.9h.7c.2,0,.4.2.4.4s-.1.4-.4.4h-.8v.8h1c.2,0,.3.2.3.3s-.1.3-.3.3h-1v.8h.8c.2,0,.3.2.3.3s-.1.3-.3.3h-.8ZM33.8,4.6c0,.7,0,1.4.2,2,.2-.4.4-.9.5-1.5,0-.2.2-.2.3-.2.2,0,.4.2.4.4s-.2,1.1-.9,2.1c0,.1.3.5.5.5s.2-.2.3-.5c0-.2.2-.3.3-.3.2,0,.4.2.4.4s-.3,1.3-1.1,1.3-.9-.5-1-.8c-.8.8-1.6,1-1.7,1-.2,0-.4-.2-.4-.3s0-.3.3-.4c.6-.2,1.1-.5,1.4-1-.3-.8-.4-1.8-.4-2.7h-.3c-.3,0-.3.1-.3.3,0,.4,0,.9,0,1.4v.6c.1,0,.2-.1.3-.2,0,0,.1,0,.2,0,.2,0,.3.2.3.3s0,.2-.2.3c-.9.6-1.8,1-2,1s-.3-.2-.3-.4,0-.3.3-.4c.2,0,.5-.1.7-.3v-.8c0-.7,0-1.3,0-1.9,0-.4.2-.8.9-.8.2,0,.3,0,.5,0,0-.4,0-.8,0-1.2h0c0-.2.2-.4.4-.4s.4.1.4.4c0,.4,0,.8,0,1.2.4,0,.8,0,1.2,0,.2,0,.4.2.4.4s-.1.4-.4.4h-1.2ZM34.6,3.6c-.2-.3-.4-.4-.5-.5,0,0-.1-.1-.1-.2,0-.2.2-.3.4-.3s.9.4.9.8-.2.4-.4.4-.2,0-.2-.1Z"/>
          <path class="cls-2" d="M44,4.2c-.7,0-2.1,0-3.3,0s-1.3,0-1.7,0-.4.2-.4.4c0,1.7.1,3.9-.9,5.2-.1.2-.3.2-.4.2-.2,0-.5-.2-.5-.4s0-.1,0-.2c.8-.9.9-2.3.9-3.5s0-.9,0-1.3h0c0-.8.4-1.1,1.2-1.2.4,0,1,0,1.6,0v-.7c0-.3.2-.4.5-.4s.5.1.5.4v.7c1,0,2,0,2.6,0,.3,0,.4.2.4.4s-.1.4-.4.4h0ZM41.7,6.2v1c.4,0,.8,0,1.2,0,.5,0,.9.4.9.8,0,.2,0,.4,0,.5s0,.4,0,.6c0,.5-.4.9-1,.9-.5,0-1,0-1.5,0s-1,0-1.4,0c-.6,0-1-.4-1-.9,0-.2,0-.4,0-.5,0-.2,0-.4,0-.6,0-.4.3-.8,1-.9.3,0,.6,0,.9,0v-2.5c0-.3.2-.4.4-.4s.4.1.4.4v.7s2.2,0,2.2,0c.3,0,.4.2.4.4s-.1.4-.4.4h-2.2ZM43,8.6c0-.5,0-.7-.4-.7-.3,0-.7,0-1.1,0s-.9,0-1.3,0c-.3,0-.4.2-.4.7s0,.2,0,.3c0,.4.2.4,1.6.4s1.5,0,1.5-.4c0-.1,0-.2,0-.3Z"/>
          <path class="cls-2" d="M53.3,5.5c.6,0,.8-.4.8-.9s-.4-.8-.9-.8-.7.2-1,.5c0,0-.2.1-.3.1-.3,0-.5-.2-.5-.5,0-.5,1-1,1.8-1,1.2,0,1.9.7,1.9,1.8s-.3,1.1-.7,1.3c1.1.5,1.1,1.6,1.1,1.8,0,1.3-1,2.2-2.4,2.2s-2.2-.8-2.2-1.2.3-.5.5-.5.2,0,.4.2c.4.5.7.6,1.3.6s1.3-.5,1.3-1.2-.6-1.2-1.2-1.2h0c0,0-.1,0-.1,0-.3,0-.5-.2-.5-.5s.2-.5.5-.5h.3Z"/>
          <path class="cls-2" d="M57.3,10.3c-.2,0-.4-.1-.4-.4,0-1.7,0-4.7,0-6.6,0-.9.5-.9,1.3-.9s.3,0,.5,0c.5,0,.8.3.8.7s0,.4-.5,1.4c0,.1,0,.2,0,.3,0,.1,0,.3.2.4.3.4.4.8.4,1.4s-.4,1.4-1.1,1.4-.6,0-.6-.4.1-.4.3-.4,0,0,0,0c0,0,0,0,.1,0,0,0,.4,0,.4-.7s0-.7-.3-1c-.2-.3-.3-.5-.3-.8s0-.3.1-.6c0-.2.3-.8.3-1s-.1-.2-.4-.2c-.3,0-.5,0-.5.3,0,.8,0,1.9,0,3.1v3.4c0,.3-.2.4-.4.4ZM60.6,4.2v1c.3,0,.7-.2,1-.3,0,0,0,0,.1,0,.2,0,.3.2.3.3s0,.2-.2.3c-.7.4-1.7.6-1.9.6s-.4-.2-.4-.4,0-.3.2-.3h.1v-2.6c0-.3.2-.4.4-.4s.4.1.4.4v.7h.9c.2,0,.4.2.4.4s-.1.4-.4.4h-.9ZM63.1,6.6c.5,0,.9.4.9.8,0,.4,0,1,0,1.5s0,.3,0,.4c0,.5-.4.8-.9.9-.3,0-.7,0-1.1,0s-.7,0-1,0c-.6,0-.9-.4-1-.9,0-.1,0-.3,0-.4,0-.5,0-1,0-1.4,0-.8.7-.9,1.3-.9,0-.2,0-.4,0-.6,0-.2.2-.3.4-.3s.4.1.4.4,0,.4-.1.5c.4,0,.7,0,1,0ZM60.7,8.6c0,.2,0,.3,0,.4,0,.4.3.4,1.2.4s.6,0,.8,0c.4,0,.4-.2.4-.8h-2.4ZM63.2,7.9c0-.1,0-.2,0-.3,0-.4-.1-.4-1.2-.4s-.6,0-.8,0c-.4,0-.4.3-.4.7h2.4ZM62.9,5c0,.2.1.3.5.3s.6-.2.6-.6.2-.4.4-.4.4,0,.4.4c0,1-.5,1.3-1.4,1.3s-1.2-.2-1.2-1,0-1.7,0-2.3c0-.2.2-.4.4-.4s.4.1.4.4h0c0,.2,0,.5,0,.8.3-.1.7-.3.9-.5,0,0,.1,0,.2,0,.2,0,.4.2.4.5s0,.2-.2.3c-.4.3-1,.5-1.4.6v.6Z"/>
          <path class="cls-2" d="M69.7,5.6c-.9,0-1.8,0-2.7,0-.1,0-.2-.1-.2-.3s0-.3.2-.3c.9,0,1.8,0,2.7,0s1.8,0,2.8,0c.2,0,.2.1.2.3s0,.3-.2.3c-.9,0-1.8,0-2.8,0ZM69.7,7.3c-.9,0-1.8,0-2.7,0-.1,0-.2-.1-.2-.3s0-.3.2-.3c.9,0,1.8,0,2.7,0s1.8,0,2.8,0c.2,0,.2.1.2.3s0,.3-.2.3c-.9,0-1.8,0-2.8,0Z"/>
          <path class="cls-2" d="M76.1,7.2c-.2,0-.5-.2-.5-.5,0-.9,0-2.3,0-3.2,0-.6.9-.6.9,0,0,.8,0,2.4,0,3.2,0,.3-.2.5-.5.5ZM76.2,9.4c1.6-.9,2-2.1,2-3.5s0-1.8,0-2.6,1-.6,1,0c0,.8,0,1.8,0,2.5,0,1.6-.5,3.1-2.4,4.2-.7.4-1.1-.4-.6-.7Z"/>
          <path class="cls-2" d="M82.1,8.9c2-.6,3.2-2.3,3.6-3.6,0-.2,0-.5-.3-.5-.9,0-2.3,0-3.6,0-.6,0-.7-.9,0-.9,1.2,0,2.9,0,4.1,0,.7,0,1.3.6,1,1.3-.6,1.8-1.7,3.6-4.3,4.6-.8.3-1.1-.7-.4-.9Z"/>
          <path class="cls-2" d="M90.3,9.2c-.6.3-1.4.1-1.4-.8,0-1,0-3.2,0-3.9,0-.7.9-.6,1,0,0,.6,0,2.7,0,3.4,0,.3.2.3.4.2,1.4-.7,2.7-2,3.3-3,.4-.6,1.2,0,.8.5-.7,1.1-2.6,2.8-4.1,3.6Z"/>
          <path class="cls-2" d="M99.6,3.9c.4,0,.8,0,1.2,0,.7,0,1.3.5,1,1.1-1.1,2.1-2.4,4-4.9,5-.8.3-1.1-.6-.4-.9,2-.7,3.5-2.5,4.2-4.1,0-.2,0-.3-.2-.3-.4,0-1,0-1.5.1-.6.8-1.4,1.8-2,2.2-.6.4-1.1-.4-.5-.8.9-.5,2.1-2.2,2.5-2.9.3-.5,1.2,0,.8.5h0Z"/>
          <path class="cls-2" d="M105.2,9.6c0,.7-1,.8-1,0,0-1.5,0-5,0-6.4,0-.6,1-.6.9,0,0,.4,0,1.2,0,2.1,0,0,0,0,.2,0,.5,0,1.7.4,2.2.8.5.4,0,1.2-.6.8-.4-.3-1.3-.6-1.8-.7,0,1.3,0,2.6,0,3.3Z"/>
        </g>
      </g>
    </g>
  </g>
</svg>