<?xml version="1.0" encoding="UTF-8"?>
<svg xmlns="http://www.w3.org/2000/svg" width="126" height="12.6" version="1.1" viewBox="0 0 126 12.6">
  <defs>
    <style>
      .cls-1 {
        fill: #251e1c;
      }

      .cls-2 {
        fill: #fff;
      }

      .cls-3 {
        fill: #e5b3ab;
      }
    </style>
  </defs>
  <!-- Generator: Adobe Illustrator 28.7.5, SVG Export Plug-In . SVG Version: 1.2.0 Build 176)  -->
  <g>
    <g id="_文字" data-name="文字">
      <g>
        <g>
          <path class="cls-1" d="M13.7,10.2c-.3,0-.5-.2-.5-.5s0-.2.1-.3c1.4-1.4,1.4-3.1,1.4-4.8s0-1.3,0-1.8h0c0-.3.2-.4.4-.4s.5.1.5.4c0,.2,0,.4,0,.7,0,.6,0,1.3,0,1.8,0,1.3-.2,3.2-1.5,4.6-.1.1-.2.2-.4.2ZM17.1,3.1c0-.3.2-.4.4-.4s.5.1.5.4v6c0,.2-.2.4-.5.4s-.4-.1-.4-.4V3.1ZM19.7,2.9c0-.3.2-.4.4-.4s.5.1.5.4v7c0,.2-.2.4-.5.4s-.5-.1-.5-.4V2.9Z"/>
          <path class="cls-1" d="M25,7.3v1.7c.5.2,1.1.3,2.4.3s2,0,2.8-.1h0c.2,0,.4.2.4.4s-.1.4-.4.5c-.6,0-1.4.1-2.1.1-1.9,0-3.6-.2-4.5-1.4-.3,1.2-.5,1.3-.8,1.3s-.4-.1-.4-.3,0-.1,0-.2c.4-.8.6-1.9.6-2.8s.2-.3.4-.3.4.1.4.3,0,1,0,1c0,.3.2.5.4.6v-2.6h-1.2c-.2,0-.4-.2-.4-.3s.1-.4.4-.4h1.2v-.8h-.9c-.3,0-.4-.2-.4-.3s.1-.4.4-.4h.9v-.9c0-.2.2-.4.4-.4s.4.1.4.4v.9h.7c.2,0,.4.2.4.4s-.1.4-.4.4h-.8v.8h1c.2,0,.3.2.3.3s-.1.3-.3.3h-1v.8h.8c.2,0,.3.2.3.3s-.1.3-.3.3h-.8ZM28.7,4.6c0,.7,0,1.4.2,2,.2-.4.4-.9.5-1.5,0-.2.2-.2.3-.2.2,0,.4.2.4.4s-.2,1.1-.9,2.1c0,.1.3.5.5.5s.2-.2.3-.5c0-.2.2-.3.3-.3.2,0,.4.2.4.4s-.3,1.3-1.1,1.3-.9-.5-1-.8c-.8.8-1.6,1-1.7,1-.2,0-.4-.2-.4-.3s0-.3.3-.4c.6-.2,1.1-.5,1.4-1-.3-.8-.4-1.8-.4-2.7h-.3c-.3,0-.3.1-.3.3,0,.4,0,.9,0,1.4v.6c.1,0,.2-.1.3-.2,0,0,.1,0,.2,0,.2,0,.3.2.3.3s0,.2-.2.3c-.9.6-1.8,1-2,1s-.3-.2-.3-.4,0-.3.3-.4c.2,0,.5-.1.7-.3v-.8c0-.7,0-1.3,0-1.9,0-.4.2-.8.9-.8.2,0,.3,0,.5,0,0-.4,0-.8,0-1.2h0c0-.2.2-.4.4-.4s.4.1.4.4c0,.4,0,.8,0,1.2.4,0,.8,0,1.2,0,.2,0,.4.2.4.4s-.1.4-.4.4h-1.2ZM29.5,3.6c-.2-.3-.4-.4-.5-.5,0,0-.1-.1-.1-.2,0-.2.2-.3.4-.3s.9.4.9.8-.2.4-.4.4-.2,0-.2-.1Z"/>
          <path class="cls-1" d="M38.9,4.2c-.7,0-2.1,0-3.3,0s-1.3,0-1.7,0-.4.2-.4.4c0,1.7.1,3.9-.9,5.2-.1.2-.3.2-.4.2-.2,0-.5-.2-.5-.4s0-.1,0-.2c.8-.9.9-2.3.9-3.5s0-.9,0-1.3h0c0-.8.4-1.1,1.2-1.2.4,0,1,0,1.6,0v-.7c0-.3.2-.4.5-.4s.5.1.5.4v.7c1,0,2,0,2.6,0,.3,0,.4.2.4.4s-.1.4-.4.4h0ZM36.6,6.2v1c.4,0,.8,0,1.2,0,.5,0,.9.4.9.8,0,.2,0,.4,0,.5s0,.4,0,.6c0,.5-.4.9-1,.9-.5,0-1,0-1.5,0s-1,0-1.4,0c-.6,0-1-.4-1-.9,0-.2,0-.4,0-.5,0-.2,0-.4,0-.6,0-.4.3-.8,1-.9.3,0,.6,0,.9,0v-2.5c0-.3.2-.4.4-.4s.4.1.4.4v.7s2.2,0,2.2,0c.3,0,.4.2.4.4s-.1.4-.4.4h-2.2ZM37.9,8.6c0-.5,0-.7-.4-.7-.3,0-.7,0-1.1,0s-.9,0-1.3,0c-.3,0-.4.2-.4.7s0,.2,0,.3c0,.4.2.4,1.6.4s1.5,0,1.5-.4c0-.1,0-.2,0-.3Z"/>
          <path class="cls-1" d="M48.2,5.5c.6,0,.8-.4.8-.9s-.4-.8-.9-.8-.7.2-1,.5c0,0-.2.1-.3.1-.3,0-.5-.2-.5-.5,0-.5,1-1,1.8-1,1.2,0,1.9.7,1.9,1.8s-.3,1.1-.7,1.3c1.1.5,1.1,1.6,1.1,1.8,0,1.3-1,2.2-2.4,2.2s-2.2-.8-2.2-1.2.3-.5.5-.5.2,0,.4.2c.4.5.7.6,1.3.6s1.3-.5,1.3-1.2-.6-1.2-1.2-1.2h0c0,0-.1,0-.1,0-.3,0-.5-.2-.5-.5s.2-.5.5-.5h.3Z"/>
          <path class="cls-1" d="M52.2,10.3c-.2,0-.4-.1-.4-.4,0-1.7,0-4.7,0-6.6,0-.9.5-.9,1.3-.9s.3,0,.5,0c.5,0,.8.3.8.7s0,.4-.5,1.4c0,.1,0,.2,0,.3,0,.1,0,.3.2.4.3.4.4.8.4,1.4s-.4,1.4-1.1,1.4-.6,0-.6-.4.1-.4.3-.4,0,0,0,0c0,0,0,0,.1,0,0,0,.4,0,.4-.7s0-.7-.3-1c-.2-.3-.3-.5-.3-.8s0-.3.1-.6c0-.2.3-.8.3-1s-.1-.2-.4-.2c-.3,0-.5,0-.5.3,0,.8,0,1.9,0,3.1v3.4c0,.3-.2.4-.4.4ZM55.5,4.2v1c.3,0,.7-.2,1-.3,0,0,0,0,.1,0,.2,0,.3.2.3.3s0,.2-.2.3c-.7.4-1.7.6-1.9.6s-.4-.2-.4-.4,0-.3.2-.3h.1v-2.6c0-.3.2-.4.4-.4s.4.1.4.4v.7h.9c.2,0,.4.2.4.4s-.1.4-.4.4h-.9ZM57.9,6.6c.5,0,.9.4.9.8,0,.4,0,1,0,1.5s0,.3,0,.4c0,.5-.4.8-.9.9-.3,0-.7,0-1.1,0s-.7,0-1,0c-.6,0-.9-.4-1-.9,0-.1,0-.3,0-.4,0-.5,0-1,0-1.4,0-.8.7-.9,1.3-.9,0-.2,0-.4,0-.6,0-.2.2-.3.4-.3s.4.1.4.4,0,.4,0,.5c.4,0,.7,0,1,0ZM55.6,8.6c0,.2,0,.3,0,.4,0,.4.3.4,1.2.4s.6,0,.8,0c.4,0,.4-.2.4-.8h-2.4ZM58,7.9c0-.1,0-.2,0-.3,0-.4-.1-.4-1.2-.4s-.6,0-.8,0c-.4,0-.4.3-.4.7h2.4ZM57.7,5c0,.2.1.3.5.3s.6-.2.6-.6.2-.4.4-.4.4,0,.4.4c0,1-.5,1.3-1.4,1.3s-1.2-.2-1.2-1,0-1.7,0-2.3c0-.2.2-.4.4-.4s.4.1.4.4h0c0,.2,0,.5,0,.8.3-.1.7-.3.9-.5,0,0,.1,0,.2,0,.2,0,.4.2.4.5s0,.2-.2.3c-.4.3-1,.5-1.4.6v.6Z"/>
          <path class="cls-1" d="M64.6,5.6c-.9,0-1.8,0-2.7,0-.1,0-.2-.1-.2-.3s0-.3.2-.3c.9,0,1.8,0,2.7,0s1.8,0,2.8,0c.2,0,.2.1.2.3s0,.3-.2.3c-.9,0-1.8,0-2.8,0ZM64.6,7.3c-.9,0-1.8,0-2.7,0-.1,0-.2-.1-.2-.3s0-.3.2-.3c.9,0,1.8,0,2.7,0s1.8,0,2.8,0c.2,0,.2.1.2.3s0,.3-.2.3c-.9,0-1.8,0-2.8,0Z"/>
          <path class="cls-1" d="M70.9,9.9c-.4.2-.7.1-.9,0-.2-.2-.1-.5.2-.7,1.5-.8,2-2.3,1.9-3.6,0-.4.2-.6.5-.6s.6.1.5.5c0,.1,0,.2,0,.3,0,0,0,0,0,0,.6-.2,1.3-.7,1.7-1.1.1-.2.1-.3-.1-.3-1,0-3,0-4.3,0-.8,0-.8-.8,0-.9,1.3,0,3.3,0,4.7,0s1.4.8.7,1.5c-.6.7-1.3,1.3-2.3,1.6-.2,0-.4,0-.5,0-.2,1.4-.9,2.5-2.3,3.3Z"/>
          <path class="cls-1" d="M79.6,5.8c-.3-.3-.9-.6-1.3-.7-.5-.1-.3-1,.4-.9.5.1,1.2.4,1.6.7.3.2.3.5.1.8-.1.2-.5.3-.7,0ZM79,9.6c-.8.2-1.1-.8-.3-1,1.8-.5,3.7-2.3,4.6-4.1.3-.6,1.2-.2.8.5-1.1,2-3,3.9-5.1,4.6Z"/>
          <path class="cls-1" d="M86,9.9c-.7.3-1.1-.6-.4-.8,1.3-.4,2.3-1.2,3-2.1-.3-.2-.7-.4-1-.4-.5-.1-.3-.9.4-.7.3,0,.7.3,1.1.5.3-.4.6-.9.8-1.3.2-.4.1-.4,0-.4-.4,0-1.3,0-1.6.1-.6.8-1.5,1.8-2.1,2.2-.6.4-1.1-.4-.5-.8.9-.5,2.1-2.1,2.4-2.9.3-.8,1.3-.2.9.3,0,0,0,.2-.2.2.4,0,.9,0,1.4,0,.9,0,1.1.6.7,1.3-.3.6-.7,1.2-1,1.7.3.2.5.4.7.6.2.2.1.5,0,.7-.2.2-.4.2-.6,0-.1-.1-.3-.3-.5-.5-.8,1-1.8,1.8-3.4,2.4Z"/>
          <path class="cls-1" d="M93.2,8.2c-.8.5-1.3-.4-.7-.7,1.7-.8,3.4-2.5,4.4-4.1.4-.6,1.2,0,.8.5-.4.5-.8,1-1.2,1.5,0,.9,0,3.3,0,4.2,0,.7-1,.8-1,0,0-.7,0-2.2,0-3.3-.7.7-1.5,1.3-2.4,1.9Z"/>
          <path class="cls-1" d="M101.2,9.6c0,.7-1,.8-1,0,0-1.5,0-5,0-6.4,0-.6,1-.6.9,0,0,.4,0,1.2,0,2.1,0,0,0,0,.2,0,.5,0,1.7.4,2.2.8.5.4,0,1.2-.6.8-.4-.3-1.3-.6-1.8-.7,0,1.3,0,2.6,0,3.3Z"/>
          <path class="cls-1" d="M105.1,8.5c1.3-.6,2.2-2,2.1-3.7,0-.7.9-.7.9,0,0,1.7-.7,3.6-2.5,4.6-.7.4-1.2-.5-.5-.8ZM109.8,8.9c-.6.3-1.2,0-1.2-.7,0-.8.1-3,.1-3.5s.9-.7.9,0c0,.4-.1,2.8-.1,3.1,0,.2.1.2.3.1.8-.4,1.5-1.3,2-2.3.3-.6,1.1-.1.8.5-.6,1.1-1.6,2.3-2.9,2.9Z"/>
        </g>
        <rect class="cls-3" width="126" height="12.6" rx="4.9" ry="4.9"/>
        <g>
          <path class="cls-2" d="M13.7,10.2c-.3,0-.5-.2-.5-.5s0-.2.1-.3c1.4-1.4,1.4-3.1,1.4-4.8s0-1.3,0-1.8h0c0-.3.2-.4.4-.4s.5.1.5.4c0,.2,0,.4,0,.7,0,.6,0,1.3,0,1.8,0,1.3-.2,3.2-1.5,4.6-.1.1-.2.2-.4.2ZM17.1,3.1c0-.3.2-.4.4-.4s.5.1.5.4v6c0,.2-.2.4-.5.4s-.4-.1-.4-.4V3.1ZM19.7,2.9c0-.3.2-.4.4-.4s.5.1.5.4v7c0,.2-.2.4-.5.4s-.5-.1-.5-.4V2.9Z"/>
          <path class="cls-2" d="M25,7.3v1.7c.5.2,1.1.3,2.4.3s2,0,2.8-.1h0c.2,0,.4.2.4.4s-.1.4-.4.5c-.6,0-1.4.1-2.1.1-1.9,0-3.6-.2-4.5-1.4-.3,1.2-.5,1.3-.8,1.3s-.4-.1-.4-.3,0-.1,0-.2c.4-.8.6-1.9.6-2.8s.2-.3.4-.3.4.1.4.3,0,1,0,1c0,.3.2.5.4.6v-2.6h-1.2c-.2,0-.4-.2-.4-.3s.1-.4.4-.4h1.2v-.8h-.9c-.3,0-.4-.2-.4-.3s.1-.4.4-.4h.9v-.9c0-.2.2-.4.4-.4s.4.1.4.4v.9h.7c.2,0,.4.2.4.4s-.1.4-.4.4h-.8v.8h1c.2,0,.3.2.3.3s-.1.3-.3.3h-1v.8h.8c.2,0,.3.2.3.3s-.1.3-.3.3h-.8ZM28.7,4.6c0,.7,0,1.4.2,2,.2-.4.4-.9.5-1.5,0-.2.2-.2.3-.2.2,0,.4.2.4.4s-.2,1.1-.9,2.1c0,.1.3.5.5.5s.2-.2.3-.5c0-.2.2-.3.3-.3.2,0,.4.2.4.4s-.3,1.3-1.1,1.3-.9-.5-1-.8c-.8.8-1.6,1-1.7,1-.2,0-.4-.2-.4-.3s0-.3.3-.4c.6-.2,1.1-.5,1.4-1-.3-.8-.4-1.8-.4-2.7h-.3c-.3,0-.3.1-.3.3,0,.4,0,.9,0,1.4v.6c.1,0,.2-.1.3-.2,0,0,.1,0,.2,0,.2,0,.3.2.3.3s0,.2-.2.3c-.9.6-1.8,1-2,1s-.3-.2-.3-.4,0-.3.3-.4c.2,0,.5-.1.7-.3v-.8c0-.7,0-1.3,0-1.9,0-.4.2-.8.9-.8.2,0,.3,0,.5,0,0-.4,0-.8,0-1.2h0c0-.2.2-.4.4-.4s.4.1.4.4c0,.4,0,.8,0,1.2.4,0,.8,0,1.2,0,.2,0,.4.2.4.4s-.1.4-.4.4h-1.2ZM29.5,3.6c-.2-.3-.4-.4-.5-.5,0,0-.1-.1-.1-.2,0-.2.2-.3.4-.3s.9.4.9.8-.2.4-.4.4-.2,0-.2-.1Z"/>
          <path class="cls-2" d="M38.9,4.2c-.7,0-2.1,0-3.3,0s-1.3,0-1.7,0-.4.2-.4.4c0,1.7.1,3.9-.9,5.2-.1.2-.3.2-.4.2-.2,0-.5-.2-.5-.4s0-.1,0-.2c.8-.9.9-2.3.9-3.5s0-.9,0-1.3h0c0-.8.4-1.1,1.2-1.2.4,0,1,0,1.6,0v-.7c0-.3.2-.4.5-.4s.5.1.5.4v.7c1,0,2,0,2.6,0,.3,0,.4.2.4.4s-.1.4-.4.4h0ZM36.6,6.2v1c.4,0,.8,0,1.2,0,.5,0,.9.4.9.8,0,.2,0,.4,0,.5s0,.4,0,.6c0,.5-.4.9-1,.9-.5,0-1,0-1.5,0s-1,0-1.4,0c-.6,0-1-.4-1-.9,0-.2,0-.4,0-.5,0-.2,0-.4,0-.6,0-.4.3-.8,1-.9.3,0,.6,0,.9,0v-2.5c0-.3.2-.4.4-.4s.4.1.4.4v.7s2.2,0,2.2,0c.3,0,.4.2.4.4s-.1.4-.4.4h-2.2ZM37.9,8.6c0-.5,0-.7-.4-.7-.3,0-.7,0-1.1,0s-.9,0-1.3,0c-.3,0-.4.2-.4.7s0,.2,0,.3c0,.4.2.4,1.6.4s1.5,0,1.5-.4c0-.1,0-.2,0-.3Z"/>
          <path class="cls-2" d="M48.2,5.5c.6,0,.8-.4.8-.9s-.4-.8-.9-.8-.7.2-1,.5c0,0-.2.1-.3.1-.3,0-.5-.2-.5-.5,0-.5,1-1,1.8-1,1.2,0,1.9.7,1.9,1.8s-.3,1.1-.7,1.3c1.1.5,1.1,1.6,1.1,1.8,0,1.3-1,2.2-2.4,2.2s-2.2-.8-2.2-1.2.3-.5.5-.5.2,0,.4.2c.4.5.7.6,1.3.6s1.3-.5,1.3-1.2-.6-1.2-1.2-1.2h0c0,0-.1,0-.1,0-.3,0-.5-.2-.5-.5s.2-.5.5-.5h.3Z"/>
          <path class="cls-2" d="M52.2,10.3c-.2,0-.4-.1-.4-.4,0-1.7,0-4.7,0-6.6,0-.9.5-.9,1.3-.9s.3,0,.5,0c.5,0,.8.3.8.7s0,.4-.5,1.4c0,.1,0,.2,0,.3,0,.1,0,.3.2.4.3.4.4.8.4,1.4s-.4,1.4-1.1,1.4-.6,0-.6-.4.1-.4.3-.4,0,0,0,0c0,0,0,0,.1,0,0,0,.4,0,.4-.7s0-.7-.3-1c-.2-.3-.3-.5-.3-.8s0-.3.1-.6c0-.2.3-.8.3-1s-.1-.2-.4-.2c-.3,0-.5,0-.5.3,0,.8,0,1.9,0,3.1v3.4c0,.3-.2.4-.4.4ZM55.5,4.2v1c.3,0,.7-.2,1-.3,0,0,0,0,.1,0,.2,0,.3.2.3.3s0,.2-.2.3c-.7.4-1.7.6-1.9.6s-.4-.2-.4-.4,0-.3.2-.3h.1v-2.6c0-.3.2-.4.4-.4s.4.1.4.4v.7h.9c.2,0,.4.2.4.4s-.1.4-.4.4h-.9ZM57.9,6.6c.5,0,.9.4.9.8,0,.4,0,1,0,1.5s0,.3,0,.4c0,.5-.4.8-.9.9-.3,0-.7,0-1.1,0s-.7,0-1,0c-.6,0-.9-.4-1-.9,0-.1,0-.3,0-.4,0-.5,0-1,0-1.4,0-.8.7-.9,1.3-.9,0-.2,0-.4,0-.6,0-.2.2-.3.4-.3s.4.1.4.4,0,.4,0,.5c.4,0,.7,0,1,0ZM55.6,8.6c0,.2,0,.3,0,.4,0,.4.3.4,1.2.4s.6,0,.8,0c.4,0,.4-.2.4-.8h-2.4ZM58,7.9c0-.1,0-.2,0-.3,0-.4-.1-.4-1.2-.4s-.6,0-.8,0c-.4,0-.4.3-.4.7h2.4ZM57.7,5c0,.2.1.3.5.3s.6-.2.6-.6.2-.4.4-.4.4,0,.4.4c0,1-.5,1.3-1.4,1.3s-1.2-.2-1.2-1,0-1.7,0-2.3c0-.2.2-.4.4-.4s.4.1.4.4h0c0,.2,0,.5,0,.8.3-.1.7-.3.9-.5,0,0,.1,0,.2,0,.2,0,.4.2.4.5s0,.2-.2.3c-.4.3-1,.5-1.4.6v.6Z"/>
          <path class="cls-2" d="M64.6,5.6c-.9,0-1.8,0-2.7,0-.1,0-.2-.1-.2-.3s0-.3.2-.3c.9,0,1.8,0,2.7,0s1.8,0,2.8,0c.2,0,.2.1.2.3s0,.3-.2.3c-.9,0-1.8,0-2.8,0ZM64.6,7.3c-.9,0-1.8,0-2.7,0-.1,0-.2-.1-.2-.3s0-.3.2-.3c.9,0,1.8,0,2.7,0s1.8,0,2.8,0c.2,0,.2.1.2.3s0,.3-.2.3c-.9,0-1.8,0-2.8,0Z"/>
          <path class="cls-2" d="M70.9,9.9c-.4.2-.7.1-.9,0-.2-.2-.1-.5.2-.7,1.5-.8,2-2.3,1.9-3.6,0-.4.2-.6.5-.6s.6.1.5.5c0,.1,0,.2,0,.3,0,0,0,0,0,0,.6-.2,1.3-.7,1.7-1.1.1-.2.1-.3-.1-.3-1,0-3,0-4.3,0-.8,0-.8-.8,0-.9,1.3,0,3.3,0,4.7,0s1.4.8.7,1.5c-.6.7-1.3,1.3-2.3,1.6-.2,0-.4,0-.5,0-.2,1.4-.9,2.5-2.3,3.3Z"/>
          <path class="cls-2" d="M79.6,5.8c-.3-.3-.9-.6-1.3-.7-.5-.1-.3-1,.4-.9.5.1,1.2.4,1.6.7.3.2.3.5.1.8-.1.2-.5.3-.7,0ZM79,9.6c-.8.2-1.1-.8-.3-1,1.8-.5,3.7-2.3,4.6-4.1.3-.6,1.2-.2.8.5-1.1,2-3,3.9-5.1,4.6Z"/>
          <path class="cls-2" d="M86,9.9c-.7.3-1.1-.6-.4-.8,1.3-.4,2.3-1.2,3-2.1-.3-.2-.7-.4-1-.4-.5-.1-.3-.9.4-.7.3,0,.7.3,1.1.5.3-.4.6-.9.8-1.3.2-.4.1-.4,0-.4-.4,0-1.3,0-1.6.1-.6.8-1.5,1.8-2.1,2.2-.6.4-1.1-.4-.5-.8.9-.5,2.1-2.1,2.4-2.9.3-.8,1.3-.2.9.3,0,0,0,.2-.2.2.4,0,.9,0,1.4,0,.9,0,1.1.6.7,1.3-.3.6-.7,1.2-1,1.7.3.2.5.4.7.6.2.2.1.5,0,.7-.2.2-.4.2-.6,0-.1-.1-.3-.3-.5-.5-.8,1-1.8,1.8-3.4,2.4Z"/>
          <path class="cls-2" d="M93.2,8.2c-.8.5-1.3-.4-.7-.7,1.7-.8,3.4-2.5,4.4-4.1.4-.6,1.2,0,.8.5-.4.5-.8,1-1.2,1.5,0,.9,0,3.3,0,4.2,0,.7-1,.8-1,0,0-.7,0-2.2,0-3.3-.7.7-1.5,1.3-2.4,1.9Z"/>
          <path class="cls-2" d="M101.2,9.6c0,.7-1,.8-1,0,0-1.5,0-5,0-6.4,0-.6,1-.6.9,0,0,.4,0,1.2,0,2.1,0,0,0,0,.2,0,.5,0,1.7.4,2.2.8.5.4,0,1.2-.6.8-.4-.3-1.3-.6-1.8-.7,0,1.3,0,2.6,0,3.3Z"/>
          <path class="cls-2" d="M105.1,8.5c1.3-.6,2.2-2,2.1-3.7,0-.7.9-.7.9,0,0,1.7-.7,3.6-2.5,4.6-.7.4-1.2-.5-.5-.8ZM109.8,8.9c-.6.3-1.2,0-1.2-.7,0-.8.1-3,.1-3.5s.9-.7.9,0c0,.4-.1,2.8-.1,3.1,0,.2.1.2.3.1.8-.4,1.5-1.3,2-2.3.3-.6,1.1-.1.8.5-.6,1.1-1.6,2.3-2.9,2.9Z"/>
        </g>
      </g>
    </g>
  </g>
</svg>