<?xml version="1.0" encoding="UTF-8"?>
<svg xmlns="http://www.w3.org/2000/svg" width="126" height="12.6" version="1.1" viewBox="0 0 126 12.6">
  <defs>
    <style>
      .cls-1 {
        fill: #251e1c;
      }

      .cls-2 {
        fill: #fff;
      }

      .cls-3 {
        fill: #e5b3ab;
      }
    </style>
  </defs>
  <!-- Generator: Adobe Illustrator 28.7.5, SVG Export Plug-In . SVG Version: 1.2.0 Build 176)  -->
  <g>
    <g id="_アートボード" data-name="アートボード">
      <g>
        <g>
          <path class="cls-1" d="M19,9.9c-.3,0-.4-.2-.4-.4s.1-.4.4-.4h2.8V2.9c0-.3.2-.4.5-.4s.5.1.5.4v2.3h2.5c.3,0,.4.2.4.4s-.1.4-.4.4h-2.5v3h3.2c.3,0,.4.2.4.4s-.1.4-.4.4h-7Z"/>
          <path class="cls-1" d="M29.4,5.1c0,1.8-.1,3.6-1.1,4.8-.1.2-.3.3-.5.3-.2,0-.4-.2-.4-.4s0-.2.1-.3c.8-1.1,1-2.6,1-4.1s0-1.3,0-1.9h0c0-.5.3-.9.9-.9.6,0,1.3,0,2.1,0s1.6,0,2.2,0c1,0,1,.6,1,1.1s0,1-1,1c-.8,0-1.8,0-2.9,0s-.8,0-1.3,0v.4ZM32.1,8.5v.5c0,.3.1.4,1.1.4s1.1-.1,1.1-.6.2-.4.4-.4.5,0,.5.4c0,1.3-1.2,1.3-2.2,1.3s-1.8,0-1.8-1,0-.3,0-.5l-1.7.2h0c-.2,0-.4-.2-.4-.4s.1-.3.3-.4l1.8-.2v-.6l-1.4.2h0c-.2,0-.4-.2-.4-.3s.1-.4.3-.4l1.5-.2v-.5c-1.1.1-1.3.1-1.3.1-.2,0-.4-.2-.4-.4s0-.3.3-.4c1.1,0,2.2-.2,3.4-.5,0,0,0,0,.1,0,.3,0,.4.2.4.4,0,.3-.3.4-1.8.6v.6s2-.2,2-.2h0c.2,0,.4.2.4.4s-.1.3-.3.4l-2.1.2v.6l2.4-.3h0c.2,0,.4.2.4.4s-.1.3-.3.4l-2.5.3ZM29.3,3.9c.5,0,1,0,1.5,0,.9,0,1.8,0,2.5,0,.2,0,.3-.1.3-.2v-.2q0-.2-2-.2c-.7,0-1.4,0-1.9,0-.2,0-.4.2-.4.4v.3Z"/>
          <path class="cls-1" d="M43.8,4.2c-.7,0-2.1,0-3.3,0s-1.3,0-1.7,0-.4.2-.4.4c0,1.7.1,3.9-.9,5.2-.1.2-.3.2-.4.2-.2,0-.5-.2-.5-.4s0-.1,0-.2c.8-.9.9-2.3.9-3.5s0-.9,0-1.3h0c0-.8.4-1.1,1.2-1.2.4,0,1,0,1.6,0v-.7c0-.3.2-.4.5-.4s.5.1.5.4v.7c1,0,2,0,2.6,0,.3,0,.4.2.4.4s-.1.4-.4.4h0ZM41.5,6.2v1c.4,0,.8,0,1.2,0,.5,0,.9.4.9.8,0,.2,0,.4,0,.5s0,.4,0,.6c0,.5-.4.9-1,.9-.5,0-1,0-1.5,0s-1,0-1.4,0c-.6,0-1-.4-1-.9,0-.2,0-.4,0-.5,0-.2,0-.4,0-.6,0-.4.3-.8,1-.9.3,0,.6,0,.9,0v-2.5c0-.3.2-.4.4-.4s.4.1.4.4v.7s2.2,0,2.2,0c.3,0,.4.2.4.4s-.1.4-.4.4h-2.2ZM42.8,8.6c0-.5,0-.7-.4-.7-.3,0-.7,0-1.1,0s-.9,0-1.3,0c-.3,0-.4.2-.4.7s0,.2,0,.3c0,.4.2.4,1.6.4s1.5,0,1.5-.4c0-.1,0-.2,0-.3Z"/>
          <path class="cls-1" d="M51.3,9.7c-.3,0-.5-.2-.5-.5s0-.4.3-.6c.6-.7,1.7-1.8,2.5-2.8.4-.4.5-.8.5-1.2,0-.6-.4-.9-.9-.9s-.8.2-1.1.7c-.1.2-.3.3-.5.3-.3,0-.5-.2-.5-.5s.7-1.4,2.1-1.4,2.1.7,2.1,1.7-.2,1.1-.8,1.8c-.7.9-1.6,1.6-2.3,2.5.8,0,1.8,0,2.5,0s.5.2.5.5-.2.5-.6.5h-3.3Z"/>
          <path class="cls-1" d="M57.1,10.3c-.2,0-.4-.1-.4-.4,0-1.7,0-4.7,0-6.6,0-.9.5-.9,1.3-.9s.3,0,.5,0c.5,0,.8.3.8.7s0,.4-.5,1.4c0,.1,0,.2,0,.3,0,.1,0,.3.2.4.3.4.4.8.4,1.4s-.4,1.4-1.1,1.4-.6,0-.6-.4.1-.4.3-.4,0,0,0,0c0,0,0,0,.1,0,0,0,.4,0,.4-.7s0-.7-.3-1c-.2-.3-.3-.5-.3-.8s0-.3.1-.6c0-.2.3-.8.3-1s-.1-.2-.4-.2c-.3,0-.5,0-.5.3,0,.8,0,1.9,0,3.1v3.4c0,.3-.2.4-.4.4ZM60.4,4.2v1c.3,0,.7-.2,1-.3,0,0,0,0,.1,0,.2,0,.3.2.3.3s0,.2-.2.3c-.7.4-1.7.6-1.9.6s-.4-.2-.4-.4,0-.3.2-.3h.1v-2.6c0-.3.2-.4.4-.4s.4.1.4.4v.7h.9c.2,0,.4.2.4.4s-.1.4-.4.4h-.9ZM62.8,6.6c.5,0,.9.4.9.8,0,.4,0,1,0,1.5s0,.3,0,.4c0,.5-.4.8-.9.9-.3,0-.7,0-1.1,0s-.7,0-1,0c-.6,0-.9-.4-1-.9,0-.1,0-.3,0-.4,0-.5,0-1,0-1.4,0-.8.7-.9,1.3-.9,0-.2,0-.4,0-.6,0-.2.2-.3.4-.3s.4.1.4.4,0,.4,0,.5c.4,0,.7,0,1,0ZM60.5,8.6c0,.2,0,.3,0,.4,0,.4.3.4,1.2.4s.6,0,.8,0c.4,0,.4-.2.4-.8h-2.4ZM62.9,7.9c0-.1,0-.2,0-.3,0-.4-.1-.4-1.2-.4s-.6,0-.8,0c-.4,0-.4.3-.4.7h2.4ZM62.6,5c0,.2.1.3.5.3s.6-.2.6-.6.2-.4.4-.4.4,0,.4.4c0,1-.5,1.3-1.4,1.3s-1.2-.2-1.2-1,0-1.7,0-2.3c0-.2.2-.4.4-.4s.4.1.4.4h0c0,.2,0,.5,0,.8.3-.1.7-.3.9-.5,0,0,.1,0,.2,0,.2,0,.4.2.4.5s0,.2-.2.3c-.4.3-1,.5-1.4.6v.6Z"/>
          <path class="cls-1" d="M69.5,5.6c-.9,0-1.8,0-2.7,0-.1,0-.2-.1-.2-.3s0-.3.2-.3c.9,0,1.8,0,2.7,0s1.8,0,2.8,0c.2,0,.2.1.2.3s0,.3-.2.3c-.9,0-1.8,0-2.8,0ZM69.5,7.3c-.9,0-1.8,0-2.7,0-.1,0-.2-.1-.2-.3s0-.3.2-.3c.9,0,1.8,0,2.7,0s1.8,0,2.8,0c.2,0,.2.1.2.3s0,.3-.2.3c-.9,0-1.8,0-2.8,0Z"/>
          <path class="cls-1" d="M75.9,7.2c-.2,0-.5-.2-.5-.5,0-.9,0-2.3,0-3.2,0-.6.9-.6.9,0,0,.8,0,2.4,0,3.2,0,.3-.2.5-.5.5ZM76,9.4c1.6-.9,2-2.1,2-3.5s0-1.8,0-2.6,1-.6,1,0c0,.8,0,1.8,0,2.5,0,1.6-.5,3.1-2.4,4.2-.7.4-1.1-.4-.6-.7Z"/>
          <path class="cls-1" d="M81.9,8.9c2-.6,3.2-2.3,3.6-3.6,0-.2,0-.5-.3-.5-.9,0-2.3,0-3.6,0-.6,0-.7-.9,0-.9,1.2,0,2.9,0,4.1,0,.7,0,1.3.6,1,1.3-.6,1.8-1.7,3.6-4.3,4.6-.8.3-1.1-.7-.4-.9Z"/>
          <path class="cls-1" d="M90.1,9.2c-.6.3-1.4.1-1.4-.8,0-1,0-3.2,0-3.9,0-.7.9-.6,1,0,0,.6,0,2.7,0,3.4,0,.3.2.3.4.2,1.4-.7,2.7-2,3.3-3,.4-.6,1.2,0,.8.5-.7,1.1-2.6,2.8-4.1,3.6Z"/>
          <path class="cls-1" d="M99.4,3.9c.4,0,.8,0,1.2,0,.7,0,1.3.5,1,1.1-1.1,2.1-2.4,4-4.9,5-.8.3-1.1-.6-.4-.9,2-.7,3.5-2.5,4.2-4.1,0-.2,0-.3-.2-.3-.4,0-1,0-1.5.1-.6.8-1.4,1.8-2,2.2-.6.4-1.1-.4-.5-.8.9-.5,2.1-2.2,2.5-2.9.3-.5,1.2,0,.8.5h0Z"/>
          <path class="cls-1" d="M104.9,9.6c0,.7-1,.8-1,0,0-1.5,0-5,0-6.4,0-.6,1-.6.9,0,0,.4,0,1.2,0,2.1,0,0,0,0,.2,0,.5,0,1.7.4,2.2.8.5.4,0,1.2-.6.8-.4-.3-1.3-.6-1.8-.7,0,1.3,0,2.6,0,3.3Z"/>
        </g>
        <rect class="cls-3" width="126" height="12.6" rx="4.9" ry="4.9"/>
        <g>
          <path class="cls-2" d="M19,9.9c-.3,0-.4-.2-.4-.4s.1-.4.4-.4h2.8V2.9c0-.3.2-.4.5-.4s.5.1.5.4v2.3h2.5c.3,0,.4.2.4.4s-.1.4-.4.4h-2.5v3h3.2c.3,0,.4.2.4.4s-.1.4-.4.4h-7Z"/>
          <path class="cls-2" d="M29.4,5.1c0,1.8-.1,3.6-1.1,4.8-.1.2-.3.3-.5.3-.2,0-.4-.2-.4-.4s0-.2.1-.3c.8-1.1,1-2.6,1-4.1s0-1.3,0-1.9h0c0-.5.3-.9.9-.9.6,0,1.3,0,2.1,0s1.6,0,2.2,0c1,0,1,.6,1,1.1s0,1-1,1c-.8,0-1.8,0-2.9,0s-.8,0-1.3,0v.4ZM32.1,8.5v.5c0,.3.1.4,1.1.4s1.1-.1,1.1-.6.2-.4.4-.4.5,0,.5.4c0,1.3-1.2,1.3-2.2,1.3s-1.8,0-1.8-1,0-.3,0-.5l-1.7.2h0c-.2,0-.4-.2-.4-.4s.1-.3.3-.4l1.8-.2v-.6l-1.4.2h0c-.2,0-.4-.2-.4-.3s.1-.4.3-.4l1.5-.2v-.5c-1.1.1-1.3.1-1.3.1-.2,0-.4-.2-.4-.4s0-.3.3-.4c1.1,0,2.2-.2,3.4-.5,0,0,0,0,.1,0,.3,0,.4.2.4.4,0,.3-.3.4-1.8.6v.6s2-.2,2-.2h0c.2,0,.4.2.4.4s-.1.3-.3.4l-2.1.2v.6l2.4-.3h0c.2,0,.4.2.4.4s-.1.3-.3.4l-2.5.3ZM29.3,3.9c.5,0,1,0,1.5,0,.9,0,1.8,0,2.5,0,.2,0,.3-.1.3-.2v-.2q0-.2-2-.2c-.7,0-1.4,0-1.9,0-.2,0-.4.2-.4.4v.3Z"/>
          <path class="cls-2" d="M43.8,4.2c-.7,0-2.1,0-3.3,0s-1.3,0-1.7,0-.4.2-.4.4c0,1.7.1,3.9-.9,5.2-.1.2-.3.2-.4.2-.2,0-.5-.2-.5-.4s0-.1,0-.2c.8-.9.9-2.3.9-3.5s0-.9,0-1.3h0c0-.8.4-1.1,1.2-1.2.4,0,1,0,1.6,0v-.7c0-.3.2-.4.5-.4s.5.1.5.4v.7c1,0,2,0,2.6,0,.3,0,.4.2.4.4s-.1.4-.4.4h0ZM41.5,6.2v1c.4,0,.8,0,1.2,0,.5,0,.9.4.9.8,0,.2,0,.4,0,.5s0,.4,0,.6c0,.5-.4.9-1,.9-.5,0-1,0-1.5,0s-1,0-1.4,0c-.6,0-1-.4-1-.9,0-.2,0-.4,0-.5,0-.2,0-.4,0-.6,0-.4.3-.8,1-.9.3,0,.6,0,.9,0v-2.5c0-.3.2-.4.4-.4s.4.1.4.4v.7s2.2,0,2.2,0c.3,0,.4.2.4.4s-.1.4-.4.4h-2.2ZM42.8,8.6c0-.5,0-.7-.4-.7-.3,0-.7,0-1.1,0s-.9,0-1.3,0c-.3,0-.4.2-.4.7s0,.2,0,.3c0,.4.2.4,1.6.4s1.5,0,1.5-.4c0-.1,0-.2,0-.3Z"/>
          <path class="cls-2" d="M51.3,9.7c-.3,0-.5-.2-.5-.5s0-.4.3-.6c.6-.7,1.7-1.8,2.5-2.8.4-.4.5-.8.5-1.2,0-.6-.4-.9-.9-.9s-.8.2-1.1.7c-.1.2-.3.3-.5.3-.3,0-.5-.2-.5-.5s.7-1.4,2.1-1.4,2.1.7,2.1,1.7-.2,1.1-.8,1.8c-.7.9-1.6,1.6-2.3,2.5.8,0,1.8,0,2.5,0s.5.2.5.5-.2.5-.6.5h-3.3Z"/>
          <path class="cls-2" d="M57.1,10.3c-.2,0-.4-.1-.4-.4,0-1.7,0-4.7,0-6.6,0-.9.5-.9,1.3-.9s.3,0,.5,0c.5,0,.8.3.8.7s0,.4-.5,1.4c0,.1,0,.2,0,.3,0,.1,0,.3.2.4.3.4.4.8.4,1.4s-.4,1.4-1.1,1.4-.6,0-.6-.4.1-.4.3-.4,0,0,0,0c0,0,0,0,.1,0,0,0,.4,0,.4-.7s0-.7-.3-1c-.2-.3-.3-.5-.3-.8s0-.3.1-.6c0-.2.3-.8.3-1s-.1-.2-.4-.2c-.3,0-.5,0-.5.3,0,.8,0,1.9,0,3.1v3.4c0,.3-.2.4-.4.4ZM60.4,4.2v1c.3,0,.7-.2,1-.3,0,0,0,0,.1,0,.2,0,.3.2.3.3s0,.2-.2.3c-.7.4-1.7.6-1.9.6s-.4-.2-.4-.4,0-.3.2-.3h.1v-2.6c0-.3.2-.4.4-.4s.4.1.4.4v.7h.9c.2,0,.4.2.4.4s-.1.4-.4.4h-.9ZM62.8,6.6c.5,0,.9.4.9.8,0,.4,0,1,0,1.5s0,.3,0,.4c0,.5-.4.8-.9.9-.3,0-.7,0-1.1,0s-.7,0-1,0c-.6,0-.9-.4-1-.9,0-.1,0-.3,0-.4,0-.5,0-1,0-1.4,0-.8.7-.9,1.3-.9,0-.2,0-.4,0-.6,0-.2.2-.3.4-.3s.4.1.4.4,0,.4,0,.5c.4,0,.7,0,1,0ZM60.5,8.6c0,.2,0,.3,0,.4,0,.4.3.4,1.2.4s.6,0,.8,0c.4,0,.4-.2.4-.8h-2.4ZM62.9,7.9c0-.1,0-.2,0-.3,0-.4-.1-.4-1.2-.4s-.6,0-.8,0c-.4,0-.4.3-.4.7h2.4ZM62.6,5c0,.2.1.3.5.3s.6-.2.6-.6.2-.4.4-.4.4,0,.4.4c0,1-.5,1.3-1.4,1.3s-1.2-.2-1.2-1,0-1.7,0-2.3c0-.2.2-.4.4-.4s.4.1.4.4h0c0,.2,0,.5,0,.8.3-.1.7-.3.9-.5,0,0,.1,0,.2,0,.2,0,.4.2.4.5s0,.2-.2.3c-.4.3-1,.5-1.4.6v.6Z"/>
          <path class="cls-2" d="M69.5,5.6c-.9,0-1.8,0-2.7,0-.1,0-.2-.1-.2-.3s0-.3.2-.3c.9,0,1.8,0,2.7,0s1.8,0,2.8,0c.2,0,.2.1.2.3s0,.3-.2.3c-.9,0-1.8,0-2.8,0ZM69.5,7.3c-.9,0-1.8,0-2.7,0-.1,0-.2-.1-.2-.3s0-.3.2-.3c.9,0,1.8,0,2.7,0s1.8,0,2.8,0c.2,0,.2.1.2.3s0,.3-.2.3c-.9,0-1.8,0-2.8,0Z"/>
          <path class="cls-2" d="M75.9,7.2c-.2,0-.5-.2-.5-.5,0-.9,0-2.3,0-3.2,0-.6.9-.6.9,0,0,.8,0,2.4,0,3.2,0,.3-.2.5-.5.5ZM76,9.4c1.6-.9,2-2.1,2-3.5s0-1.8,0-2.6,1-.6,1,0c0,.8,0,1.8,0,2.5,0,1.6-.5,3.1-2.4,4.2-.7.4-1.1-.4-.6-.7Z"/>
          <path class="cls-2" d="M81.9,8.9c2-.6,3.2-2.3,3.6-3.6,0-.2,0-.5-.3-.5-.9,0-2.3,0-3.6,0-.6,0-.7-.9,0-.9,1.2,0,2.9,0,4.1,0,.7,0,1.3.6,1,1.3-.6,1.8-1.7,3.6-4.3,4.6-.8.3-1.1-.7-.4-.9Z"/>
          <path class="cls-2" d="M90.1,9.2c-.6.3-1.4.1-1.4-.8,0-1,0-3.2,0-3.9,0-.7.9-.6,1,0,0,.6,0,2.7,0,3.4,0,.3.2.3.4.2,1.4-.7,2.7-2,3.3-3,.4-.6,1.2,0,.8.5-.7,1.1-2.6,2.8-4.1,3.6Z"/>
          <path class="cls-2" d="M99.4,3.9c.4,0,.8,0,1.2,0,.7,0,1.3.5,1,1.1-1.1,2.1-2.4,4-4.9,5-.8.3-1.1-.6-.4-.9,2-.7,3.5-2.5,4.2-4.1,0-.2,0-.3-.2-.3-.4,0-1,0-1.5.1-.6.8-1.4,1.8-2,2.2-.6.4-1.1-.4-.5-.8.9-.5,2.1-2.2,2.5-2.9.3-.5,1.2,0,.8.5h0Z"/>
          <path class="cls-2" d="M104.9,9.6c0,.7-1,.8-1,0,0-1.5,0-5,0-6.4,0-.6,1-.6.9,0,0,.4,0,1.2,0,2.1,0,0,0,0,.2,0,.5,0,1.7.4,2.2.8.5.4,0,1.2-.6.8-.4-.3-1.3-.6-1.8-.7,0,1.3,0,2.6,0,3.3Z"/>
        </g>
      </g>
    </g>
  </g>
</svg>