<?xml version="1.0" encoding="UTF-8"?>
<svg xmlns="http://www.w3.org/2000/svg" width="147.4mm" height="36.8mm" version="1.1" viewBox="0 0 417.8 104.3">
  <defs>
    <style>
      .cls-1, .cls-2 {
        fill: none;
      }

      .cls-3 {
        fill: #2a2e3c;
      }

      .cls-4 {
        fill: #95969e;
      }

      .cls-2 {
        stroke: #cab699;
        stroke-miterlimit: 4;
        stroke-width: 1.1px;
      }

      .cls-5 {
        fill: #cab699;
      }

      .cls-6 {
        fill: #f29b8f;
      }

      .cls-7 {
        display: none;
      }
    </style>
  </defs>
  <!-- Generator: Adobe Illustrator 28.7.5, SVG Export Plug-In . SVG Version: 1.2.0 Build 176)  -->
  <g>
    <g id="_レイヤー_1" data-name="レイヤー_1">
      <g>
        <g id="_レイヤー_1-2" data-name="_レイヤー_1">
          <g id="_レイヤー_1-2">
            <g>
              <g id="_レイヤー_1-2-2" data-name="_レイヤー_1-2">
                <g id="_文字">
                  <g>
                    <g>
                      <path class="cls-5" d="M27.2,41c1.6,0,1.9-.2,2.2-.8.3-.5.6-.7,1.4-.4.9.3,3.8,1.8,3.8,2.9s-.4.8-1.7,1.3c-1.1.3-1.6.5-2,.3-.8-.2-2-.8-3.4-.8h-9.9c-3.6,0-.7.6-1.1,1.7-.7,2-4.8,13.5-5,14.2-.2.8,0,.9.7.9s8.8-.4,14.7-.6h6.3c.7,0,1,.3.5.8s-.9.7-2.4,1.1c-1.1.2-4.7.7-7.3,1-4.4.3-7.9.6-11.7,1.1-1.9.2-2.2.8-2.9,2.2-1.2,3.3-2.1,5.4-3.1,8.2-.5,1.1-.4,1.8.5,2.2,1.3.5,4.6.5,5.9,0,1-.4,1.5,0,.4.9-1.6,1.5-4.9,2.6-7.4,2.6s-3.6-.4-4.6-1.2c-.6-.5-.8-1.1-.4-1.5.3-.3.9-.8,1.7-1.2.8-.6,1.1-1.1,1.5-2,.4-1.3,2.1-6.9,2.4-8.6.2-.8,0-1.3-.6-2.1-.9-.9-.4-1.5.8-2.1.8-.5,1.6-1,2-2.1.3-.6,4.2-11.9,4.8-14.6,0-.8,0-1.2-.6-1.2-1.5,0-2.5.6-3.3,1.4-.9.7-1.2.8-1.5.3-.3-.3-.2-1.1,0-1.7.3-.8,1-1.7,1.6-2.3,1.3-1.4,2.8-1.4,4-.6.5.3.6.2.7-.2,0-.3.2-.9.3-1.5.2-.7.5-.9,1-.9,1.5,0,2.6,1.9,2.3,2.9,0,.3.2.3.9.3h8.6v.2h-.1,0Z"/>
                      <path class="cls-5" d="M54.2,50.5c0,.3.3.4.7.3.5-.3.9-.3,1.4,0,.7.4.8,1.1.3,2.1-2.8,6-4.4,10.8-4.4,15.5s.4,8.1,2.9,8.1c4.5,0,11.7-9.5,14.5-13.4.5-.8,1.2-.7,1.2-.2s-.2,1.2-.6,2.2c-2.7,5.7-12.2,14.8-16.2,14.8s-4.2-2.7-4.5-6.2c-.2-2.1-.4-5.4-.4-6.4s-.2-.6-.6,0c-1.3,1.8-6.3,7.9-8.5,9.9-2,1.9-3.5,2.7-4.5,2.7s-3.2-.6-3.2-3.8.5-4.1,3.2-9.2c2.2-4.5,6.5-11.1,11-14.9,2.9-2.8,4.6-3.2,5.6-3.2s1.7.9,2.2,1.6h-.1ZM44.3,57.2c-4.7,5.6-7,12-8.1,15.6-.6,1.9-.2,3.2,1.1,3.2s2.1-1,3.8-2.7c1.5-1.5,4.5-5.2,7-8.9,1-1.5,3.1-5.8,3.3-6.5.3-.9.6-2.2.4-3.3-.2-1.2-.6-2-1.7-2s-3.6,1.9-5.8,4.6Z"/>
                      <path class="cls-5" d="M94.4,53.2c0,.3.2.7.6,1,1,.8,3.1,1.1,4.9,1.1,3.8,0,7.1-1.6,9.3-3.5.8-.8.9.5,0,1.6-2.5,3.1-6.7,4.4-10.6,4.4s-3.6-.3-4.3-.5c-.4,0-.6.2-.8.9-2.8,7.6-12.1,17.2-17,20-2.4,1.3-3.7,1.4-4.7,1.4s-3-1.5-2.6-5.7c.2-2.7.9-6.4,3.8-14.3.2-.5.4-1.2.6-1.8.2-.9.3-1.3.4-1.8.2-2,1.6-6.6,3.5-6.6s1.3,3,1.2,4.6c-.2,1.2-.7,2.1-1.3,3.1-1.8,3.3-3.2,6.3-4.8,13.1-1.1,4.7,0,5.7,1.3,5.7s2.3-.5,3.8-1.4c4.2-3,11.4-10.8,13.6-17.1.2-.9.2-1-.2-1.5-.7-.9-1.4-2.4-1.4-3.8s1.3-3.4,2.2-3.4c1.9,0,2.5,3.1,2.6,4.5h-.1Z"/>
                      <path class="cls-5" d="M102.9,64.1c1.2-2.4,4.9-8.1,5.8-9.3.6-1,.8-1.5.8-2.3,0-1.3.5-2,1.2-2.5.5-.7,1.2-.7,2.1-.7s1.1-.3,1.5-.7c.2-.7.9-1.1,1.7-1.1s1.6.4,1.6,1.4,0,1,.4,1.5c1.6,1.4,4.2,3.5,4.3,9.1,0,1.8-1.9,7.9-4.2,10.9-4.9,6.6-10.7,9-13.6,9s-4.1-2.3-4.1-4.7c0-3.6,1.7-8.5,2.6-10.6,0,0-.1,0-.1,0ZM106.1,76.2c1.7,0,4-.9,6.1-2.9,3-2.8,7.1-9.3,7-13.9,0-2.7-.4-6.5-4.2-6.4-1.4,0-2.5,1.2-4.6,3.8-2.1,2.5-7,10.5-6.9,16.4,0,1.8.9,3,2.5,3,0,0,.1,0,.1,0Z"/>
                      <path class="cls-5" d="M152.3,50c0,.9-.8,2.2-1.3,2.7-.6.6-1.2.5-1.7,0-.4-.3-1-.7-1.9-.7-1.3,0-3.1,2.3-4.9,4.4-4.9,5.9-7.9,12-12.2,21.5-.2.6-.7.7-1.1.7s-.9-.3-1-.7c-.4-.6,0-1.6.3-2.7,1.1-2.8,3.9-16.6,4.5-20.6.4-2.5.5-3.9.8-4.5.4-.7,1.7-2.4,2.4-2.4s1.5,1.6,1.4,2.4c0,.9-.3,1.5-.6,2-1.2,2.6-2.6,8.9-2.9,11.2,0,1.3.2,1.4.9,0,3-4.6,7.2-10.2,10.7-13.6,2.1-2.1,3.6-2.6,4.4-2.6,2,0,2.5,1.3,2.3,2.7h0v.2h0Z"/>
                      <path class="cls-5" d="M154.2,75.7c-.9-1.5-1.1-3.4-.6-5.2.5-1.6,2.4-8.3,3.4-11.6.2-.9.4-1.3.5-1.7,0-.7.2-1.4.6-2.3,1.1-2.4,4.4-7.9,5.7-7.9s.6.2.8.6c.3.4.6,1.4-.3,2.9-3.1,5.3-6.6,14.9-7.7,19.8-.8,3.5.4,4.4,1.6,4.4,5.6,0,15.3-10,20.5-15.8.7-.8,1.2-.7,1.2-.2s0,1.2-.6,2.1c-3.8,5.9-13.1,13.5-17.7,15.9-2.4,1.3-3.4,1.6-4.1,1.7-1,0-2-.7-3.3-2.7h0ZM168.6,34c-.5,1.6-.7,4.4-.4,6,0,.9-.4,1-1.3.5-1-.7-1.2-1.4-1.5-2.4-.2-.9-.3-2-.3-2.8,0-2.8.9-3.1,2.1-3.2,1.3,0,1.9.7,1.5,1.9h-.1Z"/>
                      <path class="cls-5" d="M195.4,67.8c.8-.6,1.2,0,.6.8-1.3,1.4-5.3,5.1-12.2,8.2-1.2.5-2.1.7-2.8.7-1.4,0-4.4-1.2-4.5-4.3,0-1,.3-2.5,1-4.3.8-2.5,3.3-11.9,4.1-14,.3-.9,0-.9-.5-.8-1.3,0-3.6.5-4.3.6-.8,0-1.3,0-1.6-.3-.6-.5-.5-1.2,0-1.8.5-.5.9-.7,2.1-1,1.5-.3,3-.5,4.6-.7.9,0,1.2-.6,1.3-1.1.5-1.3,3-9.4,3.7-11.3.3-1,1.4-2.6,2.8-2.7.4,0,.8.2,1,.9.2.6.3,1.3-.2,2.3-2.4,5.2-3.8,9.7-4.1,10.5-.2.7,0,.8.8.7,1.8,0,9.5-1,15.7-1.2,1.7,0,.8,1.3-.7,1.6-2.7.6-7.6,1.4-16.2,2.8-.8,0-1,.2-1.3,1.1-1.6,4.5-3.8,12-4.3,15.3-.4,3.3.6,4.4,2.5,4.3,4.4,0,10.5-4.6,12.4-6.1h0v-.2h0Z"/>
                      <path class="cls-5" d="M206.6,54.8c1.5-2.6,6.3-9.5,9-9.6,1,0,1.5.8,1.3,1.4,0,.3,0,.6.8.7,1.5,0,2.8,1.2,2.9,3.4,0,2.4-.7,5.5-2.3,7.3-2.6,3-5.7,5.6-10,5.7-.7,0-1.3-.3-1.7-.7s-.4-.3-.7.3c-.4,1-.7,2.7-.6,4.5,0,3.9,2,5.7,5,5.6,6-.2,16.1-8.1,20-13.2.6-.7,1-.7,1.2-.2,0,.5,0,1.2-.7,2.1-4.7,6.9-14.7,14-21.6,14.3-2.8,0-6.9-1.3-7.1-7.7,0-4,1.8-9.5,4.5-14.1h0v.2h0ZM217.6,53.1c0-2.6-1.5-3.8-2.6-3.8-2.5,0-6.6,7-7.7,10.6-.2.4.3.7,1.4.6,5.2-.2,9-3.4,9-7.4h0Z"/>
                      <path class="cls-4" d="M274.3,47c.2,4.6-2.2,8.8-4.5,12.8-2.3,4.2-6.6,9.2-10.3,11.8-2.2,1.7-4.9,2.9-6.6,3-1.3,0-2.6-1.9-2.6-2.7s-.2-1.5-.6-2c-.5-.5-.5-1.1-.4-2,0-1.4,3.2-14.7,5.3-20.8,2.2-6.2,4.4-12.8,6.1-16.9.8-2.2,1-3.6,1.1-5,0-.9.3-1.5.8-2.1s1.7-1.8,2.4-1.8,1,1.4.7,3.1c-.2,1.2-2.3,6.7-5,13.5-1.8,4.6-4.5,12.9-4.9,14.3-.4,1.3,0,1.1.7,0,.9-1,5.2-5.6,7.6-7.2,2.3-1.5,4.8-2.6,6.3-2.6,2.5,0,3.8,3.3,3.8,4.4h0v.2h.1ZM254.7,70.8c1,0,3.2-1.1,6.1-3.5,6-4.7,10.6-16.3,10.5-19.1,0-1.2-.9-2.4-2.4-2.3-1.5,0-4.9,1.8-7.6,4.5-2.9,2.9-5.2,6.1-6.9,9.6-.9,1.8-2,5-1.9,8.2,0,2.1,1.1,2.6,2.2,2.6h0Z"/>
                      <path class="cls-4" d="M302,43.6c0,1-.7,2.2-1.2,2.7-.6.6-1.2.6-1.7.2-.5-.3-1.1-.7-1.9-.7-1.3,0-3.1,2.4-4.7,4.6-4.7,6-7.5,12.2-11.5,21.9-.2.6-.6.7-1.1.7s-.9-.3-1.1-.7c-.4-.6-.2-1.6.2-2.7,1-2.8,3.3-16.7,3.8-20.8.3-2.5.4-3.9.7-4.5.4-.7,1.6-2.4,2.3-2.5.9,0,1.5,1.5,1.5,2.3s-.3,1.5-.5,2c-1.1,2.6-2.3,9-2.6,11.3,0,1.3.2,1.4,1,0,2.8-4.7,6.8-10.5,10.2-14,2-2.2,3.5-2.7,4.3-2.7,2,0,2.6,1.2,2.4,2.6h0v.2h0Z"/>
                      <path class="cls-4" d="M321.8,41.4c0,.2.4.4.7.2.5-.4.9-.4,1.4,0,.7.4.8,1.1.4,2-2.5,6.1-3.8,11-3.5,15.8.3,4.3.9,8.1,3.4,7.9,4.5-.3,11.1-10.2,13.7-14.3.5-.8,1.2-.8,1.2-.2s0,1.2-.5,2.2c-2.4,5.9-11.3,15.5-15.2,15.7-1.5,0-4.4-2.4-4.9-5.9-.3-2-.7-5.4-.7-6.3s-.2-.6-.6,0c-1.2,1.9-5.8,8.2-7.9,10.4-1.9,2-3.4,2.9-4.3,2.9s-3.2-.4-3.4-3.6c0-1.3.3-4.1,2.6-9.3,1.9-4.6,5.8-11.5,10.1-15.5,2.7-2.9,4.4-3.5,5.4-3.5s1.8.8,2.3,1.5c0,0-.2,0-.2,0ZM312.4,48.6c-4.4,5.9-6.3,12.4-7.2,16-.5,1.9,0,3.2,1.3,3.1.7,0,2-1.1,3.6-2.9,1.4-1.6,4.1-5.4,6.5-9.3.9-1.5,2.7-6,2.9-6.7.3-.9.5-2.2.2-3.3-.2-1.2-.7-1.9-1.8-1.9s-3.5,2.1-5.6,4.9h.1Z"/>
                      <path class="cls-4" d="M347.8,39.7c0,.5-.2.5-.6.7-.8.3-1.4,1.1-2,2.5-1.1,2.6-3,10.3-3.6,14.7,0,.9.3,1,.8.3,3.1-5.4,10.6-13.8,12.8-15.8,2.4-2.2,3.2-2.7,3.9-3,.7-.3,1.2-.9,1.6-1.7.5-.7.9-1.4,1.3-1.4s.9.4,1.4,1.1c.5.7.5,1.5,0,2.8-.7,1.5-1.8,3-2.5,4.9-1.4,3.7-2.7,8.4-3.3,12-1.2,7.1.9,9.5,3.6,9.3,4.6-.3,12.1-11,15.7-16.7.5-.8.9-.8,1.1-.3,0,.5,0,1.2-.6,2.1-7.2,12.9-12.9,17.7-17.4,18.1-3.5.3-6.4-3.9-5.2-12.3.6-4.1,1.7-8.2,2.3-10.4.5-1.8.4-2.2.2-2.4-.3,0-.9.2-1.8,1.1-8.7,8.5-13.4,17.6-14.4,20.5-.4.8-1.3,3.1-2.4,3.2-.3,0-.8-.3-1.2-.7-.5-.5-.2-2.2,0-3.5,1.8-12.2,4.1-21.2,5.4-24.4s1.9-3.4,2.6-3.5c1.1,0,2.2,2,2.3,2.9h0Z"/>
                      <path class="cls-4" d="M395.7,36.1c.8.4,1.1.3,1.3-.4,3-9.8,5.8-20.1,6.7-22.7.4-1.2.7-1.4,1.2-1.5.2,0,.7.2,1,.9.5.8.7,1.5.3,2.7-.5,1.8-3.7,10.4-5.9,18.8-1.9,7-3.1,14.6-3.1,21.3s1.1,6,2.6,5.8c4.9-.4,12.9-13.3,14.8-16.4.5-.7,1.1-.9,1.2-.3,0,.5,0,1.2-.5,2.1-2.8,6.4-11,17.5-16.9,18-2.6.2-3.8-3.2-3.8-7s0-6.3.5-9.1c.2-.9,0-.6-.5,0-3.4,5.7-8.3,11.9-10,13.5-3.1,3-6.4,4.9-7.3,5-1.1,0-2.8-.4-3.1-4-.4-4.4,2.7-14,6.9-19.4,4.2-5.4,8.7-7.8,11-8,1.2,0,2.3,0,3.5.6h0ZM380.9,49.1c-3.1,5.8-3.9,10.2-3.8,11.9,0,1.3.8,1.9,1.6,1.8,1.5,0,4.1-2,7.3-5.9,3.9-4.8,8.4-11.7,9-15.6.2-.9,0-1.5-.5-1.8-.4-.4-1.5-1.1-3.6-.9-3.4.3-7.2,5.1-10,10.4h0Z"/>
                    </g>
                    <path class="cls-2" d="M170.6,91.7s137.2,5.5,247-21"/>
                  </g>
                </g>
              </g>
              <g id="_文字-2">
                <rect class="cls-1" x=".2" y="0" width="417.5" height="104.3"/>
              </g>
            </g>
          </g>
        </g>
        <g id="_素材" class="cls-7">
          <rect class="cls-3" x="3.5" y="-42.4" width="17.2" height="17.2"/>
          <rect class="cls-6" x="29.1" y="-42.4" width="17.2" height="17.2"/>
          <rect class="cls-5" x="54.9" y="-42.4" width="17.2" height="17.2"/>
        </g>
      </g>
    </g>
  </g>
</svg>