<?xml version="1.0" encoding="UTF-8"?>
<svg xmlns="http://www.w3.org/2000/svg" width="146.9mm" height="36.8mm" version="1.1" viewBox="0 0 416.4 104.3">
  <defs>
    <style>
      .cls-1, .cls-2 {
        fill: none;
      }

      .cls-3 {
        fill: #95969e;
      }

      .cls-4 {
        fill: #f29b8f;
      }

      .cls-2 {
        stroke: #f29b8f;
        stroke-miterlimit: 4;
        stroke-width: 1.1px;
      }
    </style>
  </defs>
  <!-- Generator: Adobe Illustrator 28.7.5, SVG Export Plug-In . SVG Version: 1.2.0 Build 176)  -->
  <g>
    <g id="_レイヤー_1" data-name="レイヤー_1">
      <g>
        <g id="_レイヤー_1-2">
          <g id="_文字">
            <g>
              <g>
                <path class="cls-4" d="M36.8,34.7c1.1,1.6,1.7,4.1,1.7,7.8,0,10.4-7.2,20.1-12.8,25.3-6.4,5.8-12.7,7.4-15.5,7.4s-5-1.1-7.6-3.6C.6,69.5,0,65.7,0,63.2,0,56.9,5.2,44.6,14.6,36.7c4.4-3.7,8.8-4.8,9.4-4.8s1-.4,1.4-.9c.7-.7,1.8-1.2,2.6-1.2,3.4,0,6.3,1.7,8.6,4.9h.2ZM11.6,44.8c-6.7,9.3-7.4,15.9-7.4,18.8,0,4.4,1.6,8.2,6.4,8.2s7.9-2,12.5-5.9c6.4-5.6,12.6-16,12.7-25.8,0-2.3-1-4.4-2.9-5.8-1.7-1.2-2.6-1.1-2.5-.4,0,.5.2,1.1-.6,1.9-.6.7-1.3,1.1-2.3,1.1s-1-.7-1.2-1.2c-.3-.8-1-1.1-2-1.1-2.5,0-7.8,3.6-12.7,10.2h0Z"/>
                <path class="cls-4" d="M64.6,64.9c.9-.7,1.3.2.7.8-1.5,1.5-5.9,5.4-13.7,8.6-1.3.6-2.4.7-3.1.7-1.5,0-4.8-1.5-4.8-4.8s.5-2.7,1.2-4.7c.9-2.7,4-13,4.9-15.2.4-1,.2-1-.6-.9-1.4,0-4,.5-4.7.6-.8,0-1.4,0-1.8-.4-.7-.6-.5-1.3.2-2s1-.8,2.4-1c1.6-.3,3.3-.5,5.1-.7,1,0,1.3-.6,1.5-1.1.6-1.4,3.5-10.2,4.4-12.3.4-1.1,1.6-2.8,3.1-2.9.5,0,.8.3,1,1s.3,1.4-.3,2.6c-2.8,5.6-4.5,10.5-4.8,11.4-.3.8,0,.9.8.8,2,0,10.4-.8,17.2-.9,1.9,0,.9,1.4-.8,1.7-3,.6-8.4,1.3-17.8,2.5-.8,0-1.1.2-1.4,1.1-1.9,4.9-4.5,13.1-5.1,16.7-.5,3.6.5,4.8,2.7,4.8,4.8,0,11.7-4.8,13.8-6.3h-.1Z"/>
                <path class="cls-4" d="M103.8,43.9c-1.9,4-4.8,12.1-6.4,19.7-1.5,6.5,0,7.3.9,7.3,5.1,0,17.9-12.9,20.6-16.8.7-.9,1.3-1,1.3-.3s-.2,1.4-.7,2.4c-4.1,7.6-18.8,19.2-23.3,19.3-1.7,0-3.5-2.6-1.9-12.1.9-4.6,2.9-11.5,3.6-13.8.5-1.9,0-2.5-1.8-1.1-9.5,7.6-15.9,14.8-17.9,18.3-1.2,2.1-1.7,3.6-1.9,5-.3,1.7-1.1,3.2-2.6,3.2s-.8-3-.4-5.5c.2-2.2,4.4-17.6,7.5-27.6,2.7-8.6,6.8-18.3,8.4-21.3,1.8-3.3,2.9-4.3,3.5-4.3s.8.3,1.2,1c.4.9.8,1.6,0,2.7-7.5,11.4-12.6,30.5-15.1,39.8-.4,1.4,0,1.6,1.1.7,2.4-2.7,12.8-12.7,16.8-16.1,2.6-2,3.7-3.2,6.1-3.2s2,.8,1.2,2.6h-.2,0Z"/>
                <path class="cls-4" d="M124.6,50.2c1.7-2.9,7.1-10.3,10.1-10.3s1.6.9,1.4,1.6c0,.3,0,.7.9.8,1.6,0,3.1,1.4,3.1,3.8s-.9,6-2.7,8c-2.9,3.3-6.3,6-11,6.1-.8,0-1.4-.3-1.8-.8-.2-.3-.5-.4-.8.3-.4,1-.8,3-.8,4.9,0,4.2,2.1,6.3,5.3,6.2,6.6,0,17.8-8.6,22.1-14.1.6-.8,1.1-.8,1.3-.2,0,.6-.2,1.3-.8,2.3-5.3,7.5-16.3,15.1-24,15.2-3.1,0-7.5-1.5-7.7-8.5,0-4.3,2.2-10.4,5.2-15.3,0,0,.2,0,.2,0ZM136.6,48.7c0-2.8-1.6-4.2-2.8-4.2-2.7,0-7.4,7.5-8.7,11.4-.2.5.3.8,1.5.7,5.7,0,9.9-3.6,10-8h0Z"/>
                <path class="cls-4" d="M178.6,41.7c-.2,1-.9,2.4-1.4,3-.6.7-1.3.6-1.9,0-.5-.4-1.2-.8-2.1-.8-1.4,0-3.4,2.5-5.4,4.9-5.3,6.5-8.6,13.2-13.3,23.6-.3.7-.7.8-1.2.8s-1-.3-1.2-.8c-.4-.7,0-1.8.3-2.9,1.2-3.1,4.1-18.2,4.8-22.6.4-2.8.5-4.3.9-4.9.4-.8,1.8-2.6,2.6-2.6s1.6,1.8,1.6,2.6-.3,1.6-.6,2.2c-1.3,2.9-2.9,9.8-3.2,12.3,0,1.4.2,1.5,1,.2,3.3-5.1,7.8-11.3,11.6-15,2.3-2.3,3.9-2.9,4.8-2.9,2.2,0,2.8,1.4,2.5,3h0l.2-.2h0Z"/>
                <path class="cls-3" d="M197.2,69.3c-1-1.7-1.3-3.7-.7-5.7.5-1.8,2.5-9.2,3.6-12.7.2-1,.4-1.4.5-1.9,0-.8.2-1.5.7-2.5,1.2-2.7,4.7-8.7,6.2-8.7s.7.3.9.6c.3.5.6,1.6-.4,3.2-3.4,5.9-7.1,16.4-8.3,21.8-.8,3.8.5,4.8,1.8,4.8,6.1-.2,16.6-11.1,22.3-17.5.8-.9,1.3-.8,1.3-.2s0,1.3-.7,2.3c-4.1,6.5-14.2,14.9-19.2,17.6-2.6,1.4-3.7,1.8-4.5,1.9-1.1,0-2.2-.8-3.6-2.9h0ZM212.7,23.5c-.5,1.8-.7,4.8-.4,6.5,0,.9-.4,1.1-1.4.5-1.1-.7-1.4-1.6-1.7-2.6-.2-.9-.4-2.2-.4-3.1,0-3.1,1-3.4,2.2-3.5,1.4,0,2.1.8,1.7,2.1h0Z"/>
                <path class="cls-3" d="M244.2,60.2c.9-.7,1.3,0,.7.8-1.4,1.6-5.7,5.6-13.3,9.1-1.3.6-2.3.8-3.1.8-1.5,0-4.9-1.3-5-4.6,0-1.1.4-2.8,1-4.8.8-2.8,3.5-13.1,4.4-15.4.3-1,0-1-.6-.9-1.4.2-3.9.6-4.7.8-.9,0-1.4,0-1.8-.3-.7-.5-.5-1.3,0-2,.5-.6,1-.8,2.3-1.1,1.6-.4,3.3-.6,5.1-.9,1,0,1.3-.6,1.5-1.2.5-1.4,3.1-10.4,3.9-12.5.3-1.1,1.5-2.9,3-3,.5,0,.9.2,1.1,1,.2.6.3,1.4-.2,2.6-2.6,5.7-4.1,10.7-4.3,11.5-.2.8,0,.9.9.7,2-.2,10.4-1.2,17.1-1.5,1.9,0,.9,1.4-.8,1.7-3,.7-8.4,1.6-17.7,3.2-.9,0-1.1.2-1.4,1.2-1.7,5-4,13.2-4.5,16.8-.4,3.6.7,4.8,2.9,4.7,4.8-.2,11.5-5.2,13.5-6.8h0Z"/>
                <path class="cls-3" d="M258.2,45.6c1.6-2.9,6.8-10.5,9.8-10.6,1.1,0,1.6.9,1.5,1.5,0,.3,0,.7.9.8,1.6,0,3.1,1.3,3.2,3.7,0,2.6-.7,6-2.4,8.1-2.8,3.4-6.1,6.2-10.8,6.4-.8,0-1.4-.3-1.8-.8-.2-.3-.5-.3-.7.3-.4,1.1-.7,3-.6,5,.2,4.2,2.3,6.2,5.5,6.1,6.6-.3,17.5-9.1,21.7-14.7.6-.8,1.1-.8,1.3-.2,0,.6,0,1.3-.7,2.3-5.1,7.6-15.9,15.6-23.5,15.9-3.1.2-7.5-1.3-7.9-8.3-.2-4.3,1.8-10.4,4.7-15.5,0,0-.2,0-.2,0ZM270.2,43.7c0-2.8-1.7-4.2-3-4.1-2.7,0-7.2,7.7-8.3,11.7-.2.5.3.7,1.5.7,5.7-.3,9.8-3.9,9.7-8.2h0Z"/>
                <path class="cls-3" d="M314.6,36.6c-1,2.7-5.5,19.1-5.6,20.2,0,.8,0,1.3.4,1.7.4.3,1-.2,2-1.5,7.5-9.6,18-22.6,18.9-23.6,1-1.1,1.5-1.3,1.9-1.4.7,0,1.7,1.4,1.8,2.8,0,1-.5,1.4-1.4,2.2-.5.5-1,1.1-1.5,2.1-1.1,2.4-2.7,8.1-3.4,14.2-.6,6.3,0,8.9,3.4,8.7,4.2-.3,9.8-5.5,17.5-16.9.6-.8,1.1-.8,1.3-.3,0,.6,0,1.3-.7,2.3-7.2,12.8-15.1,18.1-19.4,18.4-2.9.2-6.1-3.3-5.6-10.2.4-5,1.1-8.8,1.8-12,0-.9-.2-1-1,0-3.6,4.7-12.9,16.5-15.9,20-1.7,2-2.4,2.6-3,2.7-1.3,0-1.5-3.6-.5-8.3.4-2.2,2.9-12.2,3.4-14.1.5-1.7.2-2.1-.2-2.4-.2-.2-.6,0-1.3.6-2.4,1.7-14.5,19-17.2,23-1,1.4-1.9,2.6-2.7,2.6s-1.9-1.8-1.7-5c0-2.4,2-11.3,4.1-19.2,0-.6,0-1,.2-1.4,0-.5,0-1.6.5-3.1.5-2.1,1.1-5.8,2.5-5.8s.9.2,1.3.8c1,1.3,1.2,2.7.2,4.8-1.9,4.3-4.2,16.5-4.8,19.5-.5,2.4.4,3.1,1.2,1.8,4.6-6.6,10.2-14.8,15.5-20.7,2.1-2.5,3.5-4,4.6-5.2s1.7-1.7,2.2-1.8c1.6,0,2.2,2.2,1.5,4.3h0l-.3.2h0Z"/>
                <path class="cls-3" d="M367.4,29.2c.8.3,1.5.8,1.5,1.5s-1.2,1.3-2.8,1.4c-4.9.4-10.9,6.3-10.6,10.6,0,1.9.9,3.3,2.5,5.2,2,2.5,3.9,5.6,4.1,7.9,0,1.8-.8,3.7-2,4.7-1.4,1.2-4,2.8-5.8,3.7-1,.5-2.2.8-3,.9-.7,0-2.3-.3-2.4-1.6,0-.5.3-1.1.9-1.8.9-.9,1.6-1.5,2.4-2,.7-.3,1.1-.4,1.6,0,.8.3,1.8.5,3,0,.8-.3,2.3-1.4,2.2-2.6,0-1.4-1-3.2-2-4.6-1.6-2.2-3.2-4.1-3.8-5.3-.6-1.1-1.1-2.4-1.2-3.6-.2-3.3,2.3-7.6,5.1-10.4,2.2-2.2,5-3.9,7.6-4.1,1,0,2,0,2.7.2h0Z"/>
              </g>
              <path class="cls-2" d="M169,86.8s137.2,5.5,247-21"/>
            </g>
          </g>
        </g>
        <g id="_文字-2">
          <rect class="cls-1" x=".2" y="0" width="416.1" height="104.3"/>
        </g>
      </g>
    </g>
  </g>
</svg>