<?xml version="1.0" encoding="UTF-8"?>
<svg xmlns="http://www.w3.org/2000/svg" width="64mm" height="26.5mm" version="1.1" viewBox="0 0 181.4 75.2">
  <defs>
    <style>
      .cls-1, .cls-2, .cls-3 {
        fill: none;
      }

      .cls-4 {
        fill: #2a2e3c;
      }

      .cls-5 {
        fill: #95969e;
      }

      .cls-2 {
        stroke: #cab699;
        stroke-miterlimit: 4;
        stroke-width: .5px;
      }

      .cls-6 {
        fill: #cab699;
      }

      .cls-3 {
        stroke: #fff;
        stroke-miterlimit: 10;
        stroke-width: 1.4px;
      }

      .cls-7 {
        fill: #f29b8f;
      }

      .cls-8 {
        fill: #2f313e;
      }

      .cls-9 {
        display: none;
      }
    </style>
  </defs>
  <!-- Generator: Adobe Illustrator 28.7.5, SVG Export Plug-In . SVG Version: 1.2.0 Build 176)  -->
  <g>
    <g id="_レイヤー_1" data-name="レイヤー_1">
      <g>
        <g id="_レイヤー_1-2" data-name="_レイヤー_1">
          <g id="_文字">
            <g>
              <path class="cls-2" d="M86.6,50.3s34.3,1.4,61.7-5.3"/>
              <path class="cls-8" d="M12.9,14.2l.2-7.7c-1.4,1.7-1.8,1.9-2.1,1.9s-.6-.3-.6-.6,0-.3.2-.5c1.6-1.4,3-3.3,3.8-5.5,0-.3.4-.4.6-.4.4,0,.8.3.8.7s-.9,2-1.4,2.7l-.2,9.5c0,.4-.4.6-.7.6s-.7-.2-.7-.6h0ZM16,14.3c-.4,0-.6-.3-.6-.6s.2-.6.6-.6h3v-5.7h-3.2c-.4,0-.6-.3-.6-.6s.2-.6.6-.6h3.2V2.1c0-.4.3-.6.7-.6s.7.2.7.6v4.2h3.7c.4,0,.6.3.6.6s-.2.6-.6.6h-3.7v5.7h3.3c.4,0,.6.3.6.6s-.2.6-.6.6h-7.7Z"/>
              <path class="cls-8" d="M28.7,14.2c-.4,0-.6-.3-.6-.7s.2-.6.6-.6h5.1V1.9c0-.4.3-.7.7-.7s.7.2.7.7v4.3h4.5c.4,0,.6.3.6.6s-.2.6-.6.6h-4.5v5.5h5.9c.4,0,.6.3.6.6s-.2.6-.6.6h-12.4Z"/>
              <path class="cls-8" d="M48.3,2.9c0,.5,0,1.4-.3,2.2-.2,1.2-.4,2.3-.4,3.5s0,1.4.2,1.4,0,0,.2-.2c.5-1.1.7-1.4,1-1.4s.5.2.5.5,0,.2,0,.2c0,.3-.8,1.9-.8,2.9s0,.2,0,.3c0,.6-.4.8-.7.8s-.5,0-.6-.4c-.7-1.3-.9-2.6-.9-3.9s.2-2.8.3-3.9c0-.9.2-1.4.2-2.1s.4-.6.7-.6.7.2.7.6h0ZM55.2,4.9c.4,0,.8-.2,1.1-.3h.2c.4,0,.7.3.7.6s-.2.5-.7.6l-1.4.3v2.4c0,2.8-.9,4.9-3.2,6.6-.2,0-.3.2-.5.2-.4,0-.7-.3-.7-.6s0-.4.4-.6c2-1.3,2.7-3.2,2.7-5.8s0-.6,0-1.9c-.7,0-1.4.2-2,.2-1,0-1.5,0-1.5-.7s.2-.6.7-.6,0,0,.2,0h2.6v-.7c0-.8,0-1.2-.2-1.7h0c0-.6.3-.8.7-.8.8,0,.8.7.8,1.7s0,.5,0,.8v.5h0v-.2ZM56.2,2.9c0-.4-.6-1.1-.9-1.4,0,0-.2-.2-.2-.4s.2-.4.5-.4c.6,0,1.6,1.5,1.6,1.9s-.3.6-.6.6-.4,0-.4-.3ZM58,2.2c0-.4-.7-1.1-1-1.4,0,0-.2-.2-.2-.4s.2-.4.5-.4c.6,0,1.7,1.5,1.7,1.9s-.3.6-.6.6-.3,0-.4-.3Z"/>
              <path class="cls-8" d="M62.4,10.2v-1.9c.2-1.8.6-3.6.7-4.5,0-.4.4-.6.7-.6s.7.2.7.6,0,0,0,0c-.2,1-.6,2.8-.8,4.3v1.6c0,.5,0,1.2.2,1.2s0,0,0-.2c0,0,.4-.7.4-.8,0-.2.3-.3.5-.3.3,0,.6.3.6.6v.3c-.9,1.7-1,2.4-1,2.9s-.4.8-.7.8c-1,0-1.3-2.6-1.3-4h0,0ZM70.6,13.5c-2.4,0-3.6-1-3.6-1.6s.3-.7.7-.7.3,0,.5.2c.5.4,1.3.6,2.1.6s1.5,0,2.1-.3h.2c.4,0,.7.3.7.7s-.2.7-.6.8c-.6.2-1.3.2-2.1.2h0ZM71.9,5.9c-.6,0-1.2-.2-1.8-.2s-1.3,0-2,.3h-.2c-.4,0-.6-.3-.6-.7s.2-.5.6-.6c.8-.2,1.6-.3,2.4-.3,1.7,0,2.4.3,2.4.9s-.2.6-.6.6,0,0-.2,0Z"/>
              <path class="cls-8" d="M79.2,9.1c-.8.3-1.3.5-1.4.5-.4,0-.6-.3-.6-.6s0-.5.4-.6c.6-.2,1.1-.4,1.6-.6v-2.7h-1.2c-.4,0-.6-.3-.6-.6s.2-.6.6-.6h1.2V1.3c0-.4.3-.7.6-.7s.6.2.6.6v2.6h.8c.3,0,.4,0,.5.3h0c0-.4.2-.7.6-.7h4.5c.3-.6.7-1.4,1-2.2,0-.2.3-.3.5-.3.4,0,.8.2.8.6s-.8,1.6-1,1.9h2.5c.4,0,.6.2.6.5s-.2.6-.6.6h-8.3c-.3,0-.4,0-.5-.3h0c0,.4-.2.7-.6.7h-.8v2.1c.3,0,.5-.3.8-.4h.2c.3,0,.5.3.5.6s0,.4-1.5,1.1v4.3h0c0,1-.4,1.9-1.8,1.9s-1.3-.4-1.3-.7.2-.6.5-.6,0,0,0,0h.6c.4,0,.6-.2.6-.8v-3.6.3h.2ZM83.4,14.5c0,.3-.3.5-.5.5s-.5-.2-.5-.5v-7.4c0-1.3.8-1.3,1.9-1.3s1.9,0,1.9,1.3v6h0c0,.9-.2,1.7-1.3,1.7s-.9,0-.9-.6,0-.6.4-.6,0,0,0,0h.4c.2,0,.3-.2.3-.8v-1.5h-1.8v3.1h0ZM83.4,9.2v1.3h1.8v-1.3h-1.8ZM85.2,8.2v-.8c0-.5-.2-.6-.8-.6s-.9,0-.9.6v.8h1.7ZM85,3.5c-.2,0-.4,0-.4-.3-.2-.5-.5-.7-.8-1.2v-.2c0-.3.4-.5.7-.5.5,0,1.4,1.2,1.4,1.5s-.4.7-.7.7h-.2ZM87.2,6.9c0-.4.3-.5.5-.5s.6.2.6.5v5.1c0,.3-.3.5-.5.5s-.6-.2-.6-.5v-5.1ZM89.3,6.2c0-.4.3-.6.6-.6s.6.2.6.6v7h0c0,.9-.5,1.7-1.9,1.7s-1.4-.4-1.4-.7.2-.6.5-.6,0,0,0,0c.3,0,.5,0,.8,0s.7-.2.7-.8v-6.7h0Z"/>
              <path class="cls-8" d="M99.3,10.9c.6,0,1.1.3,1.4,1s.7,1.1,1.5,1.1,2-.2,2.6-.5h.4c.4,0,.7.3.7.7s-.2.6-.6.8c-.7.3-1.8.4-2.7.4s-2.3-.3-2.9-1.7c-.2-.4-.5-.7-.9-.7s-1.2.4-1.8,1.3c0,.2-.3.4-.4.5-.3.4-.7.4-.9.4s-.7-.2-.7-.6,0-.4.3-.6c.5-.6,1.4-1.5,1.9-2,1.3-1.2,4.3-4.4,4.3-4.6s0,0,0,0h0c-.6.3-3,1.3-3.8,1.3s-.8-.3-.8-.7.2-.6.6-.7c.7,0,1.9-.4,2.8-.8,1.1-.4,1.3-.4,1.6-.4.8,0,1.3.5,1.3,1s0,.4-.3.7c-.8.8-2.9,2.9-4,4,.2,0,.4,0,.7,0l-.2.2h0ZM101.7,4.1c-.6,0-2.3-1-2.8-1.4-.2,0-.3-.3-.3-.5,0-.3.3-.6.7-.6s.3,0,.5.2c.6.4,1.3.7,2.1,1,.4,0,.5.4.5.6,0,.4-.3.7-.8.7h0Z"/>
              <path class="cls-8" d="M112,5.8c-1.7,0-1.9-.6-1.9-.9s.2-.6.5-.6h.4c.4,0,.8.2,1.3.2h1.1v-1.8h0c0-.4.3-.6.7-.6.6,0,.8.3.8,1.2s0,.6,0,.8c.3,0,.6-.3.8-.4h.4c.4,0,.7.3.7.7s-.4.8-2.2,1.3c-1,3.5-2.2,6.4-3,8.1-.2.4-.5.5-.8.5s-.7-.2-.7-.7v-.5c.7-1.4,1.9-4,2.9-7.2h-1.1,0ZM119,14c-2.1,0-3.8-.9-3.8-1.7s.3-.8.7-.8.3,0,.5.3c.5.6,1.2.8,2.1.8s1,0,1.7,0h0c.5,0,.7.3.7.7s-.3.9-2.1.9h.2ZM120.5,7.3c-.6-.2-1.4-.4-2.1-.4s-.9,0-1.2.2h-.2c-.3,0-.5-.3-.5-.6,0-.8,1.7-.9,2.3-.9s1.4,0,2.1.4c.4,0,.5.4.5.7s-.2.6-.6.6-.2,0-.3,0Z"/>
              <path class="cls-8" d="M126.5,7.1v-1.5c0-.4,0-1,.7-1s.7.4.7,1.1,0,.3,0,.5c0,4.3,1.7,5,1.9,5s.5,0,1.1-1.4c0-.3.4-.4.6-.4.4,0,.7.3.7.7s-1,2.7-2.4,2.7-2.9-1.9-3.2-5.7h0ZM137,9.4c-.2-1.3-1-2.5-1.9-3.2-.2,0-.3-.3-.3-.4,0-.3.3-.6.6-.6.9,0,2.9,2.6,2.9,4s-.4.8-.8.8-.6-.2-.7-.6h.2Z"/>
              <path class="cls-8" d="M142.9,14.8c-.4,0-.7-.4-.7-.7s0-.4.3-.5c.9-.5,1.7-1,2.2-1.7v-2.7c0-.5-.3-.5-.8-.5h-.7c-.4,0-.8,0-.8-.6s.2-.6.6-.6h1.5c1,0,1.5.4,1.5,1.4v3.1c1,1.2,2.3,1.7,5,1.7s3.4-.2,4.6-.3h0c.4,0,.7.3.7.7s-.2.6-.7.7c-1,0-2.5.2-4,.2-4.2,0-5.2-.8-6.3-2-1,1.1-2,1.9-2.5,1.9h0ZM145.1,4.3c-.4-.7-1.2-1.2-1.7-1.5-.2,0-.3-.3-.3-.4,0-.3.3-.6.7-.6s2.5,1.2,2.5,2-.4.8-.8.8-.3,0-.5-.3h0ZM155.3,9.4c.3,0,.6.2.6.5h0c0,2.2-.9,2.5-2.5,2.5s-2.1-.6-2.1-1.6v-2.5h-1.9c-1.8,0-2.3,0-2.3-1.8s0-.8,0-1c-.4.4-.6.4-.8.4-.3,0-.6-.3-.6-.6s0-.3.3-.5c1.2-.8,2.3-2.2,3-3.7,0-.3.3-.4.5-.4.3,0,.6.2.6.5s0,.2-.3.7h1.9c.6,0,.9.4.9.7s0,.5-.8,1.5h1.6c.8,0,1.3.4,1.4,1.1v1.7c0,.7-.4,1.2-1.4,1.2h-1.1v2.2c0,.6,0,.8.8.8s1.3,0,1.3-1.3h0c0-.5.3-.6.5-.6l.4.2h0ZM147,12.5c-.4,0-.6-.3-.6-.6s0-.5.4-.5c1.3-.3,2.3-1.3,2.7-2.5,0-.3.3-.4.6-.4s.7.2.7.6,0,0,0,.2c-.7,2.1-2.9,3.3-3.7,3.3h0ZM150.6,5.3h-1.5c-.5,0-.6,0-.6,1s0,1,.6,1h1.5v-2ZM150.9,4.3c.3-.3.7-1,.7-1.2s0,0-.2,0h-1.9c-.3.4-.7.9-1,1.3h2.4ZM153.4,7.3c.6,0,.6-.3.6-1s0-1-.6-1h-1.6v2h1.6Z"/>
              <path class="cls-8" d="M164.2,14.6h-1.3c-1.5,0-2.8,0-2.9-1.5v-3.4c0-.8.6-1.4,1.5-1.5h2.6c.8,0,1.5.6,1.6,1.4v2.7c0,.9,0,.5,0,.7,0,.8-.6,1.4-1.6,1.5h0,0ZM164.5,10c0-.7-.4-.7-1.8-.7s-1.4,0-1.4.7v2.8c0,.6.5.7,1.6.7,1.6,0,1.6-.3,1.6-1.5v-2h0ZM168.7,7.1h-4.5c-1.1,0-1.7-.7-1.8-1.5v-2.5c0-.7.5-1.5,1.7-1.5h4.5c1,0,1.6.7,1.7,1.4v2.7c0,.8-.7,1.5-1.7,1.5h0ZM169.1,4.3v-.9c0-.8-.5-.8-2.5-.8s-1.3,0-1.9,0c-.9,0-.9.6-.9,1.6s0,1.7.9,1.7h3.6c.9,0,.9-.6.9-1.7h0ZM170,14.6c-1.5,0-2.9,0-2.9-1.5v-3.4c0-.8.6-1.4,1.5-1.5h2.6c.8,0,1.5.6,1.6,1.4v2.7c0,1.7-.2,2.3-2.9,2.3h0ZM171.7,11.7v-1.7c0-.6-.5-.7-1.6-.7s-1.6,0-1.6.7v2c0,.9.6,1.4,1.7,1.4,1.7,0,1.6,0,1.6-1.8h0Z"/>
              <g>
                <path class="cls-6" d="M37.3,33.2c.4.6.7,1.4.7,2.8.2,3.8-2.2,7.4-4.2,9.3-2.2,2.2-4.5,2.9-5.5,2.9s-1.8-.3-2.8-1.2c-.7-.7-1-2.1-1.1-3,0-2.3,1.6-6.8,4.8-9.8,1.5-1.4,3.1-1.9,3.3-1.9s.3-.2.5-.3c.2-.2.6-.5.9-.5,1.2,0,2.3.5,3.2,1.6h.2,0ZM28.4,37.2c-2.2,3.5-2.4,5.9-2.4,6.9,0,1.6.7,2.9,2.5,2.9s2.8-.9,4.4-2.3c2.2-2.1,4.3-6,4.1-9.5,0-.8-.4-1.6-1.1-2-.6-.4-1-.4-.9,0,0,.2,0,.4-.2.7-.2.2-.5.4-.8.4s-.4-.2-.5-.4c0-.3-.4-.4-.7-.4-.9,0-2.7,1.4-4.4,3.9v-.2Z"/>
                <path class="cls-6" d="M48,43.7c.3-.3.5,0,.3.3-.5.6-2.1,2-4.8,3.3-.5.2-.8.3-1.1.3-.5,0-1.8-.5-1.8-1.7s0-1,.4-1.7c.3-1,1.3-4.7,1.6-5.6,0-.3,0-.4-.2-.3-.5,0-1.4.2-1.7.3h-.7c-.2-.2-.2-.5,0-.7s.4-.3.8-.4c.6,0,1.2-.2,1.8-.3.4,0,.5-.2.5-.4.2-.5,1.1-3.7,1.4-4.5,0-.4.5-1,1.1-1.1.2,0,.3,0,.4.4v.9c-.9,2.1-1.5,3.9-1.6,4.2,0,.2,0,.3.3.3.7,0,3.7-.4,6.2-.5.7,0,.3.5-.3.6-1.1.3-3,.6-6.4,1.2-.3,0-.4,0-.5.4-.6,1.8-1.4,4.8-1.6,6.1,0,1.3.2,1.7,1,1.7,1.7,0,4.2-1.9,4.9-2.5v-.2h0Z"/>
                <path class="cls-6" d="M62,35.7c-.7,1.5-1.6,4.4-2.1,7.2-.5,2.4,0,2.6.4,2.6,1.8,0,6.3-4.9,7.2-6.3.2-.3.5-.4.5,0s0,.5-.2.9c-1.4,2.8-6.6,7.2-8.2,7.2s-1.3-.9-.8-4.3c.3-1.7.9-4.2,1.1-5,.2-.7,0-.9-.7-.4-3.4,2.8-5.6,5.5-6.3,6.8-.4.8-.6,1.3-.6,1.8s-.4,1.2-.9,1.2-.3-1.1-.2-2c0-.8,1.4-6.4,2.4-10.1.9-3.1,2.2-6.7,2.8-7.8.6-1.2,1-1.6,1.2-1.6s.3,0,.5.4c0,.3.3.6,0,1-2.6,4.2-4.2,11.2-5,14.5,0,.5,0,.6.4.2.8-1,4.5-4.7,5.9-6,.9-.8,1.3-1.2,2.2-1.2s.7.3.4.9h0Z"/>
                <path class="cls-6" d="M69.6,37.8c.6-1.1,2.5-3.8,3.6-3.8s.6.3.5.6c0,0,0,.2.3.3.6,0,1.1.5,1.2,1.4,0,1-.3,2.2-.9,2.9-1,1.2-2.2,2.2-3.9,2.3-.3,0-.5,0-.7-.3h-.3c-.2.4-.3,1.1-.2,1.8,0,1.5.8,2.3,2,2.2,2.4,0,6.4-3.3,7.9-5.3.2-.3.4-.3.5,0,0,.2,0,.5-.3.8-1.9,2.7-5.8,5.6-8.5,5.7-1.1,0-2.7-.5-2.8-3,0-1.6.7-3.8,1.7-5.6h0ZM74,37.1c0-1-.6-1.5-1.1-1.5-1,0-2.6,2.8-3,4.2,0,.2,0,.3.6.2,2,0,3.6-1.4,3.5-3h0Z"/>
                <path class="cls-6" d="M89.3,34.3c0,.4-.3.9-.5,1.1-.2.2-.5.2-.7,0-.2,0-.4-.3-.8-.3s-1.2.9-1.9,1.8c-1.9,2.4-3,4.8-4.7,8.6,0,.2-.3.3-.4.3s-.3,0-.4-.3,0-.6,0-1.1c.4-1.1,1.4-6.6,1.6-8.2,0-1,.2-1.5.3-1.8.2-.3.6-1,.9-1s.6.6.6.9,0,.6-.2.8c-.5,1-1,3.6-1.1,4.5,0,.3.1.3.4,0,1.2-1.9,2.8-4.1,4.1-5.5.8-.9,1.4-1.1,1.7-1.1.8,0,1,.5.9,1.1,0,0,.2.2.2.2Z"/>
                <path class="cls-5" d="M96.2,44.3c-.4-.6-.5-1.3-.3-2s.9-3.3,1.3-4.6c0-.3,0-.5.2-.7,0-.3,0-.6.2-.9.4-1,1.7-3.2,2.2-3.2s.2,0,.3.2c0,.2.2.6,0,1.2-1.2,2.1-2.5,6-2.9,7.9-.3,1.4.2,1.7.7,1.7,2.2,0,6-4.1,8-6.4.3-.3.5-.3.5,0s0,.5-.2.8c-1.5,2.4-5.1,5.4-6.9,6.4s-1.3.7-1.6.7-.8-.3-1.3-1h-.2ZM101.6,27.7c-.2.7-.2,1.8,0,2.4,0,.3-.2.4-.5.2-.4-.3-.5-.6-.6-.9,0-.3,0-.8-.2-1.1,0-1.1.4-1.2.8-1.3.5,0,.8.3.6.8h0Z"/>
                <path class="cls-5" d="M113.2,40.9c.3-.3.5,0,.3.3-.5.6-2.1,2-4.8,3.3-.5.2-.8.3-1.1.3-.5,0-1.8-.5-1.8-1.7s0-1,.4-1.7c.3-1,1.3-4.7,1.6-5.6s0-.4-.2-.3c-.5,0-1.4.2-1.7.3h-.7c-.2-.2-.2-.5,0-.7s.4-.3.8-.4c.6,0,1.2-.2,1.8-.3.4,0,.5-.2.5-.4.2-.5,1.1-3.7,1.4-4.5,0-.4.5-1,1.1-1.1.2,0,.3,0,.4.4v.9c-.9,2.1-1.5,3.9-1.6,4.2,0,.2,0,.3.3.3.7,0,3.7-.4,6.2-.5.7,0,.3.5-.3.6-1.1.3-3,.6-6.4,1.2-.3,0-.4,0-.5.4-.6,1.8-1.4,4.8-1.6,6.1,0,1.3.2,1.7,1,1.7,1.7,0,4.2-1.9,4.9-2.5v-.2h0Z"/>
                <path class="cls-5" d="M118.3,35.6c.6-1.1,2.5-3.8,3.6-3.8s.6.3.5.6c0,0,0,.2.3.3.6,0,1.1.5,1.2,1.4,0,1-.3,2.2-.9,2.9-1,1.2-2.2,2.2-3.9,2.3-.3,0-.5,0-.7-.3h-.3c-.2.4-.3,1.1-.2,1.8,0,1.5.8,2.3,2,2.2,2.4,0,6.4-3.3,7.9-5.3.2-.3.4-.3.5,0,0,.2,0,.5-.3.8-1.9,2.7-5.8,5.6-8.5,5.7-1.1,0-2.7-.5-2.8-3,0-1.6.7-3.8,1.7-5.6h0ZM122.7,35c0-1-.6-1.5-1.1-1.5-1,0-2.6,2.8-3,4.2,0,.2,0,.3.6.2,2,0,3.6-1.4,3.5-3h0Z"/>
                <path class="cls-5" d="M138.9,32.7c-.4,1-2.1,6.9-2.2,7.3v.6c0,0,.4,0,.7-.5,2.8-3.4,6.7-8.1,7-8.4.4-.4.6-.5.7-.5.2,0,.6.5.6,1s-.2.5-.5.8c-.2.2-.4.4-.5.7-.4.9-1,2.9-1.3,5.1-.3,2.3,0,3.2,1.2,3.2s3.6-1.9,6.4-6c.2-.3.4-.3.5,0,0,.2,0,.5-.3.8-2.7,4.6-5.6,6.4-7.1,6.5-1.1,0-2.2-1.2-1.9-3.7.2-1.8.5-3.2.7-4.3,0-.3,0-.4-.4,0-1.3,1.7-4.8,5.9-5.9,7.1-.6.7-.9.9-1.1.9-.5,0-.5-1.3,0-3,.2-.8,1.1-4.4,1.3-5.1.2-.6,0-.8,0-.9,0,0-.2,0-.5.2-.9.6-5.4,6.8-6.4,8.2-.4.5-.7.9-1,.9s-.7-.7-.6-1.8c0-.9.8-4.1,1.6-6.9v-.5c0-.2,0-.6.2-1.1.2-.8.4-2.1.9-2.1s.3,0,.5.3c.4.5.4,1,0,1.7-.7,1.5-1.6,6-1.9,7-.2.9,0,1.1.4.7,1.7-2.4,3.8-5.3,5.7-7.4.8-.9,1.3-1.4,1.7-1.9.4-.4.6-.6.8-.6.6,0,.8.8.5,1.6h.2Z"/>
                <path class="cls-5" d="M158.3,30.5c.3,0,.5.3.5.6s-.5.5-1,.5c-1.8,0-4,2.2-3.9,3.7,0,.7.3,1.2.8,1.9.7.9,1.4,2.1,1.4,2.9s-.3,1.3-.8,1.7-1.5,1-2.1,1.3c-.4.2-.8.3-1.1.3s-.8,0-.8-.6,0-.4.3-.6c.3-.3.6-.5.9-.7h.6c.3,0,.7.2,1.1,0,.3,0,.8-.5.8-.9s-.3-1.2-.7-1.7c-.5-.8-1.1-1.5-1.3-2-.2-.4-.4-.9-.4-1.3,0-1.2.9-2.7,2-3.7.8-.8,1.9-1.3,2.8-1.4h1s0,0,0,0Z"/>
              </g>
              <path class="cls-7" d="M101.2,66.2c0,5.2-4.2,9.5-9.5,9.5s-9.5-4.2-9.5-9.5,4.2-9.5,9.5-9.5,9.5,4.2,9.5,9.5Z"/>
              <polyline class="cls-3" points="97.8 64.3 91.7 70.3 85.7 64.3"/>
            </g>
          </g>
        </g>
        <g id="_素材" class="cls-9">
          <rect class="cls-4" x="8.6" y="-42" width="17.2" height="17.2"/>
          <rect class="cls-7" x="34.2" y="-42" width="17.2" height="17.2"/>
          <rect class="cls-6" x="60" y="-42" width="17.2" height="17.2"/>
        </g>
      </g>
      <rect class="cls-1" width="181.4" height="75.2"/>
    </g>
  </g>
</svg>