<?xml version="1.0" encoding="UTF-8" standalone="no"?>
<svg
   width="64mm"
   height="26.5mm"
   version="1.1"
   viewBox="0 0 181.4 75.2"
   id="svg28"
   sodipodi:docname="midashi_FavoriteBrand.svg"
   inkscape:version="1.4.2 (ebf0e940, 2025-05-08)"
   xmlns:inkscape="http://www.inkscape.org/namespaces/inkscape"
   xmlns:sodipodi="http://sodipodi.sourceforge.net/DTD/sodipodi-0.dtd"
   xmlns="http://www.w3.org/2000/svg"
   xmlns:svg="http://www.w3.org/2000/svg">
  <sodipodi:namedview
     id="namedview28"
     pagecolor="#505050"
     bordercolor="#eeeeee"
     borderopacity="1"
     inkscape:showpageshadow="0"
     inkscape:pageopacity="0"
     inkscape:pagecheckerboard="0"
     inkscape:deskcolor="#505050"
     inkscape:document-units="mm"
     inkscape:zoom="4.8643054"
     inkscape:cx="136.91575"
     inkscape:cy="55.095225"
     inkscape:window-width="1680"
     inkscape:window-height="1027"
     inkscape:window-x="0"
     inkscape:window-y="25"
     inkscape:window-maximized="0"
     inkscape:current-layer="g28" />
  <defs
     id="defs1">
    <style
       id="style1">
      .cls-1, .cls-2, .cls-3 {
        fill: none;
      }

      .cls-4 {
        fill: #2a2e3c;
      }

      .cls-5 {
        fill: #95969e;
      }

      .cls-6 {
        fill: #cab699;
      }

      .cls-2 {
        stroke: #fff;
        stroke-miterlimit: 10;
        stroke-width: 1.4px;
      }

      .cls-7 {
        fill: #f29b8f;
      }

      .cls-3 {
        stroke: #f29b8f;
        stroke-miterlimit: 4;
        stroke-width: .5px;
      }

      .cls-8 {
        fill: #2f313e;
      }

      .cls-9 {
        display: none;
      }
    </style>
  </defs>
  <!-- Generator: Adobe Illustrator 28.7.5, SVG Export Plug-In . SVG Version: 1.2.0 Build 176)  -->
  <g
     id="g28">
    <g
       id="g31">
      <g
         id="g30">
        <g
           id="g29">
          <path
             class="cls-8"
             d="m 31.7,13.2 c -3.4,0 -5.2,-1.4 -5.2,-2.2 0,-0.8 0.3,-0.7 0.7,-0.7 0.4,0 0.4,0 0.6,0.3 0.8,0.8 2,1.2 3.4,1.2 1.4,0 2.1,-0.2 3.1,-0.5 h 0.3 c 0.5,0 0.7,0.3 0.7,0.7 0,0.4 -0.2,0.7 -0.7,0.8 -1,0.3 -2,0.4 -3,0.4 v 0 z M 33.5,4.9 H 33.3 C 32.5,4.7 31.6,4.6 30.7,4.6 c -0.9,0 -1.6,0 -2.3,0.2 h -0.2 c -0.4,0 -0.7,-0.3 -0.7,-0.6 0,-0.3 0.3,-0.7 0.8,-0.8 0.7,0 1.7,-0.2 2.6,-0.2 2.7,0 3.3,0.3 3.3,1 0,0.7 -0.3,0.7 -0.8,0.7 0,0 0,0 0,0 z"
             id="path1" />
          <path
             class="cls-8"
             d="m 42,5.1 c -1.4,0 -1.9,-0.4 -1.9,-0.9 0,-0.5 0.2,-0.6 0.5,-0.6 H 41 c 0.4,0 0.8,0.2 1.3,0.2 h 1.1 V 2 2 c 0,-0.4 0.3,-0.6 0.7,-0.6 0.6,0 0.8,0.4 0.8,1.2 v 0.8 c 0.3,0 0.6,-0.3 0.8,-0.4 h 0.4 c 0.4,0 0.7,0.3 0.7,0.7 0,0.4 -0.4,0.8 -2.2,1.3 -1,3.5 -2.2,6.4 -3,8.1 -0.2,0.4 -0.5,0.5 -0.8,0.5 -0.3,0 -0.7,-0.2 -0.7,-0.7 0,-0.5 0,-0.3 0,-0.5 C 40.8,11 42,8.4 43,5.2 h -1.1 z m 7,8.2 c -2.2,0 -3.7,-1 -3.7,-1.7 0,-0.7 0.3,-0.8 0.7,-0.8 0.4,0 0.3,0 0.5,0.3 0.5,0.6 1.2,0.8 2.1,0.8 0.9,0 1,0 1.7,0 v 0 c 0.5,0 0.7,0.3 0.7,0.7 0,0.7 -0.7,0.9 -2.1,0.9 v 0 z M 50.5,6.6 C 49.9,6.4 49.1,6.2 48.4,6.2 c -0.7,0 -0.9,0 -1.2,0.2 H 47 c -0.3,0 -0.5,-0.3 -0.5,-0.6 0,-0.8 1.7,-0.9 2.3,-0.9 0.6,0 1.4,0 2.1,0.4 0.4,0 0.5,0.4 0.5,0.7 0,0.3 -0.2,0.6 -0.6,0.6 -0.4,0 -0.2,0 -0.3,0 z M 50.4,3.8 c -0.3,-0.3 -1,-0.9 -1.4,-1 -0.2,0 -0.3,-0.3 -0.3,-0.4 0,-0.3 0.2,-0.5 0.6,-0.5 0.4,0 2.1,0.8 2.1,1.5 0,0.7 -0.3,0.6 -0.6,0.6 -0.3,0 -0.3,0 -0.4,-0.2 z m 1.4,-1.4 c -0.3,-0.3 -1,-0.8 -1.4,-1 -0.2,0 -0.3,-0.3 -0.3,-0.4 0,-0.3 0.2,-0.5 0.6,-0.5 0.4,0 2.1,0.8 2.1,1.5 0,0.7 -0.3,0.6 -0.6,0.6 -0.3,0 -0.2,0 -0.4,-0.2 z"
             id="path2" />
          <path
             class="cls-8"
             d="m 60.2,7.6 c 1,-0.7 2.8,-2 5,-2 2.2,0 3.7,1.2 3.7,2.9 0,2.7 -4.1,4.6 -4.7,4.6 -0.6,0 -0.8,-0.4 -0.8,-0.7 0,-0.3 0.2,-0.6 0.6,-0.7 2.5,-0.9 3.4,-2.2 3.4,-3.1 0,-0.9 -0.8,-1.7 -2.3,-1.7 -1.5,0 -3.9,1.2 -5,2.3 v 1.5 c 0,0.9 0,1.8 0.2,2.4 v 0 c 0,0.5 -0.4,0.8 -0.8,0.8 -0.7,0 -0.8,-0.7 -0.8,-1.9 v -1.7 c 0,0.2 -0.4,0.6 -1.1,1.8 -0.2,0.3 -0.5,0.5 -0.7,0.5 -0.4,0 -0.7,-0.3 -0.7,-0.7 0,-0.4 0,-0.4 0.7,-1.2 0.7,-1.1 1.6,-2.7 2.1,-4 v -0.6 0 c -0.4,0.2 -1,0.6 -1.4,0.8 -0.2,0 -0.3,0.2 -0.5,0.2 -0.4,0 -0.6,-0.3 -0.6,-0.7 0,-0.4 0,-0.5 0.4,-0.6 0.6,-0.3 1.5,-0.7 2.3,-1.1 l 0.3,-3 c 0,-0.4 0.4,-0.6 0.7,-0.6 0.3,0 0.7,0.2 0.7,0.6 v 0 c 0,0.7 -0.2,1.6 -0.3,2.6 v 0 c 0.4,0 0.7,0.3 0.7,0.7 0,0.4 0,0.5 -0.3,0.9 l -0.6,1.2 v 0.4 h -0.2 z"
             id="path3" />
          <path
             class="cls-8"
             d="m 75.6,14.3 c -0.4,0 -0.7,-0.3 -0.7,-0.6 0,-0.3 0.2,-0.5 0.5,-0.8 2,-1.3 3.3,-3.6 3.3,-6.2 0,-2.6 0,-3.5 -1.6,-3.5 -1.6,0 -2,1.3 -2,3.3 0,2 0,0.6 0,0.9 v 0 c 0,0.7 -0.4,1 -0.8,1 C 73.6,8.4 73.6,7.8 73.6,7.1 73.6,6 73.8,4.7 74,3.9 74.2,3.1 74.5,2 74.6,1 74.6,0.6 75,0.4 75.3,0.4 75.6,0.4 76,0.6 76,1 c 0,0.4 0,1.1 -0.4,1.7 v 0.2 0 l 0.2,-0.2 c 0.6,-0.9 1.5,-0.9 1.7,-0.9 2.6,0 2.8,3.8 2.8,4.8 0,2.5 -1.1,5.2 -3.8,7.2 -0.3,0.2 -0.5,0.3 -0.7,0.3 z"
             id="path4" />
          <path
             class="cls-8"
             d="m 91.7,4.7 c 0,1.5 -2.3,7.3 -4.5,7.3 -2.2,0 -2.3,-1.4 -2.3,-3.1 0,-1.7 2.1,-5.8 6.4,-5.8 4.3,0 5.3,2 5.3,4.7 0,4 -4.4,5.4 -5,5.4 -0.6,0 -0.8,-0.3 -0.8,-0.7 0,-0.4 0.2,-0.6 0.7,-0.7 2,-0.4 3.8,-1.8 3.8,-4 0,-2.2 -1.5,-3.5 -3.8,-3.6 0.2,0 0.2,0.3 0.2,0.6 v 0 z m -5.5,4 c 0,1.1 0.6,1.7 1,1.7 0.9,0 2.8,-3.4 3,-5.8 V 4.1 C 87.7,4.5 86,6.8 86,8.7 Z"
             id="path5" />
          <path
             class="cls-8"
             d="m 102.4,13.5 c -0.5,0 -0.8,-0.4 -0.8,-0.7 0,-0.3 0.2,-0.6 0.6,-0.7 5.2,-1.6 6.6,-6.5 6.6,-7 0,-0.5 -0.2,-0.5 -1.6,-0.5 h -5.6 c -0.4,0 -0.7,-0.3 -0.7,-0.7 0,-0.4 0.2,-0.7 0.7,-0.7 h 7.2 c 1,0 1.7,0.6 1.7,1.5 0,0.9 0,0.4 0,0.6 -1.1,3.2 -3.1,6.3 -7.6,8 h -0.4 v 0.2 z M 111,3.3 c -0.3,-0.3 -1,-0.9 -1.4,-1 -0.2,0 -0.3,-0.3 -0.3,-0.4 0,-0.3 0.3,-0.5 0.6,-0.5 0.3,0 2.1,0.8 2.1,1.5 0,0.7 -0.3,0.6 -0.6,0.6 -0.3,0 -0.3,0 -0.4,-0.2 z m 1.4,-1.4 c -0.3,-0.3 -1,-0.8 -1.4,-1 -0.2,0 -0.3,-0.3 -0.3,-0.4 0,-0.3 0.2,-0.5 0.6,-0.5 0.4,0 2.1,0.8 2.1,1.5 0,0.7 -0.3,0.6 -0.6,0.6 -0.3,0 -0.2,0 -0.4,-0.2 z"
             id="path6" />
          <path
             class="cls-8"
             d="M 118.4,13.4 H 118 c -0.5,0 -0.8,-0.3 -0.8,-0.7 0,-0.4 0.2,-0.5 0.6,-0.7 5.1,-1.4 6.1,-5.1 6.1,-5.4 0,-0.3 -0.2,-0.4 -1.9,-0.4 h -5.3 c -0.5,0 -0.7,-0.3 -0.7,-0.7 0,-0.4 0.2,-0.6 0.7,-0.6 h 6.9 c 1.2,0 1.8,0.5 1.8,1.4 0,0.9 0,0.6 -0.2,1 -1.1,2.6 -3.2,4.8 -7,6 h 0.2 z m 5.3,-11.3 c 0.5,0 0.7,0.3 0.7,0.6 0,0.3 -0.3,0.6 -0.8,0.6 h -5.5 c -0.4,0 -0.7,-0.3 -0.7,-0.6 0,-0.3 0.2,-0.6 0.8,-0.6 z"
             id="path7" />
          <path
             class="cls-8"
             d="M 133.7,6.3 C 133.1,5.7 132,5.2 131.3,5 131,5 130.9,4.7 130.9,4.4 c 0,-0.3 0.3,-0.7 0.7,-0.7 0.4,0 2,0.5 3.1,1.4 0.2,0.2 0.3,0.4 0.3,0.6 0,0.4 -0.4,0.9 -0.8,0.9 -0.4,0 -0.4,0 -0.5,-0.2 v 0 z m -1.4,6.7 c -0.5,0 -0.8,-0.4 -0.8,-0.8 0,-0.4 0.2,-0.7 0.7,-0.8 3.3,-0.8 6.5,-3.9 8.1,-7.1 0,-0.3 0.4,-0.4 0.7,-0.4 0.3,0 0.7,0.3 0.7,0.7 0,0.4 0,0.3 0,0.5 -3.3,6.3 -8.8,7.8 -9.2,7.8 v 0 z"
             id="path8" />
          <path
             class="cls-8"
             d="m 148.7,13.1 c 0,0.6 -0.4,0.8 -0.8,0.8 -0.4,0 -0.7,-0.3 -0.7,-0.8 v 0 c 0,-1.9 0,-5.5 0,-8.3 v -3 0 c 0,-0.5 0.4,-0.7 0.7,-0.7 0.3,0 0.7,0.2 0.7,0.7 v 0 3.9 0 c 0.2,0 3.1,0.5 4.1,1.4 0.2,0.2 0.3,0.4 0.3,0.6 0,0.4 -0.3,0.8 -0.7,0.8 -0.4,0 -0.3,0 -0.4,-0.2 -0.7,-0.5 -2.5,-1.2 -3.4,-1.3 v 6 0 z m 3.9,-8.6 c -0.3,-0.3 -1.1,-0.8 -1.5,-0.9 -0.3,0 -0.4,-0.3 -0.4,-0.4 0,-0.3 0.3,-0.5 0.6,-0.5 0.3,0 2.1,0.6 2.1,1.4 0,0.8 -0.3,0.6 -0.6,0.6 -0.3,0 -0.2,0 -0.4,-0.2 z M 154,3 c -0.3,-0.3 -1.1,-0.8 -1.5,-0.9 -0.3,0 -0.4,-0.3 -0.4,-0.4 0,-0.3 0.3,-0.5 0.6,-0.5 0.3,0 2.2,0.5 2.2,1.4 0,0.9 -0.3,0.6 -0.5,0.6 -0.2,0 -0.2,0 -0.4,-0.2 z"
             id="path9" />
          <path
             class="cls-7"
             d="m 19.1,32.9 c 0.6,0 0.7,0 0.8,-0.3 0,-0.2 0.2,-0.3 0.5,-0.2 0.4,0 1.5,0.7 1.5,1.1 0,0.4 -0.2,0.3 -0.7,0.5 -0.4,0 -0.6,0.2 -0.8,0.2 -0.3,0 -0.8,-0.3 -1.4,-0.3 h -3.9 c -0.2,0 -0.3,0.2 -0.4,0.7 -0.3,0.8 -1.7,5.4 -1.8,5.7 0,0.3 0,0.4 0.3,0.4 0.3,0 3.5,-0.3 5.8,-0.4 h 2.5 c 0.3,0 0.4,0 0.2,0.3 0,0 -0.4,0.3 -0.9,0.5 -0.4,0 -1.9,0.4 -2.9,0.5 -1.7,0.2 -3.1,0.4 -4.6,0.6 -0.7,0 -0.9,0.3 -1.1,0.9 -0.4,1.3 -0.8,2.2 -1.1,3.3 -0.2,0.4 -0.2,0.7 0.2,0.9 0.5,0.2 1.8,0.2 2.3,0 0.4,-0.2 0.6,0 0.2,0.4 -0.6,0.6 -1.9,1.1 -2.9,1.1 -1,0 -1.4,0 -1.8,-0.4 -0.2,-0.3 -0.2,-0.5 -0.2,-0.7 0,-0.2 0.3,-0.3 0.7,-0.5 0.3,-0.2 0.4,-0.5 0.6,-0.8 0.2,-0.5 0.7,-2.8 0.9,-3.4 0,-0.3 0,-0.5 -0.3,-0.8 -0.3,-0.4 -0.2,-0.6 0.3,-0.8 0.3,-0.2 0.6,-0.4 0.8,-0.8 0,-0.2 1.5,-4.8 1.7,-5.9 0,-0.3 0,-0.5 -0.3,-0.5 -0.6,0 -1,0.3 -1.3,0.6 -0.3,0.3 -0.5,0.3 -0.6,0.2 v -0.7 c 0,-0.3 0.4,-0.7 0.6,-0.9 0.5,-0.6 1.1,-0.6 1.6,-0.3 h 0.3 v -0.6 c 0,-0.3 0.2,-0.4 0.4,-0.4 0.6,0 1,0.7 1,1.1 0,0.4 0,0 0.3,0 H 19 v -0.4 0 z"
             id="path10"
             style="fill:#cab699;fill-opacity:1" />
          <path
             class="cls-7"
             d="m 30,36.4 c 0,0 0,0.2 0.3,0 h 0.5 c 0.3,0.2 0.3,0.4 0,0.8 -1.1,2.4 -1.7,4.3 -1.6,6.2 0,1.7 0.2,3.2 1.2,3.2 1.8,0 4.5,-3.9 5.6,-5.4 0.2,-0.3 0.5,-0.3 0.5,0 0,0.3 0,0.5 -0.2,0.9 -1,2.3 -4.7,6 -6.3,6 -1.6,0 -1.7,-1 -1.8,-2.4 0,-0.8 -0.2,-2.1 -0.2,-2.5 0,-0.4 0,-0.2 -0.2,0 -0.5,0.7 -2.4,3.2 -3.3,4 -0.8,0.8 -1.4,1.1 -1.7,1.1 -0.3,0 -1.3,-0.2 -1.3,-1.5 0,-1.3 0.2,-1.6 1.2,-3.7 0.8,-1.8 2.5,-4.5 4.2,-6 1.1,-1.1 1.8,-1.3 2.2,-1.3 0.4,0 0.7,0.4 0.9,0.6 z m -3.9,2.7 c -1.8,2.3 -2.7,4.8 -3.1,6.2 -0.2,0.8 0,1.3 0.5,1.3 0.5,0 0.8,-0.4 1.5,-1.1 0.6,-0.6 1.7,-2.1 2.7,-3.6 0.4,-0.6 1.2,-2.3 1.3,-2.6 0,-0.3 0.2,-0.9 0,-1.3 0,-0.5 -0.3,-0.8 -0.7,-0.8 -0.6,0 -1.4,0.8 -2.3,1.9 z"
             id="path11"
             style="fill:#cab699;fill-opacity:1" />
          <path
             class="cls-7"
             d="m 45.8,37.2 c 0,0 0,0.3 0.2,0.4 0.4,0.3 1.2,0.4 2,0.4 1.5,0 2.8,-0.7 3.7,-1.5 0.3,-0.3 0.3,0.2 0,0.6 -1,1.3 -2.6,1.8 -4.2,1.8 -1.6,0 -1.4,0 -1.7,-0.2 -0.1,0 -0.2,0.1 -0.3,0.4 -1,3 -4.7,6.9 -6.6,8 -0.9,0.5 -1.5,0.6 -1.9,0.6 -0.4,0 -1.2,-0.6 -1.1,-2.2 0,-1.1 0.3,-2.5 1.4,-5.7 0,-0.2 0.2,-0.5 0.2,-0.7 0,-0.3 0,-0.5 0.2,-0.7 0,-0.8 0.6,-2.6 1.3,-2.6 0.7,0 0.5,1.2 0.5,1.8 0,0.6 -0.3,0.8 -0.5,1.2 -0.7,1.3 -1.2,2.5 -1.8,5.2 -0.4,1.9 0,2.3 0.5,2.2 0.3,0 0.9,-0.2 1.5,-0.6 1.6,-1.2 4.5,-4.4 5.3,-6.9 v -0.6 c -0.3,-0.4 -0.6,-0.9 -0.6,-1.5 0,-0.6 0.5,-1.3 0.9,-1.4 0.8,0 1,1.2 1.1,1.8 v 0.2 0 z"
             id="path12"
             style="fill:#cab699;fill-opacity:1" />
          <path
             class="cls-7"
             d="m 49.2,41.5 c 0.5,-1 1.9,-3.2 2.3,-3.7 0.2,-0.4 0.3,-0.6 0.3,-0.9 0,-0.5 0.2,-0.8 0.5,-1 0.2,-0.3 0.5,-0.3 0.8,-0.3 0.3,0 0.4,0 0.6,-0.3 0,-0.3 0.4,-0.5 0.7,-0.5 0.3,0 0.7,0.2 0.6,0.6 0,0.2 0,0.4 0.2,0.6 0.6,0.6 1.7,1.4 1.7,3.6 0,2.2 -0.7,3.1 -1.6,4.3 -1.9,2.6 -4.2,3.6 -5.3,3.6 -1.1,0 -1.6,-0.9 -1.7,-1.8 0,-1.4 0.6,-3.4 1,-4.2 v 0 z m 1.3,4.7 c 0.7,0 1.6,-0.4 2.4,-1.2 1.2,-1.1 2.8,-3.7 2.7,-5.5 0,-1.1 -0.2,-2.6 -1.7,-2.5 -0.5,0 -1,0.5 -1.8,1.5 -0.8,1 -2.7,4.2 -2.7,6.5 0,2.3 0.4,1.2 1,1.2 v 0 z"
             id="path13"
             style="fill:#cab699;fill-opacity:1" />
          <path
             class="cls-7"
             d="m 68.5,35.8 c 0,0.4 -0.3,0.9 -0.5,1.1 -0.2,0.2 -0.5,0.2 -0.7,0 -0.2,0 -0.4,-0.3 -0.8,-0.3 -0.4,0 -1.2,0.9 -1.9,1.8 -1.9,2.3 -3.1,4.8 -4.8,8.5 0,0.2 -0.3,0.3 -0.4,0.3 -0.1,0 -0.3,0 -0.4,-0.3 v -1.1 c 0.4,-1.1 1.5,-6.6 1.7,-8.2 0,-1 0.2,-1.5 0.3,-1.8 0.2,-0.3 0.7,-0.9 0.9,-0.9 0.4,0 0.6,0.6 0.6,0.9 0,0.3 0,0.6 -0.2,0.8 -0.5,1 -1,3.5 -1.1,4.4 0,0.3 0.1,0.3 0.4,0 1.2,-1.8 2.8,-4.1 4.2,-5.4 0.8,-0.8 1.4,-1 1.7,-1 0.8,0 1,0.5 0.9,1.1 v 0 z"
             id="path14"
             style="fill:#cab699;fill-opacity:1" />
          <path
             class="cls-7"
             d="m 69.1,45.9 c -0.4,-0.6 -0.4,-1.4 -0.2,-2 0.2,-0.7 0.9,-3.3 1.3,-4.6 0,-0.3 0.2,-0.5 0.2,-0.7 0,-0.3 0,-0.5 0.2,-0.9 0.5,-1 1.7,-3.1 2.3,-3.1 0.6,0 0.2,0 0.3,0.2 0,0.2 0.2,0.6 0,1.2 -1.2,2.1 -2.6,5.9 -3.1,7.8 -0.3,1.4 0,1.7 0.6,1.7 2.2,0 6,-4 8.1,-6.3 0.3,-0.3 0.5,-0.3 0.5,0 0,0.3 0,0.5 -0.3,0.8 -1.5,2.3 -5.2,5.3 -7,6.3 -1.8,1 -1.3,0.7 -1.6,0.7 -0.3,0 -0.8,-0.3 -1.3,-1.1 z m 5.8,-16.4 c -0.2,0.7 -0.3,1.7 -0.2,2.4 0,0.3 -0.2,0.4 -0.5,0.2 -0.4,-0.3 -0.5,-0.6 -0.6,-0.9 v -1.1 c 0,-1.1 0.4,-1.2 0.8,-1.2 0.4,0 0.8,0.3 0.6,0.8 v -0.2 0 z"
             id="path15"
             style="fill:#cab699;fill-opacity:1" />
          <path
             class="cls-7"
             d="m 85.4,43 c 0.3,-0.2 0.5,0 0.2,0.3 -0.5,0.6 -2.1,2 -4.9,3.2 -0.5,0.2 -0.8,0.3 -1.1,0.3 -0.5,0 -1.8,-0.5 -1.8,-1.7 0,-1.2 0,-1 0.4,-1.7 0.3,-1 1.3,-4.7 1.7,-5.5 0,-0.3 0,-0.4 -0.2,-0.3 -0.5,0 -1.4,0.2 -1.7,0.2 h -0.7 c -0.2,-0.2 -0.2,-0.5 0,-0.7 0.2,-0.2 0.4,-0.3 0.8,-0.4 0.6,0 1.2,-0.2 1.8,-0.3 0.4,0 0.5,-0.2 0.5,-0.4 0.2,-0.5 1.2,-3.7 1.5,-4.5 0,-0.4 0.6,-1 1.1,-1.1 0.2,0 0.3,0 0.4,0.4 v 0.9 c -1,2 -1.5,3.8 -1.6,4.1 0,0.2 0,0.3 0.3,0.3 0.7,0 3.7,-0.4 6.2,-0.4 2.5,0 0.3,0.5 -0.3,0.6 -1.1,0.2 -3,0.5 -6.4,1.1 -0.3,0 -0.4,0 -0.5,0.4 -0.6,1.8 -1.5,4.8 -1.7,6.1 -0.2,1.3 0.2,1.7 1,1.7 1.7,0 4.2,-1.8 4.9,-2.4 v 0 -0.2 z"
             id="path16"
             style="fill:#cab699;fill-opacity:1" />
          <path
             class="cls-7"
             d="m 89.7,37.8 c 0.6,-1 2.5,-3.7 3.6,-3.8 0.4,0 0.6,0.3 0.5,0.6 0,0 0,0.2 0.3,0.3 0.6,0 1.1,0.5 1.1,1.4 0,0.9 -0.3,2.2 -0.9,2.9 -1,1.2 -2.3,2.2 -4,2.2 -1.7,0 -0.5,0 -0.7,-0.3 h -0.3 c -0.2,0.4 -0.3,1.1 -0.3,1.8 0,1.5 0.8,2.3 1.9,2.2 2.4,0 6.4,-3.1 8,-5.1 0.2,-0.3 0.4,-0.3 0.5,0 0,0.2 0,0.5 -0.3,0.8 -1.9,2.7 -5.9,5.5 -8.6,5.6 -1.1,0 -2.7,-0.5 -2.8,-3.1 0,-1.6 0.8,-3.7 1.8,-5.5 z m 4.4,-0.6 c 0,-1 -0.6,-1.5 -1,-1.5 -1,0 -2.7,2.7 -3.1,4.1 0,0.2 0,0.3 0.6,0.3 2,0 3.6,-1.3 3.6,-2.9 v 0 z"
             id="path17"
             style="fill:#cab699;fill-opacity:1" />
          <path
             class="cls-5"
             d="m 116.6,35.2 c 0,1.8 -1,3.5 -1.9,5 -0.9,1.6 -2.7,3.6 -4.2,4.6 -0.9,0.6 -2,1.1 -2.6,1.1 -0.6,0 -1,-0.8 -1,-1.1 0,-0.3 0,-0.6 -0.2,-0.8 -0.2,-0.2 -0.2,-0.4 0,-0.8 0,-0.5 1.4,-5.8 2.3,-8.2 0.9,-2.5 1.8,-5 2.6,-6.6 0.4,-0.9 0.4,-1.4 0.5,-2 0,-0.3 0,-0.6 0.3,-0.8 0.2,-0.2 0.7,-0.7 1,-0.7 0.3,0 0.4,0.6 0.3,1.2 0,0.5 -1,2.6 -2.1,5.3 -0.8,1.8 -1.9,5.1 -2.1,5.6 -0.2,0.5 0,0.4 0.3,0 0.4,-0.4 2.1,-2.2 3.1,-2.8 0.9,-0.6 1.9,-1 2.5,-1 1,0 1.5,1.3 1.5,1.8 l -0.2,0.2 v 0 z m -8,9.3 c 0.4,0 1.3,-0.4 2.5,-1.3 2.4,-1.8 4.3,-6.4 4.3,-7.5 0,-1.1 -0.3,-0.9 -0.9,-0.9 -0.6,0 -2,0.7 -3.1,1.7 -1.2,1.1 -2.1,2.4 -2.8,3.7 -0.4,0.7 -0.8,2 -0.8,3.2 0,1.2 0.4,1 0.8,1 v 0 z"
             id="path18" />
          <path
             class="cls-5"
             d="m 127.6,34.2 c 0,0.4 -0.3,0.9 -0.5,1.1 -0.2,0.2 -0.5,0.2 -0.7,0 -0.2,0 -0.4,-0.3 -0.8,-0.3 -0.4,0 -1.2,0.9 -1.9,1.8 -1.9,2.3 -3.1,4.8 -4.8,8.5 0,0.2 -0.3,0.3 -0.4,0.3 -0.1,0 -0.3,0 -0.4,-0.3 -0.1,-0.3 0,-0.6 0,-1.1 0.4,-1.1 1.5,-6.6 1.7,-8.2 0,-1 0.2,-1.5 0.3,-1.8 0.2,-0.3 0.7,-0.9 0.9,-0.9 0.4,0 0.6,0.6 0.6,0.9 0,0.3 0,0.6 -0.2,0.8 -0.5,1 -1,3.5 -1.1,4.4 0,0.3 0.1,0.3 0.4,0 1.2,-1.8 2.8,-4.1 4.2,-5.4 0.8,-0.8 1.4,-1 1.7,-1 0.8,0 1,0.5 0.9,1.1 v 0 z"
             id="path19" />
          <path
             class="cls-5"
             d="m 135.4,33.6 c 0,0 0,0.2 0.3,0 h 0.5 c 0.3,0.2 0.3,0.4 0,0.8 -1.1,2.4 -1.7,4.3 -1.6,6.2 0,1.7 0.2,3.2 1.2,3.2 1.8,0 4.5,-3.9 5.6,-5.4 0.2,-0.3 0.5,-0.3 0.5,0 0,0.3 0,0.5 -0.2,0.9 -1,2.3 -4.7,6 -6.3,6 -1.6,0 -1.7,-1 -1.8,-2.4 0,-0.8 -0.2,-2.1 -0.2,-2.5 0,-0.4 0,-0.2 -0.2,0 -0.5,0.7 -2.4,3.2 -3.3,4 -0.8,0.8 -1.4,1.1 -1.7,1.1 -0.3,0 -1.3,-0.2 -1.3,-1.5 0,-1.3 0.2,-1.6 1.2,-3.7 0.8,-1.8 2.5,-4.5 4.2,-6 1.1,-1.1 1.8,-1.3 2.2,-1.3 0.4,0 0.7,0.4 0.9,0.6 z m -3.8,2.8 c -1.8,2.3 -2.7,4.8 -3.1,6.2 -0.2,0.8 0,1.3 0.5,1.3 0.5,0 0.8,-0.4 1.5,-1.1 0.7,-0.7 1.7,-2.1 2.7,-3.6 0.4,-0.6 1.2,-2.3 1.3,-2.6 0,-0.3 0.2,-0.9 0,-1.3 0,-0.5 -0.3,-0.8 -0.7,-0.8 -0.6,0 -1.4,0.8 -2.3,1.9 v 0 z"
             id="path20" />
          <path
             class="cls-5"
             d="m 145.7,33.4 c 0,0.1 0,0.2 -0.3,0.3 -0.3,0 -0.6,0.4 -0.8,0.9 -0.5,1 -1.4,4 -1.7,5.8 0,0.3 0,0.4 0.3,0 1.3,-2.1 4.5,-5.2 5.4,-6 1,-0.8 1.3,-1 1.6,-1.1 0.3,-0.1 0.5,-0.3 0.7,-0.6 0.2,-0.3 0.4,-0.5 0.5,-0.5 0.2,0 0.3,0.2 0.5,0.5 0.2,0.3 0.2,0.6 0,1.1 -0.3,0.6 -0.8,1.1 -1.1,1.9 -0.6,1.5 -1.2,3.3 -1.5,4.7 -0.6,2.8 0.2,3.8 1.3,3.8 1.8,0 5,-4.1 6.5,-6.3 0.2,-0.3 0.4,-0.3 0.4,0 0,0.3 0,0.5 -0.3,0.8 -3.1,5 -5.5,6.8 -7.2,6.8 -1.7,0 -2.5,-1.7 -1.8,-5 0.3,-1.6 0.8,-3.2 1.1,-4.1 0.2,-0.7 0.2,-0.9 0,-1 0,0 -0.4,0 -0.7,0.4 -3.6,3.2 -5.6,6.7 -6.1,7.8 -0.2,0.3 -0.6,1.2 -1,1.2 -0.4,0 -0.3,0 -0.5,-0.3 -0.2,-0.3 0,-0.9 0,-1.4 0.9,-4.8 2,-8.3 2.6,-9.5 0.6,-1.2 0.8,-1.3 1.1,-1.3 0.3,0 0.8,0.8 0.9,1.2 v 0 z"
             id="path21" />
          <path
             class="cls-5"
             d="m 164.7,33.1 c 0.3,0.2 0.4,0.2 0.5,0 1.4,-3.8 2.8,-7.8 3.2,-8.8 0.2,-0.4 0.3,-0.6 0.5,-0.6 0,0 0.3,0 0.4,0.4 0.2,0.3 0.3,0.6 0,1.1 -0.3,0.7 -1.7,4 -2.8,7.3 -0.9,2.7 -1.6,5.7 -1.7,8.3 0,1.7 0.3,2.4 0.9,2.4 1.9,0 5.4,-4.9 6.3,-6.1 0.2,-0.3 0.5,-0.3 0.5,0 0,0.3 0,0.5 -0.3,0.8 -1.3,2.5 -4.8,6.7 -7.1,6.7 -2.3,0 -1.4,-1.4 -1.3,-2.9 0,-1.6 0.2,-2.5 0.4,-3.6 0,-0.3 0,-0.2 -0.2,0 -1.5,2.2 -3.6,4.5 -4.3,5.1 -1.3,1.1 -2.7,1.8 -3,1.8 -0.3,0 -1.1,-0.2 -1.1,-1.7 0,-1.5 1.4,-5.5 3.2,-7.5 1.8,-2 3.6,-2.9 4.5,-2.9 0.9,0 0.9,0 1.4,0.3 v 0 z m -6.1,4.8 c -1.4,2.2 -1.8,3.9 -1.8,4.6 0,0.7 0.3,0.8 0.6,0.8 0.6,0 1.7,-0.7 3,-2.2 1.7,-1.8 3.6,-4.4 3.9,-5.9 0,-0.3 0,-0.6 -0.2,-0.7 0,-0.2 -0.6,-0.5 -1.4,-0.4 -1.4,0 -3,1.9 -4.2,3.9 v 0 z"
             id="path22" />
          <path
             class="cls-3"
             d="m 101.4,51.2 c 0,0 34.2,2.4 61.7,-3.4"
             id="path23"
             style="stroke-width:0.49944152;stroke-dasharray:none;stroke:#ccb899;stroke-opacity:1" />
          <path
             class="cls-7"
             d="m 100.2,65.6 c 0,5.2 -4.2,9.5 -9.5,9.5 -5.3,0 -9.5,-4.2 -9.5,-9.5 0,-5.3 4.2,-9.5 9.5,-9.5 5.3,0 9.5,4.2 9.5,9.5 z"
             id="path24"
             style="fill:#cab699;fill-opacity:1" />
          <polyline
             class="cls-2"
             points="96.7 63.7 90.7 69.7 84.7 63.7"
             id="polyline24" />
        </g>
      </g>
    </g>
    <rect
       class="cls-4"
       x="59.299999"
       y="103.4"
       width="17.200001"
       height="17.200001"
       id="rect25" />
    <rect
       class="cls-7"
       x="84.800003"
       y="103.4"
       width="17.200001"
       height="17.200001"
       id="rect26" />
    <rect
       class="cls-6"
       x="110.6"
       y="103.4"
       width="17.200001"
       height="17.200001"
       id="rect27"
       style="stroke-width:0.99888304;stroke-dasharray:none" />
    <rect
       class="cls-1"
       width="181.39999"
       height="75.199997"
       id="rect28"
       x="0"
       y="0" />
  </g>
</svg>
