<?xml version="1.0" encoding="UTF-8"?>
<svg xmlns="http://www.w3.org/2000/svg" width="64mm" height="26.5mm" version="1.1" viewBox="0 0 181.4 75.2">
  <defs>
    <style>
      .cls-1, .cls-2, .cls-3 {
        fill: none;
      }

      .cls-4 {
        fill: #2a2e3c;
      }

      .cls-5 {
        fill: #95969e;
      }

      .cls-6 {
        fill: #cab699;
      }

      .cls-2 {
        stroke: #fff;
        stroke-miterlimit: 10;
        stroke-width: 1.4px;
      }

      .cls-7 {
        fill: #f29b8f;
      }

      .cls-3 {
        stroke: #f29b8f;
        stroke-miterlimit: 4;
        stroke-width: .5px;
      }

      .cls-8 {
        fill: #2f313e;
      }

      .cls-9 {
        display: none;
      }
    </style>
  </defs>
  <!-- Generator: Adobe Illustrator 28.7.5, SVG Export Plug-In . SVG Version: 1.2.0 Build 176)  -->
  <g>
    <g id="_レイヤー_1" data-name="レイヤー_1">
      <g>
        <g id="_レイヤー_1-2" data-name="_レイヤー_1">
          <g id="_文字">
            <g>
              <g>
                <path class="cls-8" d="M31.7,13.2c-3.4,0-5.2-1.4-5.2-2.2s.3-.7.7-.7.4,0,.6.3c.8.8,2,1.2,3.4,1.2s2.1-.2,3.1-.5h.3c.5,0,.7.3.7.7s-.2.7-.7.8c-1,.3-2,.4-3,.4h0ZM33.5,4.9h-.2c-.8-.2-1.7-.3-2.6-.3s-1.6,0-2.3.2h-.2c-.4,0-.7-.3-.7-.6s.3-.7.8-.8c.7,0,1.7-.2,2.6-.2,2.7,0,3.3.3,3.3,1s-.3.7-.8.7c0,0,0,0,0,0Z"/>
                <path class="cls-8" d="M42,5.1c-1.4,0-1.9-.4-1.9-.9s.2-.6.5-.6h.4c.4,0,.8.2,1.3.2h1.1v-1.8h0c0-.4.3-.6.7-.6.6,0,.8.4.8,1.2v.8c.3,0,.6-.3.8-.4h.4c.4,0,.7.3.7.7s-.4.8-2.2,1.3c-1,3.5-2.2,6.4-3,8.1-.2.4-.5.5-.8.5s-.7-.2-.7-.7,0-.3,0-.5c.7-1.4,1.9-4,2.9-7.2h-1.1ZM49,13.3c-2.2,0-3.7-1-3.7-1.7s.3-.8.7-.8.3,0,.5.3c.5.6,1.2.8,2.1.8s1,0,1.7,0h0c.5,0,.7.3.7.7,0,.7-.7.9-2.1.9h0ZM50.5,6.6c-.6-.2-1.4-.4-2.1-.4s-.9,0-1.2.2h-.2c-.3,0-.5-.3-.5-.6,0-.8,1.7-.9,2.3-.9s1.4,0,2.1.4c.4,0,.5.4.5.7s-.2.6-.6.6-.2,0-.3,0ZM50.4,3.8c-.3-.3-1-.9-1.4-1-.2,0-.3-.3-.3-.4,0-.3.2-.5.6-.5s2.1.8,2.1,1.5-.3.6-.6.6-.3,0-.4-.2ZM51.8,2.4c-.3-.3-1-.8-1.4-1-.2,0-.3-.3-.3-.4,0-.3.2-.5.6-.5s2.1.8,2.1,1.5-.3.6-.6.6-.2,0-.4-.2Z"/>
                <path class="cls-8" d="M60.2,7.6c1-.7,2.8-2,5-2s3.7,1.2,3.7,2.9c0,2.7-4.1,4.6-4.7,4.6s-.8-.4-.8-.7.2-.6.6-.7c2.5-.9,3.4-2.2,3.4-3.1s-.8-1.7-2.3-1.7-3.9,1.2-5,2.3v1.5c0,.9,0,1.8.2,2.4h0c0,.5-.4.8-.8.8-.7,0-.8-.7-.8-1.9v-1.7c0,.2-.4.6-1.1,1.8-.2.3-.5.5-.7.5-.4,0-.7-.3-.7-.7s0-.4.7-1.2c.7-1.1,1.6-2.7,2.1-4v-.6h0c-.4.2-1,.6-1.4.8-.2,0-.3.2-.5.2-.4,0-.6-.3-.6-.7s0-.5.4-.6c.6-.3,1.5-.7,2.3-1.1l.3-3c0-.4.4-.6.7-.6s.7.2.7.6h0c0,.7-.2,1.6-.3,2.6h0c.4,0,.7.3.7.7s0,.5-.3.9l-.6,1.2v.4h-.2Z"/>
                <path class="cls-8" d="M75.6,14.3c-.4,0-.7-.3-.7-.6s.2-.5.5-.8c2-1.3,3.3-3.6,3.3-6.2s0-3.5-1.6-3.5-2,1.3-2,3.3,0,.6,0,.9h0c0,.7-.4,1-.8,1-.7,0-.7-.6-.7-1.3,0-1.1.2-2.4.4-3.2.2-.8.5-1.9.6-2.9,0-.4.4-.6.7-.6s.7.2.7.6,0,1.1-.4,1.7v.2h0l.2-.2c.6-.9,1.5-.9,1.7-.9,2.6,0,2.8,3.8,2.8,4.8,0,2.5-1.1,5.2-3.8,7.2-.3.2-.5.3-.7.3,0,0-.2.2-.2.2Z"/>
                <path class="cls-8" d="M91.7,4.7c0,1.5-2.3,7.3-4.5,7.3s-2.3-1.4-2.3-3.1,2.1-5.8,6.4-5.8,5.3,2,5.3,4.7c0,4-4.4,5.4-5,5.4s-.8-.3-.8-.7.2-.6.7-.7c2-.4,3.8-1.8,3.8-4s-1.5-3.5-3.8-3.6c.2,0,.2.3.2.6h0ZM86.2,8.7c0,1.1.6,1.7,1,1.7.9,0,2.8-3.4,3-5.8v-.5c-2.5.4-4.2,2.7-4.2,4.6h.2Z"/>
                <path class="cls-8" d="M102.4,13.5c-.5,0-.8-.4-.8-.7s.2-.6.6-.7c5.2-1.6,6.6-6.5,6.6-7s-.2-.5-1.6-.5h-5.6c-.4,0-.7-.3-.7-.7s.2-.7.7-.7h7.2c1,0,1.7.6,1.7,1.5s0,.4,0,.6c-1.1,3.2-3.1,6.3-7.6,8h-.4v.2ZM111,3.3c-.3-.3-1-.9-1.4-1-.2,0-.3-.3-.3-.4,0-.3.3-.5.6-.5s2.1.8,2.1,1.5-.3.6-.6.6-.3,0-.4-.2ZM112.4,1.9c-.3-.3-1-.8-1.4-1-.2,0-.3-.3-.3-.4,0-.3.2-.5.6-.5s2.1.8,2.1,1.5-.3.6-.6.6-.2,0-.4-.2Z"/>
                <path class="cls-8" d="M118.4,13.4h-.4c-.5,0-.8-.3-.8-.7s.2-.5.6-.7c5.1-1.4,6.1-5.1,6.1-5.4s-.2-.4-1.9-.4h-5.3c-.5,0-.7-.3-.7-.7s.2-.6.7-.6h6.9c1.2,0,1.8.5,1.8,1.4s0,.6-.2,1c-1.1,2.6-3.2,4.8-7,6h.2ZM123.7,2.1c.5,0,.7.3.7.6s-.3.6-.8.6h-5.5c-.4,0-.7-.3-.7-.6s.2-.6.8-.6h5.5Z"/>
                <path class="cls-8" d="M133.7,6.3c-.6-.6-1.7-1.1-2.4-1.3-.3,0-.4-.3-.4-.6s.3-.7.7-.7,2,.5,3.1,1.4c.2.2.3.4.3.6,0,.4-.4.9-.8.9s-.4,0-.5-.2h0ZM132.3,13c-.5,0-.8-.4-.8-.8s.2-.7.7-.8c3.3-.8,6.5-3.9,8.1-7.1,0-.3.4-.4.7-.4s.7.3.7.7,0,.3,0,.5c-3.3,6.3-8.8,7.8-9.2,7.8h0Z"/>
                <path class="cls-8" d="M148.7,13.1c0,.6-.4.8-.8.8s-.7-.3-.7-.8h0c0-1.9,0-5.5,0-8.3V1.8h0c0-.5.4-.7.7-.7s.7.2.7.7h0v3.9h0c.2,0,3.1.5,4.1,1.4.2.2.3.4.3.6,0,.4-.3.8-.7.8s-.3,0-.4-.2c-.7-.5-2.5-1.2-3.4-1.3v6h0ZM152.6,4.5c-.3-.3-1.1-.8-1.5-.9-.3,0-.4-.3-.4-.4,0-.3.3-.5.6-.5s2.1.6,2.1,1.4-.3.6-.6.6-.2,0-.4-.2h.2,0ZM154,3c-.3-.3-1.1-.8-1.5-.9-.3,0-.4-.3-.4-.4,0-.3.3-.5.6-.5s2.2.5,2.2,1.4-.3.6-.5.6-.2,0-.4-.2h0Z"/>
              </g>
              <g>
                <g>
                  <path class="cls-7" d="M19.1,32.9c.6,0,.7,0,.8-.3,0-.2.2-.3.5-.2.4,0,1.5.7,1.5,1.1s-.2.3-.7.5c-.4,0-.6.2-.8.2-.3,0-.8-.3-1.4-.3h-3.9c-.2,0-.3.2-.4.7-.3.8-1.7,5.4-1.8,5.7,0,.3,0,.4.3.4s3.5-.3,5.8-.4h2.5c.3,0,.4,0,.2.3,0,0-.4.3-.9.5-.4,0-1.9.4-2.9.5-1.7.2-3.1.4-4.6.6-.7,0-.9.3-1.1.9-.4,1.3-.8,2.2-1.1,3.3-.2.4-.2.7.2.9.5.2,1.8.2,2.3,0,.4-.2.6,0,.2.4-.6.6-1.9,1.1-2.9,1.1s-1.4,0-1.8-.4c-.2-.3-.2-.5-.2-.7s.3-.3.7-.5c.3-.2.4-.5.6-.8.2-.5.7-2.8.9-3.4,0-.3,0-.5-.3-.8-.3-.4-.2-.6.3-.8.3-.2.6-.4.8-.8,0-.2,1.5-4.8,1.7-5.9,0-.3,0-.5-.3-.5-.6,0-1,.3-1.3.6s-.5.3-.6.2v-.7c0-.3.4-.7.6-.9.5-.6,1.1-.6,1.6-.3h.3v-.6c0-.3.2-.4.4-.4.6,0,1,.7,1,1.1s0,0,.3,0h3.4v-.4h0Z"/>
                  <path class="cls-7" d="M30,36.4s0,.2.3,0h.5c.3.2.3.4,0,.8-1.1,2.4-1.7,4.3-1.6,6.2,0,1.7.2,3.2,1.2,3.2,1.8,0,4.5-3.9,5.6-5.4.2-.3.5-.3.5,0s0,.5-.2.9c-1,2.3-4.7,6-6.3,6s-1.7-1-1.8-2.4c0-.8-.2-2.1-.2-2.5s0-.2-.2,0c-.5.7-2.4,3.2-3.3,4-.8.8-1.4,1.1-1.7,1.1s-1.3-.2-1.3-1.5.2-1.6,1.2-3.7c.8-1.8,2.5-4.5,4.2-6,1.1-1.1,1.8-1.3,2.2-1.3s.7.4.9.6h0ZM26.1,39.1c-1.8,2.3-2.7,4.8-3.1,6.2-.2.8,0,1.3.5,1.3s.8-.4,1.5-1.1c.6-.6,1.7-2.1,2.7-3.6.4-.6,1.2-2.3,1.3-2.6,0-.3.2-.9,0-1.3,0-.5-.3-.8-.7-.8-.6,0-1.4.8-2.3,1.9Z"/>
                  <path class="cls-7" d="M45.8,37.2s0,.3.2.4c.4.3,1.2.4,2,.4,1.5,0,2.8-.7,3.7-1.5.3-.3.3.2,0,.6-1,1.3-2.6,1.8-4.2,1.8s-1.4,0-1.7-.2c-.1,0-.2.1-.3.4-1,3-4.7,6.9-6.6,8-.9.5-1.5.6-1.9.6s-1.2-.6-1.1-2.2c0-1.1.3-2.5,1.4-5.7,0-.2.2-.5.2-.7,0-.3,0-.5.2-.7,0-.8.6-2.6,1.3-2.6s.5,1.2.5,1.8-.3.8-.5,1.2c-.7,1.3-1.2,2.5-1.8,5.2-.4,1.9,0,2.3.5,2.2.3,0,.9-.2,1.5-.6,1.6-1.2,4.5-4.4,5.3-6.9v-.6c-.3-.4-.6-.9-.6-1.5s.5-1.3.9-1.4c.8,0,1,1.2,1.1,1.8v.2h0Z"/>
                  <path class="cls-7" d="M49.2,41.5c.5-1,1.9-3.2,2.3-3.7.2-.4.3-.6.3-.9,0-.5.2-.8.5-1,.2-.3.5-.3.8-.3s.4,0,.6-.3c0-.3.4-.5.7-.5s.7.2.6.6c0,.2,0,.4.2.6.6.6,1.7,1.4,1.7,3.6s-.7,3.1-1.6,4.3c-1.9,2.6-4.2,3.6-5.3,3.6s-1.6-.9-1.7-1.8c0-1.4.6-3.4,1-4.2h0ZM50.5,46.2c.7,0,1.6-.4,2.4-1.2,1.2-1.1,2.8-3.7,2.7-5.5,0-1.1-.2-2.6-1.7-2.5-.5,0-1,.5-1.8,1.5s-2.7,4.2-2.7,6.5.4,1.2,1,1.2h0Z"/>
                  <path class="cls-7" d="M68.5,35.8c0,.4-.3.9-.5,1.1-.2.2-.5.2-.7,0-.2,0-.4-.3-.8-.3s-1.2.9-1.9,1.8c-1.9,2.3-3.1,4.8-4.8,8.5,0,.2-.3.3-.4.3s-.3,0-.4-.3v-1.1c.4-1.1,1.5-6.6,1.7-8.2,0-1,.2-1.5.3-1.8.2-.3.7-.9.9-.9.4,0,.6.6.6.9s0,.6-.2.8c-.5,1-1,3.5-1.1,4.4,0,.3.1.3.4,0,1.2-1.8,2.8-4.1,4.2-5.4.8-.8,1.4-1,1.7-1,.8,0,1,.5.9,1.1h0Z"/>
                  <path class="cls-7" d="M69.1,45.9c-.4-.6-.4-1.4-.2-2,.2-.7.9-3.3,1.3-4.6,0-.3.2-.5.2-.7,0-.3,0-.5.2-.9.5-1,1.7-3.1,2.3-3.1s.2,0,.3.2c0,.2.2.6,0,1.2-1.2,2.1-2.6,5.9-3.1,7.8-.3,1.4,0,1.7.6,1.7,2.2,0,6-4,8.1-6.3.3-.3.5-.3.5,0s0,.5-.3.8c-1.5,2.3-5.2,5.3-7,6.3s-1.3.7-1.6.7-.8-.3-1.3-1.1h0ZM74.9,29.5c-.2.7-.3,1.7-.2,2.4,0,.3-.2.4-.5.2-.4-.3-.5-.6-.6-.9v-1.1c0-1.1.4-1.2.8-1.2s.8.3.6.8v-.2h0Z"/>
                  <path class="cls-7" d="M85.4,43c.3-.2.5,0,.2.3-.5.6-2.1,2-4.9,3.2-.5.2-.8.3-1.1.3-.5,0-1.8-.5-1.8-1.7s0-1,.4-1.7c.3-1,1.3-4.7,1.7-5.5,0-.3,0-.4-.2-.3-.5,0-1.4.2-1.7.2h-.7c-.2-.2-.2-.5,0-.7s.4-.3.8-.4c.6,0,1.2-.2,1.8-.3.4,0,.5-.2.5-.4.2-.5,1.2-3.7,1.5-4.5,0-.4.6-1,1.1-1.1.2,0,.3,0,.4.4v.9c-1,2-1.5,3.8-1.6,4.1,0,.2,0,.3.3.3.7,0,3.7-.4,6.2-.4s.3.5-.3.6c-1.1.2-3,.5-6.4,1.1-.3,0-.4,0-.5.4-.6,1.8-1.5,4.8-1.7,6.1s.2,1.7,1,1.7c1.7,0,4.2-1.8,4.9-2.4h0v-.2Z"/>
                  <path class="cls-7" d="M89.7,37.8c.6-1,2.5-3.7,3.6-3.8.4,0,.6.3.5.6,0,0,0,.2.3.3.6,0,1.1.5,1.1,1.4s-.3,2.2-.9,2.9c-1,1.2-2.3,2.2-4,2.2s-.5,0-.7-.3h-.3c-.2.4-.3,1.1-.3,1.8,0,1.5.8,2.3,1.9,2.2,2.4,0,6.4-3.1,8-5.1.2-.3.4-.3.5,0,0,.2,0,.5-.3.8-1.9,2.7-5.9,5.5-8.6,5.6-1.1,0-2.7-.5-2.8-3.1,0-1.6.8-3.7,1.8-5.5,0,0,.2,0,.2,0ZM94.1,37.2c0-1-.6-1.5-1-1.5-1,0-2.7,2.7-3.1,4.1,0,.2,0,.3.6.3,2,0,3.6-1.3,3.6-2.9h0Z"/>
                  <path class="cls-5" d="M116.6,35.2c0,1.8-1,3.5-1.9,5-.9,1.6-2.7,3.6-4.2,4.6-.9.6-2,1.1-2.6,1.1s-1-.8-1-1.1,0-.6-.2-.8-.2-.4,0-.8c0-.5,1.4-5.8,2.3-8.2.9-2.5,1.8-5,2.6-6.6.4-.9.4-1.4.5-2,0-.3,0-.6.3-.8.2-.2.7-.7,1-.7s.4.6.3,1.2c0,.5-1,2.6-2.1,5.3-.8,1.8-1.9,5.1-2.1,5.6s0,.4.3,0c.4-.4,2.1-2.2,3.1-2.8.9-.6,1.9-1,2.5-1,1,0,1.5,1.3,1.5,1.8l-.2.2h0ZM108.6,44.5c.4,0,1.3-.4,2.5-1.3,2.4-1.8,4.3-6.4,4.3-7.5s-.3-.9-.9-.9-2,.7-3.1,1.7c-1.2,1.1-2.1,2.4-2.8,3.7-.4.7-.8,2-.8,3.2s.4,1,.8,1h0Z"/>
                  <path class="cls-5" d="M127.6,34.2c0,.4-.3.9-.5,1.1-.2.2-.5.2-.7,0-.2,0-.4-.3-.8-.3s-1.2.9-1.9,1.8c-1.9,2.3-3.1,4.8-4.8,8.5,0,.2-.3.3-.4.3s-.3,0-.4-.3,0-.6,0-1.1c.4-1.1,1.5-6.6,1.7-8.2,0-1,.2-1.5.3-1.8.2-.3.7-.9.9-.9.4,0,.6.6.6.9s0,.6-.2.8c-.5,1-1,3.5-1.1,4.4,0,.3.1.3.4,0,1.2-1.8,2.8-4.1,4.2-5.4.8-.8,1.4-1,1.7-1,.8,0,1,.5.9,1.1h0Z"/>
                  <path class="cls-5" d="M135.4,33.6s0,.2.3,0h.5c.3.2.3.4,0,.8-1.1,2.4-1.7,4.3-1.6,6.2,0,1.7.2,3.2,1.2,3.2,1.8,0,4.5-3.9,5.6-5.4.2-.3.5-.3.5,0s0,.5-.2.9c-1,2.3-4.7,6-6.3,6s-1.7-1-1.8-2.4c0-.8-.2-2.1-.2-2.5s0-.2-.2,0c-.5.7-2.4,3.2-3.3,4-.8.8-1.4,1.1-1.7,1.1s-1.3-.2-1.3-1.5.2-1.6,1.2-3.7c.8-1.8,2.5-4.5,4.2-6,1.1-1.1,1.8-1.3,2.2-1.3s.7.4.9.6h0ZM131.6,36.4c-1.8,2.3-2.7,4.8-3.1,6.2-.2.8,0,1.3.5,1.3s.8-.4,1.5-1.1,1.7-2.1,2.7-3.6c.4-.6,1.2-2.3,1.3-2.6,0-.3.2-.9,0-1.3,0-.5-.3-.8-.7-.8-.6,0-1.4.8-2.3,1.9h0Z"/>
                  <path class="cls-5" d="M145.7,33.4c0,.1,0,.2-.3.3-.3,0-.6.4-.8.9-.5,1-1.4,4-1.7,5.8,0,.3,0,.4.3,0,1.3-2.1,4.5-5.2,5.4-6,1-.8,1.3-1,1.6-1.1s.5-.3.7-.6.4-.5.5-.5c.2,0,.3.2.5.5s.2.6,0,1.1c-.3.6-.8,1.1-1.1,1.9-.6,1.5-1.2,3.3-1.5,4.7-.6,2.8.2,3.8,1.3,3.8,1.8,0,5-4.1,6.5-6.3.2-.3.4-.3.4,0s0,.5-.3.8c-3.1,5-5.5,6.8-7.2,6.8s-2.5-1.7-1.8-5c.3-1.6.8-3.2,1.1-4.1.2-.7.2-.9,0-1,0,0-.4,0-.7.4-3.6,3.2-5.6,6.7-6.1,7.8-.2.3-.6,1.2-1,1.2s-.3,0-.5-.3,0-.9,0-1.4c.9-4.8,2-8.3,2.6-9.5s.8-1.3,1.1-1.3.8.8.9,1.2h0Z"/>
                  <path class="cls-5" d="M164.7,33.1c.3.2.4.2.5,0,1.4-3.8,2.8-7.8,3.2-8.8.2-.4.3-.6.5-.6,0,0,.3,0,.4.4.2.3.3.6,0,1.1-.3.7-1.7,4-2.8,7.3-.9,2.7-1.6,5.7-1.7,8.3,0,1.7.3,2.4.9,2.4,1.9,0,5.4-4.9,6.3-6.1.2-.3.5-.3.5,0s0,.5-.3.8c-1.3,2.5-4.8,6.7-7.1,6.7s-1.4-1.4-1.3-2.9c0-1.6.2-2.5.4-3.6,0-.3,0-.2-.2,0-1.5,2.2-3.6,4.5-4.3,5.1-1.3,1.1-2.7,1.8-3,1.8s-1.1-.2-1.1-1.7,1.4-5.5,3.2-7.5,3.6-2.9,4.5-2.9.9,0,1.4.3h0ZM158.6,37.9c-1.4,2.2-1.8,3.9-1.8,4.6s.3.8.6.8c.6,0,1.7-.7,3-2.2,1.7-1.8,3.6-4.4,3.9-5.9,0-.3,0-.6-.2-.7,0-.2-.6-.5-1.4-.4-1.4,0-3,1.9-4.2,3.9h0Z"/>
                </g>
                <path class="cls-3" d="M101.4,51.2s34.2,2.4,61.7-3.4"/>
              </g>
              <g>
                <path class="cls-7" d="M100.2,65.6c0,5.2-4.2,9.5-9.5,9.5s-9.5-4.2-9.5-9.5,4.2-9.5,9.5-9.5,9.5,4.2,9.5,9.5Z"/>
                <polyline class="cls-2" points="96.7 63.7 90.7 69.7 84.7 63.7"/>
              </g>
            </g>
          </g>
        </g>
        <g id="_素材" class="cls-9">
          <rect class="cls-4" x="59.3" y="103.4" width="17.2" height="17.2"/>
          <rect class="cls-7" x="84.8" y="103.4" width="17.2" height="17.2"/>
          <rect class="cls-6" x="110.6" y="103.4" width="17.2" height="17.2"/>
        </g>
      </g>
      <rect class="cls-1" width="181.4" height="75.2"/>
    </g>
  </g>
</svg>