<?xml version="1.0" encoding="UTF-8"?>
<svg xmlns="http://www.w3.org/2000/svg" width="416.1" height="104.3" version="1.1" viewBox="0 0 416.1 104.3">
  <defs>
    <style>
      .cls-1, .cls-2 {
        fill: none;
      }

      .cls-2 {
        stroke: #c7b498;
        stroke-miterlimit: 4;
        stroke-width: 1.1px;
      }

      .cls-3 {
        fill: #292e3c;
      }

      .cls-4 {
        fill: #94959e;
      }

      .cls-5 {
        fill: #db958d;
      }

      .cls-6 {
        display: none;
      }
    </style>
  </defs>
  <!-- Generator: Adobe Illustrator 28.7.5, SVG Export Plug-In . SVG Version: 1.2.0 Build 176)  -->
  <g>
    <g id="_レイヤー_1" data-name="レイヤー_1">
      <g>
        <path class="cls-2" d="M60,70.6s193.8,5.8,321-8.6"/>
        <path class="cls-4" d="M56.1,24.6c0,.4.1.6.6.7,1.3,0,4.2.7,4.9,1,.4,0,.5.2.5.5,0,.6-1.9.6-2.3.6h-4c-.6,0-.8.4-1.3,1.4-3.6,8.1-9.8,22.4-10.9,28.3-.1.7-.1,1,.5,1,3,0,5.6-.2,6.4-.2h1.9c.7.1.7.6-.4,1.1-2.3.8-6.5,1.4-8.5,1.4s-1,.8-1.7,1.1h-.5c-.2,0-.5-.2-.7-.6-.4-.5-.6-.6-1.1-.6-.7,0-1.9.5-2.9.8-.5,0-.7,0-1.2-.5-.6-.6-.5-1.6.2-2,1.1-.7,2.6-.8,4.4-.8s.5,0,.6-.7c1.6-7.2,5.3-16.3,10.1-28.6.4-.8.2-1.1-.6-1.1-1.2,0-3.1.1-4,.4-.8.1-1.3.1-1.6-.4-.4-.4-.4-1.2.7-1.8.5-.4.8-.4,1.7-.5,1.1,0,3.4-.2,4.3-.2s1,0,1.1-.1c.6-1.1,1-2.2,2.2-2,.8,0,1.3,1.2,1.3,1.9h.1Z"/>
        <path class="cls-4" d="M73.1,34.9c0,.5-.2.5-.6.6-.8.2-1.4,1-2,2.2-1.2,2.4-3.6,9.3-4.4,13.4,0,.8.2,1,.7.4,3.2-4.9,11-12.2,13.2-13.9,2.4-1.9,3.1-2.3,4-2.5.6-.2,1.2-.7,1.7-1.4.5-.6,1-1.2,1.3-1.2s.8.4,1.2,1.1c.4.6.4,1.4-.4,2.6-.7,1.4-1.9,2.6-2.6,4.4-1.7,3.4-3.1,7.7-4,11-1.7,6.6.1,9,2.8,9,4.3,0,12.2-9.5,15.9-14.6.5-.7.8-.7,1.1-.2,0,.5-.1,1.1-.7,1.9-7.7,11.6-13.4,15.7-17.6,15.7s-5.8-4.2-4.1-12c.8-3.8,2.2-7.6,2.9-9.6.6-1.7.6-2,.4-2.3-.2-.1-.8.1-1.8.8-8.8,7.4-13.8,15.6-15,18.2-.4.7-1.4,2.9-2.5,2.9s-.7-.4-1.1-.7c-.4-.5,0-2.2.4-3.4,2.5-11.4,5.4-19.5,6.8-22.3,1.4-2.9,2-3.1,2.6-3.1,1.1,0,1.9,2,1.9,2.9h0Z"/>
        <path class="cls-4" d="M126,13.9c.4.4.5,1.1,0,1.7-.4.5-.8,1.1-1.7,1.1-7.2,0-12.9,7.6-16.3,18.5-.1.6,0,.7.6.6,6.4-.6,9.6-1.4,12.8-2.5,1.7-.6,1.4.4.5,1-4.1,2.3-13.2,4.3-14.4,4.6-.7.1-.8.5-1.1,1.2-.4,1.6-2.8,9.8-3.5,12.5-3.2,12.5-5.4,19.3-7.7,25.3-2.2,5.4-5,11-10.2,12.6-.5.1-1.1.4-1.7.4s-1,0-1.2-.1c-.4-.5-.4-1.1.4-1.9.8-1.1,1.7-1.6,2.4-1.8,4.6-1.4,7.4-6,11.1-18,1.1-3.2,5.3-19.8,7.1-28.8.1-.7,0-.8-.6-.8-2-.1-2.6-1.1-2.6-1.4s.5-.8,1.1-1.1c.6-.2,1.4-.4,2.8-.4s.6-.4.8-1c2.8-7.8,6.1-13.4,11.1-17.5,3.1-2.5,6.4-4.2,8.2-4.2s1.6.1,1.9.5v-.2Z"/>
        <path class="cls-4" d="M119.6,47.6c1.1-2.3,4.8-7.6,5.5-8.7.6-.8.8-1.4.8-2.2,0-1.2.5-1.9,1.1-2.4.5-.6,1.1-.6,1.9-.7.7,0,1.1-.2,1.4-.6.2-.6.8-1.1,1.6-1.1s1.6.4,1.4,1.3c0,.4,0,1,.4,1.3,1.4,1.3,4,3.4,4,8.6s-1.9,7.4-4.1,10.3c-4.7,6.2-10.2,8.4-12.8,8.4s-3.8-2.3-3.8-4.4c0-3.4,1.7-7.9,2.5-9.9h.1ZM122.5,59c1.7,0,3.8-.8,5.8-2.6,2.9-2.6,6.7-8.7,6.7-13.1s-.4-6.1-3.8-6.1-2.4,1.2-4.3,3.5c-2,2.4-6.7,9.8-6.6,15.3,0,1.7.8,2.9,2.4,2.9h-.1Z"/>
        <path class="cls-4" d="M167.9,34.7c-.1.8-.8,2-1.3,2.5s-1.1.5-1.7,0c-.4-.4-1-.7-1.8-.7-1.2,0-3,2.2-4.7,4.1-4.7,5.5-7.6,11.3-11.7,20.1-.2.6-.6.6-1.1.7-.4,0-.8-.4-1-.7-.4-.6,0-1.6.2-2.5,1.1-2.6,3.8-15.6,4.4-19.4.4-2.4.5-3.7.8-4.2.4-.6,1.6-2.2,2.3-2.2s1.4,1.6,1.3,2.3c0,.8-.4,1.4-.6,1.9-1.2,2.4-2.6,8.4-2.9,10.5-.1,1.2.1,1.3.8.1,2.9-4.3,6.8-9.6,10.2-12.7,2-1.9,3.4-2.4,4.2-2.4,1.9,0,2.4,1.3,2.2,2.5h.2Z"/>
        <path class="cls-4" d="M195.7,35.5c-1,2.3-5.5,16.2-5.6,17.1,0,.7,0,1.1.2,1.4.2.4.8,0,1.8-1.2,6.8-7.9,16.3-18.7,17.1-19.5.8-1,1.3-1.1,1.7-1.1.6,0,1.4,1.3,1.4,2.5s-.5,1.2-1.3,1.8c-.5.4-.8,1-1.3,1.7-1.1,2-2.6,6.8-3.5,12.1-.8,5.4-.4,7.7,2.5,7.6,3.6,0,8.6-4.3,15.7-13.8.6-.6,1-.7,1.1-.2,0,.5-.1,1.2-.7,1.9-6.7,10.7-13.7,15-17.4,15s-5-3.1-4.3-9c.5-4.3,1.3-7.6,2-10.2.1-.7,0-.8-.8,0-3.2,3.8-11.7,13.7-14.4,16.5-1.6,1.7-2.2,2.2-2.8,2.2-1.1,0-1.2-3.1,0-7.2.5-1.9,3-10.3,3.5-12,.5-1.4.2-1.8,0-2-.1-.1-.6,0-1.1.5-2,1.3-13.2,15.7-15.7,19.1-.8,1.2-1.8,2.2-2.4,2.2-1,0-1.6-1.6-1.3-4.3.2-2,2.2-9.6,4.3-16.3.1-.5.1-.8.2-1.2,0-.4.1-1.4.5-2.6.6-1.8,1.2-4.9,2.4-4.9s.7.2,1.1.7c.8,1.1,1,2.4,0,4.2-1.8,3.6-4.2,14-4.9,16.5-.5,2,.2,2.6,1,1.6,4.2-5.5,9.3-12.2,14.1-17.1,1.9-2,3.2-3.4,4.2-4.3s1.6-1.4,1.9-1.4c1.4,0,1.8,2,1.1,3.7l-.4.2Z"/>
        <path class="cls-4" d="M242.9,32.4c0,.2.4.4.6.2.5-.4.8-.4,1.3,0,.7.4.7,1.1.2,1.9-2.5,5.6-4,10.2-3.8,14.7,0,4.1.5,7.7,2.9,7.6,4.2,0,10.8-9.2,13.4-12.9.5-.7,1.1-.7,1.1-.2s-.1,1.2-.5,2c-2.5,5.4-11.3,14.1-15,14.3-1.4,0-4.1-2.4-4.3-5.8-.2-1.9-.5-5.2-.5-6s-.1-.6-.6,0c-1.2,1.7-5.8,7.6-7.8,9.5-1.8,1.8-3.2,2.6-4.2,2.6s-3-.5-3.1-3.5c0-1.2.4-3.8,2.8-8.6,2-4.3,6-10.7,10.1-14.1,2.8-2.6,4.3-3.1,5.2-3.1s1.7.8,2,1.4h.2ZM233.6,38.8c-4.3,5.4-6.4,11.4-7.4,14.7-.5,1.8-.1,3,1.1,3s1.9-1,3.5-2.6c1.3-1.4,4.1-4.9,6.5-8.5s2.8-5.5,3-6.1c.4-.8.5-2,.4-3.1-.2-1.1-.6-1.8-1.7-1.8s-3.4,1.9-5.4,4.4h.1Z"/>
        <path class="cls-4" d="M275.8,50.6c.8-.6,1.2.1.6.7-1.3,1.3-5,4.8-11.6,7.7-1.1.5-2,.6-2.6.6-1.3,0-4.2-1.2-4.2-4.1s.4-2.4,1-4.1c.7-2.4,3.2-11.3,4-13.2.4-.8.1-.8-.5-.8-1.2,0-3.4.5-4.1.6-.7,0-1.2,0-1.6-.2-.6-.5-.5-1.1,0-1.7.5-.5.8-.7,2-1,1.3-.2,2.9-.5,4.3-.7.8,0,1.1-.5,1.3-1,.5-1.2,2.9-8.9,3.5-10.7.2-1,1.3-2.5,2.6-2.5s.7.2,1,.8c.1.6.2,1.2-.2,2.2-2.3,4.9-3.6,9.1-3.8,9.8-.2.6,0,.7.7.6,1.7-.1,8.9-.8,14.7-1.1,1.7,0,.7,1.2-.7,1.4-2.6.6-7.2,1.2-15.3,2.5-.7,0-1,.2-1.2,1-1.6,4.3-3.6,11.3-4.1,14.4-.4,3.1.5,4.1,2.4,4.1,4.2,0,9.9-4.3,11.7-5.6v.2Z"/>
        <path class="cls-4" d="M284.2,56.6c-.8-1.4-1.1-3.2-.6-4.9.5-1.6,2.2-7.9,3.1-10.9.2-.8.4-1.2.5-1.7,0-.6.2-1.3.6-2.2,1.1-2.3,4.1-7.4,5.4-7.4s.6.2.7.6c.2.4.5,1.3-.4,2.8-2.9,5-6.1,14-7.2,18.7-.7,3.2.4,4.1,1.6,4.1,5.3-.1,14.4-9.5,19.3-15,.7-.7,1.1-.7,1.1-.2s0,1.2-.6,1.9c-3.6,5.5-12.3,12.7-16.7,15.1-2.3,1.2-3.2,1.6-3.8,1.6-1,0-1.9-.7-3.1-2.5h.1ZM297.7,17.3c-.5,1.6-.6,4.2-.4,5.6,0,.8-.4,1-1.2.5-1-.6-1.2-1.3-1.4-2.3-.2-.8-.4-1.9-.4-2.6,0-2.6.8-3,1.9-3s1.8.7,1.4,1.8h0Z"/>
        <path class="cls-4" d="M308.8,43.9c1.1-2.3,4.6-7.7,5.3-8.9.5-1,.7-1.4.7-2.2,0-1.2.5-1.9,1.1-2.4.5-.7,1.1-.7,1.9-.7s1.1-.2,1.4-.7c.2-.6.8-1.1,1.6-1.1s1.6.4,1.6,1.3,0,1,.4,1.3c1.6,1.3,4,3.2,4.2,8.5,0,1.7-1.7,7.4-3.8,10.3-4.6,6.4-9.9,8.6-12.6,8.7-1.4,0-3.8-2.2-4-4.3,0-3.4,1.4-8,2.3-9.9h0ZM312,55.1c1.7,0,3.8-1,5.6-2.8,2.8-2.6,6.5-8.9,6.4-13.2,0-2.5-.5-6.1-4.1-6-1.3,0-2.3,1.2-4.3,3.6-1.9,2.4-6.4,9.9-6.2,15.6,0,1.7,1,2.8,2.4,2.8h.2Z"/>
        <path class="cls-4" d="M344.7,29.7c0,.5-.2.5-.6.7-.8.2-1.3,1.1-1.9,2.3-1.1,2.4-3.2,9.5-3.8,13.5,0,.8.2,1,.7.2,3-5,10.4-12.6,12.6-14.5,2.4-1.9,3.1-2.4,3.8-2.6.6-.2,1.2-.7,1.6-1.6.5-.7,1-1.2,1.2-1.3.5,0,.8.4,1.3,1.1.5.6.4,1.4-.2,2.6-.7,1.4-1.8,2.8-2.5,4.4-1.4,3.5-2.8,7.8-3.5,11.1-1.3,6.6.5,9,3.1,8.9,4.3-.1,11.7-9.9,15.3-15.2.5-.7.8-.7,1.1-.2,0,.5,0,1.2-.6,1.9-7.3,11.9-12.8,16.3-17,16.4-3.4.1-5.9-4-4.6-11.7.7-3.8,1.9-7.7,2.5-9.7.5-1.7.5-2,.2-2.3-.2-.1-.8.2-1.8,1-8.5,7.7-13.2,16.1-14.3,18.8-.4.7-1.3,2.9-2.4,3-.4,0-.7-.2-1.1-.7-.5-.5,0-2.2.2-3.4,2-11.5,4.6-19.7,6-22.5,1.3-3,1.9-3.1,2.5-3.2,1.1,0,2,1.9,2,2.8v.2Z"/>
        <rect class="cls-1" width="416.1" height="104.3"/>
      </g>
      <g id="_素材" class="cls-6">
        <rect class="cls-3" x="504.7" y="129.9" width="17.2" height="17.2"/>
        <rect class="cls-5" x="530.3" y="129.9" width="17.2" height="17.2"/>
      </g>
    </g>
  </g>
</svg>