<?xml version="1.0" encoding="UTF-8" standalone="no"?>
<svg
   width="64mm"
   height="26.5mm"
   version="1.1"
   viewBox="0 0 181.4 75.1"
   id="svg29"
   sodipodi:docname="midashi_FormalStyle.svg"
   inkscape:version="1.4.2 (ebf0e940, 2025-05-08)"
   xmlns:inkscape="http://www.inkscape.org/namespaces/inkscape"
   xmlns:sodipodi="http://sodipodi.sourceforge.net/DTD/sodipodi-0.dtd"
   xmlns="http://www.w3.org/2000/svg"
   xmlns:svg="http://www.w3.org/2000/svg">
  <sodipodi:namedview
     id="namedview29"
     pagecolor="#505050"
     bordercolor="#eeeeee"
     borderopacity="1"
     inkscape:showpageshadow="0"
     inkscape:pageopacity="0"
     inkscape:pagecheckerboard="0"
     inkscape:deskcolor="#505050"
     inkscape:document-units="mm"
     inkscape:zoom="3.4395833"
     inkscape:cx="121.38098"
     inkscape:cy="50.006057"
     inkscape:window-width="1680"
     inkscape:window-height="999"
     inkscape:window-x="0"
     inkscape:window-y="25"
     inkscape:window-maximized="0"
     inkscape:current-layer="svg29" />
  <defs
     id="defs1">
    <style
       id="style1">
      .cls-1, .cls-2, .cls-3 {
        fill: none;
      }

      .cls-4 {
        fill: #2a2e3c;
      }

      .cls-5 {
        fill: #95969e;
      }

      .cls-6 {
        fill: #cab699;
      }

      .cls-2 {
        stroke: #fff;
        stroke-miterlimit: 10;
        stroke-width: 1.4px;
      }

      .cls-7 {
        fill: #f29b8f;
      }

      .cls-3 {
        stroke: #f29b8f;
        stroke-miterlimit: 4;
        stroke-width: .5px;
      }

      .cls-8 {
        fill: #2f313e;
      }

      .cls-9 {
        display: none;
      }
    </style>
  </defs>
  <!-- Generator: Adobe Illustrator 28.7.5, SVG Export Plug-In . SVG Version: 1.2.0 Build 176)  -->
  <g
     id="g34">
    <g
       id="g33">
      <g
         id="g32">
        <g
           id="g31">
          <g
             id="g30">
            <g
               id="g29">
              <rect
                 class="cls-1"
                 width="181.39999"
                 height="75.199997"
                 id="rect1"
                 x="0"
                 y="0" />
              <path
                 class="cls-3"
                 d="m 102.8,47.1 c 0,0 34.3,1.4 61.7,-5.3"
                 id="path1"
                 style="stroke:#ccb799;stroke-opacity:1" />
              <path
                 class="cls-8"
                 d="m 7.7,9.4 v 3 c 0.7,0.2 1.5,0.2 2.3,0.2 0.8,0 2,0 3,-0.1 v 0 c 0.4,0 0.6,0.3 0.6,0.6 0,0.3 -0.2,0.6 -0.7,0.7 -0.9,0 -1.8,0.1 -2.7,0.1 -2.8,0 -5.3,-0.6 -6.5,-3.1 -0.9,2 -2.5,3.3 -3.1,3.3 -0.6,0 -0.7,-0.4 -0.7,-0.7 0,-0.3 0,-0.4 0.3,-0.5 2,-1.2 2.7,-3 3,-4.9 0,-0.4 0.3,-0.6 0.6,-0.6 0.3,0 0.7,0.2 0.7,0.6 0,0.4 0,0.3 -0.2,1.1 0.3,1.4 1,2.2 2,2.7 V 6 H 3.2 C 2.8,6 2.6,5.7 2.6,5.4 2.6,5.1 2.8,4.8 3.2,4.8 h 7.4 c 0.4,0 0.6,0.3 0.6,0.6 C 11.2,5.7 11,6 10.6,6 h -3 v 2.1 h 3.7 c 0.4,0 0.6,0.3 0.6,0.6 0,0.3 -0.2,0.6 -0.6,0.6 H 7.6 7.7 Z m 3.9,-4.3 c 0,-1.7 0,-1.9 -1,-1.9 H 3.1 c -0.8,0 -1,0.3 -1,0.9 V 5.2 C 2.1,5.6 1.8,5.8 1.4,5.8 1,5.8 0.7,5.6 0.7,5.2 V 3.7 C 0.7,2.9 1.3,2.2 2.5,2.2 H 6.2 V 0.6 C 6.2,0.2 6.5,0 6.9,0 7.3,0 7.6,0.2 7.6,0.6 V 2 h 3.6 c 0.9,0 1.7,0.7 1.7,1.6 V 5 c 0,0.4 -0.4,0.6 -0.7,0.6 -0.3,0 -0.7,-0.2 -0.7,-0.6 h 0.1 z"
                 id="path2" />
              <path
                 class="cls-8"
                 d="m 30.4,5.2 h -5 c 1.7,1.2 3.3,1.9 5.3,2.6 0.4,0 0.5,0.4 0.5,0.6 0,0.2 -0.3,0.7 -0.8,0.7 -0.5,0 -3.1,-1.2 -5.7,-3.3 v 1.6 0 c 0,0.4 -0.3,0.5 -0.7,0.5 -0.4,0 -0.6,-0.2 -0.6,-0.5 v 0 -1.6 C 21,8 18.1,9.3 17.6,9.3 17.1,9.3 16.9,9 16.9,8.7 16.9,8.4 17.1,8.2 17.4,8.1 19.5,7.3 20.9,6.5 22.5,5.2 H 17.7 C 17.3,5.2 17.1,4.9 17.1,4.6 17.1,4.3 17.3,4 17.7,4 h 3.1 C 20.5,3.6 20.2,3.3 19.9,3 c 0,0 -0.1,-0.2 -0.1,-0.3 0,-0.3 0.3,-0.5 0.7,-0.5 0.4,0 0.2,0 0.3,0 0,0 1.4,1.2 1.4,1.9 h 1.2 V 1.9 c -1.4,0 -3.2,0.2 -4.1,0.2 -0.9,0 -0.6,-0.3 -0.6,-0.6 0,-0.3 0.2,-0.6 0.6,-0.6 2.7,0 5.8,-0.1 8.7,-0.7 h 0.2 c 0.4,0 0.6,0.3 0.6,0.6 0,0.3 -0.2,0.5 -0.5,0.6 -1,0.2 -2.2,0.3 -3.5,0.4 V 4.1 H 26 c 0.4,-0.6 0.8,-1.3 1,-1.8 0,-0.3 0.3,-0.4 0.5,-0.4 0.4,0 0.8,0.3 0.8,0.6 0,0.3 -0.9,1.5 -0.9,1.5 h 3.2 c 0.4,0 0.6,0.3 0.6,0.6 0,0.3 -0.2,0.5 -0.6,0.5 h -0.2 v 0 z M 27,13.9 h -5.6 c -1.1,0 -1.6,-0.6 -1.6,-1.4 V 9.6 c 0,-0.6 0.6,-1.3 1.6,-1.4 h 5.5 c 1.1,0 1.6,0.7 1.7,1.3 v 3 c 0,0.8 -0.7,1.4 -1.7,1.4 z M 23.5,9.2 h -1.8 c -0.8,0 -0.8,0.5 -0.8,1.4 h 2.6 z m 0,2.3 h -2.6 v 0.8 c 0,0.7 0.4,0.7 2.6,0.7 z m 3.9,-0.9 V 9.9 c 0,-0.7 -0.3,-0.7 -2.7,-0.7 v 1.4 z m -2.7,0.9 V 13 h 1.9 c 0.8,0 0.8,-0.5 0.8,-1.4 h -2.7 v 0 z"
                 id="path3" />
              <path
                 class="cls-8"
                 d="m 41.6,4.6 c 0,1.5 -2.3,7.3 -4.5,7.3 -2.2,0 -2.3,-1.4 -2.3,-3.1 0,-1.7 2.1,-5.8 6.4,-5.8 4.3,0 5.3,2 5.3,4.7 0,4 -4.4,5.4 -5,5.4 -0.6,0 -0.8,-0.3 -0.8,-0.7 0,-0.4 0.2,-0.6 0.7,-0.7 2,-0.4 3.8,-1.8 3.8,-4 0,-2.2 -1.5,-3.5 -3.8,-3.6 0.2,0 0.2,0.3 0.2,0.6 v 0 z m -5.5,4.1 c 0,1.1 0.6,1.7 1,1.7 0.9,0 2.8,-3.4 3,-5.8 V 4.1 c -2.5,0.4 -4.2,2.7 -4.2,4.6 z"
                 id="path4" />
              <path
                 class="cls-8"
                 d="m 52.4,13.4 c -0.5,0 -0.8,-0.4 -0.8,-0.7 0,-0.3 0.2,-0.6 0.6,-0.7 5.2,-1.6 6.6,-6.5 6.6,-7 0,-0.5 -0.2,-0.5 -1.6,-0.5 h -5.6 c -0.4,0 -0.7,-0.4 -0.7,-0.7 0,-0.3 0.2,-0.7 0.7,-0.7 h 7.2 c 1,0 1.7,0.6 1.7,1.5 0,0.9 0,0.4 0,0.6 -1.1,3.2 -3.1,6.3 -7.6,8 h -0.4 v 0.2 z"
                 id="path5" />
              <path
                 class="cls-8"
                 d="m 65.1,12.6 c -0.4,0 -0.6,-0.3 -0.6,-0.6 0,-0.3 0,-0.4 0.4,-0.5 1.6,-0.8 2.9,-2.2 3.9,-3.6 h -3 c -0.4,0 -0.6,-0.3 -0.6,-0.6 0,-0.3 0.2,-0.5 0.6,-0.5 h 3.7 v -1.5 0 c 0,-0.4 0.3,-0.6 0.6,-0.6 0.3,0 0.6,0.2 0.6,0.6 v 1.6 h 1.9 c 0.6,0 0.7,0.3 0.7,0.6 0,0.3 -0.2,0.6 -0.7,0.6 h -1.9 v 4.3 0 c 0,0.9 -0.5,1.5 -1.6,1.5 -1.1,0 -1.4,0 -1.4,-0.7 0,-0.7 0.2,-0.6 0.6,-0.6 0.4,0 0,0 0.2,0 0.2,0 0.4,0.1 0.6,0.1 0.3,0 0.5,-0.1 0.5,-0.4 V 9.1 c -1.8,2.4 -3.8,3.8 -4.4,3.8 L 65,12.6 Z"
                 id="path6" />
              <path
                 class="cls-8"
                 d="m 78.3,7.7 c -0.5,0 -0.7,-0.3 -0.7,-0.7 0,-0.4 0.3,-0.7 0.7,-0.7 h 10.1 c 0.5,0 0.7,0.3 0.7,0.7 0,0.4 -0.2,0.7 -0.7,0.7 z"
                 id="path7" />
              <path
                 class="cls-8"
                 d="m 101.6,11.3 c 0,0.4 -0.4,0.8 -0.8,0.8 -0.4,0 -0.4,-0.1 -0.6,-0.4 C 99.6,10.7 97.6,9 96.3,8.4 96.1,8.3 96,8.1 96,7.9 c 0,-0.3 0.3,-0.7 0.7,-0.7 0.6,0 2.5,1.4 2.6,1.4 C 99.8,8.3 103,6 103,5.4 103,4.8 103,5.2 102.6,5.2 H 94 c -0.5,0 -0.8,-0.4 -0.8,-0.7 0,-0.3 0.3,-0.7 0.8,-0.7 h 7 c 2.4,0 1.5,0 2.2,0 1,0 1.7,0.6 1.7,1.3 0,0.7 0,0.6 -0.4,0.9 -0.9,1 -2.7,2.4 -4.2,3.4 1,0.9 1.2,1.5 1.2,1.7 h 0.1 z"
                 id="path8" />
              <path
                 class="cls-8"
                 d="m 108.1,11.9 c 0,-0.2 0,-0.5 0.5,-0.7 2.4,-1.1 3.8,-3.4 3.8,-6.3 0,-2.9 0,-0.3 0,-0.4 v 0 c 0,-0.6 0.3,-0.8 0.7,-0.8 0.7,0 0.7,0.7 0.7,1 0,5.4 -4.1,7.9 -4.9,7.9 -0.8,0 -0.7,-0.3 -0.7,-0.7 z m 8.4,-7.7 -0.2,5.6 v 0 c 0,0.3 0,0.4 0.2,0.4 0.4,0 2.6,-1.4 4.1,-4.3 0.2,-0.3 0.4,-0.4 0.6,-0.4 0.4,0 0.7,0.3 0.7,0.7 v 0.4 c -1.9,3.3 -4.8,5.3 -5.9,5.3 -1.1,0 -1.1,-0.4 -1.1,-1.2 v -0.2 c 0,-1.5 0.2,-5.3 0.2,-6.3 0,-1 0.4,-0.8 0.7,-0.8 0.3,0 0.7,0.3 0.7,0.7 h 0.1 -0.1 z"
                 id="path9" />
              <path
                 class="cls-8"
                 d="m 127.6,4.8 c -0.4,0 -0.6,-0.3 -0.6,-0.6 0,-0.3 0.2,-0.7 0.6,-0.7 h 5.2 c 1.6,0 1.7,0.5 1.7,1.2 0,0.7 0,0.4 -0.2,0.7 -0.5,1 -1.1,1.9 -1.8,2.8 1,0.6 4.4,2.7 4.4,3.7 0,1 -0.4,0.8 -0.8,0.8 -0.4,0 -0.4,0 -0.5,-0.3 -0.8,-1 -2.5,-2.5 -3.9,-3.3 -2.5,2.8 -5.4,3.8 -5.7,3.8 -0.3,0 -0.7,-0.3 -0.7,-0.7 0,-0.4 0.2,-0.6 0.6,-0.7 4.3,-1.6 7,-6 7,-6.5 0,-0.5 -0.3,-0.3 -0.7,-0.3 h -4.6 v 0 z"
                 id="path10" />
              <path
                 class="cls-8"
                 d="m 141.6,13.7 c -0.4,0 -0.7,-0.3 -0.7,-0.6 0,-0.3 0.2,-0.5 0.6,-0.7 2.3,-0.8 4.1,-2.2 5.5,-3.8 -0.7,-0.4 -1.3,-0.7 -1.9,-0.9 -0.3,0 -0.4,-0.3 -0.4,-0.5 0,-0.2 0.2,-0.6 0.7,-0.6 0.5,0 1.5,0.4 2.5,1 0.8,-1.2 1.7,-2.6 1.7,-3 0,-0.4 -0.1,-0.2 -0.3,-0.2 -0.2,0 -1.7,0 -3.1,0.2 -0.3,0.4 -3.1,4.1 -4.2,4.1 -1.1,0 -0.7,-0.3 -0.7,-0.7 0,-0.4 0.1,-0.5 0.4,-0.7 1.6,-1 3.8,-3.8 4.4,-5.2 0.2,-0.4 0.4,-0.6 0.7,-0.6 0.3,0 0.8,0.3 0.8,0.7 0,0.4 0,0.4 -0.5,1 1.4,0 2.5,-0.2 2.8,-0.2 0.9,0 1.4,0.5 1.4,1.1 0,0.6 0,0.6 -0.3,1 -0.6,1.1 -1.2,2.1 -1.9,3.1 1.1,0.8 1.5,1.2 1.5,1.6 0,0.4 -0.3,0.7 -0.7,0.7 -0.4,0 -0.4,0 -0.5,-0.2 -0.3,-0.3 -0.7,-0.6 -1.1,-1 -2.7,3.2 -6.1,4.4 -6.5,4.4 0,0 -0.2,0 -0.2,0 z"
                 id="path11" />
              <path
                 class="cls-8"
                 d="M 160.8,13 V 6.9 c -1.4,1.3 -2.8,2.5 -4.6,3.6 -0.3,0.2 -0.5,0.2 -0.7,0.2 -0.4,0 -0.7,-0.3 -0.7,-0.7 0,-0.4 0.1,-0.5 0.4,-0.6 3.1,-1.6 6.1,-4.4 7.9,-7.3 0.2,-0.3 0.4,-0.4 0.7,-0.4 0.3,0 0.7,0.3 0.7,0.7 0,0.4 0,0.3 -0.2,0.5 -0.7,1 -1.4,1.9 -2.1,2.7 v 7.5 c 0,0.7 -0.5,0.8 -0.8,0.8 -0.3,0 -0.7,-0.2 -0.7,-0.8 h 0.1 z"
                 id="path12" />
              <path
                 class="cls-8"
                 d="m 167.4,11.9 c 0,-0.2 0.1,-0.5 0.5,-0.7 2.4,-1.1 3.8,-3.4 3.8,-6.3 0,-2.9 0,-0.3 0,-0.4 v 0 c 0,-0.6 0.3,-0.8 0.7,-0.8 0.7,0 0.7,0.7 0.7,1 0,5.4 -4.1,7.9 -4.9,7.9 -0.8,0 -0.7,-0.3 -0.7,-0.7 0,0 -0.1,0 -0.1,0 z m 8.5,-7.7 -0.2,5.6 v 0 c 0,0.3 0,0.4 0.2,0.4 0.4,0 2.6,-1.4 4.1,-4.3 0.2,-0.3 0.4,-0.4 0.6,-0.4 0.4,0 0.7,0.3 0.7,0.7 0,0.4 0,0.3 -0.1,0.4 -1.9,3.3 -4.8,5.3 -5.9,5.3 -1.1,0 -1.1,-0.4 -1.1,-1.2 v -0.2 c 0.1,-1.5 0.2,-5.3 0.2,-6.3 0,-1 0.4,-0.8 0.7,-0.8 0.3,0 0.7,0.3 0.7,0.7 h 0.1 z"
                 id="path13" />
              <path
                 class="cls-7"
                 d="m 27.1,29.6 c 0.6,0 0.7,0 0.8,-0.3 0,-0.2 0.2,-0.3 0.5,-0.2 0.4,0 1.5,0.7 1.5,1.1 0,0.4 -0.2,0.3 -0.7,0.5 -0.4,0.1 -0.6,0.2 -0.8,0.2 -0.3,0 -0.8,-0.3 -1.4,-0.3 h -3.9 c -0.2,0 -0.3,0.2 -0.4,0.7 -0.3,0.8 -1.7,5.4 -1.8,5.7 0,0.3 0,0.4 0.3,0.4 0.3,0 3.5,-0.3 5.8,-0.4 h 2.5 c 0.3,0 0.4,0 0.2,0.3 -0.1,0 -0.4,0.3 -0.9,0.5 -0.4,0 -1.9,0.4 -2.9,0.5 -1.7,0.2 -3.1,0.4 -4.6,0.6 -0.7,0 -0.9,0.3 -1.1,0.9 -0.4,1.3 -0.8,2.2 -1.1,3.3 -0.2,0.5 -0.2,0.7 0.2,0.9 0.5,0.2 1.8,0.2 2.3,0 0.4,-0.2 0.6,0 0.2,0.4 -0.6,0.6 -1.9,1.1 -2.9,1.1 -1,0 -1.4,0 -1.8,-0.4 -0.2,-0.2 -0.3,-0.4 -0.2,-0.6 0,0 0.3,-0.3 0.7,-0.5 0.3,-0.2 0.4,-0.5 0.6,-0.8 0.2,-0.5 0.7,-2.8 0.9,-3.4 0,-0.3 0,-0.5 -0.3,-0.8 -0.4,-0.4 -0.2,-0.6 0.3,-0.8 0.3,-0.2 0.6,-0.4 0.8,-0.8 0.2,-0.4 1.5,-4.8 1.7,-5.9 0,-0.3 0,-0.5 -0.3,-0.5 -0.6,0 -1,0.3 -1.3,0.6 -0.3,0.3 -0.5,0.3 -0.6,0.2 -0.1,-0.1 -0.1,-0.4 0,-0.7 0.1,-0.3 0.4,-0.7 0.6,-0.9 0.5,-0.6 1.1,-0.6 1.6,-0.3 0.2,0.1 0.2,0 0.3,0 0,-0.1 0,-0.3 0.1,-0.6 0,-0.3 0.2,-0.4 0.4,-0.4 0.6,0 1,0.7 1,1.1 0,0.4 0,0.1 0.3,0.1 h 3.4 v -0.4 0 z"
                 id="path14"
                 style="fill:#cab699;fill-opacity:1" />
              <path
                 class="cls-7"
                 d="m 31.9,39 c 0.5,-1 1.9,-3.2 2.3,-3.7 0.2,-0.4 0.3,-0.6 0.3,-0.9 0,-0.5 0.2,-0.8 0.5,-1 0.2,-0.3 0.5,-0.3 0.8,-0.3 0.3,0 0.4,0 0.6,-0.3 0,-0.3 0.4,-0.5 0.7,-0.5 0.3,0 0.7,0.2 0.6,0.6 0,0.2 0,0.4 0.2,0.6 0.6,0.6 1.7,1.4 1.7,3.6 0,2.2 -0.7,3.1 -1.6,4.3 -1.9,2.6 -4.2,3.6 -5.3,3.6 -1.1,0 -1.6,-0.9 -1.7,-1.8 0,-1.4 0.6,-3.4 1,-4.2 0,0 -0.1,0 -0.1,0 z m 1.3,4.7 c 0.7,0 1.6,-0.4 2.4,-1.2 1.2,-1.1 2.8,-3.7 2.7,-5.5 0,-1.1 -0.2,-2.6 -1.7,-2.5 -0.5,0 -1,0.5 -1.8,1.5 -0.8,1 -2.7,4.2 -2.7,6.5 0,2.3 0.4,1.2 1,1.2 z"
                 id="path15"
                 style="fill:#cab699;fill-opacity:1" />
              <path
                 class="cls-7"
                 d="m 52.2,33.2 c 0,0.4 -0.3,0.9 -0.5,1.1 -0.2,0.2 -0.5,0.2 -0.7,0 -0.2,0 -0.4,-0.3 -0.8,-0.3 -0.4,0 -1.2,0.9 -1.9,1.8 -1.9,2.3 -3.1,4.8 -4.8,8.5 0,0.2 -0.3,0.3 -0.4,0.3 -0.1,0 -0.3,0 -0.4,-0.3 v -1.1 c 0.4,-1.1 1.5,-6.6 1.7,-8.2 0,-1 0.2,-1.5 0.3,-1.8 0.2,-0.3 0.7,-0.9 0.9,-0.9 0.4,0 0.6,0.6 0.6,0.9 0,0.3 0,0.6 -0.2,0.8 -0.5,1 -1,3.5 -1.1,4.4 0,0.3 0.1,0.3 0.4,0 1.2,-1.8 2.8,-4.1 4.2,-5.4 0.8,-0.8 1.4,-1 1.7,-1 0.8,0 1,0.5 0.9,1.1 h 0.1 z"
                 id="path16"
                 style="fill:#cab699;fill-opacity:1" />
              <path
                 class="cls-7"
                 d="m 64.1,33.4 c -0.4,1 -2.2,6.8 -2.3,7.2 v 0.6 c 0,0.1 0.4,0 0.7,-0.5 2.8,-3.4 6.8,-7.9 7.1,-8.3 0.4,-0.4 0.6,-0.5 0.7,-0.5 0.2,0 0.6,0.5 0.6,1 0,0.5 -0.2,0.5 -0.5,0.8 -0.2,0.2 -0.4,0.4 -0.6,0.7 -0.4,0.9 -1.1,2.9 -1.4,5.1 -0.3,2.3 0,3.2 1.1,3.2 1.1,0 3.6,-1.9 6.5,-5.9 0.2,-0.3 0.4,-0.3 0.5,0 0,0.2 0,0.5 -0.3,0.8 -2.8,4.5 -5.7,6.3 -7.2,6.4 -1.1,0 -2.2,-1.3 -1.9,-3.7 0.2,-1.8 0.5,-3.2 0.8,-4.3 0,-0.3 0,-0.4 -0.4,0 -1.4,1.6 -4.9,5.8 -6,7 -0.6,0.7 -0.9,0.9 -1.1,0.9 -0.5,0 -0.5,-1.3 0,-3 0.2,-0.8 1.2,-4.4 1.4,-5.1 0.2,-0.6 0,-0.8 0,-0.9 0,0 -0.2,0 -0.5,0.2 -0.9,0.6 -5.5,6.7 -6.5,8.1 -0.4,0.5 -0.7,0.9 -1,0.9 -0.3,0 -0.7,-0.7 -0.6,-1.8 0,-0.9 0.9,-4.1 1.7,-6.9 v -0.5 c 0,-0.2 0,-0.6 0.2,-1.1 0.2,-0.8 0.5,-2.1 1,-2.1 0.5,0 0.3,0 0.5,0.3 0.4,0.5 0.4,1 0,1.7 -0.7,1.5 -1.7,5.9 -2,7 -0.2,0.9 0,1.1 0.4,0.7 1.7,-2.3 3.9,-5.2 5.9,-7.3 0.8,-0.9 1.3,-1.4 1.7,-1.8 0.4,-0.4 0.6,-0.6 0.8,-0.6 0.6,0 0.8,0.8 0.5,1.6 h 0.2 z"
                 id="path17"
                 style="fill:#cab699;fill-opacity:1" />
              <path
                 class="cls-7"
                 d="m 84,32 c 0,0 0,0.2 0.3,0 0.2,-0.1 0.4,-0.1 0.5,0 0.3,0.2 0.3,0.4 0,0.8 -1.1,2.4 -1.7,4.3 -1.6,6.2 0,1.7 0.2,3.2 1.2,3.2 1.8,0 4.5,-3.9 5.6,-5.4 0.2,-0.3 0.5,-0.3 0.5,0 0,0.3 0,0.5 -0.2,0.9 -1,2.3 -4.7,6 -6.3,6 -1.6,0 -1.7,-1 -1.8,-2.4 0,-0.8 -0.2,-2.1 -0.2,-2.5 0,-0.4 0,-0.2 -0.2,0 -0.5,0.7 -2.4,3.2 -3.3,4 -0.8,0.8 -1.4,1.1 -1.7,1.1 -0.3,0 -1.3,-0.2 -1.3,-1.5 0,-1.3 0.2,-1.6 1.2,-3.7 0.8,-1.8 2.5,-4.5 4.2,-6 1.1,-1.1 1.8,-1.3 2.2,-1.3 0.4,0 0.7,0.4 0.9,0.6 z m -3.9,2.7 c -1.8,2.3 -2.7,4.8 -3.1,6.2 -0.2,0.8 0,1.3 0.5,1.3 0.5,0 0.8,-0.4 1.5,-1.1 0.7,-0.7 1.7,-2.1 2.7,-3.6 0.4,-0.6 1.2,-2.3 1.3,-2.6 0,-0.3 0.2,-0.9 0,-1.3 0,-0.5 -0.3,-0.8 -0.7,-0.8 -0.6,0 -1.4,0.8 -2.3,1.9 z"
                 id="path18"
                 style="fill:#cab699;fill-opacity:1" />
              <path
                 class="cls-7"
                 d="m 93.2,32 c 2.5,-6.6 3.7,-8.8 4,-9.2 0,-0.1 0.2,-0.2 0.4,-0.2 0.2,0 0.3,0 0.4,0.2 0.4,0.6 0,1.2 -0.2,1.8 -3.2,6.1 -5.1,12 -5.6,14.6 -0.6,2.5 0,2.9 0.3,2.9 1.3,0 5.8,-4 7.7,-6.4 0.2,-0.2 0.4,0 0.4,0 0,0.2 0,0.5 -0.4,1 -1.5,2.2 -6.4,6.6 -8.4,6.7 -0.6,0 -0.9,-0.9 -1,-2.1 0,-0.6 0.5,-4.3 2.5,-9.3 z"
                 id="path19"
                 style="fill:#cab699;fill-opacity:1" />
              <path
                 class="cls-5"
                 d="m 116.2,26.5 c 0,0.2 0.2,0.4 0,0.7 -0.2,0.6 -0.5,0.8 -1.2,0.8 -0.7,0 -0.8,0 -1.4,0.1 -1.9,0.5 -3.5,2.1 -3.5,4.1 0,2 0.3,1.8 0.8,3.1 0.5,1.4 0.8,3 0.8,3.6 0,1.1 -0.5,2.1 -1.2,2.7 -0.9,0.8 -2.4,1.2 -3.8,1.3 -0.5,0 -1.3,0 -1.7,-0.2 -0.4,-0.2 -0.5,-0.4 -0.5,-0.6 0,-0.2 0,-0.3 0.3,-0.6 0.2,-0.2 0.7,-0.4 1,0 0.6,0.4 1.2,0.5 1.9,0.5 1.3,0 2.9,-1 2.9,-2.9 0,-1.9 -0.3,-1.9 -0.8,-3.3 -0.8,-1.9 -0.9,-2.6 -0.9,-3.2 0,-1.8 1.7,-4.1 5,-5.6 1.1,-0.5 1.5,-0.6 1.8,-0.6 0.3,0 0.4,0 0.5,0.2 h -0.1 0.1 z"
                 id="path20" />
              <path
                 class="cls-5"
                 d="m 124,38.9 c 0.3,-0.2 0.5,0 0.2,0.3 -0.5,0.6 -2.1,2 -4.9,3.2 -0.5,0.2 -0.8,0.3 -1.1,0.3 -0.5,0 -1.8,-0.5 -1.8,-1.7 0,-1.2 0,-1 0.4,-1.7 0.3,-1 1.3,-4.7 1.7,-5.5 0,-0.3 0,-0.4 -0.2,-0.3 -0.5,0 -1.4,0.2 -1.7,0.2 h -0.7 c -0.2,-0.2 -0.2,-0.5 0,-0.7 0.2,-0.2 0.4,-0.3 0.8,-0.4 0.6,0 1.2,-0.2 1.8,-0.3 0.4,0 0.5,-0.2 0.5,-0.4 0.2,-0.5 1.2,-3.7 1.5,-4.5 0,-0.4 0.6,-1 1.1,-1.1 0.2,0 0.3,0 0.4,0.4 v 0.9 c -1,2 -1.5,3.8 -1.6,4.1 0,0.2 0.1,0.3 0.3,0.3 0.7,0 3.7,-0.4 6.2,-0.4 2.5,0 0.3,0.5 -0.3,0.6 -1.1,0.2 -3,0.5 -6.4,1.1 -0.3,0 -0.4,0 -0.5,0.4 -0.6,1.8 -1.5,4.8 -1.7,6.1 -0.2,1.3 0.2,1.7 1,1.7 1.7,0 4.2,-1.8 4.9,-2.4 v 0 -0.2 z"
                 id="path21" />
              <path
                 class="cls-5"
                 d="m 127.9,34 v -2.2 c 0.2,-0.4 0.5,-1.7 1,-1.7 0.5,0 0.5,1.8 0.4,2.5 0,1 -0.3,4.4 -0.4,5.5 0,1.5 0.4,2.1 0.8,2.1 1,0 2.5,-1.8 4.2,-5.3 0.8,-1.6 0.7,-2 0.7,-2.2 0,-0.3 0,-0.6 0.1,-1 0.3,-0.5 0.4,-0.9 0.6,-1.5 0.2,-0.6 0.4,-0.6 0.6,-0.6 0.3,0 0.6,0.6 0.6,1 0,0.4 -0.2,1.3 -0.7,2.4 -0.5,1.1 -2.5,5.2 -4,7 -3.7,4.7 -5.9,8.1 -6.7,9.3 v 0.3 c 0.4,0 0.6,0.2 0.6,0.5 0,0.5 -1.9,1.6 -2.2,1.8 -0.5,0.3 -0.7,0.5 -0.8,0.7 -0.5,0.8 -0.8,1.5 -1.4,1.5 -0.6,0 -0.6,-0.2 -0.4,-0.7 0,-0.5 0.3,-0.9 0.9,-1.8 0.6,-0.9 1.1,-1.2 1.3,-1.3 0.2,0 0.4,-0.2 0.4,-0.4 0,-0.2 1.4,-2.5 2.5,-3.8 0.7,-0.8 3.3,-4.6 3.6,-5 0.2,-0.2 0.1,-0.2 -0.2,0 -0.5,0.2 -0.8,0.3 -1,0.3 -0.6,0 -0.9,-0.8 -0.9,-2.9 v -4.6 h 0.4 v 0 z"
                 id="path22" />
              <path
                 class="cls-5"
                 d="m 141.5,30.7 c 2.5,-6.6 3.7,-8.8 4,-9.2 0,-0.1 0.2,-0.2 0.4,-0.2 0.2,0 0.3,0 0.4,0.2 0.4,0.6 0.1,1.2 -0.2,1.8 -3.2,6.1 -5.1,12 -5.6,14.6 -0.6,2.5 0,2.9 0.3,2.9 1.3,0 5.8,-4 7.7,-6.4 0.2,-0.2 0.4,0 0.4,0 0,0.2 0,0.5 -0.4,1 -1.5,2.2 -6.4,6.6 -8.4,6.7 -0.6,0 -0.9,-0.9 -1,-2.1 0,-0.6 0.5,-4.3 2.5,-9.3 z"
                 id="path23" />
              <path
                 class="cls-5"
                 d="m 150.5,33.2 c 0.6,-1 2.5,-3.7 3.6,-3.8 0.4,0 0.6,0.3 0.5,0.6 0,0.1 0,0.2 0.3,0.3 0.6,0 1.1,0.5 1.1,1.4 0,0.9 -0.3,2.2 -0.9,2.9 -1,1.2 -2.3,2.2 -4,2.2 -1.7,0 -0.5,0 -0.7,-0.3 h -0.3 c -0.2,0.4 -0.3,1.1 -0.3,1.8 0,1.5 0.8,2.3 1.9,2.2 2.4,0 6.4,-3.1 8,-5.1 0.2,-0.3 0.4,-0.3 0.5,0 0,0.2 0,0.5 -0.3,0.8 -1.9,2.7 -5.9,5.5 -8.6,5.6 -1.1,0 -2.7,-0.5 -2.8,-3.1 0,-1.6 0.8,-3.7 1.8,-5.6 h 0.2 z m 4.4,-0.6 c 0,-1 -0.6,-1.5 -1,-1.5 -1,0 -2.7,2.7 -3.1,4.1 0,0.2 0.1,0.3 0.6,0.3 2,0 3.6,-1.3 3.6,-2.9 z"
                 id="path24" />
              <path
                 class="cls-7"
                 d="m 100.2,65.7 c 0,5.2 -4.2,9.5 -9.5,9.5 -5.3,0 -9.5,-4.2 -9.5,-9.5 0,-5.3 4.2,-9.5 9.5,-9.5 5.3,0 9.5,4.2 9.5,9.5 z"
                 id="path25"
                 style="fill:#cab699;fill-opacity:1" />
              <polyline
                 class="cls-2"
                 points="96.8 63.7 90.8 69.8 84.7 63.7"
                 id="polyline25" />
            </g>
          </g>
        </g>
      </g>
    </g>
  </g>
  <rect
     class="cls-4"
     x="56.5"
     y="-39.900002"
     width="17.200001"
     height="17.200001"
     id="rect26" />
  <rect
     class="cls-7"
     x="82"
     y="-39.900002"
     width="17.200001"
     height="17.200001"
     id="rect27" />
  <rect
     class="cls-6"
     x="107.8"
     y="-39.900002"
     width="17.200001"
     height="17.200001"
     id="rect28" />
</svg>
