<?xml version="1.0" encoding="UTF-8"?>
<svg xmlns="http://www.w3.org/2000/svg" width="402.2mm" height="56.4mm" version="1.1" viewBox="0 0 1140 160">
  <defs>
    <style>
      .cls-1 {
        fill: none;
      }

      .cls-2 {
        fill: #2a2e3c;
      }

      .cls-3 {
        fill: #faf8f5;
      }

      .cls-4 {
        isolation: isolate;
      }

      .cls-5 {
        fill: #efe9e0;
      }

      .cls-6 {
        fill: #f29b8f;
      }

      .cls-7 {
        fill: #cab699;
      }

      .cls-8 {
        display: none;
      }
    </style>
  </defs>
  <!-- Generator: Adobe Illustrator 28.7.5, SVG Export Plug-In . SVG Version: 1.2.0 Build 176)  -->
  <g>
    <g id="_レイヤー_1" data-name="レイヤー_1">
      <g class="cls-4">
        <g id="_文字">
          <g>
            <rect class="cls-1" y="0" width="1140" height="160"/>
            <g>
              <path class="cls-3" d="M291.6,47.1c-56.7-4.7-119-14.8-189.9-30.6C66.2,8.6,32.2,3.8,0,1.5v143.6c57.9-34.9,133.4-67.9,227.1-85.1,22.5-4.1,44-8.4,64.5-13h0Z"/>
              <path class="cls-3" d="M291.6,47.1C417.7,57.5,515.5,40.9,615.8,0h-162.3c-47.3,18.1-100.6,33.6-161.9,47.1h0Z"/>
              <path class="cls-5" d="M0,0v1.5c32.2,2.3,66.2,7.1,101.8,15,70.9,15.8,133.2,25.9,189.9,30.6C353,33.6,406.3,18.1,453.6,0H0Z"/>
            </g>
          </g>
        </g>
      </g>
    </g>
    <g id="_素材" data-name="素材" class="cls-8">
      <rect class="cls-2" x="385" y="-211.1" width="17.2" height="17.2"/>
      <rect class="cls-6" x="410.6" y="-211.1" width="17.2" height="17.2"/>
      <rect class="cls-7" x="436.4" y="-211.1" width="17.2" height="17.2"/>
    </g>
  </g>
</svg>