<?xml version="1.0" encoding="UTF-8"?>
<svg xmlns="http://www.w3.org/2000/svg" width="173.2mm" height="24.4mm" version="1.1" viewBox="0 0 491 69.2">
  <defs>
    <style>
      .cls-1 {
        fill: #da938b;
      }

      .cls-2 {
        fill: #95969e;
      }

      .cls-3 {
        stroke-miterlimit: 4;
        stroke-width: 1.1px;
      }

      .cls-3, .cls-4 {
        fill: none;
        stroke: #cab699;
      }

      .cls-5 {
        fill: #464646;
      }

      .cls-6 {
        fill: #c6b296;
      }

      .cls-7 {
        fill: #fff;
      }

      .cls-8 {
        fill: #cab699;
      }

      .cls-9 {
        fill: #292e3b;
      }

      .cls-10 {
        fill: #999187;
      }

      .cls-11 {
        display: none;
      }

      .cls-4 {
        stroke-miterlimit: 10;
        stroke-width: 1.2px;
      }
    </style>
  </defs>
  <!-- Generator: Adobe Illustrator 28.7.5, SVG Export Plug-In . SVG Version: 1.2.0 Build 176)  -->
  <g>
    <g id="_レイヤー_1" data-name="レイヤー_1">
      <g>
        <g id="_レイヤー_1-2" data-name="_レイヤー_1">
          <g id="_文字">
            <g id="_素材" class="cls-11">
              <rect class="cls-9" x="149.7" y="-193.2" width="17.2" height="17.2"/>
              <rect class="cls-1" x="175.3" y="-193.2" width="17.2" height="17.2"/>
              <rect class="cls-6" x="200.9" y="-193.2" width="17.2" height="17.2"/>
            </g>
            <g>
              <path class="cls-3" d="M235.6,68.7s142.4,0,255.2-31.8"/>
              <g>
                <path class="cls-8" d="M87.7,51c-.6.3-.8.5-.4,1,1.8,2.4,6.5,8.4,7.5,9.4,1.8,1.8,3.2,1.9,4.2,1.9s2.5-.9,3.2-1.7c.5-.6.7-.2.3.6-.8,1.6-2.5,2.7-4.6,2.8-2.1,0-3.9-1.1-7-4.8-1.8-1.9-5.4-7-5.9-7.4-.4-.3-.9-.5-1.3-.5s-.5.4-.7.9c-.8,2.4-1.8,5.7-2.3,8,0,.5,0,.7.6.9s2,.3,2.4.6.4.5-.2.8c-.7.4-1.9.7-2.8.8-.5,0-.9.2-1.2.4-.3.2-.6.4-1.1.5-.5,0-2.1-.8-2.4-1.2-.3-.4-.3-.7,0-1,.4-.3,1.2-.7,1.6-.8.4,0,.5-.3.7-.9,1.1-3.6,1.8-5.9,2.5-8.3v-1.9c.2-.3.3-.6.6-.7.2,0,.4-.3.6-.9.7-2.1,1.2-3.7,3.5-10.4,0-.4,0-.5-.4-.5-2,.4-2.7.9-3.1,1.6-.3.4-.6.9-1.2,1.1h-.9c-.3-.2-.6-.5-.7-.8-.2-.4,0-1,.6-1.5.9-.8,2.8-1.4,5.6-1.9.7,0,.9-.2,1.1-.8.3-.9.6-1.3,1-1.3s.8.2,1.2.5c.3.3.4.8.3,1.2,0,0,0,.2.4.2,2.8,0,5.4,1.2,6.6,3.4.4.8.5,1.5.6,2.2,0,4.2-5.5,7.3-8.8,8.8v-.2h0ZM88.9,38.3c-.6,0-.7.2-.9.7-.7,1.5-3.2,8.6-3.8,10.6,0,.4-.2.7.2.6s2.4-.6,4.9-1.9c2.6-1.5,5.2-3.9,5.1-5.6,0-2.8-3-4.4-5.5-4.4Z"/>
                <path class="cls-8" d="M110.3,48.4c1.1-1.8,4.3-6.6,6.2-6.6s1,.6.9,1c0,.2,0,.4.6.5,1,0,1.9.8,2,2.4,0,1.7-.5,3.8-1.6,5.1-1.8,2.1-3.9,3.9-6.9,4-.5,0-.9-.2-1.2-.5,0-.2-.3-.2-.5.2-.3.7-.5,1.9-.4,3.1,0,2.7,1.4,3.9,3.4,3.9,4.2-.2,11.1-5.6,13.8-9.1.4-.5.7-.5.8-.2,0,.4,0,.8-.5,1.5-3.3,4.8-10.1,9.7-14.9,9.9-2,0-4.7-.9-4.9-5.3,0-2.7,1.2-6.6,3.1-9.7v-.2h0ZM117.9,47.2c0-1.8-1.1-2.6-1.8-2.6-1.7,0-4.6,4.8-5.3,7.3,0,.3.2.5,1,.4,3.6,0,6.2-2.4,6.2-5.1h0Z"/>
                <path class="cls-8" d="M142.2,42.7c0,1.2-1,2-1.4,2.4-.5.4-.9.5-1.2.2s-.4-.6-.2-1.1c0-.6-.3-.9-1.1-.9-1.6,0-4.1,2.7-5.3,4.5-2.3,3.6-2.7,6.9-2.6,8.8,0,2.7,1.5,3.9,3.4,3.8,4.5-.2,11.6-5.7,14.3-9.2.4-.5.7-.5.8-.2,0,.4,0,.8-.5,1.5-3.2,4.8-10.8,9.8-15.5,10-2,0-4.8-.9-5-5.3,0-2.6.7-6.9,4-11.2,2.3-2.9,5.8-5.2,7.9-5.3,1.5,0,2.3,1.1,2.3,1.9h0Z"/>
                <path class="cls-8" d="M150.7,51.3c.8-1.7,3.2-5.7,3.8-6.6.4-.7.5-1,.5-1.6,0-.9.3-1.4.7-1.8.3-.5.8-.5,1.4-.5s.8-.2,1-.5c.2-.5.6-.8,1.2-.8s1.1.2,1.1,1,0,.7.3,1c1.1,1,3,2.4,3.2,6.2,0,1.3-1.2,5.5-2.7,7.7-3.2,4.7-7.2,6.4-9.2,6.5-1.1,0-2.9-1.5-3-3.1,0-2.5,1-5.9,1.5-7.4h.2ZM153.2,59.5c1.2,0,2.8-.7,4.1-2.1,2-2,4.7-6.6,4.5-9.8,0-1.8-.5-4.5-3-4.3-1,0-1.7.9-3.1,2.7-1.4,1.8-4.6,7.4-4.4,11.5,0,1.2.7,2.1,1.8,2h0Z"/>
                <path class="cls-8" d="M187.5,41c-.6,1.7-3.6,12-3.7,12.7,0,.5,0,.8.2,1.1.3.2.7,0,1.3-.9,4.7-6,11.5-14.2,12-14.8.6-.7,1-.8,1.2-.8.4,0,1.1.9,1.1,1.8s-.3.9-.9,1.4c-.3.3-.6.7-.9,1.3-.7,1.5-1.8,5.1-2.2,9-.4,4,0,5.6,2.1,5.5,2.7,0,6.2-3.4,11.1-10.6.4-.5.7-.5.8-.2,0,.4,0,.8-.5,1.5-4.6,8-9.6,11.3-12.3,11.5-1.8,0-3.8-2.1-3.5-6.4.2-3.2.8-5.5,1.2-7.5,0-.5,0-.7-.7,0-2.3,2.9-8.2,10.4-10.1,12.6-1.1,1.3-1.5,1.6-1.9,1.7-.8,0-1-2.3-.3-5.2.3-1.4,1.9-7.7,2.2-8.9.3-1.1.2-1.3,0-1.5,0,0-.4,0-.8.4-1.5,1-9.3,11.9-11,14.4-.6.9-1.2,1.6-1.7,1.6s-1.2-1.1-1.1-3.2c0-1.5,1.3-7.1,2.7-12.1v-.9c0-.3,0-1,.3-2,.3-1.3.7-3.6,1.6-3.7.4,0,.5,0,.8.5.6.8.7,1.7,0,3-1.2,2.7-2.7,10.4-3.2,12.3-.3,1.5.2,2,.8,1.2,2.9-4.2,6.5-9.3,9.9-13,1.3-1.6,2.3-2.5,2.9-3.3s1.1-1.1,1.4-1.1c1,0,1.4,1.4.9,2.7h.3Z"/>
                <path class="cls-8" d="M227.4,38.7c-.6,1.7-3.5,12-3.6,12.8,0,.5,0,.8.2,1.1.3.2.7,0,1.3-.9,4.7-6,11.4-14.3,11.9-14.9.6-.7,1-.8,1.2-.9.4,0,1.1.9,1.1,1.8s-.3.9-.9,1.4c-.3.3-.6.7-.9,1.3-.7,1.5-1.7,5.1-2.1,9-.4,4,0,5.6,2.1,5.5,2.7-.2,6.2-3.5,11-10.7.4-.5.7-.5.8-.2,0,.4,0,.8-.4,1.5-4.6,8.1-9.5,11.4-12.2,11.6-1.8,0-3.8-2.1-3.5-6.4.2-3.2.7-5.5,1.1-7.5,0-.5,0-.7-.7,0-2.3,2.9-8.1,10.4-10,12.6-1.1,1.3-1.5,1.6-1.9,1.7-.8,0-1-2.3-.3-5.2.3-1.4,1.8-7.7,2.1-8.9.3-1.1.2-1.3-.2-1.5,0,0-.4,0-.8.4-1.5,1-9.2,12-10.9,14.5-.6.9-1.2,1.6-1.7,1.7-.7,0-1.2-1.1-1.1-3.2,0-1.5,1.3-7.1,2.6-12.1v-.9c0-.3,0-1,.3-2,.3-1.3.7-3.6,1.6-3.7.4,0,.5,0,.8.5.6.8.8,1.7,0,3-1.2,2.7-2.6,10.4-3.1,12.3-.3,1.5.2,2,.8,1.1,2.9-4.2,6.5-9.3,9.8-13,1.3-1.6,2.2-2.5,2.9-3.3s1.1-1.1,1.4-1.1c1,0,1.4,1.4.9,2.7h.4Z"/>
                <path class="cls-8" d="M252.5,40.7c1-1.9,4.1-6.7,6-6.8.7,0,1.1.5,1,1,0,.2,0,.4.6.5,1,0,2,.8,2.1,2.3,0,1.7-.4,3.8-1.4,5.1-1.7,2.1-3.8,4-6.8,4.2-.5,0-.9-.2-1.2-.5,0-.2-.3-.2-.5.2-.3.7-.4,1.9-.3,3.1.2,2.7,1.5,3.9,3.5,3.8,4.2-.3,10.9-5.9,13.5-9.5.4-.5.7-.5.8-.2,0,.4,0,.8-.4,1.5-3.1,4.9-9.8,10-14.7,10.3-2,0-4.8-.7-5.1-5.2-.2-2.7,1-6.6,2.8-9.8h0ZM260,39.3c0-1.8-1.1-2.6-1.9-2.6-1.7,0-4.4,5-5.1,7.5,0,.3.2.5,1,.4,3.6-.2,6.2-2.6,6-5.3Z"/>
                <path class="cls-8" d="M277.5,33.8c0,.4-.2.4-.4.5-.6.2-1,.8-1.4,1.7-.8,1.8-2.1,7.1-2.5,10.2,0,.6.2.7.6.2,2.1-3.7,7.4-9.5,8.9-10.9,1.7-1.5,2.2-1.8,2.7-2.1.5-.2.9-.6,1.1-1.2.3-.5.6-.9.9-1,.4,0,.6.3,1,.8.3.5.3,1.1,0,1.9-.5,1-1.3,2.1-1.7,3.4-1,2.6-1.8,5.8-2.3,8.3-.8,4.9.6,6.6,2.5,6.5,3.2-.2,8.4-7.6,10.9-11.6.3-.6.6-.6.8-.2,0,.4,0,.8-.4,1.5-5,8.9-9,12.3-12.1,12.5-2.4.2-4.4-2.7-3.6-8.5.4-2.8,1.2-5.6,1.6-7.2.3-1.3.3-1.5,0-1.7-.2,0-.6.2-1.3.8-6,5.9-9.3,12.2-10,14.2-.3.6-.9,2.2-1.7,2.2s-.6-.2-.8-.5c-.3-.3,0-1.5,0-2.5,1.2-8.5,2.9-14.7,3.8-16.8.9-2.2,1.3-2.4,1.8-2.4.8,0,1.5,1.4,1.6,2h0Z"/>
                <path class="cls-8" d="M311.9,31.4c.6.3.7.2.9-.2,2.2-6.7,4.1-13.8,4.7-15.6.3-.8.5-1,.9-1s.5,0,.7.6c.3.6.5,1,.2,1.9-.4,1.2-2.6,7.2-4.2,12.9-1.4,4.8-2.3,10-2.2,14.7,0,2.9.7,4.1,1.8,4,3.4-.3,9-9.1,10.4-11.2.4-.5.8-.6.8-.2s0,.8-.4,1.5c-2,4.4-7.7,12-11.8,12.4-1.8,0-2.6-2.2-2.6-4.9s0-4.4.4-6.3c0-.6,0-.4-.4,0-2.4,3.9-5.8,8.2-7,9.3-2.2,2-4.5,3.3-5.1,3.4-.8,0-1.9-.3-2.1-2.8-.2-3,1.9-9.7,4.9-13.4,2.9-3.7,6-5.3,7.6-5.5.8,0,1.6,0,2.4.4h0ZM301.7,40.3c-2.2,4-2.8,7-2.7,8.2,0,.9.5,1.3,1.1,1.3,1,0,2.9-1.4,5.1-4,2.7-3.3,5.9-8.1,6.3-10.7,0-.6,0-1-.3-1.2-.3-.3-1-.8-2.5-.6-2.4.2-5,3.5-7,7.1h0Z"/>
                <path class="cls-2" d="M358,19.1c.2.3.4.7.3,1.2-.3,1-.8,1.5-2.1,1.6-.7,0-1.4,0-2.4.4-3.3,1.1-5.9,4.1-5.6,7.4,0,1.2.7,3.1,1.7,5.3,1,2.3,1.8,5.2,1.9,6.2.2,1.8-.6,3.6-1.8,4.9-1.5,1.4-4.1,2.4-6.5,2.6-.8,0-2.3,0-3.1-.2-.7-.2-.9-.6-1-1,0-.2,0-.6.4-1s1.2-.7,1.8-.3c1.1.6,2.2.8,3.3.7,2.3-.2,5-2,4.7-5.4,0-1.2-.7-3.3-1.8-5.6-1.5-3.2-1.8-4.4-1.9-5.5-.3-3.2,2.5-7.4,8.1-10.4,1.9-.9,2.6-1.2,3.1-1.2s.7,0,.9.3Z"/>
                <path class="cls-2" d="M372.9,39.7c.6-.5.8,0,.5.5-.9,1-3.4,3.7-8.1,6.1-.8.4-1.4.6-1.9.6-.9,0-3.1-.7-3.3-2.7,0-.7,0-1.7.5-3,.4-1.8,1.8-8.4,2.3-9.8.2-.6,0-.7-.4-.6-.9,0-2.5.5-2.9.6h-1.2c-.4-.3-.4-.8,0-1.3.3-.4.6-.5,1.4-.8,1-.3,2-.5,3.2-.7s.8-.4.9-.8c.3-.9,1.7-6.6,2.1-8,.2-.7.8-1.9,1.8-2,.3,0,.6,0,.7.6.2.4.3.9,0,1.6-1.5,3.7-2.2,6.9-2.4,7.4q0,.5.6.4c1.2-.2,6.5-1.1,10.8-1.5,1.2,0,.6.8-.4,1.1-1.9.5-5.2,1.3-11.1,2.6-.5,0-.7.2-.8.8-.9,3.2-2.1,8.5-2.3,10.8,0,2.3.6,3,1.9,2.9,3-.3,7.1-3.6,8.3-4.7h-.2Z"/>
                <path class="cls-2" d="M378.9,30.6c0-1.3-.2-1.7-.3-2.1,0-.6-.2-1.3,0-1.8.3-.8.7-2.9,1.6-3,.9,0,1,3.1,1,4.3v9.7c0,2.6.9,3.6,1.7,3.5,1.7-.2,4.1-3.5,6.7-9.7,1.2-2.8,1-3.5,1-3.9s-.2-1,0-1.7c.5-.9.6-1.6.9-2.6s.6-1.1.9-1.2c.6,0,1.1,1,1.1,1.7s-.2,2.4-.8,4.3c-.7,2-3.8,9.3-6.1,12.8-5.8,8.7-9.2,14.9-10.5,17-.2.4,0,.6.2.5.7,0,1.1.3,1.1.7,0,.9-3.1,2.9-3.7,3.4-.8.5-1.2.9-1.4,1.3-.8,1.5-1.2,2.8-2.2,2.8s-1-.3-.8-1.2c0-1,.4-1.7,1.4-3.3,1-1.7,1.7-2.1,2.2-2.4.4-.2.6-.4.7-.7,0-.4,2.1-4.5,3.8-6.9,1.1-1.5,5.2-8.5,5.7-9.2.3-.3.2-.4-.3,0-.8.4-1.4.6-1.7.6-1.1,0-1.6-1.2-1.9-4.9l-.4-8h0Z"/>
                <path class="cls-2" d="M402,23.3c3.5-11.8,5.3-15.8,5.8-16.6.2-.3.4-.4.6-.4s.5,0,.7.3c.7.9.4,2.1,0,3.2-4.7,11.1-7.2,21.5-7.9,26.1-.7,4.5.3,5,.9,4.9,2.3-.2,9.5-7.8,12.5-12.1.3-.3.6-.2.7,0,0,.4,0,1-.6,1.8-2.4,4-10.3,12.4-13.7,12.7-1.1,0-1.8-1.5-2-3.6,0-1.1.4-7.5,3.1-16.4h0Z"/>
                <path class="cls-2" d="M416.1,40c-.7-1-1-2.3-.7-3.5.2-1.2,1.2-5.9,1.7-8.2,0-.6.2-.9.2-1.2,0-.5,0-1,.3-1.6.7-1.7,2.6-5.7,3.5-5.8.2,0,.4,0,.6.4s.5,1,0,2c-1.9,3.9-3.7,10.7-4.2,14.1-.3,2.4.5,3,1.3,2.9,3.9-.4,10-7.7,13.3-12,.5-.6.8-.6.8-.2s0,.8-.3,1.5c-2.3,4.3-8.3,10-11.3,11.9-1.6,1-2.3,1.3-2.7,1.4-.7,0-1.4-.4-2.4-1.7h0ZM423.8,10.4c-.2,1.2-.2,3.1,0,4.1,0,.6-.2.7-.9.4-.7-.4-.9-.9-1.2-1.6-.2-.6-.3-1.3-.4-1.9,0-2,.5-2.2,1.3-2.3.9,0,1.4.4,1.2,1.3Z"/>
                <path class="cls-2" d="M439.2,18.9q0,.4-.4.5c-.6.2-.9.8-1.3,1.8-.7,1.8-1.8,7.2-2.1,10.3,0,.6.3.7.6.2,2-3.8,7-9.8,8.4-11.3,1.6-1.6,2.1-1.9,2.6-2.2.5-.2.8-.6,1.1-1.2.3-.5.6-1,.8-1,.4,0,.6.2,1,.7.4.4.4,1,0,1.9-.4,1.1-1.2,2.1-1.6,3.4-.9,2.6-1.6,5.9-1.9,8.4-.6,4.9.9,6.6,2.8,6.3,3.1-.4,8.1-7.9,10.4-12,.3-.6.6-.6.8-.3,0,.3,0,.8-.4,1.5-4.7,9.1-8.5,12.6-11.5,13-2.4.3-4.5-2.5-4-8.4.3-2.9,1-5.7,1.3-7.2.3-1.3.2-1.5,0-1.7-.2,0-.6.2-1.2.8-5.8,6.1-8.8,12.5-9.4,14.6-.2.6-.8,2.2-1.6,2.3-.2,0-.6-.2-.8-.4-.3-.3-.2-1.5,0-2.5.9-8.5,2.3-14.8,3.1-17,.8-2.3,1.2-2.4,1.7-2.5.8,0,1.6,1.3,1.7,1.9h0Z"/>
                <path class="cls-2" d="M476.2,16.1c0,.9-.5,2-1.6,3-.3.3-.2.4,0,.7v1.1c0,.8-.9,11-1,12.3-.6,7-2,13.6-6.4,19.5-1.8,2.4-5.5,4.4-7.5,4.6h-2.2c-.7,0-1.1-.2-2,0-1.1,0-2.5-.5-2.6-1.3,0-.8,1.1-2.1,2.1-2.2.5,0,1.1.5,1.5.9.5.4,1.6,1,3.6.8,2.9-.4,6.2-3.5,8.2-7.6,2-4,2.6-8.1,3.1-13.7.5-5.8.4-8,.4-9.1s-.5-.4-1,.5c-.6.9-3.4,5.4-5.2,7.5-.7.8-2.7,3.4-3.9,3.5-1.3.2-2.1-1.4-2.3-3.1-.4-3,.8-6.4,2.7-9.9,1.8-3.3,4.6-6.3,7.1-8,1.4-1,2.8-1.8,3.6-1.9,2.2-.3,3.3,1.6,3.3,2.5h0ZM462.7,33.1c1.6-.2,5.2-5.7,6.2-7.1,1.4-2.2,2.9-5.5,3.2-5.9.4-.4.6-.6.9-.7.2,0,.5-.2.7-.5s.6-.8.5-1.4c0-1.2-1.3-1.5-2.5-1.4-2.5.3-5.9,3.8-7.4,6.4-1.4,2.4-2.7,6.5-2.4,9.1,0,.9.4,1.5.8,1.4h0Z"/>
              </g>
              <path id="_白地" class="cls-7" d="M21.1.7s-2.5-.4-4.9.9c-2.4,1.4-5,3.5-6.6,6-1.6,2.5-2.6,5.3-2.5,6.6,0,1.3,0,2.8.8,4.6s1,2.5,1,2.5l-1.4.3s-.7.6-.9,1.7c-.2,1.1,0,1.3.6,2s1.4,1,2.5,1.2,1.4.6,1.4.6c0,0,.7,1.7,1.2,2.7s.6,2,1.9,2.7c1.3.7,2.3,1.6,2.3,1.6l-.7,2.3s-.6.2-1.3.5-1.1,0-1.9,1.2-.9,1.5-1.5,2.2,0,.5-1.1,1-4.1,1.7-4.1,1.7c0,0-.4.3-1,.7s-.9.4-1.2,1-1.6,3.4-2,6.1c-.5,2.7-.7,6.8-.6,6.8s-.2,6.6-.2,6.6v.2h51.1l-.2-11.6v-1.3l-1-.2s-.7.2-2.1,0-4-.4-4.8-1-.7-.9-1.1-2c-.4-1.1-1.1-3.6-1.9-4.3-.8-.7-.8-.9-1.9-1.3-1.1-.4-2.9-.6-3.2-1.5-.3-1-.3-3.7-.2-5.2s.4-1.8.2-3.1-.4-3-1.2-3.7c-.8-.6-1.5-1.1-1.5-1.1l.5-1s.6-.4,1.7-.8c1-.4,2.1-.5,2.5-1.4s.7-2.1-.2-2.7-1.4,0-1.4-.9,0-.7.6-1.6c.5-.8,1-2.4.9-4.3,0-1.9,0-2.6-.4-3.7s-1.9-4.6-2.5-5.4-1.4-1.7-2.3-2.5c-.8-.8-1.6-1.9-3.9-2.5s-2.7-1-3.9-.8-1.2.4-1.7.4-1.5-.2-1.5-.2c0,0-.4,0-.4,0Z"/>
              <g id="_塗り">
                <g id="_髪">
                  <path class="cls-10" d="M20.1.5C4.3,2.2,5.5,21.1,9.6,21.9c0-.4-.2-3.8.4-3.2.6-.2,1.4-.2,1.9-.4.9-.4,1.4-.7,2-1,.7-.4,2.1-1.9,2.7-2.2,1.9-1.1,1.7-.4,2.2-.5,1.9-.2,4-1.6,5.1-2.7,1.8-1.7,2.7-4.1,3.1-4.3.5,0,1.3.6,1.7.8,1.6.9,2.6,2.3,3.8,4.4.6,1.1,1.5,4.2,1.7,5.4.2,1.3.4,2.6.5,3.2,0,.3.3,0,0,.3,3.3-3.1,1.4-8.6,0-11.6C30.5,1.9,24.5.7,20.1.5Z"/>
                  <path class="cls-10" d="M34,37.1c.6-2.3.6-6.6-2.1-7.3-.5,1.9-2.5,2.6-4,4.2v.6c.6,3.6,1.1,1.5,2.9,2.9s.9,2,3,2.6c-.6-.2,0-1.8,0-3h.2Z"/>
                </g>
                <g id="_スーツ">
                  <path class="cls-8" d="M16.5,54.6c.5,2.7,2,7,3,9.8H.9c0-2.6,0-5,.3-6.1.4-2.7-.6-4.3,1-10.3.5-2,1.6-3.4,2.6-4.3.2-.2.3-.3.5-.4,1.8-1.3,3.5-1.6,3.5-1.6,0,0,.8-.3,1.6-.7h0c.4-.2.5-.5.6-.8,0-.3.2-.8.7-1.3.9-1.1,1.1-1,1.8-1.5.4-.3,1.1-.5,1.7-.6h.8l-.2.4-1.3,2.6-.2.4-.2.4v3.6c0,1.2,1.5,6.6,2.3,10.8v-.3h0Z"/>
                  <path class="cls-8" d="M50.2,56.4v-2.5c0-1-.6-1.4-1.4-1.7h-.2c-.6,0-1.1,0-1.7-.2h-1.2c-.8,0-1.7-.3-2.4-.7-.3-.2-.7-.4-.9-.8-.2.7-.5,1.6-.6,1.8,0-.2-.3-1-.3-1.2-.3-1.7-.5-3.3-1.1-5-.2-.5-.4-.9-.7-1.3-.2-.2-.5-.4-.7-.6,0,0-.5-.4-.6-.4-.2-.2-.5-.4-.7-.5-.4-.3-.8-.7-1.3-1-.9-.6-1.9-1.2-2.9-1.6-.6-2.1-3.5-3.7-4.7-4.1.8,1.8,1.6,3,1.6,5.1,0,7.4-4.5,20.8-5,22.8h25.2c-.2-3.4-.2-5.8-.2-7.7v-.3h-.2Z"/>
                </g>
                <path id="_指差しの手" class="cls-7" d="M47.6,27.4s-.6,0-.9.6c-.3.6-1.2,4.7-1.2,4.7,0,0-1.6,4.9-1.4,5.3s.2.6-.2,1.1-.7.9-.7,1.4-.2,3,.2,4.2.2,1.8.8,2.5.6.5.4,1.2c-.2.7-.7,1.9-.7,1.9,0,0,1.5.9,2.6.9s3.8.2,3.8.2c0,0,.3-1.6.3-1.9s.4-.8,1.1-1.5c.8-.7,1.5-1.4,1.9-2.9.5-1.5.4-3.6.7-4.2.3-.5,1-1.1,1-1.8s.3-1.1-.3-1.4c-.6-.3-1.2.4-1.4-.2s0-.9-.4-1.4-1.2-.5-1.6-.5,0-.5-.8-.6c-.9,0-1.3-.2-1.7,0s-.4,1-1,.7c-.6-.2-.2-1.5-.2-2.8s.8-4.2.6-4.7-.9-.9-.9-.9h0Z"/>
              </g>
              <g id="_アウトライン">
                <path class="cls-5" d="M55.7,38.1c-.3-.4-.8-.7-1.5-.7,0-.4,0-.8-.3-1.1-.3-.4-.9-.7-1.5-.7s-.3,0-.4,0c-.4-.6-1.2-1-2-1s-1.2.2-1.6.6c0-1,0-2,.2-3.2.2-1.4.4-2.8.2-4.2h0c-.3-.5-.7-.8-1.2-.8-.9,0-1.6,1.1-1.9,2.2-.4,1.6-.7,3.1-1,4.7,0,.7-.3,1.5-.5,2.3,0,.3-.2.5-.3.8-.3.7-.5,1.3-.3,1.7-.7.6-.9,1.5-1,2.2,0,.3,0,.6-.2.9h0v.2h0v.8c.2,1.7.3,3.3,1.4,4.9,0,.2,0,.7-.2,1.1,0,.2,0,.4-.2.7h0c-.6-2.9-1.5-5.2-3.1-6.3h-.3v.2c0,.3.3.6.4,1h0c.7,1,1.3,2.8,1.7,4.7-.4.2-.6.9-.9,2.7-.9,4-1.7,7.8-2.4,11.4,0,.4,0,.8.2,1,0,0,.2.2.4.2h.4c.2-.5.2-1.1.3-1.6,0-.6,0-1.2.3-1.7.3-1.4.6-3,.9-4.5.4-2.2.9-4.5,1.4-6.3h0c0,.2.5.3,1,.5s1.1.4,1.9.5c1.7.4,3.5.6,4.8.6h.2c1,0,1.5-.2,1.5-.5h0c0-.5-.4-.5-.8-.5s-.2,0-.3,0h-.2c.2-.4.2-1,0-1.4,2.3-1.5,4.3-4.7,3.6-7.2h0c-.3,0-.4.2-.5.4v.2h0c-1,3.7-1.9,4.5-2.7,5.1-.6.5-1.2.9-1.4,2.7h-.2c-1.5,0-2.8-.2-4-.5-.3,0-.5-.2-.8-.3,0-.2.2-.5.2-.7v-.5s.2,0,.3-.2c.2,0,.3-.2.2-.6h0c-1.5-1.7-1.6-3.6-1.8-5.7v-1.6c0-.6.2-.9.5-1.2s.3-.3.4-.5c.2-.4.5-.6,1-.6h2.9s0,.4-.8,1c-.3.2-.5.3-.8.3s-.2,0-.2,0h-.8c-.5,1.4-.2,2.1,0,2.9.3.7.6,1.4.3,2.7h.4c.3,0,.4,0,.6-.3.4-.6,0-2.1-.5-3,0-.3-.2-.5-.2-.6v-.8c.2-.2.6-.3,1.1-.3h2s.2.2.3.2c.4.3.6.5,1,.5s.6,0,1.1-.2c.3.2.4.4.5.6.2.2.3.4.6.4h0c.2,0,.6,0,1.1-.2h0c.3-.2.4-.4.5-.7,0-.2.2-.5.5-.7h0c.6-1,.8-2,.4-2.6l.2.6h0ZM47.5,32.1c-.4,1.8-.7,3.6-.3,4.2,0,0,.2.2.3.2,0,.3-.2.7-.2,1h0c-.3,0-1.6.2-2.2.2s-.2,0-.3,0h0c.6-1,.9-2.9,1.2-4.7.4-2.2.8-4.5,1.6-4.9h.2c.4.5,0,2.3-.3,3.9h0ZM50.4,37h0s0,.3-.2.5c-.2.6-.7,2.3-.9,2.3s0,0,0,0h0c-.2,0-.2-.4,0-.8,0-.4.2-.9,0-1.2,0-.2-.4-.3-.7-.3,0-.5.2-1,.4-1.5h0c.4-.4.9-.6,1.4-.6s.6,0,.7.4c0,.3,0,.8-.4,1.3h-.3ZM51,40.6h0c-.2,0-.4,0-.6-.3,0-.3.3-.8.5-1.4.3-1,.8-2.5,1.1-2.5s0,0,0,0h0c.7,0,.8.6.8,1,0,1.3-1.1,3.2-2,3.3h.2ZM54.2,40.4c-.4.6-.6.9-.7.9s0,0,0,0h0c-.2,0-.3-.2-.3-.3,0-.4,0-.9.4-1.5.2-.4.4-.8.5-1.2,0-.2,0-.3.3-.3s.5.2.6.3v.2h0c0,.2-.3,1.1-.7,1.9h0Z"/>
                <g>
                  <path class="cls-5" d="M19.7,28h0s-.2,0-.2.3c0,.7,1.4,3,3,3h0c1.1,0,2.1-1,2.9-2.8h0c0-.3-.5-.4-1.7-.4h-3.3c-.6,0-.4,0-.5,0h-.2ZM22.3,28.9h1.9c-.2.5-1,1.5-2,1.5s-1.3-.5-2-1.5h2.1Z"/>
                  <path class="cls-5" d="M22.1,24c0-.3.2-.5,0-.6,0,0-.2-.2-.3-.2s-.2,0-.3.2l-.2.3s0,.2-.2.3v.4s-.2.2-.2.4,0,.4.2.6.5.3.7.3h.9c.2,0,.3-.2.3-.3h-.2s-.2,0-.2-.2h-.3s-.2,0-.2-.2v-.5s0-.2.2-.3c0,0-.2-.2-.2-.2Z"/>
                  <g>
                    <path class="cls-5" d="M16.4,20.3c-.4,0-.8.2-1,.5,0,.2-.2.6,0,1.1h0c.3.2.6.3.8.3h0c.6,0,1-.4,1.1-1h0v-.4h0c-.2-.3-.5-.4-.9-.4h0Z"/>
                    <path class="cls-5" d="M27.1,20.7h0v.4h0c0,.7.5,1,1.1,1h0c.3,0,.6,0,.8-.3h0c.3-.5.2-.9,0-1.1-.2-.3-.5-.5-1-.5s-.7.2-.9.4h0Z"/>
                  </g>
                </g>
                <g>
                  <path class="cls-5" d="M26.5,7.3c-.9,3.2-4.8,5.7-7.7,6.5-.8.3,2.6-4.1,2.2-4.9-.5-2.1-1.9,5.4-10.4,9.5.9,1.6,5.8-2.1,6.3-2.9,3.5,0,11.5-4.7,10.4-8.2-.4-.3-.6,0-.7,0h0Z"/>
                  <path class="cls-5" d="M30.8,10.9c2.4,2.6,2.7,7.4,3.7,9.9,2.1.4-1.4-12.1-6.7-13.2-1.1,0,2.7,2.6,2.9,3.3h0Z"/>
                </g>
                <path class="cls-5" d="M34.4,41.8c0-.2-.2-.3-.3-.5,1.6.9,4.5,1.6,4.8,1.9,2.1,0-.6-1.5-3-2.4-.3-1-.3-1.7-.3-2.6.5-4.1,1.6-6.9-1.7-9.8-.4,0-.6-.2-.7,0,0-.2,0-.4.2-.6v-.5c.4-.3,1-.4,1.6-.6.4,0,.9-.2,1.3-.3,1.6-1,2.1-2.8,1.7-4-.3-.8-.9-1.3-1.8-1.5,1.2-2,2.5-7.1,0-12.1C33.6,3.5,30.2.6,24.3,0c-1.9,0-2.3,1.2-.6,1.2,2.5-.2,5.2,1,7,2.3,5.1,3.5,8,11.8,4.5,17.5h0c-.2,0-.4,0-.6.2-.2,0-.5.4-.4.7,0,0,.2.2.4.2h0c.4-.2.8-.3,1.1-.3.7,0,1.3.4,1.5,1.2.2.8-.2,1.9-1.5,2.5-.4.3-.9.4-1.4.5s-1.1.2-1.6.5h0c0,.4-.2.9-.3,1.3s-.3.8-.5,1.2c-.2.4-.4.8-.7,1.1-.3.4-.6.7-.9,1.1l-1,1c-.4.3-.8.6-1.1.9-.4.3-.8.6-1.3.8-.4.3-.9.5-1.4.7s-1,.4-1.5.6c-.3,0-.6.2-1,.3-.2,0-.4,0-.5.2h-.7c-.4,0-.8-.2-1.2-.4-.5-.2-1-.4-1.5-.6-.5-.2-.9-.4-1.4-.7-.4-.2-.9-.5-1.3-.8s-.8-.6-1.2-.9c-.4-.3-.7-.6-1-1-.3-.3-.6-.7-.9-1.1-.3-.4-.5-.7-.7-1.1s-.4-.8-.5-1.2c0-.4-.3-.8-.4-1.3v-.2h0c-.5-.3-1-.4-1.6-.5-.5,0-1-.2-1.4-.5-1.3-.5-1.6-1.7-1.5-2.5.2-.7.7-1.2,1.5-1.2s.7,0,1.1.3h0c.3,0,.4,0,.4-.2v-.3h0c0-3.2.6-6.3,1.8-9.1,0-.3.2-1.1,0-1.3s-.7.4-.8.7c-1.3,2.8-1.9,5.8-1.9,8.9-.2-.2-.3-.4-.4-.5-.4-1.2-.5-2.1-.9-3.1C6.9,9.4,12.9,1.5,20.3,1.1c2.9.3,1.3-1.4,0-1.1C12.6.4,6.4,8,6.7,15.9c0,1.3.5,3.8,1.4,5.1-1,0-1.7.6-1.9,1.5-.4,1.2,0,3,1.7,4,.4,0,.8.2,1.3.3.7,0,1.3.3,1.6.6h0v.6c0,.2,0,.4.2.6.2.4.3.8.5,1.1.2.4.4.7.6,1.1.2.3.5.7.8,1,.3.3.6.6.9.9.3.3.6.6,1,.8.3.3.7.5,1.1.7,0,.7-.4,1.3-.6,1.9-2.1.5-3.1,1.6-4.2,2.9h0c0,.4-.3.7-.5,1.1h0c-2.2.7-7.5,3-4.8,3.1.3-.3,2.7-.9,4.3-1.7h0c-3.6,8.3-4.8,6.3-.4,7.2.3,0,.3.4,0,.6-.6.4-1.6.8-2,1.2v.2c.2,2.6,1.1,5.2,2.3,7.4h0c.7,2.3,1.6,4.2,2.8,5.9,0,0,.4.3.5.3h.4c.2,0,.5-.5.4-.7-1.2-2-2.2-4-3.2-6h0c-3-8.2-3.9-5.1,1.1-8.8h0c.8-1.5-4.3-.4-3.6-1.6,1.1-1.5,1.9-4.3,3.1-6.6h0v-.2h0c.8-1.6,1.9-3,3.4-3.4h0c0,.2-.2.5-.3.7s-.5.8-.8,1.2h0c-.3,0-.5,1.5-.4,4.1h0c.8,4.4,1.5,9.7,2.8,13.5h0c.7,3.2,1.4,5.5,2.1,7.4,0,0,.4.3.5.3h.4s.4-.3.3-.5c-2.2-5.8-3.2-11.9-4.8-17.8-.6-2.4,2.3,1,13.9-.8.3,0,.6.2.5.6-1.4,6-2.6,11.9-4.7,17.7,0,.3,0,.8.4.8h.3c.2,0,.4-.3.5-.5,2.7-7.9,6-21.5,4.8-24.6h0s-.5-.6-.6-.6c-.4-.5-.6-1-.8-1.6,1.1.4,2.8,1.1,3.4,3.4v.2h0c1,2.2,2,4.3,3,6.3h0c1.3,1.5-3.9.3-3.5,1.7h0c.7.9,4.3,2.4,3.8,2.9h0c-1.7,4.4-3.3,8.4-5.7,12.2,0,.2,0,.7.2.7h.3l.6-.3s.2-.3.2-.4h0c1.8-2.4,2.2-5.1,3.5-7.5h0c1.2-4.4,2.8-5.4-.8-7h0c-1.5-.5,1.2-.6,1.6-.7h0c3.2.4-1.1-3.9-1.7-6.7h.5ZM29.8,44.2c0,.2-.2.3-.3.4-2.4.6-16,1.4-14.8-1v-.2c0-1.4-.2-2.4-.3-3,.3-.3.6-.7.8-.9.4-.8.7-1.6,1.1-2.4.4-.7.6-1.5.7-2.3,0,0,.2,0,.3.2.4.2.9.4,1.3.6.5.2.9.4,1.4.5.5.2,1,.3,1.5.4h1.4c.3,0,.5,0,.8-.2.5,0,1-.3,1.5-.5s.9-.4,1.4-.6c.2,0,.5-.2.7-.3v.5c.3,1.1.9,2.1,1.4,3.2.2.5.7,1.1,1.2,1.6h0c-.2,1.2,0,3.2-.2,4h0ZM28.9,36.1h0c-.3-.6-.5-1.2-.6-1.8.3-.2.5-.3.8-.5.4-.3.7-.5,1-.8s.6-.6.9-.9c.3-.3.6-.6.8-1,.2-.3.5-.7.7-1,.2-.4.4-.7.6-1.1,0-.2.2-.4.2-.5,0,.5,2.6,3.1,1.8,6.1,0,1.3-.6,2.7-.5,3.7-.2.5,0,1.3.2,2.1-.5-.2-.9-.3-1.2-.4-.2-.4-.4-.8-.6-1.2-.6-.7-.2-1.1-4-2.7h0Z"/>
                <g>
                  <path class="cls-5" d="M52.4,58.4h0c-.2-.9,0-1.9,0-2.9s0-2.6-.3-3.7h-.2c-.4.4-.4,2.2-.4,2.8h0v9.3s0,.2.2.3c0,0,.2.2.3.2h.2c.2,0,.4-.3.4-.5v-5.5h-.2Z"/>
                  <path class="cls-5" d="M4.6,59.6h0c0-1-.8,0-.7.4.4,1.5.7,2.9,1,4.2,0,0,.2.4.3.4h.3c.2,0,.4-.3.3-.5-.3-1.4-.7-2.9-1.2-4.4h0Z"/>
                  <path class="cls-5" d="M4.3,44.6h0c0-.3.5-.6.4-1v-.2h-.3C.5,46.1.3,56.8.1,64.1c0,0,0,.3.3.3h.3s.7-.2.7-.3c0-2.3.2-4.5.2-6.8s1-10.2,2.8-12.7h0Z"/>
                </g>
                <g>
                  <path class="cls-5" d="M44,22.5c0,.2.2.5.3.8.3.8.5,1.6,1,1.6h.2c.3-.6-1.1-3.3-1.5-3.8h-.6c-.2.3,0,.8.4,1.4h0s.2,0,.2,0Z"/>
                  <path class="cls-5" d="M47.3,24.6h0c.4-.2.4-1.3.3-2.5v-1.4h0c-.2-.3-.3-.5-.5-.5h-.2c-.2.3-.2,1.1,0,1.6v.9c0,.8,0,1.7.5,1.8h0Z"/>
                  <path class="cls-5" d="M49.3,24.8h0c.4,0,1.3-2.6,1.3-3.6v-.4s0-.2-.3-.2h-.2c-.2.6-1.8,3.9-.9,4.1h0Z"/>
                  <path class="cls-5" d="M50.9,25.7h0c.6,0,1.2-.9,1.6-1.4h0s.2-.3.3-.4c.5-.5,1-1,.9-1.3,0,0-.2-.3-.4-.3h0l-.5.5c-.8.8-2.2,2.1-2.1,2.7,0,0,0,.2.2.3h0Z"/>
                </g>
              </g>
            </g>
          </g>
        </g>
        <g id="_文字-2">
          <g>
            <g>
              <path class="cls-5" d="M82.9,22.8c-.4,0-.6-.3-.7-.6,0-.2,0-.4.4-.6,1.6-1.1,2.9-3,3.6-4.9,0-.4.4-.5.6-.5.3,0,.7.3.7.6s-1.3,3.7-4.1,5.8c-.2,0-.3.2-.5.2ZM94.3,21.6c-.6-1.7-2.4-3.8-3.6-4.8,0,0-.2-.2-.2-.4,0-.3.2-.6.6-.6s.4,0,.5.2c1.8,1.5,4,4.1,4,5.2s-.3.8-.7.8-.5,0-.6-.5h0ZM93.6,15.9c-.3-.4-1.1-.9-1.6-1.1-.2,0-.3-.2-.3-.3,0-.2.2-.5.5-.5s2.1.8,2.2,1.5c0,.3-.2.5-.5.5s-.2,0-.3-.2h0ZM95,14.6c-.3-.3-1.2-.9-1.6-1-.2,0-.3-.2-.3-.4s.2-.5.5-.5,2.2.7,2.2,1.5-.2.5-.5.6c0,0-.2,0-.3-.2Z"/>
              <path class="cls-5" d="M107.9,23.8c0,.5-.3.7-.7.7s-.6-.2-.6-.6h0c0-1.4,0-4.4,0-6.4v-.4c-1.5,1.6-3.1,2.9-5,4.2-.2.2-.4.2-.6.2-.4,0-.6-.2-.6-.5s0-.4.4-.6c3.3-1.9,6.3-5,8.1-8.1.2-.3.4-.4.6-.4.3,0,.6.2.6.6s0,.3,0,.4c-.7,1.1-1.5,2-2.2,2.9,0,1.1,0,3.5,0,5.4,0,1.1,0,2,0,2.6h0Z"/>
              <path class="cls-5" d="M115.6,17.7c-.3,0-.5-.2-.6-.5,0-.2,0-.5.4-.6.9-.4,2-.8,3.1-1.2l-1-2.7v-.3c0-.4.2-.6.5-.6s.5,0,.6.5l.9,2.7c3.4-1.3,5.1-2,5.6-2s1.1.3,1.2.9c0,1.2-2.3,4.7-3.3,4.8-.3,0-.6-.2-.6-.5s0-.4.3-.5c1.4-1.1,2.2-2.8,2.2-3.2s0,0-.2,0-1.2.4-4.8,1.8c.8,2.5,1.8,5.3,2.5,6.9v.4c0,.4-.3.7-.6.7s-.5,0-.7-.5l-2.4-7q-3.2,1.3-3.3,1.3l.2-.3Z"/>
              <path class="cls-5" d="M132.2,17.2c-.4,0-.6-.3-.6-.5,0-.3.2-.6.6-.6l10.6-.4c.4,0,.6.3.6.6s-.2.6-.6.6l-10.6.4h0Z"/>
              <path class="cls-5" d="M148.9,13.5c-.4,0-.5-.3-.6-.5,0-.3.2-.6.5-.6,1.2,0,3.8-.2,5.5-.3,1,0,1.6.5,1.7,1.1,0,.2,0,.4-.2.7-.5,1.1-1.2,2.1-1.9,3.1,1,.6,4.8,2.8,4.8,3.8s-.3.7-.6.7-.3,0-.5-.3c-.9-1-2.9-2.6-4.4-3.4-2.6,3.1-5.6,4.3-5.9,4.3s-.6-.3-.6-.6,0-.5.5-.6c4.6-1.9,7.3-6.8,7.3-7.4s-.2-.3-.8-.3c-1.2,0-3.5.2-4.9.3h0ZM157.3,12.5c-.2-.4-1-1-1.4-1.3-.2,0-.2-.2-.2-.3,0-.2.2-.4.5-.4.5,0,2,1.2,2,1.7s-.2.5-.5.6c0,0-.3,0-.4-.2h0ZM159,11.5c-.3-.4-1-1.1-1.4-1.3-.2,0-.2-.2-.2-.3,0-.2.2-.4.5-.4s2.1,1.1,2.1,1.7-.2.6-.5.6-.3,0-.4-.2h0Z"/>
              <path class="cls-5" d="M169.2,18.8h0c0,1.2.9,1.4,2.3,1.3,1,0,2.2-.2,3.1-.5h.4c.4,0,.7.2.7.5s-.2.6-.8.8c-.9.2-1.9.4-2.9.4-1.9,0-3.9,0-4-2.1,0-1.4,0-2.4,0-2.9-3.3,1.5-3.4,1.5-3.5,1.5-.3,0-.5-.2-.6-.5,0-.2,0-.4.4-.6.3,0,1.9-.8,3.7-1.6v-4c0-.4.3-.6.5-.6.3,0,.6.2.7.5v3.6c4.5-2,4.7-2.1,5.2-2.1s1.2.3,1.2.9c0,.9-2.3,4.3-3.2,4.3s-.5-.2-.6-.5c0-.2,0-.4.2-.5,1.3-1.4,2.1-2.6,2-2.8,0,0,0,0-.2,0s-.4,0-4.8,2v3h.2Z"/>
              <path class="cls-5" d="M183.6,20.3c-.7,0-1.3-.4-1.4-1.4h0c0-1.4,0-3.6,0-5.2v-2.1h0c0-.5.3-.7.6-.7s.6.2.7.6v1.2c0,1.8,0,4.5,0,5.6h0c0,.4.2.6.5.6.7,0,4.9-2.9,6.8-6.3.2-.3.4-.4.6-.4.3,0,.6.3.7.6,0,1.1-6.1,7.5-8.4,7.6h0Z"/>
              <path class="cls-5" d="M197.6,15.7c-.3,0-.6-.2-.6-.5s0-.4.3-.6c1.6-1.1,3.7-4.1,4.5-5.7,0-.2.3-.3.5-.3.3,0,.7.2.7.6s0,.4-.5,1c1.1,0,2.8-.3,2.8-.3.9,0,1.6.4,1.6,1.1s0,.4,0,.6c-1.7,3.7-4.2,7.4-8.7,9.4h-.4c-.4,0-.6-.2-.7-.5,0-.3,0-.5.5-.7,5.1-2,7.9-7.9,7.9-8.6s-.2-.4-.5-.4c-.7,0-2.9.3-3.2.4-1.3,1.9-3.4,4.4-4.2,4.4h0Z"/>
              <path class="cls-5" d="M214.6,13.5v3c0,1.4,0,2.6.2,3.5,0,0,0,.8-.7.8s-.6-.2-.6-.6h0c0-2,0-5.8-.2-8.8,0-1.3,0-2.4,0-3.2h0c0-.4.3-.6.6-.6s.6.2.7.6h0v4.2h.2c.4,0,3.3.5,4.4,1.3.2,0,.3.3.3.5,0,.4-.3.7-.6.7s-.3,0-.4,0c-.8-.6-2.9-1.2-3.8-1.3h0Z"/>
            </g>
            <line class="cls-4" x1="67.2" y1="10.4" x2="74.4" y2="26.8"/>
            <line class="cls-4" x1="234.4" y1="4.4" x2="228.5" y2="21.2"/>
          </g>
        </g>
      </g>
    </g>
  </g>
</svg>