<?xml version="1.0" encoding="UTF-8"?>
<svg xmlns="http://www.w3.org/2000/svg" width="146.9mm" height="36.8mm" version="1.1" viewBox="0 0 416.4 104.3">
  <defs>
    <style>
      .cls-1, .cls-2 {
        fill: none;
      }

      .cls-3 {
        fill: #2a2e3c;
      }

      .cls-4 {
        fill: #95969e;
      }

      .cls-2 {
        stroke: #cab699;
        stroke-miterlimit: 4;
        stroke-width: 1.1px;
      }

      .cls-5 {
        fill: #cab699;
      }

      .cls-6 {
        fill: #f29b8f;
      }

      .cls-7 {
        display: none;
      }
    </style>
  </defs>
  <!-- Generator: Adobe Illustrator 28.7.5, SVG Export Plug-In . SVG Version: 1.2.0 Build 176)  -->
  <g>
    <g id="_レイヤー_1" data-name="レイヤー_1">
      <g>
        <g id="_レイヤー_1-2" data-name="_レイヤー_1">
          <g id="_レイヤー_1-2">
            <g id="_文字">
              <g>
                <path class="cls-2" d="M169.7,85.7s137.2,5.5,247-21"/>
                <g>
                  <path class="cls-5" d="M29.8,31.4c1.8,0,2.1-.2,2.4-.8.3-.6.7-.8,1.5-.5,1,.3,4.2,2,4.2,3.1s-.5.9-1.9,1.4c-1.2.4-1.8.6-2.2.4-.8-.2-2.2-.9-3.8-.9h-10.9c-4,0-.8.7-1.2,1.9-.8,2.2-5.3,14.8-5.4,15.6-.2.8,0,1,.8,1s9.6-.4,16.1-.7c4.6-.2,6.1-.2,6.9-.2s1.1.4.6.8c-.4.3-1,.8-2.7,1.2-1.2.2-5.2.8-8,1.1-4.8.4-8.7.7-12.9,1.3-2.1.2-2.5.8-3.1,2.4-1.3,3.6-2.3,6-3.4,9-.6,1.2-.5,2,.6,2.5,1.4.6,5.1.6,6.4,0,1.1-.5,1.6,0,.5,1-1.8,1.7-5.4,2.9-8.1,2.9s-4-.4-5-1.3C.2,72.1,0,71.4.4,71c.3-.4,1-.8,1.9-1.3.9-.7,1.2-1.2,1.6-2.2.5-1.4,2.3-7.5,2.7-9.4.2-.8,0-1.4-.7-2.3-.9-1-.5-1.6.9-2.3.8-.6,1.7-1.1,2.2-2.3.4-.7,4.6-13,5.3-16,0-.9,0-1.3-.7-1.3-1.6,0-2.7.6-3.6,1.5-.9.8-1.3.8-1.7.4-.3-.4-.3-1.2,0-1.9.4-.9,1.1-1.9,1.8-2.5,1.4-1.5,3-1.5,4.4-.6.6.4.7.2.8-.2,0-.4.2-1,.4-1.7.2-.8.6-1,1.1-1,1.6,0,2.8,2.1,2.5,3.1,0,.4.2.4.9.4,0,0,9.6,0,9.6,0Z"/>
                  <path class="cls-5" d="M42,57.5c1.3-2.7,5.5-8.8,6.5-10.1.7-1,.9-1.6.9-2.5,0-1.4.6-2.2,1.3-2.8.6-.8,1.3-.8,2.3-.8s1.2-.3,1.7-.8c.3-.8,1-1.2,1.9-1.2s1.8.5,1.7,1.6c0,.5,0,1.1.4,1.6,1.7,1.6,4.6,4,4.6,10s-2.2,8.6-4.8,11.9c-5.5,7.2-11.9,9.7-15,9.7s-4.5-2.6-4.5-5.2c0-4,1.9-9.3,3-11.5h0ZM45.3,70.6c1.9,0,4.4-1,6.7-3.1,3.3-3,7.9-10.1,7.9-15.2s-.4-7.1-4.5-7.1-2.7,1.3-5.1,4.1c-2.3,2.8-7.8,11.4-7.8,17.9s1,3.3,2.8,3.3h0Z"/>
                  <path class="cls-5" d="M98.1,42.4c-.2,1-.9,2.4-1.5,3-.7.7-1.3.6-1.9,0-.5-.4-1.1-.8-2.1-.8s-3.5,2.5-5.4,4.8c-5.4,6.4-8.8,13-13.6,23.4-.3.7-.8.8-1.2.8s-.9-.4-1.1-.8c-.4-.7,0-1.8.3-2.9,1.3-3,4.4-18.1,5.1-22.5.4-2.8.6-4.3,1-4.9.5-.8,1.9-2.6,2.6-2.6,1,0,1.6,1.8,1.5,2.6,0,1-.4,1.6-.6,2.2-1.4,2.8-3,9.8-3.4,12.2-.2,1.4.2,1.5,1,.2,3.3-5,8-11.2,11.8-14.8,2.3-2.3,3.9-2.8,4.9-2.8,2.2,0,2.8,1.5,2.5,3h0v-.2h0Z"/>
                  <path class="cls-5" d="M130.4,43.2c-1.1,2.7-6.3,18.8-6.5,20,0,.8,0,1.3.3,1.7s1,0,2.1-1.4c7.8-9.2,18.9-21.8,19.9-22.8,1-1.1,1.6-1.3,2-1.3.7,0,1.6,1.5,1.7,2.9,0,1-.5,1.3-1.5,2.1-.6.5-1,1.1-1.6,2-1.2,2.4-3.1,8-4,14.1-.9,6.3-.4,8.9,3,8.8,4.2,0,10-5.1,18.2-16.2.6-.8,1.1-.8,1.3-.2,0,.6-.2,1.3-.8,2.3-7.8,12.5-15.8,17.4-20.2,17.5-2.9,0-5.9-3.6-5.1-10.4.6-5,1.5-8.7,2.3-11.9.2-.8,0-1-1,0-3.8,4.5-13.6,16-16.7,19.3-1.8,1.9-2.5,2.5-3.2,2.5-1.3,0-1.4-3.7-.2-8.3.5-2.2,3.4-12.1,4-14,.5-1.7.3-2.1,0-2.4-.2-.2-.7,0-1.3.6-2.4,1.6-15.3,18.4-18.2,22.2-1,1.3-2,2.5-2.8,2.5s-1.8-1.8-1.5-5.1c.2-2.4,2.5-11.2,4.9-19,.2-.6.2-1,.2-1.4s.2-1.6.6-3.1c.6-2.1,1.3-5.7,2.7-5.7s.9.3,1.2.8c1,1.3,1.1,2.7,0,4.8-2.1,4.2-4.9,16.4-5.7,19.3-.6,2.4.2,3.1,1.2,1.9,4.9-6.4,10.9-14.3,16.3-20,2.2-2.4,3.7-3.9,4.8-5,1.1-1.2,1.8-1.6,2.2-1.7,1.6,0,2.1,2.3,1.3,4.3h0l.2.3h0Z"/>
                  <path class="cls-5" d="M184.8,39.3c0,.3.4.5.8.3.6-.4,1-.4,1.5,0,.8.5.9,1.2.4,2.3-2.9,6.6-4.6,12-4.4,17.2,0,4.7.6,8.9,3.4,8.8,4.9-.2,12.5-10.8,15.5-15.1.5-.9,1.3-.8,1.3-.2s0,1.3-.6,2.4c-2.8,6.3-12.9,16.6-17.3,16.7-1.7,0-4.7-2.8-5.1-6.7-.3-2.3-.6-5.9-.6-7s-.2-.7-.7,0c-1.4,2-6.6,8.8-9,11.2-2.1,2.1-3.8,3.1-4.8,3.1s-3.5-.6-3.6-4c0-1.4.4-4.5,3.2-10.1,2.3-5,6.8-12.4,11.6-16.6,3.1-3.1,5-3.7,6-3.7s1.9,1,2.4,1.7h0v-.3h0ZM174.2,46.9c-5,6.3-7.3,13.4-8.4,17.3-.6,2.1-.2,3.5,1.3,3.5s2.2-1.1,4.1-3.1c1.6-1.7,4.7-5.8,7.4-10,1.1-1.6,3.2-6.4,3.5-7.2.4-1,.6-2.4.4-3.6-.2-1.3-.7-2.2-2-2.1-1.7,0-3.9,2.2-6.3,5.2h0Z"/>
                  <path class="cls-5" d="M210,39.1c6.7-18.3,10-24.4,10.9-25.7.3-.4.6-.6,1-.6s.9.2,1.1.5c1,1.6.4,3.4-.5,5-8.5,17.1-13.6,33.2-15.1,40.5-1.5,7.1,0,7.9,1,7.9,3.6,0,15.8-11.4,21.1-17.9.4-.5,1-.3,1.1.2,0,.6-.2,1.5-1.1,2.8-4.2,6-17.6,18.5-23,18.7-1.7,0-2.6-2.5-2.8-5.8,0-1.8,1.4-11.9,6.5-25.7h-.2Z"/>
                  <path class="cls-4" d="M272.9,22.9c.3.5.5,1.2.4,2-.6,1.6-1.4,2.2-3.4,2.3-1.1,0-2.3,0-3.9.5-5.3,1.5-9.6,6-9.4,11.4,0,2,.9,4.9,2.4,8.5,1.5,3.7,2.5,8.3,2.6,10,0,2.9-1.2,5.7-3.2,7.6-2.4,2.2-6.6,3.5-10.4,3.7-1.3,0-3.7,0-4.9-.5s-1.5-1-1.5-1.7,0-.9.7-1.5c.6-.6,1.9-1,2.8-.4,1.7,1.1,3.5,1.3,5.2,1.3,3.7-.2,8-2.8,7.8-8.2,0-2-.9-5.3-2.4-9-2.2-5.1-2.6-7.2-2.7-8.8-.2-5.1,4.5-11.6,13.5-15.9,3.1-1.4,4.2-1.7,5-1.8.7,0,1.1,0,1.4.5h0Z"/>
                  <path class="cls-4" d="M295,56.5c.9-.7,1.3,0,.7.8-1.4,1.6-5.6,5.7-13.2,9.2-1.3.6-2.3.8-3.1.8-1.5,0-4.9-1.2-5.1-4.5,0-1.1.3-2.8,1-4.8.8-2.8,3.4-13.1,4.2-15.5.3-1,0-1-.6-.9-1.4.2-3.9.7-4.7.8-.8,0-1.4,0-1.8-.3-.7-.5-.5-1.3,0-2,.5-.6,1-.8,2.3-1.2,1.6-.4,3.3-.7,5.1-.9,1-.2,1.3-.6,1.5-1.2.5-1.5,3-10.4,3.8-12.5.3-1.1,1.5-2.9,3-3,.5,0,.9.2,1.1,1,.2.6.4,1.4,0,2.6-2.5,5.7-4,10.7-4.2,11.6-.2.8,0,.9.9.7,2-.2,10.3-1.3,17.1-1.7,1.9,0,.9,1.4-.8,1.8-3,.7-8.3,1.7-17.7,3.4-.8,0-1.1.2-1.4,1.2-1.6,5-3.8,13.3-4.3,16.9-.4,3.6.7,4.8,2.9,4.7,4.8-.3,11.4-5.4,13.4-7h0Z"/>
                  <path class="cls-4" d="M305,42.4c0-2-.2-2.7-.3-3.3,0-.9-.3-2.1,0-2.8.5-1.3,1.3-4.6,2.6-4.7,1.4,0,1.5,5,1.4,6.9,0,2.8-.5,12.2-.5,15.4s1.3,5.7,2.4,5.6c2.7-.2,6.7-5.3,11.1-15,2.1-4.4,1.8-5.5,1.8-6.1s-.3-1.6.3-2.7c.9-1.5,1.1-2.4,1.6-4.1.5-1.5,1-1.8,1.5-1.8.9,0,1.6,1.6,1.7,2.7,0,.9-.4,3.7-1.6,6.7-1.2,3.2-6.5,14.5-10.3,19.9-9.7,13.5-15.4,23-17.5,26.4-.3.7-.2.9.2.8,1.1,0,1.7.5,1.8,1.2,0,1.4-5,4.5-6,5.1-1.4.8-2,1.4-2.2,1.9-1.3,2.3-2.1,4.3-3.6,4.4-1.1,0-1.5-.6-1.2-1.9.3-1.5.8-2.6,2.4-5.2s2.8-3.3,3.6-3.6c.6-.2,1-.6,1.2-1,.2-.6,3.5-7,6.4-10.7,1.8-2.3,8.7-13.2,9.5-14.2s.3-.6-.5-.2c-1.3.5-2.2.8-2.8.8-1.7,0-2.5-2-2.8-7.9l-.2-12.7h0Z"/>
                  <path class="cls-4" d="M341.8,32c6-18.5,9.1-24.7,10-26,.3-.4.6-.6,1-.6s.9,0,1.1.5c1.1,1.5.5,3.4-.3,5-7.9,17.3-12.5,33.7-13.7,41-1.3,7.1.3,7.9,1.2,7.9,3.6-.3,15.4-11.9,20.5-18.6.4-.5,1-.4,1.1.2s-.2,1.5-1,2.8c-4,6.2-16.9,19.1-22.4,19.5-1.7,0-2.7-2.5-3-5.8,0-1.8.9-11.9,5.6-25.9h-.1Z"/>
                  <path class="cls-4" d="M366.8,37.5c1.6-3,6.4-10.7,9.4-10.9,1.1,0,1.7.8,1.5,1.5,0,.3,0,.6.9.8,1.6,0,3.1,1.2,3.3,3.6.2,2.6-.5,6-2.2,8.1-2.7,3.4-5.9,6.4-10.6,6.8-.8,0-1.4-.3-1.9-.7-.2-.3-.5-.3-.7.3-.4,1.1-.6,3-.5,5,.4,4.2,2.5,6.2,5.7,5.9,6.6-.5,17.2-9.7,21.2-15.4.6-.8,1.1-.8,1.3-.3,0,.6,0,1.3-.7,2.3-4.9,7.8-15.4,16-23,16.7-3.1.2-7.6-1.1-8.1-8.1-.4-4.3,1.5-10.5,4.2-15.6h.2ZM378.8,35.2c-.2-2.8-1.9-4.1-3.1-4-2.7.2-6.9,8-7.9,11.9,0,.5.3.7,1.6.6,5.6-.5,9.7-4.2,9.5-8.5,0,0-.1,0-.1,0Z"/>
                </g>
              </g>
            </g>
            <rect class="cls-1" x=".2" y="0" width="416.1" height="104.3"/>
          </g>
        </g>
        <g id="_素材" class="cls-7">
          <rect class="cls-3" x="63.2" y="-49.7" width="17.2" height="17.2"/>
          <rect class="cls-6" x="88.8" y="-49.7" width="17.2" height="17.2"/>
        </g>
      </g>
      <g id="_素材-2" data-name="_素材" class="cls-7">
        <rect class="cls-3" x="4.3" y="-329.8" width="17.2" height="17.2"/>
        <rect class="cls-6" x="29.9" y="-329.8" width="17.2" height="17.2"/>
        <rect class="cls-5" x="55.6" y="-329.8" width="17.2" height="17.2"/>
      </g>
    </g>
  </g>
</svg>