<?xml version="1.0" encoding="UTF-8" standalone="no"?>
<svg
   width="64mm"
   height="26.5mm"
   version="1.1"
   viewBox="0 0 181.4 75.2"
   id="svg25"
   sodipodi:docname="midashi_Otheritems.svg"
   inkscape:version="1.4.2 (ebf0e940, 2025-05-08)"
   xmlns:inkscape="http://www.inkscape.org/namespaces/inkscape"
   xmlns:sodipodi="http://sodipodi.sourceforge.net/DTD/sodipodi-0.dtd"
   xmlns="http://www.w3.org/2000/svg"
   xmlns:svg="http://www.w3.org/2000/svg">
  <sodipodi:namedview
     id="namedview25"
     pagecolor="#505050"
     bordercolor="#eeeeee"
     borderopacity="1"
     inkscape:showpageshadow="0"
     inkscape:pageopacity="0"
     inkscape:pagecheckerboard="0"
     inkscape:deskcolor="#505050"
     inkscape:document-units="mm"
     inkscape:zoom="3.4395833"
     inkscape:cx="175.60267"
     inkscape:cy="50.006057"
     inkscape:window-width="1680"
     inkscape:window-height="999"
     inkscape:window-x="0"
     inkscape:window-y="25"
     inkscape:window-maximized="0"
     inkscape:current-layer="svg25" />
  <defs
     id="defs1">
    <style
       id="style1">
      .cls-1, .cls-2, .cls-3 {
        fill: none;
      }

      .cls-4 {
        fill: #2a2e3c;
      }

      .cls-5 {
        fill: #95969e;
      }

      .cls-2 {
        stroke: #cab699;
        stroke-miterlimit: 4;
        stroke-width: .5px;
      }

      .cls-6 {
        fill: #cab699;
      }

      .cls-3 {
        stroke: #fff;
        stroke-miterlimit: 10;
        stroke-width: 1.4px;
      }

      .cls-7 {
        fill: #f29b8f;
      }

      .cls-8 {
        fill: #2f313e;
      }

      .cls-9 {
        display: none;
      }
    </style>
  </defs>
  <!-- Generator: Adobe Illustrator 28.7.5, SVG Export Plug-In . SVG Version: 1.2.0 Build 176)  -->
  <rect
     class="cls-4"
     x="8.6000004"
     y="-42"
     width="17.200001"
     height="17.200001"
     id="rect22" />
  <rect
     class="cls-7"
     x="34.200001"
     y="-42"
     width="17.200001"
     height="17.200001"
     id="rect23" />
  <rect
     class="cls-6"
     x="60"
     y="-42"
     width="17.200001"
     height="17.200001"
     id="rect24" />
  <g
     id="g29">
    <g
       id="g28">
      <g
         id="g27">
        <g
           id="g26">
          <g
             id="g25">
            <path
               class="cls-2"
               d="m 86.6,50.3 c 0,0 34.3,1.4 61.7,-5.3"
               id="path1"
               style="stroke:#f2998d;stroke-opacity:1" />
            <path
               class="cls-8"
               d="m 12.9,14.2 0.2,-7.7 c -1.4,1.7 -1.8,1.9 -2.1,1.9 -0.3,0 -0.6,-0.3 -0.6,-0.6 0,-0.3 0,-0.3 0.2,-0.5 1.6,-1.4 3,-3.3 3.8,-5.5 0,-0.3 0.4,-0.4 0.6,-0.4 0.4,0 0.8,0.3 0.8,0.7 0,0.4 -0.9,2 -1.4,2.7 l -0.2,9.5 c 0,0.4 -0.4,0.6 -0.7,0.6 -0.3,0 -0.7,-0.2 -0.7,-0.6 v 0 z m 3.1,0.1 c -0.4,0 -0.6,-0.3 -0.6,-0.6 0,-0.3 0.2,-0.6 0.6,-0.6 h 3 V 7.4 h -3.2 c -0.4,0 -0.6,-0.3 -0.6,-0.6 0,-0.3 0.2,-0.6 0.6,-0.6 H 19 V 2.1 c 0,-0.4 0.3,-0.6 0.7,-0.6 0.4,0 0.7,0.2 0.7,0.6 v 4.2 h 3.7 c 0.4,0 0.6,0.3 0.6,0.6 0,0.3 -0.2,0.6 -0.6,0.6 h -3.7 v 5.7 h 3.3 c 0.4,0 0.6,0.3 0.6,0.6 0,0.3 -0.2,0.6 -0.6,0.6 H 16 Z"
               id="path2" />
            <path
               class="cls-8"
               d="m 28.7,14.2 c -0.4,0 -0.6,-0.3 -0.6,-0.7 0,-0.4 0.2,-0.6 0.6,-0.6 h 5.1 v -11 c 0,-0.4 0.3,-0.7 0.7,-0.7 0.4,0 0.7,0.2 0.7,0.7 v 4.3 h 4.5 c 0.4,0 0.6,0.3 0.6,0.6 0,0.3 -0.2,0.6 -0.6,0.6 h -4.5 v 5.5 h 5.9 c 0.4,0 0.6,0.3 0.6,0.6 0,0.3 -0.2,0.6 -0.6,0.6 H 28.7 Z"
               id="path3" />
            <path
               class="cls-8"
               d="m 48.3,2.9 c 0,0.5 0,1.4 -0.3,2.2 -0.2,1.2 -0.4,2.3 -0.4,3.5 0,1.2 0,1.4 0.2,1.4 0.2,0 0,0 0.2,-0.2 0.5,-1.1 0.7,-1.4 1,-1.4 0.3,0 0.5,0.2 0.5,0.5 0,0.3 0,0.2 0,0.2 0,0.3 -0.8,1.9 -0.8,2.9 0,1 0,0.2 0,0.3 0,0.6 -0.4,0.8 -0.7,0.8 -0.3,0 -0.5,0 -0.6,-0.4 C 46.7,11.4 46.5,10.1 46.5,8.8 46.5,7.5 46.7,6 46.8,4.9 46.8,4 47,3.5 47,2.8 c 0,-0.7 0.4,-0.6 0.7,-0.6 0.3,0 0.7,0.2 0.7,0.6 v 0 z m 6.9,2 c 0.4,0 0.8,-0.2 1.1,-0.3 h 0.2 c 0.4,0 0.7,0.3 0.7,0.6 0,0.3 -0.2,0.5 -0.7,0.6 l -1.4,0.3 v 2.4 c 0,2.8 -0.9,4.9 -3.2,6.6 -0.2,0 -0.3,0.2 -0.5,0.2 -0.4,0 -0.7,-0.3 -0.7,-0.6 0,-0.3 0,-0.4 0.4,-0.6 2,-1.3 2.7,-3.2 2.7,-5.8 0,-2.6 0,-0.6 0,-1.9 -0.7,0 -1.4,0.2 -2,0.2 -1,0 -1.5,0 -1.5,-0.7 0,-0.7 0.2,-0.6 0.7,-0.6 0.5,0 0,0 0.2,0 h 2.6 V 4.6 c 0,-0.8 0,-1.2 -0.2,-1.7 v 0 c 0,-0.6 0.3,-0.8 0.7,-0.8 0.8,0 0.8,0.7 0.8,1.7 0,1 0,0.5 0,0.8 v 0.5 0 -0.2 z m 1,-2 c 0,-0.4 -0.6,-1.1 -0.9,-1.4 0,0 -0.2,-0.2 -0.2,-0.4 0,-0.2 0.2,-0.4 0.5,-0.4 0.6,0 1.6,1.5 1.6,1.9 0,0.4 -0.3,0.6 -0.6,0.6 -0.3,0 -0.4,0 -0.4,-0.3 z M 58,2.2 C 58,1.8 57.3,1.1 57,0.8 57,0.8 56.8,0.6 56.8,0.4 56.8,0.2 57,0 57.3,0 57.9,0 59,1.5 59,1.9 c 0,0.4 -0.3,0.6 -0.6,0.6 -0.3,0 -0.3,0 -0.4,-0.3 z"
               id="path4" />
            <path
               class="cls-8"
               d="M 62.4,10.2 V 8.3 c 0.2,-1.8 0.6,-3.6 0.7,-4.5 0,-0.4 0.4,-0.6 0.7,-0.6 0.3,0 0.7,0.2 0.7,0.6 0,0.4 0,0 0,0 -0.2,1 -0.6,2.8 -0.8,4.3 v 1.6 c 0,0.5 0,1.2 0.2,1.2 0.2,0 0,0 0,-0.2 0,0 0.4,-0.7 0.4,-0.8 0,-0.2 0.3,-0.3 0.5,-0.3 0.3,0 0.6,0.3 0.6,0.6 v 0.3 c -0.9,1.7 -1,2.4 -1,2.9 0,0.5 -0.4,0.8 -0.7,0.8 -1,0 -1.3,-2.6 -1.3,-4 z m 8.2,3.3 c -2.4,0 -3.6,-1 -3.6,-1.6 0,-0.6 0.3,-0.7 0.7,-0.7 0.4,0 0.3,0 0.5,0.2 0.5,0.4 1.3,0.6 2.1,0.6 0.8,0 1.5,0 2.1,-0.3 h 0.2 c 0.4,0 0.7,0.3 0.7,0.7 0,0.4 -0.2,0.7 -0.6,0.8 -0.6,0.2 -1.3,0.2 -2.1,0.2 v 0 z m 1.3,-7.6 c -0.6,0 -1.2,-0.2 -1.8,-0.2 -0.6,0 -1.3,0 -2,0.3 h -0.2 c -0.4,0 -0.6,-0.3 -0.6,-0.7 0,-0.4 0.2,-0.5 0.6,-0.6 0.8,-0.2 1.6,-0.3 2.4,-0.3 1.7,0 2.4,0.3 2.4,0.9 0,0.6 -0.2,0.6 -0.6,0.6 -0.4,0 0,0 -0.2,0 z"
               id="path5" />
            <path
               class="cls-8"
               d="M 79.2,9.1 C 78.4,9.4 77.9,9.6 77.8,9.6 77.4,9.6 77.2,9.3 77.2,9 77.2,8.7 77.2,8.5 77.6,8.4 78.2,8.2 78.7,8 79.2,7.8 V 5.1 H 78 c -0.4,0 -0.6,-0.3 -0.6,-0.6 0,-0.3 0.2,-0.6 0.6,-0.6 h 1.2 V 1.3 c 0,-0.4 0.3,-0.7 0.6,-0.7 0.3,0 0.6,0.2 0.6,0.6 v 2.6 h 0.8 c 0.3,0 0.4,0 0.5,0.3 v 0 c 0,-0.4 0.2,-0.7 0.6,-0.7 h 4.5 c 0.3,-0.6 0.7,-1.4 1,-2.2 0,-0.2 0.3,-0.3 0.5,-0.3 0.4,0 0.8,0.2 0.8,0.6 0,0.4 -0.8,1.6 -1,1.9 h 2.5 c 0.4,0 0.6,0.2 0.6,0.5 0,0.3 -0.2,0.6 -0.6,0.6 h -8.3 c -0.3,0 -0.4,0 -0.5,-0.3 v 0 c 0,0.4 -0.2,0.7 -0.6,0.7 H 80.4 V 7 c 0.3,0 0.5,-0.3 0.8,-0.4 h 0.2 c 0.3,0 0.5,0.3 0.5,0.6 0,0.3 0,0.4 -1.5,1.1 v 4.3 0 c 0,1 -0.4,1.9 -1.8,1.9 -1.4,0 -1.3,-0.4 -1.3,-0.7 0,-0.3 0.2,-0.6 0.5,-0.6 0.3,0 0,0 0,0 h 0.6 C 78.8,13.2 79,13 79,12.4 V 8.8 9.1 Z m 4.2,5.4 c 0,0.3 -0.3,0.5 -0.5,0.5 -0.2,0 -0.5,-0.2 -0.5,-0.5 V 7.1 c 0,-1.3 0.8,-1.3 1.9,-1.3 1.1,0 1.9,0 1.9,1.3 v 6 0 c 0,0.9 -0.2,1.7 -1.3,1.7 -1.1,0 -0.9,0 -0.9,-0.6 0,-0.6 0,-0.6 0.4,-0.6 0.4,0 0,0 0,0 h 0.4 c 0.2,0 0.3,-0.2 0.3,-0.8 v -1.5 h -1.8 v 3.1 0 z m 0,-5.3 v 1.3 h 1.8 V 9.2 Z m 1.8,-1 V 7.4 c 0,-0.5 -0.2,-0.6 -0.8,-0.6 -0.6,0 -0.9,0 -0.9,0.6 V 8.2 Z M 85,3.5 c -0.2,0 -0.4,0 -0.4,-0.3 C 84.4,2.7 84.1,2.5 83.8,2 V 1.8 c 0,-0.3 0.4,-0.5 0.7,-0.5 0.5,0 1.4,1.2 1.4,1.5 0,0.3 -0.4,0.7 -0.7,0.7 z m 2.2,3.4 c 0,-0.4 0.3,-0.5 0.5,-0.5 0.2,0 0.6,0.2 0.6,0.5 V 12 c 0,0.3 -0.3,0.5 -0.5,0.5 -0.2,0 -0.6,-0.2 -0.6,-0.5 z m 2.1,-0.7 c 0,-0.4 0.3,-0.6 0.6,-0.6 0.3,0 0.6,0.2 0.6,0.6 v 7 0 c 0,0.9 -0.5,1.7 -1.9,1.7 -1.4,0 -1.4,-0.4 -1.4,-0.7 0,-0.3 0.2,-0.6 0.5,-0.6 0.3,0 0,0 0,0 0.3,0 0.5,0 0.8,0 0.3,0 0.7,-0.2 0.7,-0.8 v -6.7 0 z"
               id="path6" />
            <path
               class="cls-8"
               d="m 99.3,10.9 c 0.6,0 1.1,0.3 1.4,1 0.3,0.7 0.7,1.1 1.5,1.1 0.8,0 2,-0.2 2.6,-0.5 h 0.4 c 0.4,0 0.7,0.3 0.7,0.7 0,0.4 -0.2,0.6 -0.6,0.8 -0.7,0.3 -1.8,0.4 -2.7,0.4 -0.9,0 -2.3,-0.3 -2.9,-1.7 -0.2,-0.4 -0.5,-0.7 -0.9,-0.7 -0.4,0 -1.2,0.4 -1.8,1.3 0,0.2 -0.3,0.4 -0.4,0.5 -0.3,0.4 -0.7,0.4 -0.9,0.4 -0.2,0 -0.7,-0.2 -0.7,-0.6 0,-0.4 0,-0.4 0.3,-0.6 0.5,-0.6 1.4,-1.5 1.9,-2 1.3,-1.2 4.3,-4.4 4.3,-4.6 0,-0.2 0,0 0,0 v 0 c -0.6,0.3 -3,1.3 -3.8,1.3 -0.8,0 -0.8,-0.3 -0.8,-0.7 0,-0.4 0.2,-0.6 0.6,-0.7 0.7,0 1.9,-0.4 2.8,-0.8 1.1,-0.4 1.3,-0.4 1.6,-0.4 0.8,0 1.3,0.5 1.3,1 0,0.5 0,0.4 -0.3,0.7 -0.8,0.8 -2.9,2.9 -4,4 0.2,0 0.4,0 0.7,0 L 99.4,11 v 0 z m 2.4,-6.8 c -0.6,0 -2.3,-1 -2.8,-1.4 -0.2,0 -0.3,-0.3 -0.3,-0.5 0,-0.3 0.3,-0.6 0.7,-0.6 0.4,0 0.3,0 0.5,0.2 0.6,0.4 1.3,0.7 2.1,1 0.4,0 0.5,0.4 0.5,0.6 0,0.4 -0.3,0.7 -0.8,0.7 v 0 z"
               id="path7" />
            <path
               class="cls-8"
               d="m 112,5.8 c -1.7,0 -1.9,-0.6 -1.9,-0.9 0,-0.3 0.2,-0.6 0.5,-0.6 h 0.4 c 0.4,0 0.8,0.2 1.3,0.2 h 1.1 v -1.8 0 c 0,-0.4 0.3,-0.6 0.7,-0.6 0.6,0 0.8,0.3 0.8,1.2 0,0.9 0,0.6 0,0.8 0.3,0 0.6,-0.3 0.8,-0.4 h 0.4 c 0.4,0 0.7,0.3 0.7,0.7 0,0.4 -0.4,0.8 -2.2,1.3 -1,3.5 -2.2,6.4 -3,8.1 -0.2,0.4 -0.5,0.5 -0.8,0.5 -0.3,0 -0.7,-0.2 -0.7,-0.7 v -0.5 c 0.7,-1.4 1.9,-4 2.9,-7.2 h -1.1 v 0 z m 7,8.2 c -2.1,0 -3.8,-0.9 -3.8,-1.7 0,-0.8 0.3,-0.8 0.7,-0.8 0.4,0 0.3,0 0.5,0.3 0.5,0.6 1.2,0.8 2.1,0.8 0.9,0 1,0 1.7,0 v 0 c 0.5,0 0.7,0.3 0.7,0.7 0,0.4 -0.3,0.9 -2.1,0.9 h 0.2 z m 1.5,-6.7 c -0.6,-0.2 -1.4,-0.4 -2.1,-0.4 -0.7,0 -0.9,0 -1.2,0.2 H 117 c -0.3,0 -0.5,-0.3 -0.5,-0.6 0,-0.8 1.7,-0.9 2.3,-0.9 0.6,0 1.4,0 2.1,0.4 0.4,0 0.5,0.4 0.5,0.7 0,0.3 -0.2,0.6 -0.6,0.6 -0.4,0 -0.2,0 -0.3,0 z"
               id="path8" />
            <path
               class="cls-8"
               d="M 126.5,7.1 V 5.6 c 0,-0.4 0,-1 0.7,-1 0.7,0 0.7,0.4 0.7,1.1 0,0.7 0,0.3 0,0.5 0,4.3 1.7,5 1.9,5 0.2,0 0.5,0 1.1,-1.4 0,-0.3 0.4,-0.4 0.6,-0.4 0.4,0 0.7,0.3 0.7,0.7 0,0.4 -1,2.7 -2.4,2.7 -1.4,0 -2.9,-1.9 -3.2,-5.7 v 0 z M 137,9.4 c -0.2,-1.3 -1,-2.5 -1.9,-3.2 -0.2,0 -0.3,-0.3 -0.3,-0.4 0,-0.3 0.3,-0.6 0.6,-0.6 0.9,0 2.9,2.6 2.9,4 0,1.4 -0.4,0.8 -0.8,0.8 -0.4,0 -0.6,-0.2 -0.7,-0.6 z"
               id="path9" />
            <path
               class="cls-8"
               d="m 142.9,14.8 c -0.4,0 -0.7,-0.4 -0.7,-0.7 0,-0.3 0,-0.4 0.3,-0.5 0.9,-0.5 1.7,-1 2.2,-1.7 V 9.2 c 0,-0.5 -0.3,-0.5 -0.8,-0.5 h -0.7 c -0.4,0 -0.8,0 -0.8,-0.6 0,-0.6 0.2,-0.6 0.6,-0.6 h 1.5 c 1,0 1.5,0.4 1.5,1.4 V 12 c 1,1.2 2.3,1.7 5,1.7 2.7,0 3.4,-0.2 4.6,-0.3 v 0 c 0.4,0 0.7,0.3 0.7,0.7 0,0.4 -0.2,0.6 -0.7,0.7 -1,0 -2.5,0.2 -4,0.2 -4.2,0 -5.2,-0.8 -6.3,-2 -1,1.1 -2,1.9 -2.5,1.9 v 0 z m 2.2,-10.5 c -0.4,-0.7 -1.2,-1.2 -1.7,-1.5 -0.2,0 -0.3,-0.3 -0.3,-0.4 0,-0.3 0.3,-0.6 0.7,-0.6 0.4,0 2.5,1.2 2.5,2 0,0.8 -0.4,0.8 -0.8,0.8 -0.4,0 -0.3,0 -0.5,-0.3 v 0 z m 10.2,5.1 c 0.3,0 0.6,0.2 0.6,0.5 v 0 c 0,2.2 -0.9,2.5 -2.5,2.5 -1.6,0 -2.1,-0.6 -2.1,-1.6 V 8.3 h -1.9 c -1.8,0 -2.3,0 -2.3,-1.8 0,-1.8 0,-0.8 0,-1 -0.4,0.4 -0.6,0.4 -0.8,0.4 -0.3,0 -0.6,-0.3 -0.6,-0.6 0,-0.3 0,-0.3 0.3,-0.5 1.2,-0.8 2.3,-2.2 3,-3.7 0,-0.3 0.3,-0.4 0.5,-0.4 0.3,0 0.6,0.2 0.6,0.5 0,0.3 0,0.2 -0.3,0.7 h 1.9 c 0.6,0 0.9,0.4 0.9,0.7 0,0.3 0,0.5 -0.8,1.5 h 1.6 c 0.8,0 1.3,0.4 1.4,1.1 v 1.7 c 0,0.7 -0.4,1.2 -1.4,1.2 h -1.1 v 2.2 c 0,0.6 0,0.8 0.8,0.8 0.8,0 1.3,0 1.3,-1.3 v 0 c 0,-0.5 0.3,-0.6 0.5,-0.6 z m -8.3,3.1 c -0.4,0 -0.6,-0.3 -0.6,-0.6 0,-0.3 0,-0.5 0.4,-0.5 1.3,-0.3 2.3,-1.3 2.7,-2.5 0,-0.3 0.3,-0.4 0.6,-0.4 0.3,0 0.7,0.2 0.7,0.6 0,0.4 0,0 0,0.2 -0.7,2.1 -2.9,3.3 -3.7,3.3 v 0 z m 3.6,-7.2 h -1.5 c -0.5,0 -0.6,0 -0.6,1 0,1 0,1 0.6,1 h 1.5 z m 0.3,-1 c 0.3,-0.3 0.7,-1 0.7,-1.2 0,-0.2 0,0 -0.2,0 h -1.9 c -0.3,0.4 -0.7,0.9 -1,1.3 h 2.4 z m 2.5,3 c 0.6,0 0.6,-0.3 0.6,-1 0,-0.7 0,-1 -0.6,-1 h -1.6 v 2 z"
               id="path10" />
            <path
               class="cls-8"
               d="m 164.2,14.6 h -1.3 c -1.5,0 -2.8,0 -2.9,-1.5 V 9.7 c 0,-0.8 0.6,-1.4 1.5,-1.5 h 2.6 c 0.8,0 1.5,0.6 1.6,1.4 v 2.7 c 0,0.9 0,0.5 0,0.7 0,0.8 -0.6,1.4 -1.6,1.5 v 0 0 z m 0.3,-4.6 c 0,-0.7 -0.4,-0.7 -1.8,-0.7 -1.4,0 -1.4,0 -1.4,0.7 v 2.8 c 0,0.6 0.5,0.7 1.6,0.7 1.6,0 1.6,-0.3 1.6,-1.5 z m 4.2,-2.9 h -4.5 c -1.1,0 -1.7,-0.7 -1.8,-1.5 V 3.1 c 0,-0.7 0.5,-1.5 1.7,-1.5 h 4.5 c 1,0 1.6,0.7 1.7,1.4 v 2.7 c 0,0.8 -0.7,1.5 -1.7,1.5 v 0 z m 0.4,-2.8 V 3.4 c 0,-0.8 -0.5,-0.8 -2.5,-0.8 -2,0 -1.3,0 -1.9,0 -0.9,0 -0.9,0.6 -0.9,1.6 0,1 0,1.7 0.9,1.7 h 3.6 c 0.9,0 0.9,-0.6 0.9,-1.7 v 0 z m 0.9,10.3 c -1.5,0 -2.9,0 -2.9,-1.5 V 9.7 c 0,-0.8 0.6,-1.4 1.5,-1.5 h 2.6 c 0.8,0 1.5,0.6 1.6,1.4 v 2.7 c 0,1.7 -0.2,2.3 -2.9,2.3 v 0 z m 1.7,-2.9 V 10 c 0,-0.6 -0.5,-0.7 -1.6,-0.7 -1.1,0 -1.6,0 -1.6,0.7 v 2 c 0,0.9 0.6,1.4 1.7,1.4 1.7,0 1.6,0 1.6,-1.8 v 0 z"
               id="path11" />
            <path
               class="cls-6"
               d="m 37.3,33.2 c 0.4,0.6 0.7,1.4 0.7,2.8 0.2,3.8 -2.2,7.4 -4.2,9.3 -2.2,2.2 -4.5,2.9 -5.5,2.9 -1,0 -1.8,-0.3 -2.8,-1.2 -0.7,-0.7 -1,-2.1 -1.1,-3 0,-2.3 1.6,-6.8 4.8,-9.8 1.5,-1.4 3.1,-1.9 3.3,-1.9 0.2,0 0.3,-0.2 0.5,-0.3 0.2,-0.2 0.6,-0.5 0.9,-0.5 1.2,0 2.3,0.5 3.2,1.6 h 0.2 v 0 z m -8.9,4 c -2.2,3.5 -2.4,5.9 -2.4,6.9 0,1.6 0.7,2.9 2.5,2.9 1.8,0 2.8,-0.9 4.4,-2.3 2.2,-2.1 4.3,-6 4.1,-9.5 0,-0.8 -0.4,-1.6 -1.1,-2 -0.6,-0.4 -1,-0.4 -0.9,0 0,0.2 0,0.4 -0.2,0.7 -0.2,0.2 -0.5,0.4 -0.8,0.4 -0.3,0 -0.4,-0.2 -0.5,-0.4 0,-0.3 -0.4,-0.4 -0.7,-0.4 -0.9,0 -2.7,1.4 -4.4,3.9 z"
               id="path12"
               style="fill:#f29b8f;fill-opacity:1" />
            <path
               class="cls-6"
               d="m 48,43.7 c 0.3,-0.3 0.5,0 0.3,0.3 -0.5,0.6 -2.1,2 -4.8,3.3 -0.5,0.2 -0.8,0.3 -1.1,0.3 -0.5,0 -1.8,-0.5 -1.8,-1.7 0,-1.2 0,-1 0.4,-1.7 0.3,-1 1.3,-4.7 1.6,-5.6 0,-0.3 0,-0.4 -0.2,-0.3 -0.5,0 -1.4,0.2 -1.7,0.3 H 40 c -0.2,-0.2 -0.2,-0.5 0,-0.7 0.2,-0.2 0.4,-0.3 0.8,-0.4 0.6,0 1.2,-0.2 1.8,-0.3 0.4,0 0.5,-0.2 0.5,-0.4 0.2,-0.5 1.1,-3.7 1.4,-4.5 0,-0.4 0.5,-1 1.1,-1.1 0.2,0 0.3,0 0.4,0.4 v 0.9 c -0.9,2.1 -1.5,3.9 -1.6,4.2 0,0.2 0,0.3 0.3,0.3 0.7,0 3.7,-0.4 6.2,-0.5 0.7,0 0.3,0.5 -0.3,0.6 -1.1,0.3 -3,0.6 -6.4,1.2 -0.3,0 -0.4,0 -0.5,0.4 -0.6,1.8 -1.4,4.8 -1.6,6.1 0,1.3 0.2,1.7 1,1.7 1.7,0 4.2,-1.9 4.9,-2.5 v -0.2 0 z"
               id="path13"
               style="fill:#f29b8f;fill-opacity:1" />
            <path
               class="cls-6"
               d="m 62,35.7 c -0.7,1.5 -1.6,4.4 -2.1,7.2 -0.5,2.4 0,2.6 0.4,2.6 1.8,0 6.3,-4.9 7.2,-6.3 0.2,-0.3 0.5,-0.4 0.5,0 0,0.4 0,0.5 -0.2,0.9 -1.4,2.8 -6.6,7.2 -8.2,7.2 -1.6,0 -1.3,-0.9 -0.8,-4.3 0.3,-1.7 0.9,-4.2 1.1,-5 0.2,-0.7 0,-0.9 -0.7,-0.4 -3.4,2.8 -5.6,5.5 -6.3,6.8 -0.4,0.8 -0.6,1.3 -0.6,1.8 0,0.5 -0.4,1.2 -0.9,1.2 -0.5,0 -0.3,-1.1 -0.2,-2 0,-0.8 1.4,-6.4 2.4,-10.1 0.9,-3.1 2.2,-6.7 2.8,-7.8 0.6,-1.2 1,-1.6 1.2,-1.6 0.2,0 0.3,0 0.5,0.4 0,0.3 0.3,0.6 0,1 -2.6,4.2 -4.2,11.2 -5,14.5 0,0.5 0,0.6 0.4,0.2 0.8,-1 4.5,-4.7 5.9,-6 0.9,-0.8 1.3,-1.2 2.2,-1.2 0.9,0 0.7,0.3 0.4,0.9 z"
               id="path14"
               style="fill:#f29b8f;fill-opacity:1" />
            <path
               class="cls-6"
               d="m 69.6,37.8 c 0.6,-1.1 2.5,-3.8 3.6,-3.8 1.1,0 0.6,0.3 0.5,0.6 0,0 0,0.2 0.3,0.3 0.6,0 1.1,0.5 1.2,1.4 0,1 -0.3,2.2 -0.9,2.9 -1,1.2 -2.2,2.2 -3.9,2.3 -0.3,0 -0.5,0 -0.7,-0.3 h -0.3 c -0.2,0.4 -0.3,1.1 -0.2,1.8 0,1.5 0.8,2.3 2,2.2 2.4,0 6.4,-3.3 7.9,-5.3 0.2,-0.3 0.4,-0.3 0.5,0 0,0.2 0,0.5 -0.3,0.8 -1.9,2.7 -5.8,5.6 -8.5,5.7 -1.1,0 -2.7,-0.5 -2.8,-3 0,-1.6 0.7,-3.8 1.7,-5.6 v 0 z M 74,37.1 c 0,-1 -0.6,-1.5 -1.1,-1.5 -1,0 -2.6,2.8 -3,4.2 0,0.2 0,0.3 0.6,0.2 2,0 3.6,-1.4 3.5,-3 v 0 z"
               id="path15"
               style="fill:#f29b8f;fill-opacity:1" />
            <path
               class="cls-6"
               d="m 89.3,34.3 c 0,0.4 -0.3,0.9 -0.5,1.1 -0.2,0.2 -0.5,0.2 -0.7,0 -0.2,0 -0.4,-0.3 -0.8,-0.3 -0.4,0 -1.2,0.9 -1.9,1.8 -1.9,2.4 -3,4.8 -4.7,8.6 0,0.2 -0.3,0.3 -0.4,0.3 -0.1,0 -0.3,0 -0.4,-0.3 -0.1,-0.3 0,-0.6 0,-1.1 0.4,-1.1 1.4,-6.6 1.6,-8.2 0,-1 0.2,-1.5 0.3,-1.8 0.2,-0.3 0.6,-1 0.9,-1 0.3,0 0.6,0.6 0.6,0.9 0,0.3 0,0.6 -0.2,0.8 -0.5,1 -1,3.6 -1.1,4.5 0,0.3 0.1,0.3 0.4,0 1.2,-1.9 2.8,-4.1 4.1,-5.5 0.8,-0.9 1.4,-1.1 1.7,-1.1 0.8,0 1,0.5 0.9,1.1 0,0 0.2,0.2 0.2,0.2 z"
               id="path16"
               style="fill:#f29b8f;fill-opacity:1" />
            <path
               class="cls-5"
               d="m 96.2,44.3 c -0.4,-0.6 -0.5,-1.3 -0.3,-2 0.2,-0.7 0.9,-3.3 1.3,-4.6 0,-0.3 0,-0.5 0.2,-0.7 0,-0.3 0,-0.6 0.2,-0.9 0.4,-1 1.7,-3.2 2.2,-3.2 0.5,0 0.2,0 0.3,0.2 0,0.2 0.2,0.6 0,1.2 -1.2,2.1 -2.5,6 -2.9,7.9 -0.3,1.4 0.2,1.7 0.7,1.7 2.2,0 6,-4.1 8,-6.4 0.3,-0.3 0.5,-0.3 0.5,0 0,0.3 0,0.5 -0.2,0.8 -1.5,2.4 -5.1,5.4 -6.9,6.4 -1.8,1 -1.3,0.7 -1.6,0.7 -0.3,0 -0.8,-0.3 -1.3,-1 h -0.2 z m 5.4,-16.6 c -0.2,0.7 -0.2,1.8 0,2.4 0,0.3 -0.2,0.4 -0.5,0.2 -0.4,-0.3 -0.5,-0.6 -0.6,-0.9 0,-0.3 0,-0.8 -0.2,-1.1 0,-1.1 0.4,-1.2 0.8,-1.3 0.5,0 0.8,0.3 0.6,0.8 v 0 z"
               id="path17" />
            <path
               class="cls-5"
               d="m 113.2,40.9 c 0.3,-0.3 0.5,0 0.3,0.3 -0.5,0.6 -2.1,2 -4.8,3.3 -0.5,0.2 -0.8,0.3 -1.1,0.3 -0.5,0 -1.8,-0.5 -1.8,-1.7 0,-1.2 0,-1 0.4,-1.7 0.3,-1 1.3,-4.7 1.6,-5.6 0.3,-0.9 0,-0.4 -0.2,-0.3 -0.5,0 -1.4,0.2 -1.7,0.3 h -0.7 c -0.2,-0.2 -0.2,-0.5 0,-0.7 0.2,-0.2 0.4,-0.3 0.8,-0.4 0.6,0 1.2,-0.2 1.8,-0.3 0.4,0 0.5,-0.2 0.5,-0.4 0.2,-0.5 1.1,-3.7 1.4,-4.5 0,-0.4 0.5,-1 1.1,-1.1 0.2,0 0.3,0 0.4,0.4 v 0.9 c -0.9,2.1 -1.5,3.9 -1.6,4.2 0,0.2 0,0.3 0.3,0.3 0.7,0 3.7,-0.4 6.2,-0.5 0.7,0 0.3,0.5 -0.3,0.6 -1.1,0.3 -3,0.6 -6.4,1.2 -0.3,0 -0.4,0 -0.5,0.4 -0.6,1.8 -1.4,4.8 -1.6,6.1 0,1.3 0.2,1.7 1,1.7 1.7,0 4.2,-1.9 4.9,-2.5 V 41 41 Z"
               id="path18" />
            <path
               class="cls-5"
               d="m 118.3,35.6 c 0.6,-1.1 2.5,-3.8 3.6,-3.8 1.1,0 0.6,0.3 0.5,0.6 0,0 0,0.2 0.3,0.3 0.6,0 1.1,0.5 1.2,1.4 0,1 -0.3,2.2 -0.9,2.9 -1,1.2 -2.2,2.2 -3.9,2.3 -0.3,0 -0.5,0 -0.7,-0.3 h -0.3 c -0.2,0.4 -0.3,1.1 -0.2,1.8 0,1.5 0.8,2.3 2,2.2 2.4,0 6.4,-3.3 7.9,-5.3 0.2,-0.3 0.4,-0.3 0.5,0 0,0.2 0,0.5 -0.3,0.8 -1.9,2.7 -5.8,5.6 -8.5,5.7 -1.1,0 -2.7,-0.5 -2.8,-3 0,-1.6 0.7,-3.8 1.7,-5.6 v 0 z m 4.4,-0.6 c 0,-1 -0.6,-1.5 -1.1,-1.5 -1,0 -2.6,2.8 -3,4.2 0,0.2 0,0.3 0.6,0.2 2,0 3.6,-1.4 3.5,-3 v 0 z"
               id="path19" />
            <path
               class="cls-5"
               d="m 138.9,32.7 c -0.4,1 -2.1,6.9 -2.2,7.3 v 0.6 c 0,0 0.4,0 0.7,-0.5 2.8,-3.4 6.7,-8.1 7,-8.4 0.4,-0.4 0.6,-0.5 0.7,-0.5 0.2,0 0.6,0.5 0.6,1 0,0.5 -0.2,0.5 -0.5,0.8 -0.2,0.2 -0.4,0.4 -0.5,0.7 -0.4,0.9 -1,2.9 -1.3,5.1 -0.3,2.3 0,3.2 1.2,3.2 1.2,0 3.6,-1.9 6.4,-6 0.2,-0.3 0.4,-0.3 0.5,0 0,0.2 0,0.5 -0.3,0.8 -2.7,4.6 -5.6,6.4 -7.1,6.5 -1.1,0 -2.2,-1.2 -1.9,-3.7 0.2,-1.8 0.5,-3.2 0.7,-4.3 0,-0.3 0,-0.4 -0.4,0 -1.3,1.7 -4.8,5.9 -5.9,7.1 -0.6,0.7 -0.9,0.9 -1.1,0.9 -0.5,0 -0.5,-1.3 0,-3 0.2,-0.8 1.1,-4.4 1.3,-5.1 0.2,-0.6 0,-0.8 0,-0.9 0,0 -0.2,0 -0.5,0.2 -0.9,0.6 -5.4,6.8 -6.4,8.2 -0.4,0.5 -0.7,0.9 -1,0.9 -0.3,0 -0.7,-0.7 -0.6,-1.8 0,-0.9 0.8,-4.1 1.6,-6.9 v -0.5 c 0,-0.2 0,-0.6 0.2,-1.1 0.2,-0.8 0.4,-2.1 0.9,-2.1 0.5,0 0.3,0 0.5,0.3 0.4,0.5 0.4,1 0,1.7 -0.7,1.5 -1.6,6 -1.9,7 -0.2,0.9 0,1.1 0.4,0.7 1.7,-2.4 3.8,-5.3 5.7,-7.4 0.8,-0.9 1.3,-1.4 1.7,-1.9 0.4,-0.4 0.6,-0.6 0.8,-0.6 0.6,0 0.8,0.8 0.5,1.6 h 0.2 z"
               id="path20" />
            <path
               class="cls-5"
               d="m 158.3,30.5 c 0.3,0 0.5,0.3 0.5,0.6 0,0.3 -0.5,0.5 -1,0.5 -1.8,0 -4,2.2 -3.9,3.7 0,0.7 0.3,1.2 0.8,1.9 0.7,0.9 1.4,2.1 1.4,2.9 0,0.8 -0.3,1.3 -0.8,1.7 -0.5,0.4 -1.5,1 -2.1,1.3 -0.4,0.2 -0.8,0.3 -1.1,0.3 -0.3,0 -0.8,0 -0.8,-0.6 0,-0.6 0,-0.4 0.3,-0.6 0.3,-0.3 0.6,-0.5 0.9,-0.7 h 0.6 c 0.3,0 0.7,0.2 1.1,0 0.3,0 0.8,-0.5 0.8,-0.9 0,-0.4 -0.3,-1.2 -0.7,-1.7 -0.5,-0.8 -1.1,-1.5 -1.3,-2 -0.2,-0.4 -0.4,-0.9 -0.4,-1.3 0,-1.2 0.9,-2.7 2,-3.7 0.8,-0.8 1.9,-1.3 2.8,-1.4 h 1 c 0,0 0,0 0,0 z"
               id="path21" />
            <path
               class="cls-7"
               d="m 101.2,66.2 c 0,5.2 -4.2,9.5 -9.5,9.5 -5.3,0 -9.5,-4.2 -9.5,-9.5 0,-5.3 4.2,-9.5 9.5,-9.5 5.3,0 9.5,4.2 9.5,9.5 z"
               id="path22" />
            <polyline
               class="cls-3"
               points="97.8 64.3 91.7 70.3 85.7 64.3"
               id="polyline22" />
            <rect
               class="cls-1"
               width="181.39999"
               height="75.199997"
               id="rect25"
               x="0"
               y="0" />
          </g>
        </g>
      </g>
    </g>
  </g>
</svg>
