<?xml version="1.0" encoding="UTF-8"?>
<svg xmlns="http://www.w3.org/2000/svg" width="64mm" height="26.5mm" version="1.1" viewBox="0 0 181.4 75.1">
  <defs>
    <style>
      .cls-1, .cls-2, .cls-3 {
        fill: none;
      }

      .cls-4 {
        fill: #2a2e3c;
      }

      .cls-5 {
        fill: #95969e;
      }

      .cls-6 {
        fill: #cab699;
      }

      .cls-2 {
        stroke: #fff;
        stroke-miterlimit: 10;
        stroke-width: 1.4px;
      }

      .cls-7 {
        fill: #f29b8f;
      }

      .cls-3 {
        stroke: #f29b8f;
        stroke-miterlimit: 4;
        stroke-width: .5px;
      }

      .cls-8 {
        fill: #2f313e;
      }

      .cls-9 {
        display: none;
      }
    </style>
  </defs>
  <!-- Generator: Adobe Illustrator 28.7.5, SVG Export Plug-In . SVG Version: 1.2.0 Build 176)  -->
  <g>
    <g id="_レイヤー_1" data-name="レイヤー_1">
      <rect class="cls-1" width="181.4" height="75.2"/>
      <g>
        <g id="_レイヤー_1-2" data-name="_レイヤー_1">
          <g id="_文字">
            <g>
              <path class="cls-3" d="M102.8,47.1s34.3,1.4,61.7-5.3"/>
              <g>
                <path class="cls-8" d="M7.7,9.4v3c.7.2,1.5.2,2.3.2s2,0,3-.1h0c.4,0,.6.3.6.6s-.2.6-.7.7c-.9,0-1.8.1-2.7.1-2.8,0-5.3-.6-6.5-3.1-.9,2-2.5,3.3-3.1,3.3s-.7-.4-.7-.7,0-.4.3-.5c2-1.2,2.7-3,3-4.9,0-.4.3-.6.6-.6s.7.2.7.6,0,.3-.2,1.1c.3,1.4,1,2.2,2,2.7v-5.8h-3.1c-.4,0-.6-.3-.6-.6s.2-.6.6-.6h7.4c.4,0,.6.3.6.6s-.2.6-.6.6h-3v2.1h3.7c.4,0,.6.3.6.6s-.2.6-.6.6h-3.7.1ZM11.6,5.1c0-1.7,0-1.9-1-1.9H3.1c-.8,0-1,.3-1,.9v1.1c0,.4-.3.6-.7.6s-.7-.2-.7-.6v-1.5c0-.8.6-1.5,1.8-1.5h3.7V.6c0-.4.3-.6.7-.6s.7.2.7.6v1.4h3.6c.9,0,1.7.7,1.7,1.6v1.4c0,.4-.4.6-.7.6s-.7-.2-.7-.6h.1Z"/>
                <path class="cls-8" d="M30.4,5.2h-5c1.7,1.2,3.3,1.9,5.3,2.6.4,0,.5.4.5.6s-.3.7-.8.7-3.1-1.2-5.7-3.3v1.6h0c0,.4-.3.5-.7.5s-.6-.2-.6-.5h0v-1.6c-2.4,2.2-5.3,3.5-5.8,3.5s-.7-.3-.7-.6.2-.5.5-.6c2.1-.8,3.5-1.6,5.1-2.9h-4.8c-.4,0-.6-.3-.6-.6s.2-.6.6-.6h3.1c-.3-.4-.6-.7-.9-1,0,0-.1-.2-.1-.3,0-.3.3-.5.7-.5s.2,0,.3,0c0,0,1.4,1.2,1.4,1.9h1.2V1.9c-1.4,0-3.2.2-4.1.2s-.6-.3-.6-.6.2-.6.6-.6c2.7,0,5.8-.1,8.7-.7h.2c.4,0,.6.3.6.6s-.2.5-.5.6c-1,.2-2.2.3-3.5.4v2.3h1.2c.4-.6.8-1.3,1-1.8,0-.3.3-.4.5-.4.4,0,.8.3.8.6s-.9,1.5-.9,1.5h3.2c.4,0,.6.3.6.6s-.2.5-.6.5h-.2,0ZM27,13.9h-5.6c-1.1,0-1.6-.6-1.6-1.4v-2.9c0-.6.6-1.3,1.6-1.4h5.5c1.1,0,1.6.7,1.7,1.3v3c0,.8-.7,1.4-1.7,1.4h.1ZM23.5,9.2h-1.8c-.8,0-.8.5-.8,1.4h2.6s0-1.4,0-1.4ZM23.5,11.5h-2.6v.8c0,.7.4.7,2.6.7v-1.5ZM27.4,10.6v-.7c0-.7-.3-.7-2.7-.7v1.4h2.7ZM24.7,11.5v1.5h1.9c.8,0,.8-.5.8-1.4h-2.7,0Z"/>
                <path class="cls-8" d="M41.6,4.6c0,1.5-2.3,7.3-4.5,7.3s-2.3-1.4-2.3-3.1,2.1-5.8,6.4-5.8,5.3,2,5.3,4.7c0,4-4.4,5.4-5,5.4s-.8-.3-.8-.7.2-.6.7-.7c2-.4,3.8-1.8,3.8-4s-1.5-3.5-3.8-3.6c.2,0,.2.3.2.6h0ZM36.1,8.7c0,1.1.6,1.7,1,1.7.9,0,2.8-3.4,3-5.8v-.5c-2.5.4-4.2,2.7-4.2,4.6h.2Z"/>
                <path class="cls-8" d="M52.4,13.4c-.5,0-.8-.4-.8-.7s.2-.6.6-.7c5.2-1.6,6.6-6.5,6.6-7s-.2-.5-1.6-.5h-5.6c-.4,0-.7-.4-.7-.7s.2-.7.7-.7h7.2c1,0,1.7.6,1.7,1.5s0,.4,0,.6c-1.1,3.2-3.1,6.3-7.6,8h-.4v.2Z"/>
                <path class="cls-8" d="M65.1,12.6c-.4,0-.6-.3-.6-.6s0-.4.4-.5c1.6-.8,2.9-2.2,3.9-3.6h-3c-.4,0-.6-.3-.6-.6s.2-.5.6-.5h3.7v-1.5h0c0-.4.3-.6.6-.6s.6.2.6.6v1.6h1.9c.6,0,.7.3.7.6s-.2.6-.7.6h-1.9v4.3h0c0,.9-.5,1.5-1.6,1.5s-1.4,0-1.4-.7.2-.6.6-.6,0,0,.2,0,.4.1.6.1c.3,0,.5-.1.5-.4v-3.2c-1.8,2.4-3.8,3.8-4.4,3.8l-.2-.3h.1Z"/>
                <path class="cls-8" d="M78.3,7.7c-.5,0-.7-.3-.7-.7s.3-.7.7-.7h10.1c.5,0,.7.3.7.7s-.2.7-.7.7h-10.1Z"/>
                <path class="cls-8" d="M101.6,11.3c0,.4-.4.8-.8.8s-.4-.1-.6-.4c-.6-1-2.6-2.7-3.9-3.3-.2-.1-.3-.3-.3-.5,0-.3.3-.7.7-.7.6,0,2.5,1.4,2.6,1.4.5-.3,3.7-2.6,3.7-3.2s0-.2-.4-.2h-8.6c-.5,0-.8-.4-.8-.7s.3-.7.8-.7h7c2.4,0,1.5,0,2.2,0,1,0,1.7.6,1.7,1.3s0,.6-.4.9c-.9,1-2.7,2.4-4.2,3.4,1,.9,1.2,1.5,1.2,1.7h.1v.2Z"/>
                <path class="cls-8" d="M108.1,11.9c0-.2,0-.5.5-.7,2.4-1.1,3.8-3.4,3.8-6.3s0-.3,0-.4h0c0-.6.3-.8.7-.8.7,0,.7.7.7,1,0,5.4-4.1,7.9-4.9,7.9s-.7-.3-.7-.7h-.1ZM116.5,4.2l-.2,5.6h0c0,.3,0,.4.2.4.4,0,2.6-1.4,4.1-4.3.2-.3.4-.4.6-.4.4,0,.7.3.7.7v.4c-1.9,3.3-4.8,5.3-5.9,5.3s-1.1-.4-1.1-1.2v-.2c0-1.5.2-5.3.2-6.3s.4-.8.7-.8.7.3.7.7h.1-.1Z"/>
                <path class="cls-8" d="M127.6,4.8c-.4,0-.6-.3-.6-.6s.2-.7.6-.7h5.2c1.6,0,1.7.5,1.7,1.2s0,.4-.2.7c-.5,1-1.1,1.9-1.8,2.8,1,.6,4.4,2.7,4.4,3.7s-.4.8-.8.8-.4,0-.5-.3c-.8-1-2.5-2.5-3.9-3.3-2.5,2.8-5.4,3.8-5.7,3.8s-.7-.3-.7-.7.2-.6.6-.7c4.3-1.6,7-6,7-6.5s-.3-.3-.7-.3h-4.6,0Z"/>
                <path class="cls-8" d="M141.6,13.7c-.4,0-.7-.3-.7-.6s.2-.5.6-.7c2.3-.8,4.1-2.2,5.5-3.8-.7-.4-1.3-.7-1.9-.9-.3,0-.4-.3-.4-.5s.2-.6.7-.6,1.5.4,2.5,1c.8-1.2,1.7-2.6,1.7-3s-.1-.2-.3-.2-1.7,0-3.1.2c-.3.4-3.1,4.1-4.2,4.1s-.7-.3-.7-.7.1-.5.4-.7c1.6-1,3.8-3.8,4.4-5.2.2-.4.4-.6.7-.6s.8.3.8.7,0,.4-.5,1c1.4,0,2.5-.2,2.8-.2.9,0,1.4.5,1.4,1.1s0,.6-.3,1c-.6,1.1-1.2,2.1-1.9,3.1,1.1.8,1.5,1.2,1.5,1.6s-.3.7-.7.7-.4,0-.5-.2c-.3-.3-.7-.6-1.1-1-2.7,3.2-6.1,4.4-6.5,4.4,0,0-.2,0-.2,0Z"/>
                <path class="cls-8" d="M160.8,13v-6.1c-1.4,1.3-2.8,2.5-4.6,3.6-.3.2-.5.2-.7.2-.4,0-.7-.3-.7-.7s.1-.5.4-.6c3.1-1.6,6.1-4.4,7.9-7.3.2-.3.4-.4.7-.4s.7.3.7.7,0,.3-.2.5c-.7,1-1.4,1.9-2.1,2.7v7.5c0,.7-.5.8-.8.8s-.7-.2-.7-.8h.1Z"/>
                <path class="cls-8" d="M167.4,11.9c0-.2.1-.5.5-.7,2.4-1.1,3.8-3.4,3.8-6.3s0-.3,0-.4h0c0-.6.3-.8.7-.8.7,0,.7.7.7,1,0,5.4-4.1,7.9-4.9,7.9s-.7-.3-.7-.7c0,0-.1,0-.1,0ZM175.9,4.2l-.2,5.6h0c0,.3,0,.4.2.4.4,0,2.6-1.4,4.1-4.3.2-.3.4-.4.6-.4.4,0,.7.3.7.7s0,.3-.1.4c-1.9,3.3-4.8,5.3-5.9,5.3s-1.1-.4-1.1-1.2v-.2c.1-1.5.2-5.3.2-6.3s.4-.8.7-.8.7.3.7.7h.1Z"/>
              </g>
              <path class="cls-7" d="M27.1,29.6c.6,0,.7,0,.8-.3,0-.2.2-.3.5-.2.4,0,1.5.7,1.5,1.1s-.2.3-.7.5c-.4.1-.6.2-.8.2-.3,0-.8-.3-1.4-.3h-3.9c-.2,0-.3.2-.4.7-.3.8-1.7,5.4-1.8,5.7,0,.3,0,.4.3.4s3.5-.3,5.8-.4h2.5c.3,0,.4,0,.2.3-.1,0-.4.3-.9.5-.4,0-1.9.4-2.9.5-1.7.2-3.1.4-4.6.6-.7,0-.9.3-1.1.9-.4,1.3-.8,2.2-1.1,3.3-.2.5-.2.7.2.9.5.2,1.8.2,2.3,0,.4-.2.6,0,.2.4-.6.6-1.9,1.1-2.9,1.1s-1.4,0-1.8-.4c-.2-.2-.3-.4-.2-.6,0,0,.3-.3.7-.5.3-.2.4-.5.6-.8.2-.5.7-2.8.9-3.4,0-.3,0-.5-.3-.8-.4-.4-.2-.6.3-.8.3-.2.6-.4.8-.8s1.5-4.8,1.7-5.9c0-.3,0-.5-.3-.5-.6,0-1,.3-1.3.6-.3.3-.5.3-.6.2-.1-.1-.1-.4,0-.7.1-.3.4-.7.6-.9.5-.6,1.1-.6,1.6-.3.2.1.2,0,.3,0,0-.1,0-.3.1-.6,0-.3.2-.4.4-.4.6,0,1,.7,1,1.1s0,.1.3.1h3.4v-.4h0Z"/>
              <path class="cls-7" d="M31.9,39c.5-1,1.9-3.2,2.3-3.7.2-.4.3-.6.3-.9,0-.5.2-.8.5-1,.2-.3.5-.3.8-.3s.4,0,.6-.3c0-.3.4-.5.7-.5s.7.2.6.6c0,.2,0,.4.2.6.6.6,1.7,1.4,1.7,3.6s-.7,3.1-1.6,4.3c-1.9,2.6-4.2,3.6-5.3,3.6s-1.6-.9-1.7-1.8c0-1.4.6-3.4,1-4.2,0,0-.1,0-.1,0ZM33.2,43.7c.7,0,1.6-.4,2.4-1.2,1.2-1.1,2.8-3.7,2.7-5.5,0-1.1-.2-2.6-1.7-2.5-.5,0-1,.5-1.8,1.5s-2.7,4.2-2.7,6.5.4,1.2,1,1.2h.1Z"/>
              <path class="cls-7" d="M52.2,33.2c0,.4-.3.9-.5,1.1-.2.2-.5.2-.7,0-.2,0-.4-.3-.8-.3s-1.2.9-1.9,1.8c-1.9,2.3-3.1,4.8-4.8,8.5,0,.2-.3.3-.4.3s-.3,0-.4-.3v-1.1c.4-1.1,1.5-6.6,1.7-8.2,0-1,.2-1.5.3-1.8.2-.3.7-.9.9-.9.4,0,.6.6.6.9s0,.6-.2.8c-.5,1-1,3.5-1.1,4.4,0,.3.1.3.4,0,1.2-1.8,2.8-4.1,4.2-5.4.8-.8,1.4-1,1.7-1,.8,0,1,.5.9,1.1h.1Z"/>
              <path class="cls-7" d="M64.1,33.4c-.4,1-2.2,6.8-2.3,7.2v.6c0,.1.4,0,.7-.5,2.8-3.4,6.8-7.9,7.1-8.3.4-.4.6-.5.7-.5.2,0,.6.5.6,1s-.2.5-.5.8c-.2.2-.4.4-.6.7-.4.9-1.1,2.9-1.4,5.1-.3,2.3,0,3.2,1.1,3.2s3.6-1.9,6.5-5.9c.2-.3.4-.3.5,0,0,.2,0,.5-.3.8-2.8,4.5-5.7,6.3-7.2,6.4-1.1,0-2.2-1.3-1.9-3.7.2-1.8.5-3.2.8-4.3,0-.3,0-.4-.4,0-1.4,1.6-4.9,5.8-6,7-.6.7-.9.9-1.1.9-.5,0-.5-1.3,0-3,.2-.8,1.2-4.4,1.4-5.1.2-.6,0-.8,0-.9,0,0-.2,0-.5.2-.9.6-5.5,6.7-6.5,8.1-.4.5-.7.9-1,.9s-.7-.7-.6-1.8c0-.9.9-4.1,1.7-6.9v-.5c0-.2,0-.6.2-1.1.2-.8.5-2.1,1-2.1s.3,0,.5.3c.4.5.4,1,0,1.7-.7,1.5-1.7,5.9-2,7-.2.9,0,1.1.4.7,1.7-2.3,3.9-5.2,5.9-7.3.8-.9,1.3-1.4,1.7-1.8.4-.4.6-.6.8-.6.6,0,.8.8.5,1.6h.2Z"/>
              <path class="cls-7" d="M84,32s0,.2.3,0c.2-.1.4-.1.5,0,.3.2.3.4,0,.8-1.1,2.4-1.7,4.3-1.6,6.2,0,1.7.2,3.2,1.2,3.2,1.8,0,4.5-3.9,5.6-5.4.2-.3.5-.3.5,0s0,.5-.2.9c-1,2.3-4.7,6-6.3,6s-1.7-1-1.8-2.4c0-.8-.2-2.1-.2-2.5s0-.2-.2,0c-.5.7-2.4,3.2-3.3,4-.8.8-1.4,1.1-1.7,1.1s-1.3-.2-1.3-1.5.2-1.6,1.2-3.7c.8-1.8,2.5-4.5,4.2-6,1.1-1.1,1.8-1.3,2.2-1.3s.7.4.9.6h0ZM80.1,34.7c-1.8,2.3-2.7,4.8-3.1,6.2-.2.8,0,1.3.5,1.3s.8-.4,1.5-1.1,1.7-2.1,2.7-3.6c.4-.6,1.2-2.3,1.3-2.6,0-.3.2-.9,0-1.3,0-.5-.3-.8-.7-.8-.6,0-1.4.8-2.3,1.9h.1Z"/>
              <path class="cls-7" d="M93.2,32c2.5-6.6,3.7-8.8,4-9.2,0-.1.2-.2.4-.2s.3,0,.4.2c.4.6,0,1.2-.2,1.8-3.2,6.1-5.1,12-5.6,14.6-.6,2.5,0,2.9.3,2.9,1.3,0,5.8-4,7.7-6.4.2-.2.4,0,.4,0,0,.2,0,.5-.4,1-1.5,2.2-6.4,6.6-8.4,6.7-.6,0-.9-.9-1-2.1,0-.6.5-4.3,2.5-9.3h-.1Z"/>
              <path class="cls-5" d="M116.2,26.5c0,.2.2.4,0,.7-.2.6-.5.8-1.2.8s-.8,0-1.4.1c-1.9.5-3.5,2.1-3.5,4.1s.3,1.8.8,3.1c.5,1.4.8,3,.8,3.6,0,1.1-.5,2.1-1.2,2.7-.9.8-2.4,1.2-3.8,1.3-.5,0-1.3,0-1.7-.2-.4-.2-.5-.4-.5-.6s0-.3.3-.6c.2-.2.7-.4,1,0,.6.4,1.2.5,1.9.5,1.3,0,2.9-1,2.9-2.9s-.3-1.9-.8-3.3c-.8-1.9-.9-2.6-.9-3.2,0-1.8,1.7-4.1,5-5.6,1.1-.5,1.5-.6,1.8-.6s.4,0,.5.2h-.1.1Z"/>
              <path class="cls-5" d="M124,38.9c.3-.2.5,0,.2.3-.5.6-2.1,2-4.9,3.2-.5.2-.8.3-1.1.3-.5,0-1.8-.5-1.8-1.7s0-1,.4-1.7c.3-1,1.3-4.7,1.7-5.5,0-.3,0-.4-.2-.3-.5,0-1.4.2-1.7.2h-.7c-.2-.2-.2-.5,0-.7s.4-.3.8-.4c.6,0,1.2-.2,1.8-.3.4,0,.5-.2.5-.4.2-.5,1.2-3.7,1.5-4.5,0-.4.6-1,1.1-1.1.2,0,.3,0,.4.4v.9c-1,2-1.5,3.8-1.6,4.1,0,.2.1.3.3.3.7,0,3.7-.4,6.2-.4s.3.5-.3.6c-1.1.2-3,.5-6.4,1.1-.3,0-.4,0-.5.4-.6,1.8-1.5,4.8-1.7,6.1s.2,1.7,1,1.7c1.7,0,4.2-1.8,4.9-2.4h0v-.2Z"/>
              <path class="cls-5" d="M127.9,34v-2.2c.2-.4.5-1.7,1-1.7s.5,1.8.4,2.5c0,1-.3,4.4-.4,5.5,0,1.5.4,2.1.8,2.1,1,0,2.5-1.8,4.2-5.3.8-1.6.7-2,.7-2.2,0-.3,0-.6.1-1,.3-.5.4-.9.6-1.5.2-.6.4-.6.6-.6.3,0,.6.6.6,1s-.2,1.3-.7,2.4c-.5,1.1-2.5,5.2-4,7-3.7,4.7-5.9,8.1-6.7,9.3v.3c.4,0,.6.2.6.5,0,.5-1.9,1.6-2.2,1.8-.5.3-.7.5-.8.7-.5.8-.8,1.5-1.4,1.5s-.6-.2-.4-.7c0-.5.3-.9.9-1.8.6-.9,1.1-1.2,1.3-1.3.2,0,.4-.2.4-.4s1.4-2.5,2.5-3.8c.7-.8,3.3-4.6,3.6-5,.2-.2.1-.2-.2,0-.5.2-.8.3-1,.3-.6,0-.9-.8-.9-2.9v-4.6h.4,0Z"/>
              <path class="cls-5" d="M141.5,30.7c2.5-6.6,3.7-8.8,4-9.2,0-.1.2-.2.4-.2s.3,0,.4.2c.4.6.1,1.2-.2,1.8-3.2,6.1-5.1,12-5.6,14.6-.6,2.5,0,2.9.3,2.9,1.3,0,5.8-4,7.7-6.4.2-.2.4,0,.4,0,0,.2,0,.5-.4,1-1.5,2.2-6.4,6.6-8.4,6.7-.6,0-.9-.9-1-2.1,0-.6.5-4.3,2.5-9.3h-.1Z"/>
              <path class="cls-5" d="M150.5,33.2c.6-1,2.5-3.7,3.6-3.8.4,0,.6.3.5.6,0,.1,0,.2.3.3.6,0,1.1.5,1.1,1.4s-.3,2.2-.9,2.9c-1,1.2-2.3,2.2-4,2.2s-.5,0-.7-.3h-.3c-.2.4-.3,1.1-.3,1.8,0,1.5.8,2.3,1.9,2.2,2.4,0,6.4-3.1,8-5.1.2-.3.4-.3.5,0,0,.2,0,.5-.3.8-1.9,2.7-5.9,5.5-8.6,5.6-1.1,0-2.7-.5-2.8-3.1,0-1.6.8-3.7,1.8-5.6h.2ZM154.9,32.6c0-1-.6-1.5-1-1.5-1,0-2.7,2.7-3.1,4.1,0,.2.1.3.6.3,2,0,3.6-1.3,3.6-2.9,0,0-.1,0-.1,0Z"/>
              <g>
                <path class="cls-7" d="M100.2,65.7c0,5.2-4.2,9.5-9.5,9.5s-9.5-4.2-9.5-9.5,4.2-9.5,9.5-9.5,9.5,4.2,9.5,9.5Z"/>
                <polyline class="cls-2" points="96.8 63.7 90.8 69.8 84.7 63.7"/>
              </g>
            </g>
          </g>
        </g>
        <g id="_素材" class="cls-9">
          <rect class="cls-4" x="56.5" y="-39.9" width="17.2" height="17.2"/>
          <rect class="cls-7" x="82" y="-39.9" width="17.2" height="17.2"/>
          <rect class="cls-6" x="107.8" y="-39.9" width="17.2" height="17.2"/>
        </g>
      </g>
    </g>
  </g>
</svg>