<?xml version="1.0" encoding="UTF-8"?>
<svg xmlns="http://www.w3.org/2000/svg" width="148.4mm" height="36mm" version="1.1" viewBox="0 0 420.7 102">
  <defs>
    <style>
      .cls-1, .cls-2 {
        fill: none;
      }

      .cls-2 {
        stroke: #dd9a8e;
        stroke-miterlimit: 4;
        stroke-width: 1.1px;
      }

      .cls-3 {
        fill: #2a2e3c;
      }

      .cls-4 {
        fill: #95969e;
      }

      .cls-5 {
        fill: #f29b8f;
      }

      .cls-6 {
        display: none;
      }
    </style>
  </defs>
  <!-- Generator: Adobe Illustrator 28.7.5, SVG Export Plug-In . SVG Version: 1.2.0 Build 176)  -->
  <g>
    <g id="_レイヤー_1" data-name="レイヤー_1">
      <g id="_レイヤー_1-2" data-name="_レイヤー_1">
        <g id="_文字">
          <g>
            <g>
              <path class="cls-5" d="M30.5,27.2c2.8,0,5.4.8,6.7,1.9.8.6.8,1,.4,1.2-.4.2-1,0-1.9,0-1-.3-3.7-.3-6.7-.3s-6,.3-8.5.5c-1.9.2-2.3.8-2.8,2.4-.7,2.2-3,10-3.5,11.5-.3.9-.3,1.3.5,1.4,2,.3,4.4.5,9.3.4,2.7,0,6.1-.5,7.7-.9,1.4-.5.6.8-.6,1.6-1.3.9-2.7,1.4-4.4,1.7-2.5.5-6.6.7-12.8.9-.9,0-1.1.4-1.4,1.1-1.9,4.8-3.4,9.3-5.1,14.3-.3.9-.3,1.2.8,1.4,1.7.2,5.8.5,10.4.5,7.8,0,10.3-.4,15-2.4,1.6-.6,1.7.3.5,1-5.4,3.3-10.2,4.6-20.2,4.7-2.6,0-4.9,0-7.4-.2-3.3,0-6.5-.6-6.4-1.7,0-.9,2.2-2.4,3-2.4s.5-.2.9-1.1c1.4-3.2,2.9-8.1,4.8-14.2.3-.8,0-1.2-.7-1.6-.7-.4-.9-.9-1-1.3,0-.4.2-.8.8-.9,2-.8,2.4-1,2.8-2.1.4-1.1,1.2-3.5,3.1-10.3.3-1,0-1.5-.7-2-1.4-.9-1.7-1.5-1-2,.5-.4,1-.7,2-1,1-.5,1.3-1.1,2.2-3.5.4-1.2.9-1.4,1.2-1.2.6.2,1,.8,1.4,2,.3.7.5.8,1.5.8h10.3-.2Z"/>
              <path class="cls-5" d="M51.2,39c7.3-18.2,10.8-24.2,11.7-25.4.3-.4.7-.6,1-.6s.9.2,1,.6c1,1.6.3,3.4-.6,5-9.1,16.8-14.8,32.9-16.5,40.1-1.8,7-.2,8,.7,8,3.6,0,16.3-10.9,21.8-17.3.5-.5,1-.3,1,.3s-.3,1.5-1.2,2.8c-4.4,5.9-18.2,18-23.7,18s-2.6-2.6-2.6-6,1.7-11.9,7.4-25.6h0Z"/>
              <path class="cls-5" d="M76,46.3c1.8-2.9,7.2-10.2,10.2-10.3,1.1,0,1.6.9,1.4,1.6,0,.3,0,.7.9.8,1.6,0,3.1,1.4,3.1,3.9s-1,6-2.8,8c-2.9,3.3-6.4,6-11.1,6s-1.4-.4-1.8-.8c-.2-.3-.5-.4-.8.3-.5,1-.8,3-.8,4.9,0,4.3,2.1,6.3,5.3,6.3,6.6,0,17.9-8.5,22.3-13.9.7-.8,1.1-.8,1.3-.2,0,.6-.2,1.3-.8,2.3-5.4,7.5-16.5,15-24.2,15.1-3.1,0-7.5-1.6-7.6-8.7,0-4.4,2.3-10.4,5.3-15.3,0,0,0,0,0,0ZM88,44.8c0-2.8-1.6-4.3-2.8-4.2-2.8,0-7.5,7.5-8.8,11.4-.2.5.3.8,1.5.7,5.7,0,10-3.5,10.1-7.9Z"/>
              <path class="cls-5" d="M131.5,39.8c0,1.4-1.1,3.2-3.1,4.4-.6.4-.4.6-.3,1,0,.5,0,1,0,1.7-.4,1.2-3.2,17.2-3.6,19.2-2.2,11-5.4,21.3-13.3,29.8-3.3,3.5-9.4,6.1-12.7,6.1s-2.6,0-3.5-.2c-1-.2-1.7-.4-3.1-.4s-3.9-1.3-3.9-2.5,2.1-3.2,3.7-3.2,1.6.9,2.2,1.7c.8.7,2.3,1.9,5.6,1.8,4.6,0,10.4-4.5,14.2-10.7,3.8-6,5.5-12.4,7.2-21.2,1.8-9.1,2-12.6,2.1-14.3.2-1.7-.7-.7-1.7.7-1,1.3-6.3,8-9.4,11-1.2,1.2-4.8,4.9-6.7,5-2.1,0-3.1-2.5-3.1-5.3,0-4.8,2.4-9.9,6-15.3,3.3-5,8.3-9.2,12.5-11.5,2.4-1.3,4.8-2.4,6-2.4,3.5,0,4.9,3.1,4.8,4.6h0ZM107.4,64.6c2.6,0,9.3-8.2,10.9-10.2,2.6-3.3,5.5-8.2,6.1-8.8.7-.6,1.1-.9,1.6-.9s.9-.2,1.2-.7c.4-.5,1-1.3,1-2.2,0-1.9-1.9-2.6-3.7-2.6-4,0-10,5-12.8,9-2.6,3.6-5.4,9.9-5.4,14.1s.4,2.4,1,2.4h0Z"/>
              <path class="cls-5" d="M159.9,36.5c0,.3.4.5.8.3.6-.4,1-.4,1.5,0,.8.5.9,1.2.3,2.3-3,6.6-4.6,12-4.5,17.2,0,4.7.6,8.9,3.4,8.8,4.9,0,12.6-10.8,15.7-15.1.5-.9,1.3-.8,1.3-.2s-.2,1.3-.6,2.4c-2.9,6.3-13.1,16.6-17.4,16.7-1.7,0-4.7-2.8-5.1-6.7-.2-2.3-.5-6-.6-7,0-.5-.2-.7-.7,0-1.4,2-6.7,8.8-9.1,11.1-2.1,2.1-3.8,3-4.9,3.1-.8,0-3.5-.6-3.6-4.1,0-1.4.5-4.5,3.3-10.1,2.3-5,6.9-12.4,11.7-16.6,3.1-3.1,5-3.6,6.1-3.7.9,0,1.9,1,2.4,1.7h0ZM149.1,44c-5.1,6.3-7.4,13.4-8.6,17.3-.6,2.1-.2,3.5,1.3,3.5s2.3-1.1,4.1-3c1.6-1.7,4.8-5.8,7.5-10,1.1-1.6,3.3-6.4,3.5-7.2.4-1,.6-2.4.4-3.6-.2-1.3-.7-2.2-2-2.1-1.7,0-3.9,2.2-6.3,5.2h0Z"/>
              <path class="cls-5" d="M190.5,35.7c0,.6-.3.6-.7.8-.9.3-1.6,1.2-2.3,2.6-1.3,2.8-3.8,11.2-4.6,16,0,1,.3,1.1.9.4,3.6-5.8,12.3-14.7,14.8-16.8,2.8-2.3,3.6-2.8,4.5-3.1.7-.3,1.4-.9,1.8-1.8.5-.8,1.1-1.5,1.5-1.5.6,0,1,.4,1.5,1.3.5.7.4,1.7-.3,3-.8,1.6-2.2,3.2-3,5.2-1.8,4-3.3,9.1-4.1,13.1-1.6,7.7.5,10.5,3.6,10.4,5-.2,13.9-11.6,18-17.7.5-.9,1-.9,1.2-.3,0,.6,0,1.3-.8,2.3-8.6,13.9-15,18.9-20,19.1-3.9,0-6.9-4.6-5.2-13.8.8-4.5,2.3-8.9,3-11.3.6-2,.6-2.4.3-2.7-.3-.2-1,.2-2.1,1.1-10,9-15.5,18.8-16.7,21.9-.4.9-1.6,3.4-2.8,3.4s-.9-.3-1.3-.8c-.5-.6,0-2.5.2-3.9,2.5-13.4,5.5-23.2,7.1-26.5,1.6-3.5,2.2-3.7,3-3.7,1.2,0,2.4,2.3,2.4,3.2h0Z"/>
              <path class="cls-5" d="M242.4,55.7c.9-.7,1.3,0,.7.8-1.5,1.6-5.7,5.7-13.4,9.1-1.3.6-2.3.8-3.1.8-1.5,0-4.9-1.3-5-4.6,0-1.1.4-2.8,1-4.8.8-2.8,3.5-13.2,4.4-15.5.3-1,0-1.1-.6-.9-1.4.2-4,.6-4.7.8-.9,0-1.4,0-1.8-.3-.7-.5-.5-1.3,0-2,.5-.6,1-.8,2.3-1.1,1.6-.4,3.3-.6,5.1-.9,1,0,1.3-.6,1.5-1.2.5-1.4,3.2-10.4,3.9-12.5.3-1.2,1.5-2.9,3-3,.5,0,.9.2,1.1,1,.2.7.3,1.4-.2,2.6-2.6,5.7-4.1,10.7-4.4,11.6-.3.8,0,.9.9.7,2-.2,10.4-1.2,17.2-1.5,1.9,0,.9,1.4-.8,1.7-3,.7-8.4,1.6-17.8,3.2-.8,0-1.1.2-1.4,1.2-1.7,5-4,13.3-4.5,16.9-.4,3.6.7,4.8,2.9,4.7,4.8-.2,11.6-5.2,13.6-6.8Z"/>
              <path class="cls-4" d="M294.4,18.1c.3.5.5,1.2.4,2-.6,1.6-1.4,2.3-3.4,2.4-1.1,0-2.3,0-3.9.5-5.3,1.5-9.7,6.1-9.4,11.5,0,2,.9,4.9,2.4,8.5,1.5,3.7,2.5,8.3,2.6,10,.2,2.9-1.2,5.8-3.2,7.7-2.5,2.2-6.7,3.6-10.4,3.8-1.3,0-3.7,0-4.9-.5-1.2-.4-1.5-1-1.5-1.7s0-.9.7-1.6c.6-.6,1.9-1.1,2.8-.4,1.7,1.1,3.5,1.3,5.2,1.2,3.7-.2,8-2.9,7.7-8.3,0-2-.9-5.4-2.5-9-2.3-5.1-2.7-7.2-2.7-8.8-.3-5.1,4.4-11.6,13.5-16,3.1-1.4,4.2-1.7,5-1.8.7,0,1.1,0,1.5.5h0Z"/>
              <path class="cls-4" d="M316.9,51.7c.9-.7,1.3,0,.7.8-1.4,1.6-5.6,5.8-13.2,9.4-1.3.6-2.3.8-3.1.9-1.5,0-4.9-1.2-5.1-4.5,0-1.1.3-2.8.9-4.8.8-2.8,3.3-13.2,4.1-15.6.3-1,0-1.1-.6-.9-1.4.2-4,.7-4.7.9-.8,0-1.4,0-1.8-.3-.7-.5-.6-1.3,0-2,.5-.6,1-.8,2.3-1.2,1.6-.4,3.3-.7,5.1-1,1-.2,1.3-.6,1.4-1.2.5-1.5,3-10.4,3.7-12.6.3-1.2,1.4-2.9,3-3,.5,0,.9.2,1.1,1,.2.7.4,1.4,0,2.6-2.5,5.8-3.9,10.8-4.1,11.7-.2.8,0,.9.9.7,2-.2,10.4-1.4,17.2-1.8,1.9,0,.9,1.4-.7,1.8-3,.8-8.4,1.7-17.8,3.5-.8,0-1.1.3-1.4,1.2-1.6,5-3.8,13.3-4.2,17-.4,3.6.8,4.8,2.9,4.7,4.8-.3,11.5-5.4,13.5-7.1v-.2h0Z"/>
              <path class="cls-4" d="M326.8,37.5c0-2-.2-2.7-.3-3.3-.2-.9-.3-2.1,0-2.8.5-1.3,1.3-4.7,2.6-4.7s1.5,5,1.4,6.9c0,2.9-.4,12.3-.4,15.4s1.3,5.7,2.5,5.6c2.7-.2,6.7-5.4,11-15.1,2.1-4.4,1.8-5.5,1.8-6.1-.2-.8-.3-1.6.3-2.7.9-1.5,1.1-2.5,1.6-4.1s1-1.8,1.5-1.8c.9,0,1.6,1.6,1.7,2.7,0,.9-.4,3.7-1.5,6.8-1.2,3.2-6.4,14.6-10.2,20-9.6,13.6-15.3,23.2-17.5,26.6-.3.7-.2.9.2.8,1.2,0,1.7.4,1.8,1.2,0,1.4-5,4.5-6,5.2-1.4.8-2,1.4-2.2,2-1.3,2.4-2.1,4.3-3.6,4.4-1.1,0-1.6-.6-1.2-1.9.3-1.5.8-2.6,2.4-5.2s2.8-3.3,3.6-3.7c.7-.2,1-.6,1.2-1,.2-.6,3.5-7.1,6.4-10.8,1.7-2.3,8.7-13.3,9.5-14.4.4-.5.3-.6-.5-.3-1.3.6-2.2.8-2.8.9-1.7,0-2.5-2-2.8-7.9l-.3-12.7h0Z"/>
              <path class="cls-4" d="M363.7,26.8c6-18.7,9-24.9,9.9-26.2C373.9.2,374.2,0,374.6,0s.9,0,1.1.5c1.1,1.5.6,3.4-.3,5.1-7.9,17.5-12.3,33.9-13.5,41.2-1.3,7.1.3,8,1.3,7.9,3.6-.3,15.4-12.1,20.4-18.8.4-.5,1-.4,1.1.2,0,.6-.2,1.5-1,2.8-4,6.2-16.9,19.3-22.4,19.7-1.7,0-2.8-2.5-3-5.8,0-1.8.9-12,5.5-26h0Z"/>
              <path class="cls-4" d="M388.8,32.3c1.5-3,6.4-10.8,9.4-11,1.1,0,1.7.8,1.6,1.5,0,.3.2.7.9.8,1.6,0,3.1,1.2,3.4,3.6.2,2.6-.5,6-2.1,8.2-2.6,3.5-5.9,6.4-10.6,6.9-.8,0-1.5-.3-1.9-.7-.2-.3-.5-.3-.7.4-.4,1.1-.6,3-.4,5,.4,4.3,2.5,6.2,5.8,5.9,6.6-.6,17.2-9.8,21.2-15.6.6-.8,1.1-.9,1.3-.3,0,.6,0,1.3-.7,2.3-4.8,7.9-15.3,16.2-23,16.9-3.1.3-7.6-1-8.2-8-.4-4.3,1.5-10.5,4.1-15.7v-.2h0ZM400.8,29.9c-.3-2.8-1.9-4.1-3.1-4-2.7.2-6.9,8-7.9,12,0,.5.4.7,1.6.6,5.7-.5,9.7-4.3,9.4-8.6Z"/>
            </g>
            <path class="cls-2" d="M172.3,82.3s137.8,5.5,248.2-21.1"/>
          </g>
          <rect class="cls-1" x="0" y="0" width="420.5" height="104.3"/>
        </g>
      </g>
    </g>
    <g id="_素材" data-name="素材" class="cls-6">
      <rect class="cls-3" x="35.7" y="-49.2" width="17.2" height="17.2"/>
      <rect class="cls-5" x="61.3" y="-49.2" width="17.2" height="17.2"/>
    </g>
  </g>
</svg>