<?xml version="1.0" encoding="UTF-8"?>
<svg xmlns="http://www.w3.org/2000/svg" width="64mm" height="26.5mm" version="1.1" viewBox="0 0 181.4 75.2">
  <defs>
    <style>
      .cls-1, .cls-2, .cls-3 {
        fill: none;
      }

      .cls-4 {
        fill: #2a2e3c;
      }

      .cls-5 {
        fill: #95969e;
      }

      .cls-6 {
        fill: #cab699;
      }

      .cls-2 {
        stroke: #fff;
        stroke-miterlimit: 10;
        stroke-width: 1.4px;
      }

      .cls-7 {
        fill: #f29b8f;
      }

      .cls-3 {
        stroke: #f29b8f;
        stroke-miterlimit: 4;
        stroke-width: .5px;
      }

      .cls-8 {
        fill: #2f313e;
      }

      .cls-9 {
        display: none;
      }
    </style>
  </defs>
  <!-- Generator: Adobe Illustrator 28.7.5, SVG Export Plug-In . SVG Version: 1.2.0 Build 176)  -->
  <g>
    <g id="_レイヤー_1" data-name="レイヤー_1">
      <g>
        <g id="_レイヤー_1-2" data-name="_レイヤー_1">
          <g id="_文字">
            <g>
              <path class="cls-3" d="M105,47.5s34.2,1.4,61.6-5.3"/>
              <g>
                <path class="cls-8" d="M36.8,10.5h-11.1c-.5,0-.8-.3-.8-.6s.3-.7.8-.7h4.8v-4.5h-3c-.4,0-.7-.3-.7-.6s.2-.6.7-.6h7.4c.4,0,.7.3.7.6s-.2.7-.7.7h-3v4.5h5.1c1.5,0,.7.3.7.7s-.3.7-.8.7h0v-.2h0Z"/>
                <path class="cls-8" d="M45.1,11.1c-.3,0-.6.2-.9.2-.7,0-1.4-.5-1.4-1.5h0V2.8h0c0-.5.3-.8.7-.8s.8.3.8.7v6.2h0c0,.4.2.5.4.5.8,0,4.6-2.7,6.4-5.6.2-.3.4-.4.7-.4s.8.3.8.8c0,1-4.2,5.2-7.4,6.8h0Z"/>
                <path class="cls-8" d="M63.2,1.3c0,.7,0,1.4-.2,2.2h2c1.2,0,2,.7,2,1.8s-.2,3.7-1,5.2c-.6,1.1-1.6,1.6-2.7,1.6s-2.3-.6-2.3-1.3.3-.7.7-.7.3,0,.5.2c.4.3.7.4,1.1.4.6,0,1.1-.3,1.5-.9.8-1.2.9-3.9.9-4.2,0-.5-.3-.9-.9-1h-1.9c-1.3,5.7-4.8,7.8-5.5,7.8s-.7-.3-.7-.7.2-.5.5-.7c2.3-1.2,3.6-3.8,4.3-6.4h-3c-.5,0-.7-.3-.7-.6s.3-.6.7-.6h3.3V1.2h0c0-.5.3-.8.7-.8s.8.3.8.8h-.2,0ZM67.6,3.6c-.3-.3-1-.9-1.4-1-.2,0-.3-.3-.3-.4,0-.3.2-.5.6-.5s2,.8,2,1.5-.3.6-.5.6-.3,0-.4-.2ZM69,2.2c-.3-.3-1-.8-1.4-1-.2,0-.3-.3-.3-.4,0-.3.2-.5.6-.5s2.1.8,2.1,1.5-.3.6-.6.6-.2,0-.4-.2Z"/>
                <path class="cls-8" d="M76.6,5.2c-.6-.6-1.7-1.1-2.4-1.3-.3,0-.4-.3-.4-.6s.3-.7.7-.7,2,.5,3.1,1.4c.2.2.3.4.3.6,0,.4-.4.9-.8.9s-.4,0-.5-.2h0ZM75.1,11.8c-.5,0-.8-.4-.8-.8s.2-.7.7-.8c3.3-.8,6.5-3.9,8.1-7.1,0-.3.4-.4.7-.4s.7.3.7.7v.5c-3.3,6.3-8.8,7.8-9.2,7.8h-.2Z"/>
                <path class="cls-8" d="M91.6,11.9c0,.6-.4.8-.8.8s-.7-.3-.7-.8h0V.6h0c0-.5.4-.7.7-.7s.7.2.7.7h0v3.9h0c.2,0,3.1.5,4.1,1.4.2.2.3.4.3.6,0,.4-.3.8-.7.8s-.3,0-.4-.2c-.7-.5-2.5-1.2-3.4-1.3v6h.2Z"/>
                <path class="cls-8" d="M102.8,3.7c-.4,0-.6-.3-.6-.6s.2-.7.6-.7h5.2c1.6,0,1.7.5,1.7,1.2s0,.4-.2.7c-.5,1-1.1,1.9-1.8,2.8,1,.6,4.4,2.7,4.4,3.7s-.4.8-.8.8-.4,0-.5-.3c-.8-1-2.5-2.5-3.9-3.3-2.5,2.8-5.4,3.8-5.7,3.8s-.7-.3-.7-.7.2-.6.6-.7c4.3-1.6,7-6,7-6.5s-.3-.3-.7-.3h-4.6Z"/>
                <path class="cls-8" d="M116.8,12.5c-.4,0-.7-.3-.7-.6s.2-.5.6-.7c2.3-.8,4.1-2.2,5.5-3.8-.7-.4-1.3-.7-1.9-.9-.3,0-.4-.3-.4-.5s.2-.6.7-.6,1.5.4,2.5,1c.8-1.2,1.7-2.6,1.7-3s0-.2-.3-.2-1.7,0-3.1.2c-.3.4-3.1,4.1-4.2,4.1s-.7-.3-.7-.7,0-.5.4-.7c1.6-1,3.8-3.8,4.4-5.2.2-.4.4-.6.7-.6s.8.3.8.7,0,.4-.5,1c1.4,0,2.5-.2,2.8-.2.9,0,1.4.5,1.4,1.1s0,.6-.3,1c-.6,1.1-1.2,2.1-1.9,3.1,1.1.8,1.5,1.2,1.5,1.6s-.3.7-.7.7-.4,0-.5-.2c-.3-.3-.7-.6-1.1-1-2.7,3.2-6.1,4.4-6.5,4.4h-.2Z"/>
                <path class="cls-8" d="M135.9,11.9v-6.1c-1.4,1.3-2.8,2.5-4.6,3.6-.3.2-.5.2-.7.2-.4,0-.7-.3-.7-.7s0-.5.4-.6c3.1-1.6,6.1-4.5,7.9-7.3.2-.3.4-.4.7-.4s.7.3.7.7,0,.3-.2.5c-.7,1-1.4,1.9-2.1,2.7v7.5c0,.7-.5.8-.8.8s-.7-.2-.7-.8h0Z"/>
                <path class="cls-8" d="M142.5,10.8c0-.2,0-.5.5-.7,2.4-1.1,3.8-3.4,3.8-6.3s0-.3,0-.4h0c0-.6.3-.8.7-.8.7,0,.7.7.7,1,0,5.4-4.1,7.9-4.9,7.9s-.7-.3-.7-.7h0ZM151,3.1l-.2,5.6h0c0,.3,0,.4.2.4.4,0,2.6-1.4,4.1-4.3.2-.3.4-.4.6-.4.4,0,.7.3.7.7s0,.3,0,.4c-1.9,3.3-4.8,5.3-5.9,5.3s-1.1-.4-1.1-1.2v-.2c0-1.5.2-5.3.2-6.3s.4-.8.7-.8.7.3.7.7h0Z"/>
              </g>
              <g>
                <path class="cls-7" d="M100.2,64.9c0,5.2-4.2,9.5-9.5,9.5s-9.5-4.2-9.5-9.5,4.2-9.5,9.5-9.5,9.5,4.2,9.5,9.5Z"/>
                <polyline class="cls-2" points="96.7 62.9 90.7 69 84.7 62.9"/>
              </g>
              <path class="cls-7" d="M25.2,28c1,0,2,.2,2.4.6.3.2.3.4,0,.4h-3.1c-1.1,0-2.1.2-3.1.3-.7,0-.8.3-1,.9-.2.8-1,3.6-1.1,4.2,0,.3,0,.5.2.5h3.4c1,0,2.2-.3,2.8-.4.5-.2.2.3-.2.6-.5.4-.9.5-1.6.7-.9.2-2.4.3-4.6.5-.3,0-.4,0-.5.4-.6,1.8-1.1,3.4-1.7,5.2,0,.3,0,.4.3.5h3.8c2.8,0,3.7-.3,5.4-1,.6-.2.6,0,.2.4-1.9,1.2-3.6,1.8-7.2,1.9h-2.7c-1.2,0-2.3,0-2.3-.6s.8-.9,1-.9.2,0,.3-.4c.5-1.2.9-2.9,1.6-5.2,0-.3,0-.4-.3-.6-.2,0-.3-.3-.4-.5,0,0,0-.3.3-.3.7-.3.8-.4,1-.8,0-.4.4-1.3,1-3.8,0-.4,0-.5-.3-.7-.5-.3-.6-.5-.4-.7.2,0,.3-.2.7-.4.4-.2.5-.4.8-1.3,0-.4.3-.5.4-.5.2,0,.4.3.5.7,0,.2.2.3.6.3,0,0,3.7,0,3.7,0Z"/>
              <path class="cls-7" d="M32.9,32c2.5-6.6,3.7-8.8,4-9.2,0,0,.2-.2.4-.2s.3,0,.4.2c.4.6,0,1.2-.2,1.8-3.2,6.1-5.1,12-5.6,14.6-.6,2.5,0,2.9.3,2.9,1.3,0,5.8-4,7.7-6.4.2-.2.4,0,.4,0,0,.2,0,.5-.4,1-1.6,2.2-6.4,6.6-8.4,6.7-.6,0-.9-.9-1-2.1,0-.6.5-4.3,2.5-9.3h0Z"/>
              <path class="cls-7" d="M41.9,34.4c.6-1,2.5-3.7,3.6-3.8.4,0,.6.3.5.6,0,0,0,.2.3.3.6,0,1.1.5,1.1,1.4s-.3,2.2-.9,2.9c-1,1.2-2.3,2.2-4,2.2s-.5,0-.7-.3h-.3c-.2.4-.3,1.1-.3,1.8,0,1.5.8,2.3,1.9,2.2,2.4,0,6.4-3.1,8-5.1.2-.3.4-.3.5,0,0,.2,0,.5-.3.8-1.9,2.7-5.9,5.5-8.6,5.6-1.1,0-2.7-.5-2.8-3.1,0-1.6.8-3.7,1.8-5.6h.2,0ZM46.3,33.8c0-1-.6-1.5-1-1.5-1,0-2.7,2.7-3.1,4.1,0,.2,0,.3.6.3,2,0,3.6-1.3,3.6-2.9,0,0,0,0,0,0Z"/>
              <path class="cls-7" d="M62,31.9c0,.5-.4,1.1-1.1,1.6-.2,0,0,.2,0,.4v.6c0,.4-1.1,6.2-1.2,6.9-.7,4-1.9,7.7-4.7,10.8-1.2,1.3-3.4,2.2-4.6,2.2h-1.3c-.4,0-.6-.2-1.1,0-.6,0-1.4-.4-1.4-.9s.8-1.1,1.3-1.2c.3,0,.6.3.8.6.3.3.8.7,2,.6,1.7,0,3.7-1.6,5.1-3.9,1.3-2.2,1.9-4.5,2.5-7.7.6-3.3.7-4.5.7-5.1s-.2-.3-.6.3c-.4.5-2.2,2.9-3.3,4s-1.7,1.8-2.4,1.8-1.1-.9-1.1-1.9c0-1.7.8-3.6,2.1-5.5,1.2-1.8,3-3.3,4.5-4.2.8-.5,1.7-.9,2.2-.9,1.3,0,1.8,1.1,1.8,1.6h-.2ZM53.4,40.9c.9,0,3.3-3,3.9-3.7.9-1.2,1.9-3,2.2-3.2.2-.2.4-.3.6-.3s.3,0,.4-.3c0-.2.4-.5.4-.8,0-.7-.7-.9-1.3-.9-1.4,0-3.6,1.8-4.6,3.3-.9,1.3-1.9,3.6-1.9,5.1s.2.8.4.8h0Z"/>
              <path class="cls-7" d="M72.4,30.6c0,0,0,.2.3,0,.2,0,.4,0,.5,0,.3.2.3.4,0,.8-1.1,2.4-1.7,4.3-1.6,6.2,0,1.7.2,3.2,1.2,3.2,1.8,0,4.5-3.9,5.6-5.4.2-.3.5-.3.5,0s0,.5-.2.9c-1,2.3-4.7,6-6.3,6s-1.7-1-1.8-2.4c0-.8-.2-2.1-.2-2.5s0-.2-.2,0c-.5.7-2.4,3.2-3.3,4-.8.8-1.4,1.1-1.7,1.1s-1.3-.2-1.3-1.5.2-1.6,1.2-3.7c.8-1.8,2.5-4.5,4.2-6,1.1-1.1,1.8-1.3,2.2-1.3s.7.4.9.6h0,0ZM68.5,33.4c-1.8,2.3-2.7,4.8-3.1,6.2-.2.8,0,1.3.5,1.3s.8-.4,1.5-1.1c.6-.6,1.7-2.1,2.7-3.6.4-.6,1.2-2.3,1.3-2.6s.2-.9,0-1.3c0-.5-.3-.8-.7-.8-.6,0-1.4.8-2.3,1.9h0Z"/>
              <path class="cls-7" d="M83.4,30.4c0,.1,0,.2-.3.3-.3,0-.6.4-.8.9-.5,1-1.4,4-1.7,5.8,0,.3,0,.4.3,0,1.3-2.1,4.5-5.2,5.4-6,1-.8,1.3-1,1.6-1.1.3,0,.5-.3.7-.6.2-.3.4-.5.5-.5.2,0,.3.2.5.5s.2.6,0,1.1c-.3.6-.8,1.1-1.1,1.9-.6,1.5-1.2,3.3-1.5,4.7-.6,2.8.2,3.8,1.3,3.8,1.8,0,5-4.1,6.5-6.3.2-.3.4-.3.4,0s0,.5-.3.8c-3.1,5-5.5,6.8-7.2,6.8s-2.5-1.7-1.8-5c.3-1.6.8-3.2,1.1-4.1.2-.7.2-.9,0-1,0,0-.4,0-.7.4-3.6,3.2-5.6,6.7-6.1,7.8-.2.3-.6,1.2-1,1.2s-.3,0-.5-.3c-.2-.2,0-.9,0-1.4.9-4.8,2-8.3,2.6-9.5s.8-1.3,1.1-1.3.8.8.9,1.2h0Z"/>
              <path class="cls-7" d="M102.1,37.9c.3-.2.5,0,.2.3-.5.6-2.1,2-4.9,3.2-.5.2-.8.3-1.1.3-.5,0-1.8-.5-1.8-1.7s0-1,.4-1.7c.3-1,1.3-4.7,1.7-5.5,0-.3,0-.4-.2-.3-.5,0-1.4.2-1.7.3h-.7c-.2-.2-.2-.5,0-.7s.4-.3.8-.4c.6,0,1.2-.2,1.8-.3.4,0,.5-.2.5-.4.2-.5,1.2-3.7,1.5-4.5,0-.4.6-1,1.1-1.1.2,0,.3,0,.4.4v.9c-1,2-1.5,3.8-1.6,4.1,0,.2,0,.3.3.3.7,0,3.7-.4,6.2-.4s.3.5-.3.6c-1.1.2-3,.5-6.4,1.1-.3,0-.4,0-.5.4-.6,1.8-1.5,4.8-1.7,6.1s.2,1.7,1,1.7c1.7,0,4.2-1.8,4.9-2.4v-.2h0Z"/>
              <path class="cls-7" d="M121.3,24.9c0,.2.2.4,0,.7-.2.6-.5.8-1.2.8s-.8,0-1.4,0c-1.9.5-3.5,2.1-3.5,4.1s.3,1.8.8,3.1c.5,1.4.8,3,.8,3.6,0,1.1-.5,2.1-1.2,2.7-.9.8-2.4,1.2-3.8,1.3-.5,0-1.3,0-1.7-.2-.4-.2-.5-.4-.5-.6s0-.3.3-.6c.2-.2.7-.4,1,0,.6.4,1.2.5,1.9.5,1.3,0,2.9-1,2.9-2.9s-.3-1.9-.8-3.3c-.8-1.9-.9-2.6-.9-3.2,0-1.8,1.7-4.1,5-5.6,1.1-.5,1.5-.6,1.8-.6s.4,0,.5.2h0,0Z"/>
              <path class="cls-7" d="M129.1,37.2c.3-.2.5,0,.2.3-.5.6-2.1,2-4.9,3.2-.5.2-.8.3-1.1.3-.5,0-1.8-.5-1.8-1.7s0-1,.4-1.7c.3-1,1.3-4.7,1.7-5.5,0-.3,0-.4-.2-.3-.5,0-1.4.2-1.7.3h-.7c-.2-.2-.2-.5,0-.7s.4-.3.8-.4c.6,0,1.2-.2,1.8-.3.4,0,.5-.2.5-.4.2-.5,1.2-3.7,1.5-4.5,0-.4.6-1,1.1-1.1.2,0,.3,0,.4.4v.9c-1,2-1.5,3.8-1.6,4.1,0,.2,0,.3.3.3.7,0,3.7-.4,6.2-.4s.3.5-.3.6c-1.1.2-3,.5-6.4,1.1-.3,0-.4,0-.5.4-.6,1.8-1.5,4.8-1.7,6.1s.2,1.7,1,1.7c1.7,0,4.2-1.8,4.9-2.4v-.2h0Z"/>
              <path class="cls-7" d="M133,32.2v-2.2c.2-.4.5-1.7,1-1.7s.5,1.8.4,2.5c0,1-.3,4.4-.4,5.5,0,1.5.4,2.1.8,2.1,1,0,2.5-1.8,4.2-5.3.8-1.6.7-2,.7-2.2v-1c.3-.5.4-.9.6-1.5s.4-.6.6-.6c.3,0,.6.6.6,1s-.2,1.3-.7,2.4c-.5,1.1-2.5,5.2-4,7-3.7,4.7-5.9,8.1-6.7,9.3v.3c.4,0,.6.2.6.5,0,.5-1.9,1.6-2.2,1.8-.5.3-.7.5-.8.7-.5.8-.8,1.5-1.4,1.5s-.6-.2-.4-.7c0-.5.3-.9.9-1.8.6-.9,1.1-1.2,1.3-1.3.2,0,.4-.2.4-.4s1.4-2.5,2.5-3.8c.7-.8,3.3-4.6,3.6-5,.2-.2,0-.2-.2,0-.5.2-.8.3-1,.3-.6,0-.9-.8-.9-2.9v-4.6h.5Z"/>
              <path class="cls-7" d="M146.5,29c2.5-6.6,3.7-8.8,4-9.2,0,0,.2-.2.4-.2s.3,0,.4.2c.4.6,0,1.2-.2,1.8-3.2,6.1-5.1,12-5.6,14.6-.6,2.5,0,2.9.3,2.9,1.3,0,5.8-4,7.7-6.4.2-.2.4,0,.4,0,0,.2,0,.5-.4,1-1.5,2.2-6.4,6.6-8.4,6.7-.6,0-.9-.9-1-2.1,0-.6.5-4.3,2.5-9.3h0Z"/>
              <path class="cls-7" d="M155.5,31.4c.6-1,2.5-3.7,3.6-3.8.4,0,.6.3.5.6,0,0,0,.2.3.3.6,0,1.1.5,1.1,1.4s-.3,2.2-.9,2.9c-1,1.2-2.3,2.2-4,2.2s-.5,0-.7-.3h-.3c-.2.4-.3,1.1-.3,1.8,0,1.5.8,2.3,1.9,2.2,2.4,0,6.4-3.1,8-5.1.2-.3.4-.3.5,0,0,.2,0,.5-.3.8-1.9,2.7-5.9,5.5-8.6,5.6-1.1,0-2.7-.5-2.8-3.1,0-1.6.8-3.7,1.8-5.6h.2ZM159.9,30.8c0-1-.6-1.5-1-1.5-1,0-2.7,2.7-3.1,4.1,0,.2,0,.3.6.3,2,0,3.6-1.3,3.6-2.9h0Z"/>
              <path class="cls-7" d="M25.2,28c1,0,2,.2,2.4.6.3.2.3.4,0,.4h-3.1c-1.1,0-2.1.2-3.1.3-.7,0-.8.3-1,.9-.2.8-1,3.6-1.1,4.2,0,.3,0,.5.2.5h3.4c1,0,2.2-.3,2.8-.4.5-.2.2.3-.2.6-.5.4-.9.5-1.6.7-.9.2-2.4.3-4.6.5-.3,0-.4,0-.5.4-.6,1.8-1.1,3.4-1.7,5.2,0,.3,0,.4.3.5h3.8c2.8,0,3.7-.3,5.4-1,.6-.2.6,0,.2.4-1.9,1.2-3.6,1.8-7.2,1.9h-2.7c-1.2,0-2.3,0-2.3-.6s.8-.9,1-.9.2,0,.3-.4c.5-1.2.9-2.9,1.6-5.2,0-.3,0-.4-.3-.6-.2,0-.3-.3-.4-.5,0,0,0-.3.3-.3.7-.3.8-.4,1-.8,0-.4.4-1.3,1-3.8,0-.4,0-.5-.3-.7-.5-.3-.6-.5-.4-.7.2,0,.3-.2.7-.4.4-.2.5-.4.8-1.3,0-.4.3-.5.4-.5.2,0,.4.3.5.7,0,.2.2.3.6.3,0,0,3.7,0,3.7,0Z"/>
              <path class="cls-7" d="M32.9,32c2.5-6.6,3.7-8.8,4-9.2,0,0,.2-.2.4-.2s.3,0,.4.2c.4.6,0,1.2-.2,1.8-3.2,6.1-5.1,12-5.6,14.6-.6,2.5,0,2.9.3,2.9,1.3,0,5.8-4,7.7-6.4.2-.2.4,0,.4,0,0,.2,0,.5-.4,1-1.6,2.2-6.4,6.6-8.4,6.7-.6,0-.9-.9-1-2.1,0-.6.5-4.3,2.5-9.3h0Z"/>
              <path class="cls-7" d="M41.9,34.4c.6-1,2.5-3.7,3.6-3.8.4,0,.6.3.5.6,0,0,0,.2.3.3.6,0,1.1.5,1.1,1.4s-.3,2.2-.9,2.9c-1,1.2-2.3,2.2-4,2.2s-.5,0-.7-.3h-.3c-.2.4-.3,1.1-.3,1.8,0,1.5.8,2.3,1.9,2.2,2.4,0,6.4-3.1,8-5.1.2-.3.4-.3.5,0,0,.2,0,.5-.3.8-1.9,2.7-5.9,5.5-8.6,5.6-1.1,0-2.7-.5-2.8-3.1,0-1.6.8-3.7,1.8-5.6h.2,0ZM46.3,33.8c0-1-.6-1.5-1-1.5-1,0-2.7,2.7-3.1,4.1,0,.2,0,.3.6.3,2,0,3.6-1.3,3.6-2.9,0,0,0,0,0,0Z"/>
              <path class="cls-7" d="M62,31.9c0,.5-.4,1.1-1.1,1.6-.2,0,0,.2,0,.4v.6c0,.4-1.1,6.2-1.2,6.9-.7,4-1.9,7.7-4.7,10.8-1.2,1.3-3.4,2.2-4.6,2.2h-1.3c-.4,0-.6-.2-1.1,0-.6,0-1.4-.4-1.4-.9s.8-1.1,1.3-1.2c.3,0,.6.3.8.6.3.3.8.7,2,.6,1.7,0,3.7-1.6,5.1-3.9,1.3-2.2,1.9-4.5,2.5-7.7.6-3.3.7-4.5.7-5.1s-.2-.3-.6.3c-.4.5-2.2,2.9-3.3,4s-1.7,1.8-2.4,1.8-1.1-.9-1.1-1.9c0-1.7.8-3.6,2.1-5.5,1.2-1.8,3-3.3,4.5-4.2.8-.5,1.7-.9,2.2-.9,1.3,0,1.8,1.1,1.8,1.6h-.2ZM53.4,40.9c.9,0,3.3-3,3.9-3.7.9-1.2,1.9-3,2.2-3.2.2-.2.4-.3.6-.3s.3,0,.4-.3c0-.2.4-.5.4-.8,0-.7-.7-.9-1.3-.9-1.4,0-3.6,1.8-4.6,3.3-.9,1.3-1.9,3.6-1.9,5.1s.2.8.4.8h0Z"/>
              <path class="cls-7" d="M72.4,30.6c0,0,0,.2.3,0,.2,0,.4,0,.5,0,.3.2.3.4,0,.8-1.1,2.4-1.7,4.3-1.6,6.2,0,1.7.2,3.2,1.2,3.2,1.8,0,4.5-3.9,5.6-5.4.2-.3.5-.3.5,0s0,.5-.2.9c-1,2.3-4.7,6-6.3,6s-1.7-1-1.8-2.4c0-.8-.2-2.1-.2-2.5s0-.2-.2,0c-.5.7-2.4,3.2-3.3,4-.8.8-1.4,1.1-1.7,1.1s-1.3-.2-1.3-1.5.2-1.6,1.2-3.7c.8-1.8,2.5-4.5,4.2-6,1.1-1.1,1.8-1.3,2.2-1.3s.7.4.9.6h0,0ZM68.5,33.4c-1.8,2.3-2.7,4.8-3.1,6.2-.2.8,0,1.3.5,1.3s.8-.4,1.5-1.1c.6-.6,1.7-2.1,2.7-3.6.4-.6,1.2-2.3,1.3-2.6s.2-.9,0-1.3c0-.5-.3-.8-.7-.8-.6,0-1.4.8-2.3,1.9h0Z"/>
              <path class="cls-7" d="M83.4,30.4c0,.1,0,.2-.3.3-.3,0-.6.4-.8.9-.5,1-1.4,4-1.7,5.8,0,.3,0,.4.3,0,1.3-2.1,4.5-5.2,5.4-6,1-.8,1.3-1,1.6-1.1.3,0,.5-.3.7-.6.2-.3.4-.5.5-.5.2,0,.3.2.5.5s.2.6,0,1.1c-.3.6-.8,1.1-1.1,1.9-.6,1.5-1.2,3.3-1.5,4.7-.6,2.8.2,3.8,1.3,3.8,1.8,0,5-4.1,6.5-6.3.2-.3.4-.3.4,0s0,.5-.3.8c-3.1,5-5.5,6.8-7.2,6.8s-2.5-1.7-1.8-5c.3-1.6.8-3.2,1.1-4.1.2-.7.2-.9,0-1,0,0-.4,0-.7.4-3.6,3.2-5.6,6.7-6.1,7.8-.2.3-.6,1.2-1,1.2s-.3,0-.5-.3c-.2-.2,0-.9,0-1.4.9-4.8,2-8.3,2.6-9.5s.8-1.3,1.1-1.3.8.8.9,1.2h0Z"/>
              <path class="cls-7" d="M102.1,37.9c.3-.2.5,0,.2.3-.5.6-2.1,2-4.9,3.2-.5.2-.8.3-1.1.3-.5,0-1.8-.5-1.8-1.7s0-1,.4-1.7c.3-1,1.3-4.7,1.7-5.5,0-.3,0-.4-.2-.3-.5,0-1.4.2-1.7.3h-.7c-.2-.2-.2-.5,0-.7s.4-.3.8-.4c.6,0,1.2-.2,1.8-.3.4,0,.5-.2.5-.4.2-.5,1.2-3.7,1.5-4.5,0-.4.6-1,1.1-1.1.2,0,.3,0,.4.4v.9c-1,2-1.5,3.8-1.6,4.1,0,.2,0,.3.3.3.7,0,3.7-.4,6.2-.4s.3.5-.3.6c-1.1.2-3,.5-6.4,1.1-.3,0-.4,0-.5.4-.6,1.8-1.5,4.8-1.7,6.1s.2,1.7,1,1.7c1.7,0,4.2-1.8,4.9-2.4v-.2h0Z"/>
              <path class="cls-5" d="M121.3,24.9c0,.2.2.4,0,.7-.2.6-.5.8-1.2.8s-.8,0-1.4,0c-1.9.5-3.5,2.1-3.5,4.1s.3,1.8.8,3.1c.5,1.4.8,3,.8,3.6,0,1.1-.5,2.1-1.2,2.7-.9.8-2.4,1.2-3.8,1.3-.5,0-1.3,0-1.7-.2-.4-.2-.5-.4-.5-.6s0-.3.3-.6c.2-.2.7-.4,1,0,.6.4,1.2.5,1.9.5,1.3,0,2.9-1,2.9-2.9s-.3-1.9-.8-3.3c-.8-1.9-.9-2.6-.9-3.2,0-1.8,1.7-4.1,5-5.6,1.1-.5,1.5-.6,1.8-.6s.4,0,.5.2h0,0Z"/>
              <path class="cls-5" d="M129.1,37.2c.3-.2.5,0,.2.3-.5.6-2.1,2-4.9,3.2-.5.2-.8.3-1.1.3-.5,0-1.8-.5-1.8-1.7s0-1,.4-1.7c.3-1,1.3-4.7,1.7-5.5,0-.3,0-.4-.2-.3-.5,0-1.4.2-1.7.3h-.7c-.2-.2-.2-.5,0-.7s.4-.3.8-.4c.6,0,1.2-.2,1.8-.3.4,0,.5-.2.5-.4.2-.5,1.2-3.7,1.5-4.5,0-.4.6-1,1.1-1.1.2,0,.3,0,.4.4v.9c-1,2-1.5,3.8-1.6,4.1,0,.2,0,.3.3.3.7,0,3.7-.4,6.2-.4s.3.5-.3.6c-1.1.2-3,.5-6.4,1.1-.3,0-.4,0-.5.4-.6,1.8-1.5,4.8-1.7,6.1s.2,1.7,1,1.7c1.7,0,4.2-1.8,4.9-2.4v-.2h0Z"/>
              <path class="cls-5" d="M133,32.2v-2.2c.2-.4.5-1.7,1-1.7s.5,1.8.4,2.5c0,1-.3,4.4-.4,5.5,0,1.5.4,2.1.8,2.1,1,0,2.5-1.8,4.2-5.3.8-1.6.7-2,.7-2.2v-1c.3-.5.4-.9.6-1.5s.4-.6.6-.6c.3,0,.6.6.6,1s-.2,1.3-.7,2.4c-.5,1.1-2.5,5.2-4,7-3.7,4.7-5.9,8.1-6.7,9.3v.3c.4,0,.6.2.6.5,0,.5-1.9,1.6-2.2,1.8-.5.3-.7.5-.8.7-.5.8-.8,1.5-1.4,1.5s-.6-.2-.4-.7c0-.5.3-.9.9-1.8.6-.9,1.1-1.2,1.3-1.3.2,0,.4-.2.4-.4s1.4-2.5,2.5-3.8c.7-.8,3.3-4.6,3.6-5,.2-.2,0-.2-.2,0-.5.2-.8.3-1,.3-.6,0-.9-.8-.9-2.9v-4.6h.5Z"/>
              <path class="cls-5" d="M146.5,29c2.5-6.6,3.7-8.8,4-9.2,0,0,.2-.2.4-.2s.3,0,.4.2c.4.6,0,1.2-.2,1.8-3.2,6.1-5.1,12-5.6,14.6-.6,2.5,0,2.9.3,2.9,1.3,0,5.8-4,7.7-6.4.2-.2.4,0,.4,0,0,.2,0,.5-.4,1-1.5,2.2-6.4,6.6-8.4,6.7-.6,0-.9-.9-1-2.1,0-.6.5-4.3,2.5-9.3h0Z"/>
              <path class="cls-5" d="M155.5,31.4c.6-1,2.5-3.7,3.6-3.8.4,0,.6.3.5.6,0,0,0,.2.3.3.6,0,1.1.5,1.1,1.4s-.3,2.2-.9,2.9c-1,1.2-2.3,2.2-4,2.2s-.5,0-.7-.3h-.3c-.2.4-.3,1.1-.3,1.8,0,1.5.8,2.3,1.9,2.2,2.4,0,6.4-3.1,8-5.1.2-.3.4-.3.5,0,0,.2,0,.5-.3.8-1.9,2.7-5.9,5.5-8.6,5.6-1.1,0-2.7-.5-2.8-3.1,0-1.6.8-3.7,1.8-5.6h.2ZM159.9,30.8c0-1-.6-1.5-1-1.5-1,0-2.7,2.7-3.1,4.1,0,.2,0,.3.6.3,2,0,3.6-1.3,3.6-2.9h0Z"/>
            </g>
          </g>
        </g>
        <g id="_素材" class="cls-9">
          <rect class="cls-4" x="31.6" y="-52.7" width="17.2" height="17.2"/>
          <rect class="cls-7" x="57.2" y="-52.7" width="17.2" height="17.2"/>
          <rect class="cls-6" x="82.8" y="-52.7" width="17.2" height="17.2"/>
        </g>
      </g>
      <rect class="cls-1" width="181.4" height="75.2"/>
    </g>
  </g>
</svg>