<?xml version="1.0" encoding="UTF-8"?>
<svg id="_画像" data-name="画像" xmlns="http://www.w3.org/2000/svg" viewBox="0 0 29.46 29.46">
  <defs>
    <style>
      .cls-1 {
        fill: none;
      }

      .cls-2 {
        fill: #f29b8f;
      }
    </style>
  </defs>
  <g>
    <path class="cls-2" d="M19.49,7.88c-.05,2.36-1.85,4.3-2.87,5.46-.6.65-6.43,6.2-7.31,7.03-1.02.97-1.67,1.85-1.71,2.13-.05.28.28.51,1.53.6,1.11.09,3.84.09,4.72.09,2.17,0,3.79-.55,4.35-.55.65,0,.69.42.55.83-.18.37-1.16,1.16-1.62,1.48-.42.28-.97.23-1.39.09s-1.16-.42-4.25-.42c-3.65,0-5.18-.05-5.74,0-.83.09-1.29.32-1.71.42-.42.09-.65,0-.83-.19-.18-.23-.28-.6-.18-.88.09-.32.37-.6.83-.83.32-.14,1.2-.6,3.56-2.87,3.47-3.19,5.18-4.81,8.51-8.56,1.34-1.48,1.8-2.59,1.8-3.65,0-1.67-1.43-2.27-2.73-2.27-1.85,0-4.49,2.41-5.55,3.98-.23.32-.79.46-1.11.23-.32-.23-.51-.51-.51-.79,0-1.29,3.15-3.01,4.07-3.56,1.9-1.11,3.42-1.62,4.02-1.62,2.22,0,3.7,1.62,3.56,3.84Z"/>
    <path class="cls-2" d="M26.47,23.61c0,.79-1.16,1.8-2.27,1.8-.46,0-1.16-.6-1.16-1.2,0-.79.97-2.13,1.85-2.13.79,0,1.57.93,1.57,1.53Z"/>
  </g>
  <rect class="cls-1" width="29.46" height="29.46"/>
</svg>