<?xml version="1.0" encoding="UTF-8"?>
<svg id="_画像" data-name="画像" xmlns="http://www.w3.org/2000/svg" viewBox="0 0 29.46 29.46">
  <defs>
    <style>
      .cls-1 {
        fill: none;
      }

      .cls-2 {
        fill: #cab699;
      }
    </style>
  </defs>
  <g>
    <path class="cls-2" d="M19.35,5.16c-.05.42-.23.69-.55.79-.37.14-.6.51-.88,1.16-.92,1.99-2.17,5.32-3.01,7.72-.14.42-.19.55.18.51,1.06-.09,1.8-.23,2.31-.51.51-.23.83-.23,1.25-.19.55.14.97.6.97.88,0,.23-.23.56-.74,1.02-.37.32-.74.19-1.16.05-.51-.19-.65-.19-.83-.14-.65.09-1.25.19-1.76.23-.74.09-1.02.19-1.2.6-.14.37-.37.88-.97,2.45-.6,1.53-.32,1.8.14,1.8s.65.28.46.74c-.18.46-.55.97-.88,1.34-.23.28-.28.51-.37.97-.19.6-.97,2.17-1.62,2.17-.32,0-.51-.42-.51-.83,0-.79.05-1.57.32-2.68.69-2.5.28-1.16,1.9-5.64.19-.46.19-.6-.18-.6h-1.16c-3.19,0-5.41-.51-6.15-.92-.55-.32-.83-.74-.83-1.16,0-.79,1.53-2.4,3.61-3.93,1.25-.97,6.06-4.72,8.51-5.97.74-.37.97-.6,1.06-.92.19-.65.69-1.39,1.16-1.39.88,0,.97,1.94.92,2.45ZM12.79,15.52c.28,0,.42-.28.56-.69.79-2.17,2.13-5.55,2.73-7.26.37-.97.18-.97-.6-.56-1.43.74-5.87,4.12-7.31,5.23-1.25,1.02-2.27,1.85-1.76,2.5.28.37,1.8.83,4.58.83l1.8-.05Z"/>
    <path class="cls-2" d="M25.37,22.68c0,.79-1.16,1.8-2.27,1.8-.46,0-1.16-.6-1.16-1.2,0-.79.97-2.13,1.85-2.13.79,0,1.57.93,1.57,1.53Z"/>
  </g>
  <rect class="cls-1" width="29.46" height="29.46"/>
</svg>