<?xml version="1.0" encoding="UTF-8"?>
<svg id="_画像" data-name="画像" xmlns="http://www.w3.org/2000/svg" viewBox="0 0 29.46 29.46">
  <defs>
    <style>
      .cls-1 {
        fill: none;
      }

      .cls-2 {
        fill: #cab699;
      }
    </style>
  </defs>
  <g>
    <path class="cls-2" d="M16.44,4.83c.05.42-.23.74-.46.92-.83.74-1.06,1.43-1.85,3.15-.56,1.25-2.13,5.69-4.3,11.29-.32.83-.23,1.53-.05,2.13.28.74.37,1.11.37,1.39,0,.56-1.06,2.13-1.67,2.13-.28,0-1.02-.28-.97-1.67.09-.69.37-1.9.69-2.87,1.25-4.07,2.77-8.09,4.21-12.16.18-.51.23-.83,0-.88-.23-.05-.79.14-1.48.42-.37.14-1.67.55-2.41.69-1.02.23-2.64.28-2.64-.32,0-.18.23-.23.65-.37.69-.23,3.65-1.11,6.1-2.41.56-.28.74-.6.92-.88.09-.14.23-.37.42-.56.42-.46,1.29-1.2,1.71-1.2.46,0,.69.6.74,1.2Z"/>
    <path class="cls-2" d="M23.56,23.61c0,.79-1.16,1.8-2.27,1.8-.46,0-1.16-.6-1.16-1.2,0-.79.97-2.13,1.85-2.13.79,0,1.57.93,1.57,1.53Z"/>
  </g>
  <rect class="cls-1" width="29.46" height="29.46"/>
</svg>