<?xml version="1.0" encoding="UTF-8"?>
<svg id="_画像" data-name="画像" xmlns="http://www.w3.org/2000/svg" viewBox="0 0 29.46 29.46">
  <defs>
    <style>
      .cls-1 {
        fill: none;
      }

      .cls-2 {
        fill: #cab699;
      }
    </style>
  </defs>
  <g>
    <path class="cls-2" d="M17.39,5.43c.69.69.97,1.76.97,2.22,0,.92-.37,1.71-1.29,2.77-.55.65-2.82,2.22-3.38,2.54-.6.28-.69.6-.23.79,2.17.88,4.3,1.85,4.3,4.39,0,.97-.69,2.54-1.76,3.65-2.22,2.22-5.09,3.61-9.11,3.79h-.69c-.65,0-2.82-.79-2.82-1.85,0-.74,1.25-1.2,1.85-1.11,1.02.14,1.34.42,2.13,1.02.23.19.46.28.79.28,2.64,0,5.13-1.39,6.34-2.54.88-.83,1.67-1.99,1.67-2.82,0-1.11-.79-2.22-2.13-2.91-1.39-.69-2.87-.69-4.12-.69-.51,0-1.62-.14-1.62-.83s.74-.92,1.34-.92c.92,0,3.65-1.06,5.37-2.64,1.43-1.25,1.62-1.99,1.62-2.36,0-1.94-1.76-2.82-3.88-2.82-1.39,0-1.62.37-2.04,1.25-.14.56-.88,1.39-1.25,1.39-.42,0-.92-.74-.92-1.11,0-1.16,1.39-2.54,2.13-2.54.28,0,.6-.14,1.25-.28.65-.09,1.06-.23,1.57-.23,1.76,0,3.28.92,3.93,1.57Z"/>
    <path class="cls-2" d="M26.08,23.42c0,.79-1.16,1.8-2.27,1.8-.46,0-1.16-.6-1.16-1.2,0-.79.97-2.13,1.85-2.13.79,0,1.57.93,1.57,1.53Z"/>
  </g>
  <rect class="cls-1" width="29.46" height="29.46"/>
</svg>