<?xml version="1.0" encoding="UTF-8"?>
<svg id="_画像" data-name="画像" xmlns="http://www.w3.org/2000/svg" viewBox="0 0 29.46 29.46">
  <defs>
    <style>
      .cls-1 {
        fill: none;
      }

      .cls-2 {
        fill: #f29b8f;
      }
    </style>
  </defs>
  <g>
    <path class="cls-2" d="M20.7,4.28c.28.23.51.6.51.88,0,.37-.46.79-1.29,1.06-.51.14-.79,0-1.06-.32-.42-.46-.88-.6-1.57-.6-.88,0-4.16,1.02-7.12,4.12-2.45,2.54-3.79,5.97-3.98,7.86-.05.51.09.74.46.42,2.5-1.94,4.3-3.15,5.97-3.15s3.05.79,3.84,1.94c.51.74.97,1.67.97,2.41,0,1.94-1.66,3.79-2.96,4.99-1.06.97-3.14,1.85-4.25,1.85-1.62,0-3.19-.69-4.44-2.27s-1.39-3.38-1.39-4.67c0-2.59,1.34-6.89,3.98-9.76,2.54-2.77,6.84-5.37,10.54-5.37.6,0,1.39.23,1.8.6ZM9.92,16.95c-1.34.69-2.82,2.13-3.1,2.5-.42.65-.46,1.11-.23,1.8.74,1.8,1.85,2.96,3.61,2.96,1.85,0,5.32-2.22,5.32-5.23,0-1.06-.88-2.82-3.01-2.82-.65,0-1.57.19-2.59.79Z"/>
    <path class="cls-2" d="M25.09,23.98c0,.79-1.16,1.8-2.27,1.8-.46,0-1.16-.6-1.16-1.2,0-.79.97-2.13,1.85-2.13.79,0,1.57.93,1.57,1.53Z"/>
  </g>
  <rect class="cls-1" width="29.46" height="29.46"/>
</svg>