<?xml version="1.0" encoding="UTF-8"?>
<svg id="_画像" data-name="画像" xmlns="http://www.w3.org/2000/svg" viewBox="0 0 29.46 29.46">
  <defs>
    <style>
      .cls-1 {
        fill: none;
      }

      .cls-2 {
        fill: #cab699;
      }
    </style>
  </defs>
  <g>
    <path class="cls-2" d="M19.22,4.35c.88-.23,1.8-.83,2.4-.83.23,0,.42.09.42.32,0,.18-.46.6-1.39,1.2-1.57,1.02-3.38,1.16-6.34,1.16-.83,0-1.11.23-1.85,1.53-.97,1.76-1.67,3.38-1.67,4.16,0,.88.83,1.43,2.45,2.08,2.31,1.02,3.79,1.94,3.79,4.62,0,2.4-2.5,5.09-4.25,6.06-1.67.92-3.24,1.29-4.21,1.29-.46,0-1.57-.23-2.13-.55-.32-.19-.56-.28-1.02-.46-1.25-.6-1.8-1.57-1.8-2.13,0-.6.37-.88,1.02-.88.51,0,1.06.19,1.48.6.51.46.92,1.39,1.16,1.57.23.19.74.42,1.57.42,3.28,0,6.48-2.91,6.48-5.92,0-1.43-.79-2.08-1.39-2.5-.6-.46-2.68-1.29-3.7-1.62-1.06-.28-1.16-.56-1.25-.97-.05-.28-.14-.6,0-1.11.19-.83,1.53-3.75,1.9-4.58.37-.88.65-1.71.83-2.64.09-.51.51-1.02,1.02-1.29.32-.19.6-.14.83.09.37.37.97.69,2.68.69,1.39,0,2.08-.09,2.96-.32Z"/>
    <path class="cls-2" d="M25.83,23.03c0,.79-1.16,1.8-2.27,1.8-.46,0-1.16-.6-1.16-1.2,0-.79.97-2.13,1.85-2.13.79,0,1.57.93,1.57,1.53Z"/>
  </g>
  <rect class="cls-1" width="29.46" height="29.46"/>
</svg>