<?xml version="1.0" encoding="UTF-8"?>
<svg xmlns="http://www.w3.org/2000/svg" width="10mm" height="6.7mm" version="1.1" viewBox="0 0 28.3 19.1">
  <defs>
    <style>
      .cls-1 {
        fill: #464646;
      }
    </style>
  </defs>
  <!-- Generator: Adobe Illustrator 28.7.5, SVG Export Plug-In . SVG Version: 1.2.0 Build 176)  -->
  <g>
    <g id="_文字" data-name="文字">
      <g>
        <g>
          <path class="cls-1" d="M8.3,12.2v.5h-.6c0-.2,0-.3,0-.6v-4c0-.3,0-.4,0-.6.1,0,.3,0,.6,0h3.9c.3,0,.4,0,.6,0,0,.2,0,.3,0,.6v4c0,.2,0,.4,0,.6h-.6v-.5h-3.9ZM12.2,8.1h-3.9v3.6h3.9v-3.6Z"/>
          <path class="cls-1" d="M15,12.3h-.3c-.2,0-.3,0-.4,0v-.6c.2,0,.3,0,.8,0h3.5v-3.5h-3.3c-.5,0-.6,0-.8,0v-.6c.2,0,.4,0,.8,0h3.3c.3,0,.5,0,.6,0v4.3c0,.5,0,.5,0,.7h-.6v-.4h-3.5ZM19,6.8c.3.4.5.7.8,1.1l-.4.2c-.2-.4-.5-.9-.8-1.2l.4-.2ZM19.8,6.4c.3.4.5.7.8,1.1l-.4.2c-.2-.3-.5-.8-.8-1.2l.4-.2Z"/>
        </g>
        <path class="cls-1" d="M14.2,19.1C6.4,19.1,0,14.8,0,9.6S6.4,0,14.2,0s14.2,4.3,14.2,9.6-6.4,9.6-14.2,9.6ZM14.2.4C6.6.4.4,4.5.4,9.6s6.2,9.1,13.7,9.1,13.7-4.1,13.7-9.1S21.7.4,14.2.4Z"/>
      </g>
    </g>
  </g>
</svg>