<?xml version="1.0" encoding="UTF-8"?>
<svg xmlns="http://www.w3.org/2000/svg" width="721.9" height="194.8" version="1.1" viewBox="0 0 721.9 194.8">
  <defs>
    <style>
      .cls-1 {
        fill: #95969e;
      }

      .cls-2 {
        fill: #5f626d;
      }

      .cls-3 {
        fill: #f5b4ab;
      }
    </style>
  </defs>
  <!-- Generator: Adobe Illustrator 28.7.5, SVG Export Plug-In . SVG Version: 1.2.0 Build 176)  -->
  <g>
    <g id="_文字" data-name="文字">
      <g>
        <g>
          <path class="cls-2" d="M107.7,171.3c3-2.3,5.5-5.2,7.3-8.3.9-1.6,1.2-2.3,1.2-2.9s-.4-.9-1.5-1.7c.3,0,.5-.1.7-.1.5,0,1.6.4,2.4,1,1,.7,1.5,1.1,1.5,1.6s0,.4-.4.7c-.6.5-.6.5-1.3,1.4-2.5,3.3-3.8,4.6-6.3,6.5-1.3,1-2.1,1.5-3.5,2.2l-.2-.3ZM123.7,158.2c3.1,1.9,6,4.4,7.8,6.9.9,1.3,1.3,2.1,1.3,3.2s-.5,2.2-1.1,2.2-.5-.2-1-1.4c-1.5-4-3.8-7.4-7.3-10.5l.3-.4Z"/>
          <path class="cls-2" d="M170.5,162.2c-1.6,2.3-2.6,3.4-4.4,5.1-2.7,2.4-5.5,4.4-9,6.1-1.7.9-1.7.9-2.2,1.4-.2.3-.4.4-.7.4-.6,0-2-1.8-2-2.6s0-.1.2-.5c.2-.7.2-1.3.2-4.6,0-6.6-.1-9.5-.5-10.6-.3-.7-.7-1.1-2.1-1.5.4-.2.6-.3.9-.3.6,0,1.5.3,2.4.7,1.2.6,1.8,1.2,1.8,1.8s0,.2-.1.6c-.1.5-.3,1.6-.4,2.9-.1,1.8-.3,7.2-.3,9.4v1.5c4.3-1.6,6.9-3,10.2-5.3,2.3-1.6,4.3-3.4,5.8-5l.4.4Z"/>
          <path class="cls-2" d="M197.9,175.3c3.2-1,5.3-2.2,7-4.1,1.8-2,2.7-4.4,2.7-7.2s-1.2-5.2-3.4-6.6c-1.3-.9-3.3-1.4-5.2-1.4s-.6,0-1,0c.7,1,.9,1.6.9,2.5,0,2.3-1.7,6.7-3.9,10.3-1.9,3-3.3,4.4-4.4,4.4s-1-.2-1.3-.6c-.3-.4-.3-.5-.8-1.9-.3-.8-.4-1.1-1.3-2.8-.5-1-.7-1.8-.7-2.7,0-1.9,1-4.1,2.7-5.9,2.4-2.6,6.3-4.2,10.3-4.2s5.8,1,7.7,2.7c1.9,1.8,2.9,4.1,2.9,7s-2.2,7-5.9,9c-1.7.9-3.3,1.4-5.8,1.8l-.2-.5ZM188.1,166c0,1.4.4,2.9,1.2,3.9.4.5.8.9,1.1.9.7,0,2.1-1.6,3.5-3.9,2.2-3.5,3.8-7.4,3.8-9.2s0-.7-.4-1.5c-5.2.9-9.2,5.2-9.2,9.8Z"/>
          <path class="cls-2" d="M228.4,157c0-2.2,0-3,0-4.9,1,.6,1.4.8,2.4,1.5h12.5c.5-.6.7-.8,1.2-1.3.8.6,1.1.7,1.9,1.3.2.2.3.3.3.4,0,.2-.3.4-1,.8v9.4c0,2.3,0,6.4.2,12.3h0c0,.2,0,.4-.2.4-.2,0-1.1.2-1.6.2s-.5,0-.5-.2h0v-2.1h-12.9v2c0,.1,0,.2,0,.3-.2.1-1,.3-1.8.3s-.4,0-.4-.4c.1-2.7.1-3.1.1-9.4v-10.6ZM243.4,154.3h-12.9v9.4h12.9v-9.4ZM230.5,164.3v9.9h12.9v-9.9h-12.9Z"/>
          <path class="cls-2" d="M269,164.9c0,.2-.5,1.9-1.2,5-.4,1.6-.5,2-.5,2.8s0,1,0,1.2c-.1.3-.3.5-.6.5-.5,0-.9-.4-1.2-1.1-.6-1.4-.9-3.6-.9-5.7s0-1.8.2-2.9q.2-1.6.9-5.1c.3-1.3.4-1.9.4-2.5,0-.9-.2-1.6-.8-2.5.6,0,1.1.4,1.8,1.3.7.8,1,1.5,1,2.1s0,.5-.6,1.6c-.5,1.1-1.2,3-1.4,4.3-.2,1-.3,2.2-.3,3.3s.1,2.4.5,3.5c.5-.9.7-1.5,1-2.3l1.4-3.8h.4ZM272.4,166.2c0,.5,0,.8,0,1.1,0,3,1.7,4.2,5.8,4.2s1.6,0,2.3-.2q.6,0,1.4-.4c.2,0,.3,0,.4,0,.7,0,1.7.9,1.7,1.6s-.2.5-.6.7c-.6.2-1.9.3-3.4.3-3.4,0-5.7-.6-6.9-1.6-1-.9-1.4-2-1.4-3.5s0-1.3.3-2.1h.5ZM272.3,157.7c.9.6,1.5.7,2.5.7,1.7,0,4.3-.6,5.4-1.2.3-.2.4-.2.6-.2s.6.1.9.4c.6.3.8.6.8,1s-.2.5-.7.6c-1.8.3-2.8.5-3.8.9-.8.3-2.4,1.2-3.5,1.9l-.3-.3c1.2-1,2.1-1.8,2.5-2.1-.6,0-.9,0-1.1,0-1.5,0-2.5-.4-3.6-1.5l.2-.3Z"/>
          <path class="cls-2" d="M318.1,162.1l1.9-2.3c1.3,1.1,1.7,1.5,3,2.6,0,0,.1.2.1.2,0,0-.1.2-.3.2h-11.4v12.9h8.7c.8-1.1,1.1-1.4,1.9-2.4,1.4,1.1,1.8,1.5,3.1,2.7,0,0,.1.2.1.2,0,0-.1.2-.2.2h-24.1c-.9,0-1.6,0-2.5.2l-.2-1.2c1.1.2,1.5.2,2.7.2h8.4v-20.5c0-1.7,0-2.6-.2-3.6.7,0,1.3.2,1.6.2,1.6.2,1.9.3,1.9.5s-.3.4-1.1.6v9.2h6.7Z"/>
          <path class="cls-2" d="M349.2,156.6c0,1.3,0,2.4,0,3.3v.7c0,.2,0,.3-.1.4-.1,0-.7.1-1.3.1s-.5,0-.5-.3h0q0-1.2,0-4.2h-3.8c-.4,2.7-1.6,4.5-4.1,6.3l-.3-.3c1.2-1.2,1.8-2.4,2.2-4.1.3-1.1.4-2.5.4-4.5s0-1,0-1.9c1,.5,1.3.7,2.2,1.4,1.3-.3,2.7-.9,4.2-1.6.7-.4,1-.5,1.7-1.1,1.9,1.2,2.5,1.6,2.5,1.8s-.2.3-.5.3-.4,0-1,0c-2.1.6-4.5,1-7.2,1.4v.3c0,.4,0,1,0,1.4h6.1c.6-.7.8-.9,1.4-1.5.9.8,1.1,1,2,1.9,0,0,0,0,0,.1,0,0-.1.2-.2.2h-3.8ZM339.9,177.6c4-.9,7.5-2.4,9-3.8,2.3.7,2.9,1,2.9,1.3s-.2.3-.6.3h-.3c-.2,0-.3,0-.6,0-3.3,1.5-6.2,2.3-10.3,2.8v-.5ZM346.8,173.6c0,.2,0,.3-.2.3-.2,0-.9.2-1.5.2s-.5,0-.5-.3c.1-2.4.1-4.9.1-8.8s0-2.7-.1-4.2c1,.4,1.3.6,2.3,1.1h12.4c.4-.4.5-.6.9-1.1.8.5,1,.7,1.8,1.2.2.1.3.3.3.4,0,.2-.3.4-.9.8,0,4.7,0,8.1.1,10.3h0c0,.3,0,.4-.3.4-.3,0-1,.1-1.4.1s-.4,0-.4-.2v-.8h-12.6v.6ZM359.4,165.1v-2.5h-12.6v2.5h12.6ZM346.8,165.8v2.8h12.6v-2.8h-12.6ZM346.8,169.3v3h12.6v-3h-12.6ZM355.6,156.6c-.2.9-.4,1.3-.8,1.9-.9,1.3-2,2.2-3.9,2.9l-.2-.3c1.8-1.4,2.4-2.1,2.8-3.5.3-1.1.6-3,.6-4.6s0-.5,0-1.1c1,.5,1.3.7,2.3,1.4,1.1-.2,3-.8,5-1.7,1-.5,1.3-.6,1.8-1.1,1.8,1,2.6,1.6,2.6,1.9s-.1.3-.4.3-.2,0-1.2-.2c-2.3.7-3.8.9-8.2,1.5,0,.2,0,.4,0,.5,0,.7,0,.9-.2,1.3h7.4q.7-.7,1.5-1.6c1,.8,1.3,1,2.1,1.8,0,0,.1.1.1.2,0,0-.1.2-.2.2h-5.5c0,.4,0,1.6,0,3.3,0,.1,0,.2-.1.3-.1,0-.9.2-1.4.2s-.4,0-.4-.3q0-.8,0-2.2c0-.4,0-.8,0-.9v-.3h-3.8ZM355.4,174c4.1.5,7.2,1,7.8,1.2.8.4,1.4,1.2,1.4,2.2s-.2.7-.6.7-.3,0-1.2-.6c-.7-.5-2.8-1.5-4.3-2-.6-.2-1.2-.4-3.2-1v-.4Z"/>
          <path class="cls-2" d="M382,157.9c1.3,1.2,2,1.6,3.4,1.6s1.4-.1,2.4-.3c.7-1.7,1-2.9,1-3.8s-.4-1.4-1.7-2.1c.3-.2.4-.2.6-.2.5,0,1.4.2,2.1.6.9.5,1.3.7,1.3,1.1s0,.4-.3.7c-.1.2-.7,1.3-1.6,3.3,2-.7,2.2-.8,3-1.5.2-.2.3-.2.6-.2,1,0,1.8.3,1.8.8,0,.7-1.7,1.4-5.9,2.4-.2.5-.7,1.6-1.4,3.2-.8,1.9-2.9,6.4-3.1,6.8-.4.7-.6,1-1,1-.5,0-.8-.8-.8-1.9s0-.7.3-1c.6-.6.9-1,1.3-1.6,1.3-2,2.3-3.8,3.4-6.3-.6,0-.8.1-1.3.1-1,0-1.7-.2-2.4-.6-.8-.5-1.4-1.1-2-2l.3-.2ZM396.2,159.4c1.9.2,3.4.6,4.6,1.5,1,.7,1.7,1.5,1.7,2.1s-.3.8-.7.8-.4,0-.6-.2c-.8-.5-1.3-.6-2.6-.6-2.1,0-2.8.6-2.8,2.4s.1,1.9.5,4.6c1.6.5,3,1.1,3.8,1.7.7.6,1.1,1.3,1.1,2.1s-.2.9-.5.9-.4,0-.9-.7c-1-1-1.9-1.7-3.2-2.4v.5c0,1.1-.2,1.7-.8,2.3-.7.7-2,1.2-3.5,1.2-2.4,0-4.1-1.2-4.1-2.8s2-3.2,5-3.2.9,0,1.6.1c0-2.1,0-2.3,0-2.7,0-2.2.2-3,.9-3.8.5-.6,1.3-.9,2.5-1.3.4-.1.5-.1,1.4-.3-.7-.8-1.6-1.2-3.5-1.8v-.4ZM394.7,171.1c-.8-.2-1.4-.3-2.3-.3-2.3,0-3.7.8-3.7,2s1,1.6,2.7,1.6,3.3-.9,3.3-2.6v-.7Z"/>
          <path class="cls-2" d="M419.8,176.4c4.7-4,7.2-7,9.8-11.4,1.9-3.3,3.5-6.9,3.5-8s-.1-.4-.6-.4-3.3.5-5.5,1c-2.2.5-4.1,1.1-5.5,1.7-.4.2-.8.3-1.1.3-.6,0-1.4-.6-2.1-1.6-.5-.7-.8-1.3-.8-1.8s0-.3.2-.6c.5,1.1,1.5,1.7,2.8,1.7s3.4-.4,8.5-1.2c2.6-.4,2.8-.5,3.5-.8q.4-.2.6-.2c.4,0,1.3.5,2.2,1.4.6.6.9,1.1.9,1.4s0,.4-.4.8c-.4.4-.5.6-1,1.6-2.4,4.9-5.5,9.1-8.6,12.1-1.9,1.7-3.6,3-6.1,4.4l-.3-.4Z"/>
          <path class="cls-2" d="M453.7,174.5c1.4-1,3.3-2.5,4.7-3.9,1.8-1.7,3.7-4,5.5-6.6q-.5,0-2.7.6c-1,.2-2.1.5-3.1.9-.3.1-.5.1-.7.1-.5,0-1.1-.3-1.6-1-.5-.6-.8-1.2-.8-1.6s0-.2.1-.4c.7.9,1.5,1.3,2.5,1.3s1.7,0,4.4-.5c1.4-.2,1.8-.3,3-.4,0-2.6,0-3.2-.3-3.7-.3-.6-.9-1-1.9-1.3.3-.2.4-.3,1-.3s1.7.2,2.6.5c.6.2.9.6.9,1.1s0,.2-.2.7q-.2.5-.4,2.6c1.5-.2,2.2-.4,3.1-.7.5-.2.7-.3.9-.3.3,0,1,.3,1.5.7.4.2.6.6.6.8s-.2.4-.7.4-.4,0-1.3,0c-.3,0-.6,0-1,0-1.2,0-2.3,0-3.3.2v.8c0,2.2.2,6.4.4,8.6,0,.3,0,1,0,1.1,0,.8-.2,1.7-.6,2.4-.2.4-.6.7-.9.7s-.5-.2-.7-.7c-.2-.5-.4-.7-1-1.1,0,0-1.1-.6-3.1-1.8v-.4c1.4.4,3.1.8,4.5,1,0-1.5,0-2,0-3s0-1.4,0-2.4c0-1.2,0-2.1,0-2.7s0-.6,0-1c-1.8,2.6-3.5,4.4-5.9,6.4-1.7,1.4-3,2.2-5.3,3.5l-.3-.4Z"/>
          <path class="cls-2" d="M491.9,163c.7.6,1.3.7,2.9.7s.3,0,3.7,0c1.2,0,10.6-.2,11.6-.2,2.7,0,3.3,0,3.9.3.3.1.4.3.4.6s-.3.7-.7.8c-.8.3-1.5.3-7.2.4-2.8,0-9.6.2-10.6.3-1.4,0-1.7.1-2.1.4-.1,0-.3,0-.4,0-.4,0-.9-.3-1.4-1-.6-.8-1.1-2-1.1-2.7s0-.5.2-.7c.4.7.5.9.9,1.2Z"/>
          <path class="cls-2" d="M537.6,165.1c2.4,1.2,3.5,1.8,5,3,3.6-3.5,5.2-5.2,6.8-7.2.7-.9,1-1.3,1-1.4s-.2-.2-.5-.2c-1.4,0-5.5.6-9.2,1.3-3.4.7-4.6,1-5.9,1.6-.4.2-.6.2-.8.2-.5,0-1.3-.6-2-1.5-.7-.9-1-1.7-1-2.3s0-.4.2-.7c.4.7.8,1.1,1.4,1.5.5.3.9.4,1.8.4,1.4,0,4-.3,9.9-1.1,2.8-.4,4.3-.6,4.6-.6q.5,0,1-.4c.2-.1.5-.2.7-.2.5,0,1.1.4,2.1,1.4.9.9,1.3,1.5,1.3,1.8s-.1.5-.4.6q-.2,0-.7.3c-.4.1-.8.4-1.7,1.1-.3.2-1,.8-2.2,1.6-.6.5-1.5,1.1-2.5,1.9-1.5,1.2-2.1,1.6-3.1,2.3,2,1.7,2.6,2.5,2.6,3.8s-.4,2-1,2-.7-.2-1-1.1c-.5-1.2-1.8-3-2.9-4.4-1-1.1-1.8-2-3.5-3.4l.3-.4Z"/>
          <path class="cls-2" d="M567.8,174.7c1.6-1.5,2.8-3.2,4-5.7,1.1-2.4,2.1-6,2.1-8.1s-.5-1.8-2-2.3c.3-.2.5-.3.8-.3.7,0,1.4.2,2.2.7,1.1.7,1.6,1.2,1.6,1.6s0,.5-.4,1.4q0,.1-.3,1c-1,3.1-1.2,3.9-2,5.5-1.4,2.8-3.1,4.7-5.6,6.4l-.3-.3ZM593.2,162.8c-.9,1.6-1.7,2.6-3.2,4.2-1.7,1.8-4.5,4.2-6.3,5.5-.6.4-1.4,1.1-1.7,1.3-.2.2-.4.3-.6.3-.7,0-1.8-1.5-1.8-2.5s0-.4.2-.9c.2-.7.3-3.3.3-8.1,0-6.8-.1-7.2-2.3-7.6.3-.4.5-.4,1-.4.7,0,1.6.3,2.6.9.9.5,1.2,1,1.2,1.4s0,.3-.2.8c-.1.4-.3,1.4-.4,2.9-.1,1.3-.4,7.8-.4,9s0,.7,0,1.4c3.5-1.3,7.8-4.6,11.3-8.4l.4.3Z"/>
          <path class="cls-2" d="M608.7,157.1c1.3,1,1.9,1.3,3.4,1.3s1.6-.1,2.9-.4c.6-1.2.9-2.1.9-2.7s-.5-1.2-1.9-1.5c.5-.2.7-.3,1.2-.3s1.4.2,2.1.5c.7.3,1,.6,1,.9s-.1.4-.4.8c-.2.3-.6.8-.8,1.1q-.5.8-.7,1c2.3-.6,3-1,3.9-1.7.2-.1.3-.2.5-.2,1,0,1.8.4,1.8.9s-.3.6-1.2.9c-2.4.8-3.7,1.1-5.8,1.5-.5.7-.8,1.2-1.4,2.1-.7,1.1-.9,1.4-1.4,2.1,1.5-.8,2.4-1.1,3.5-1.1,1.6,0,2.8,1.1,3,2.7q.5-.2,2.6-1.3c2.7-1.3,3.3-1.8,3.3-2.3s-.5-.9-1.2-1.3c.3-.1.4-.2.6-.2,1.2,0,3,1.6,3,2.7s-.2.7-1,.8c-1.6.4-5.1,1.7-7.2,2.8,0,.9,0,1,0,2.2s0,2-.2,2.3c-.1.3-.4.5-.8.5-.5,0-.9-.3-.9-.8s0-.3,0-.5c.1-.8.2-1.7.2-2.9-1.7.9-2.4,1.4-3.1,2.1-.9.9-1.3,1.7-1.3,2.5,0,1.4,1.5,2.1,4.5,2.1s3.8-.3,5.4-.8c.2,0,.4,0,.5,0,.8,0,1.9.8,1.9,1.3s-.3.6-.8.7c-1.1.2-3.1.4-4.8.4-2.5,0-4.4-.3-5.4-.8-1.4-.6-2-1.5-2-2.8s.6-2.4,1.9-3.7c.7-.7,1.6-1.3,3.3-2.4,0-1.1-.1-1.6-.4-2.1-.2-.5-.8-.8-1.4-.8-1.8,0-3.9,1.4-5.8,3.9-.5.7-.7.9-1,.9-.4,0-.7-.6-.7-1.4s0-.6.8-1.2c1.9-1.5,3.1-2.9,5-5.8-.9.1-1.2.2-1.8.2-1.8,0-2.8-.5-4-2.1l.3-.2Z"/>
        </g>
        <path class="cls-3" d="M182.1,194.8c-43.9,0-77.9-5.2-78.3-5.3l.2-1.3c.5,0,47,7.2,101.6,4.7,54.6-2.5,79.2-11.5,79.4-11.6l.5,1.2c-.2,0-25,9.2-79.8,11.7-8.1.4-15.9.5-23.5.5h0Z"/>
      </g>
      <g>
        <g>
          <g>
            <path class="cls-3" d="M77.9,24.4l-5.8,25.3h-2.1l-.2-6.3c-.2-2.3-.6-4.4-1.3-6.2-.7-1.8-1.7-3.4-3.1-4.7-1.4-1.3-3.1-2.4-5.2-3.1-2.1-.7-4.5-1.1-7-1.1-6.9,0-12.9,1.9-18,5.6-6.6,4.8-11.7,11.6-15.4,20.3-3.1,7.2-4.6,14.5-4.6,21.9s2.2,13.6,6.6,18.1c4.4,4.5,10.1,6.8,17.2,6.8s10.1-1.2,14.2-3.6c4.2-2.4,8-6,11.6-11h2.7c-4.2,6.7-8.9,11.7-14,14.8-5.1,3.2-11.3,4.7-18.5,4.7s-12-1.3-16.9-4c-4.9-2.7-8.7-6.4-11.2-11.2-2.6-4.8-3.9-10-3.9-15.6,0-8.5,2.3-16.8,6.8-24.9,4.6-8.1,10.8-14.4,18.8-19,8-4.6,16-6.9,24.1-6.9s8.1.9,12.8,2.7c2.1.8,3.6,1.2,4.5,1.2s1.7-.2,2.4-.6c.7-.4,1.8-1.5,3.5-3.3h2.1Z"/>
            <path class="cls-3" d="M86.4,82.5c-.3,1.9-.4,3.5-.4,4.8,0,3.4,1.2,6.3,3.6,8.7,2.4,2.4,5.4,3.6,8.8,3.6s5.4-.6,8-1.7c2.5-1.1,6.3-3.6,11.4-7.5l1.2,1.7c-9.1,9-17.8,13.5-26,13.5s-9.8-1.8-12.7-5.3c-2.8-3.5-4.3-7.4-4.3-11.7s1.8-11.6,5.3-17.5c3.5-6,8-10.6,13.3-14,5.3-3.3,10.8-5,16.5-5s7.1.8,9,2.5c2,1.6,2.9,3.6,2.9,5.9s-1.3,6.2-3.8,9.1c-3.3,3.8-8.2,6.9-14.7,9.2-4.3,1.6-10.3,2.8-18.1,3.7ZM86.8,79.7c5.7-.7,10.3-1.8,13.9-3.3,4.7-2.1,8.3-4.6,10.6-7.6,2.4-2.9,3.5-5.7,3.5-8.4s-.5-2.9-1.5-3.9c-1-1-2.5-1.5-4.3-1.5-3.9,0-8.1,2.1-12.5,6.2-4.4,4.2-7.6,10.3-9.7,18.4Z"/>
            <path class="cls-3" d="M134.4,55.4l19.9-3.2-8.3,28c6.7-11.5,12.8-19.5,18.3-24.1,3.1-2.6,5.6-3.9,7.6-3.9s2.3.4,3,1.1c.7.7,1.1,1.8,1.1,3.2,0,2.5-.7,4.9-2,7.3-.9,1.7-2.2,2.6-4,2.6s-1.6-.3-2.3-.9c-.6-.6-1-1.5-1.2-2.6,0-.7-.2-1.2-.5-1.4-.3-.3-.7-.5-1.1-.5-.7,0-1.3.2-1.8.5-1,.5-2.5,2-4.5,4.5-3.2,3.8-6.6,8.6-10.4,14.6-1.6,2.5-3,5.4-4.1,8.6-1.6,4.4-2.5,7-2.8,7.9l-1.8,7.2h-8.8l10.6-35.7c1.2-4.1,1.8-7.1,1.8-8.9s-.3-1.3-.9-1.7c-.8-.6-1.8-.9-3-.9s-2.3.2-4.4.5l-.4-2.1Z"/>
            <path class="cls-3" d="M190.5,82.5c-.3,1.9-.4,3.5-.4,4.8,0,3.4,1.2,6.3,3.6,8.7,2.4,2.4,5.4,3.6,8.8,3.6s5.4-.6,8-1.7c2.5-1.1,6.3-3.6,11.4-7.5l1.2,1.7c-9.1,9-17.8,13.5-26,13.5s-9.8-1.8-12.7-5.3c-2.8-3.5-4.3-7.4-4.3-11.7s1.8-11.6,5.3-17.5c3.5-6,8-10.6,13.3-14,5.3-3.3,10.8-5,16.5-5s7.1.8,9,2.5c2,1.6,2.9,3.6,2.9,5.9s-1.3,6.2-3.8,9.1c-3.3,3.8-8.2,6.9-14.7,9.2-4.3,1.6-10.3,2.8-18.1,3.7ZM190.9,79.7c5.7-.7,10.3-1.8,13.9-3.3,4.7-2.1,8.3-4.6,10.6-7.6,2.4-2.9,3.5-5.7,3.5-8.4s-.5-2.9-1.5-3.9c-1-1-2.5-1.5-4.3-1.5-3.9,0-8.1,2.1-12.5,6.2-4.4,4.2-7.6,10.3-9.7,18.4Z"/>
            <path class="cls-3" d="M255.5,52.1l-7.5,26c3.3-6.1,6.2-10.7,8.5-13.8,3.6-4.8,7.2-8.2,10.6-10.4,2-1.2,4.2-1.8,6.4-1.8s3.5.6,4.8,1.8c1.3,1.2,1.9,2.8,1.9,4.7s-.4,4.3-1.3,7.4l-4.1,14.6c6.3-11.7,12.2-19.9,17.8-24.6,3.1-2.6,6.2-3.9,9.2-3.9s3.2.6,4.3,1.8c1.1,1.2,1.7,3.1,1.7,5.6s-.3,4.6-1,7.1l-6.3,22.4c-1.4,4.9-2.1,7.6-2.1,8.1s.2,1,.5,1.4c.2.3.5.4.9.4s1.1-.4,2-1.1c2.2-1.7,4.2-3.9,6.2-6.7l1.9,1.2c-1,1.5-2.7,3.6-5.1,6.3-2.4,2.7-4.5,4.5-6.2,5.5-1.7,1-3.3,1.4-4.8,1.4s-2.5-.5-3.4-1.4c-.9-.9-1.4-2.1-1.4-3.4s.8-5.5,2.4-11.1l5.2-18.5c1.2-4.3,1.8-6.6,1.9-7.1.1-.7.2-1.4.2-2.1s-.2-1.7-.6-2.2c-.5-.5-1-.8-1.6-.8-1.6,0-3.3.8-5.1,2.5-5.3,4.9-10.2,11.7-14.8,20.5-3,5.8-5.9,13.2-8.5,22.3h-8.7l9.8-34.8c1.1-3.8,1.6-6.3,1.6-7.5s-.2-1.8-.6-2.3c-.4-.5-.9-.7-1.6-.7-1.3,0-2.6.5-4,1.4-2.3,1.5-5.3,4.7-8.9,9.6-3.6,4.9-6.4,9.6-8.4,14.1-1,2.1-3.2,8.9-6.8,20.3h-8.5l10.6-37.3,1.4-4.8c.3-.7.4-1.3.4-1.6,0-.8-.4-1.6-1.2-2.3-.8-.7-1.7-1-2.9-1s-1.9.2-4.1.7l-.5-2.1,19.9-3.6Z"/>
            <path class="cls-3" d="M370.7,70.1c0,5.8-1.5,11.4-4.6,17.1-3.1,5.6-7.3,10.1-12.7,13.4-5.4,3.3-10.7,4.9-15.9,4.9s-9.5-1.7-12.9-5c-3.3-3.4-5-7.7-5-13s1.6-11.3,4.9-17c3.2-5.7,7.6-10.2,13-13.5,5.4-3.3,10.7-4.9,15.7-4.9s9.2,1.7,12.5,5c3.3,3.3,4.9,7.7,4.9,13ZM361.2,66.2c0-3.6-.9-6.3-2.6-8.2-1.7-1.9-4-2.8-6.8-2.8-5.6,0-10.8,4-15.6,12.1-4.7,8.1-7.1,16.1-7.1,24.1s.9,6.5,2.8,8.4c1.8,2,4.2,3,7,3,5.4,0,10.5-4,15.2-12.1,4.7-8,7.1-16.2,7.1-24.5Z"/>
            <path class="cls-3" d="M403.5,52.1l-7.7,26.2c7.2-10.7,12.7-17.7,16.5-21.1,3.8-3.4,7.5-5.1,11-5.1s3.5.6,4.7,1.9c1.2,1.3,1.9,2.9,1.9,4.9s-.6,5.4-1.7,9.2l-7,24.2c-.8,2.8-1.2,4.5-1.2,5.1s.2,1,.5,1.4c.3.4.6.5,1,.5s1-.2,1.7-.7c2-1.6,4.3-4.1,6.7-7.4l1.8,1.1c-3.6,5.1-6.9,8.7-10.1,10.9-2.2,1.5-4.2,2.2-6,2.2s-2.6-.4-3.4-1.3c-.8-.9-1.3-2-1.3-3.5s.7-5,2-9.5l6.7-23.1c.8-2.9,1.3-5.1,1.3-6.7s-.2-1.4-.7-1.9c-.5-.5-1.1-.7-1.8-.7-1.1,0-2.4.5-3.9,1.4-2.8,1.7-5.8,4.6-8.9,8.5-3.1,4-6.3,9-9.7,15.2-1.8,3.3-3.3,6.8-4.5,10.7l-2.9,9.5h-8.6l10.5-36c1.2-4.3,1.8-6.9,1.8-7.8s-.3-1.6-1-2.2c-.7-.6-1.5-.9-2.5-.9s-1.3,0-2.4.2l-2.2.3-.3-2.1,19.9-3.6Z"/>
            <path class="cls-3" d="M457.6,52.1c1.3,2.2,2.2,4.3,2.7,6.2.5,1.9,1,5.7,1.5,11.4l2.5,28.3c2.3-2.8,5.6-7.1,10-13.1,2.1-2.9,4.7-6.9,7.8-11.9,1.9-3.1,3-5.2,3.5-6.4.2-.6.3-1.2.3-1.9s-.1-.8-.4-1c-.3-.3-1-.6-2.1-1-1.1-.4-2.1-1-2.8-2-.7-1-1.1-2.1-1.1-3.4s.5-2.8,1.4-3.8c.9-1,2.1-1.4,3.5-1.4s3.1.7,4.3,2.1c1.2,1.4,1.8,3.3,1.8,5.8s-1,6.5-3.1,10.4c-2.1,3.9-6.1,9.9-12,17.9-5.9,8.1-13.1,16.8-21.5,26.4-5.8,6.6-10.1,10.7-12.9,12.4s-5.2,2.6-7.2,2.6-2.2-.5-3.1-1.4c-.9-.9-1.4-1.9-1.4-3.1s.6-2.9,1.9-4.1c1.2-1.2,2.6-1.8,4.1-1.8s1.4.2,1.9.5c.3.2.6.7,1,1.6.4.9.7,1.5,1,1.8.2.2.4.3.7.3s.6-.2,1.2-.6c2.1-1.3,4.6-3.4,7.4-6.2,3.7-3.8,6.4-6.8,8.2-9.2l-3.2-36.5c-.5-6-1.3-9.7-2.4-11-1.1-1.3-2.9-2-5.4-2s-2.2.1-4.3.3l-.5-2.1,16.9-4.1Z"/>
          </g>
          <g>
            <path class="cls-3" d="M77.9,24.4l-5.8,25.3h-2.1l-.2-6.3c-.2-2.3-.6-4.4-1.3-6.2-.7-1.8-1.7-3.4-3.1-4.7-1.4-1.3-3.1-2.4-5.2-3.1-2.1-.7-4.5-1.1-7-1.1-6.9,0-12.9,1.9-18,5.6-6.6,4.8-11.7,11.6-15.4,20.3-3.1,7.2-4.6,14.5-4.6,21.9s2.2,13.6,6.6,18.1c4.4,4.5,10.1,6.8,17.2,6.8s10.1-1.2,14.2-3.6c4.2-2.4,8-6,11.6-11h2.7c-4.2,6.7-8.9,11.7-14,14.8-5.1,3.2-11.3,4.7-18.5,4.7s-12-1.3-16.9-4c-4.9-2.7-8.7-6.4-11.2-11.2-2.6-4.8-3.9-10-3.9-15.6,0-8.5,2.3-16.8,6.8-24.9,4.6-8.1,10.8-14.4,18.8-19,8-4.6,16-6.9,24.1-6.9s8.1.9,12.8,2.7c2.1.8,3.6,1.2,4.5,1.2s1.7-.2,2.4-.6c.7-.4,1.8-1.5,3.5-3.3h2.1Z"/>
            <path class="cls-3" d="M86.4,82.5c-.3,1.9-.4,3.5-.4,4.8,0,3.4,1.2,6.3,3.6,8.7,2.4,2.4,5.4,3.6,8.8,3.6s5.4-.6,8-1.7c2.5-1.1,6.3-3.6,11.4-7.5l1.2,1.7c-9.1,9-17.8,13.5-26,13.5s-9.8-1.8-12.7-5.3c-2.8-3.5-4.3-7.4-4.3-11.7s1.8-11.6,5.3-17.5c3.5-6,8-10.6,13.3-14,5.3-3.3,10.8-5,16.5-5s7.1.8,9,2.5c2,1.6,2.9,3.6,2.9,5.9s-1.3,6.2-3.8,9.1c-3.3,3.8-8.2,6.9-14.7,9.2-4.3,1.6-10.3,2.8-18.1,3.7ZM86.8,79.7c5.7-.7,10.3-1.8,13.9-3.3,4.7-2.1,8.3-4.6,10.6-7.6,2.4-2.9,3.5-5.7,3.5-8.4s-.5-2.9-1.5-3.9c-1-1-2.5-1.5-4.3-1.5-3.9,0-8.1,2.1-12.5,6.2-4.4,4.2-7.6,10.3-9.7,18.4Z"/>
            <path class="cls-3" d="M134.4,55.4l19.9-3.2-8.3,28c6.7-11.5,12.8-19.5,18.3-24.1,3.1-2.6,5.6-3.9,7.6-3.9s2.3.4,3,1.1c.7.7,1.1,1.8,1.1,3.2,0,2.5-.7,4.9-2,7.3-.9,1.7-2.2,2.6-4,2.6s-1.6-.3-2.3-.9c-.6-.6-1-1.5-1.2-2.6,0-.7-.2-1.2-.5-1.4-.3-.3-.7-.5-1.1-.5-.7,0-1.3.2-1.8.5-1,.5-2.5,2-4.5,4.5-3.2,3.8-6.6,8.6-10.4,14.6-1.6,2.5-3,5.4-4.1,8.6-1.6,4.4-2.5,7-2.8,7.9l-1.8,7.2h-8.8l10.6-35.7c1.2-4.1,1.8-7.1,1.8-8.9s-.3-1.3-.9-1.7c-.8-.6-1.8-.9-3-.9s-2.3.2-4.4.5l-.4-2.1Z"/>
            <path class="cls-3" d="M190.5,82.5c-.3,1.9-.4,3.5-.4,4.8,0,3.4,1.2,6.3,3.6,8.7,2.4,2.4,5.4,3.6,8.8,3.6s5.4-.6,8-1.7c2.5-1.1,6.3-3.6,11.4-7.5l1.2,1.7c-9.1,9-17.8,13.5-26,13.5s-9.8-1.8-12.7-5.3c-2.8-3.5-4.3-7.4-4.3-11.7s1.8-11.6,5.3-17.5c3.5-6,8-10.6,13.3-14,5.3-3.3,10.8-5,16.5-5s7.1.8,9,2.5c2,1.6,2.9,3.6,2.9,5.9s-1.3,6.2-3.8,9.1c-3.3,3.8-8.2,6.9-14.7,9.2-4.3,1.6-10.3,2.8-18.1,3.7ZM190.9,79.7c5.7-.7,10.3-1.8,13.9-3.3,4.7-2.1,8.3-4.6,10.6-7.6,2.4-2.9,3.5-5.7,3.5-8.4s-.5-2.9-1.5-3.9c-1-1-2.5-1.5-4.3-1.5-3.9,0-8.1,2.1-12.5,6.2-4.4,4.2-7.6,10.3-9.7,18.4Z"/>
            <path class="cls-3" d="M255.5,52.1l-7.5,26c3.3-6.1,6.2-10.7,8.5-13.8,3.6-4.8,7.2-8.2,10.6-10.4,2-1.2,4.2-1.8,6.4-1.8s3.5.6,4.8,1.8c1.3,1.2,1.9,2.8,1.9,4.7s-.4,4.3-1.3,7.4l-4.1,14.6c6.3-11.7,12.2-19.9,17.8-24.6,3.1-2.6,6.2-3.9,9.2-3.9s3.2.6,4.3,1.8c1.1,1.2,1.7,3.1,1.7,5.6s-.3,4.6-1,7.1l-6.3,22.4c-1.4,4.9-2.1,7.6-2.1,8.1s.2,1,.5,1.4c.2.3.5.4.9.4s1.1-.4,2-1.1c2.2-1.7,4.2-3.9,6.2-6.7l1.9,1.2c-1,1.5-2.7,3.6-5.1,6.3-2.4,2.7-4.5,4.5-6.2,5.5-1.7,1-3.3,1.4-4.8,1.4s-2.5-.5-3.4-1.4c-.9-.9-1.4-2.1-1.4-3.4s.8-5.5,2.4-11.1l5.2-18.5c1.2-4.3,1.8-6.6,1.9-7.1.1-.7.2-1.4.2-2.1s-.2-1.7-.6-2.2c-.5-.5-1-.8-1.6-.8-1.6,0-3.3.8-5.1,2.5-5.3,4.9-10.2,11.7-14.8,20.5-3,5.8-5.9,13.2-8.5,22.3h-8.7l9.8-34.8c1.1-3.8,1.6-6.3,1.6-7.5s-.2-1.8-.6-2.3c-.4-.5-.9-.7-1.6-.7-1.3,0-2.6.5-4,1.4-2.3,1.5-5.3,4.7-8.9,9.6-3.6,4.9-6.4,9.6-8.4,14.1-1,2.1-3.2,8.9-6.8,20.3h-8.5l10.6-37.3,1.4-4.8c.3-.7.4-1.3.4-1.6,0-.8-.4-1.6-1.2-2.3-.8-.7-1.7-1-2.9-1s-1.9.2-4.1.7l-.5-2.1,19.9-3.6Z"/>
            <path class="cls-3" d="M370.7,70.1c0,5.8-1.5,11.4-4.6,17.1-3.1,5.6-7.3,10.1-12.7,13.4-5.4,3.3-10.7,4.9-15.9,4.9s-9.5-1.7-12.9-5c-3.3-3.4-5-7.7-5-13s1.6-11.3,4.9-17c3.2-5.7,7.6-10.2,13-13.5,5.4-3.3,10.7-4.9,15.7-4.9s9.2,1.7,12.5,5c3.3,3.3,4.9,7.7,4.9,13ZM361.2,66.2c0-3.6-.9-6.3-2.6-8.2-1.7-1.9-4-2.8-6.8-2.8-5.6,0-10.8,4-15.6,12.1-4.7,8.1-7.1,16.1-7.1,24.1s.9,6.5,2.8,8.4c1.8,2,4.2,3,7,3,5.4,0,10.5-4,15.2-12.1,4.7-8,7.1-16.2,7.1-24.5Z"/>
            <path class="cls-3" d="M403.5,52.1l-7.7,26.2c7.2-10.7,12.7-17.7,16.5-21.1,3.8-3.4,7.5-5.1,11-5.1s3.5.6,4.7,1.9c1.2,1.3,1.9,2.9,1.9,4.9s-.6,5.4-1.7,9.2l-7,24.2c-.8,2.8-1.2,4.5-1.2,5.1s.2,1,.5,1.4c.3.4.6.5,1,.5s1-.2,1.7-.7c2-1.6,4.3-4.1,6.7-7.4l1.8,1.1c-3.6,5.1-6.9,8.7-10.1,10.9-2.2,1.5-4.2,2.2-6,2.2s-2.6-.4-3.4-1.3c-.8-.9-1.3-2-1.3-3.5s.7-5,2-9.5l6.7-23.1c.8-2.9,1.3-5.1,1.3-6.7s-.2-1.4-.7-1.9c-.5-.5-1.1-.7-1.8-.7-1.1,0-2.4.5-3.9,1.4-2.8,1.7-5.8,4.6-8.9,8.5-3.1,4-6.3,9-9.7,15.2-1.8,3.3-3.3,6.8-4.5,10.7l-2.9,9.5h-8.6l10.5-36c1.2-4.3,1.8-6.9,1.8-7.8s-.3-1.6-1-2.2c-.7-.6-1.5-.9-2.5-.9s-1.3,0-2.4.2l-2.2.3-.3-2.1,19.9-3.6Z"/>
            <path class="cls-3" d="M457.6,52.1c1.3,2.2,2.2,4.3,2.7,6.2.5,1.9,1,5.7,1.5,11.4l2.5,28.3c2.3-2.8,5.6-7.1,10-13.1,2.1-2.9,4.7-6.9,7.8-11.9,1.9-3.1,3-5.2,3.5-6.4.2-.6.3-1.2.3-1.9s-.1-.8-.4-1c-.3-.3-1-.6-2.1-1-1.1-.4-2.1-1-2.8-2-.7-1-1.1-2.1-1.1-3.4s.5-2.8,1.4-3.8c.9-1,2.1-1.4,3.5-1.4s3.1.7,4.3,2.1c1.2,1.4,1.8,3.3,1.8,5.8s-1,6.5-3.1,10.4c-2.1,3.9-6.1,9.9-12,17.9-5.9,8.1-13.1,16.8-21.5,26.4-5.8,6.6-10.1,10.7-12.9,12.4s-5.2,2.6-7.2,2.6-2.2-.5-3.1-1.4c-.9-.9-1.4-1.9-1.4-3.1s.6-2.9,1.9-4.1c1.2-1.2,2.6-1.8,4.1-1.8s1.4.2,1.9.5c.3.2.6.7,1,1.6.4.9.7,1.5,1,1.8.2.2.4.3.7.3s.6-.2,1.2-.6c2.1-1.3,4.6-3.4,7.4-6.2,3.7-3.8,6.4-6.8,8.2-9.2l-3.2-36.5c-.5-6-1.3-9.7-2.4-11-1.1-1.3-2.9-2-5.4-2s-2.2.1-4.3.3l-.5-2.1,16.9-4.1Z"/>
          </g>
        </g>
        <g>
          <path class="cls-2" d="M134.1,17.1c1.7-1.7,3.5-3.9,5.1-6.1.5-.7.8-1.2.8-1.4s0-.2-.2-.2c-.5,0-1.6.3-4.5,1.4-4,1.4-4.5,1.6-5.9,2.1,0,1.5,0,2.1,0,3,0,3.3.2,4.9.7,5.7.5.8,1.7,1.2,3.7,1.2s4.6-.3,6-.9c.4-.2.5-.2.7-.2.3,0,.8.2,1.3.5.7.4,1,.9,1,1.4s-.3.7-.8.8c-1.1.3-3.1.4-5.5.4-4.7,0-6.9-.7-7.9-2.5-.7-1.3-1-3.3-1-8.7q-.3.2-1.6.7c-.2,0-.7.3-1.3.6-.3.2-.7.3-1,.5-.5.2-.5.2-.9.5-.4.3-.7.4-1.1.4-.7,0-1.6-.7-2.4-1.7-.6-.7-.9-1.5-.9-2s0-.2,0-.4c1,1.2,1.7,1.7,2.7,1.7s4.1-.9,6.5-1.7c0-6.2,0-6.5-.3-7.4-.3-.9-1-1.5-2.4-1.9.3-.3.6-.4,1.1-.4,1.1,0,2.5.4,3.7,1,.7.4,1,.8,1,1.2s0,.2-.3.8c-.4.9-.7,3-.9,6.1,3.8-1.3,6.1-2.1,7.1-2.4q1.8-.7,2.4-1.2c.3-.3.5-.3.9-.3.6,0,1.6.5,2.6,1.4.7.7,1,1.1,1,1.5s-.2.6-.9.9c-.3.1-1.2.8-3.5,2.7-1.6,1.3-2.7,2.1-4.8,3.5l-.3-.4Z"/>
          <path class="cls-2" d="M182.5,11c-1.8,2.5-2.9,3.8-4.9,5.6-3,2.7-6.2,4.9-10,6.7-1.9,1-1.9,1-2.5,1.6-.3.3-.5.4-.8.4-.7,0-2.2-2-2.2-2.8s0-.2.2-.6c.2-.7.3-1.5.3-5.1,0-7.3-.2-10.5-.6-11.7-.3-.8-.8-1.2-2.3-1.7.4-.3.6-.3,1-.3.7,0,1.7.3,2.6.8,1.3.7,2,1.4,2,2s0,.2-.2.7c-.2.5-.3,1.8-.4,3.3-.2,2-.4,8-.4,10.5v1.7c4.8-1.8,7.7-3.3,11.3-5.9,2.5-1.8,4.8-3.8,6.4-5.6l.4.4Z"/>
          <path class="cls-2" d="M199.8,4c1.5,1.2,2.4,1.6,3.6,1.6,2,0,4.9-.5,7.5-1.3,1.9-.6,2.6-.8,3.5-1.4.2-.1.4-.2.7-.2,1,0,2.6,1,2.6,1.6s-.7.8-2.3,1.1c-4,.8-6.7,1.3-8.6,1.4,1.6.8,2.1,1.3,2.1,2.1s0,.2-.2,1c-.2.6-.3,1.7-.4,2.8,1.8-.3,7.2-1.1,7.8-1.2,1-.2,1.6-.3,2.2-.6.3,0,.5-.2.7-.2.5,0,1.4.3,2.1.8.7.4,1.1.9,1.1,1.3s-.4.6-1,.6h-.4c-.6,0-2.1,0-3,0-3,0-5,.2-9.5.7,0,2,0,2.8,0,3.7,0,2.4,0,3.2.4,3.8.4.8,1.2,1.1,2.7,1.1,2.2,0,4.4-.3,5.8-.9,0,0,.2,0,.4,0,.4,0,1,.3,1.6.7.6.4.8.8.8,1.2s-.3.7-1,.9c-1.1.2-3.1.3-4.6.3-4.2,0-6.1-.6-7-2.2-.6-1.1-.9-2.3-.9-4.6q0-.5,0-2.6v-1.1c-2.5.4-5,1-6.1,1.5-.4.2-.6.2-.8.2-.5,0-1-.2-1.5-.7-.9-.8-1.7-2.1-1.7-2.7s0-.4.2-.6c.9,1.3,1.7,1.8,3,1.8s2.5-.2,6.8-.8c0-.6,0-.6,0-1.1,0-3.8,0-4.4-.8-5-.3,0-.6,0-.7,0-1.7,0-3.1-.4-4-1.2-.4-.3-.7-.7-1.4-1.5l.5-.4Z"/>
          <path class="cls-2" d="M240.2,19.8c.5,0,1.4,0,2.8-.2,4.9-.5,7.7-.7,11.8-.9,3.1-.1,3.3-.1,4.5-.4.4-.1.7-.1.9-.1,1,0,3.1,1.7,3.1,2.5s-.4.7-.9.7-.4,0-1.7-.3c-2.2-.5-4.9-.7-7.7-.7s-9.6.9-11.9,1.9c-.5.2-.7.3-1,.3-.8,0-1.8-.7-2.6-1.9-.6-.8-.9-1.7-.9-2.2s0-.2.2-.6c1.1,1.7,1.8,2,3.5,2ZM241.7,5.5c1.5,1.5,2.3,1.9,4,1.9,2.8,0,7.3-.9,9.1-1.9.3-.1.4-.2.5-.2.4,0,1.2.4,1.8.9.5.4.6.6.6,1,0,.5-.4.7-2.1.9-4.4.6-7.1.9-9,.9s-3.6-.7-5.4-3.2l.4-.3Z"/>
          <path class="cls-2" d="M278.4,11.9c.8.6,1.5.8,3.2.8s.4,0,4.1-.1c1.3,0,11.8-.2,12.9-.2,3,0,3.7,0,4.3.3.3.2.5.4.5.7s-.3.8-.8.9c-.9.3-1.7.3-7.9.4-3.1,0-10.6.2-11.8.3-1.6,0-1.9.1-2.4.4-.1,0-.4,0-.5,0-.5,0-1-.4-1.6-1.1-.7-.9-1.3-2.2-1.3-3s0-.5.3-.8c.4.8.6,1,1,1.3Z"/>
          <path class="cls-2" d="M314.9,25.1c3.2-2,6.4-4.7,8.9-7.2,2-2.1,4.4-5.2,6.3-8.2,1.1-1.6,1.6-2.7,2.2-4.3-1.6,0-3.3.5-7,1.5-1.6.4-1.7.5-2.8.9-.2,0-.4,0-.6,0-.7,0-1.4-.6-2.1-1.9-.5-.8-.7-1.5-.7-2s0-.4.2-.7c1,1.7,1.7,2.2,3.1,2.2s4.4-.4,6.9-.9c1.9-.4,2.5-.6,3.1-.9.4-.2.5-.3.8-.3.7,0,2.6,1.7,2.6,2.3s-.1.4-.4.6q-.7.5-1.9,2.2t-4.2,5.8c4.7,2.4,7.3,4.1,8.6,5.6.9,1,1.3,1.9,1.3,3.3s-.3,1.7-.9,1.7-.5-.2-.8-.5q-.1-.2-.8-1.3c-1.7-2.8-4.5-5.7-7.9-8.1-2.7,3.2-4.8,5.3-8,7.4-2.1,1.5-3.5,2.2-5.8,3.2l-.3-.5Z"/>
          <path class="cls-2" d="M355.4,27.1c3.1-2.1,4.3-2.9,6.2-4.6,2.4-2.1,4-3.9,5.6-6-.5,0-.7-.3-1.4-1.3-1.4-2.1-2.5-3.3-4.6-4.9-2.3,2.3-4.1,3.7-6.1,4.9l-.4-.5c2.3-2,4.3-4.1,6.4-6.8,2.1-2.8,3.3-4.9,3.3-5.8s-.6-1.3-2.1-2c.3-.1.5-.2.7-.2.7,0,2,.4,2.9,1,.9.5,1.4,1,1.4,1.4s-.3,1-1.6,2.5c.4,0,.6.1.9.1.8,0,1.9-.2,4.4-.7,1.7-.4,2-.5,2.6-.9.2,0,.4-.2.5-.2.4,0,1,.3,1.9,1.1.6.5.9,1,.9,1.4s-.1.4-.5.7c-.4.3-.5.5-1.1,1.5-3.4,6.3-6.9,10.8-11.2,14.4-2.8,2.3-5.6,4.1-8.5,5.3l-.3-.5ZM371.2,5.5q-2.7.7-3,.8c-.6.2-.7.2-1,.2-.6,0-1.2-.3-2-.9-1.3,1.7-2.1,2.7-3.5,4.2q2.4,1.1,3.2,1.5c1.5.8,2.2,1.5,2.9,2.6.3.5.4.8.4,1.5,2.3-3.1,4.5-7.1,5.6-10.3-.8,0-1.4.2-2.5.5Z"/>
          <path class="cls-2" d="M388.9,18.4c4.1-2.2,8.6-5.6,12.4-9.4,3.3-3.2,5.4-5.9,5.4-6.8s-.5-1.2-1.9-1.9c.4-.1.4-.1.7-.1,1,0,1.8.3,2.8,1,1.1.8,1.7,1.5,1.7,2.1s0,.4-1.3,1.5q-.3.3-2.7,2.5c-2.3,2.2-2.5,2.4-3.9,3.6,1.3,1,1.9,1.5,2,1.9.1.3.2,1.9.2,4.9,0,2.3,0,4.4.2,6.3,0,.7,0,1.7,0,1.9,0,1.2-.2,1.7-.8,1.7-.8,0-2.2-1.8-2.2-2.8s0-.2.2-.9c.3-.8.6-4.9.6-8.1s0-2.6-.2-3.1c0-.3-.2-.5-.7-1-2.3,1.9-4.7,3.5-6.3,4.5-1.9,1.1-4.2,2.2-6,2.9l-.3-.5Z"/>
          <path class="cls-2" d="M424.8,24.9c1.8-1.7,3.1-3.6,4.4-6.3,1.3-2.6,2.3-6.7,2.3-9s-.6-2-2.2-2.6c.4-.2.5-.3.9-.3.7,0,1.5.3,2.5.8,1.2.7,1.8,1.3,1.8,1.8s0,.5-.4,1.5q0,.1-.3,1.2c-1.1,3.5-1.4,4.3-2.2,6.1-1.6,3.1-3.4,5.3-6.2,7.1l-.4-.4ZM453.1,11.7c-1,1.8-1.9,2.8-3.6,4.7-1.9,2-5,4.7-7,6-.6.4-1.6,1.2-1.9,1.5-.3.3-.4.4-.7.4-.8,0-2-1.7-2-2.7s0-.4.2-1c.2-.8.3-3.7.3-9,0-7.5-.1-7.9-2.5-8.5.3-.4.6-.5,1.1-.5.8,0,1.8.4,2.9,1,1,.6,1.4,1.1,1.4,1.5s0,.3-.3.9c-.2.4-.3,1.6-.5,3.2-.1,1.4-.4,8.7-.4,10s0,.8,0,1.5c3.8-1.5,8.7-5.2,12.5-9.4l.4.3Z"/>
        </g>
        <path class="cls-3" d="M385.9,129.1h-.1c-1.5,0-2.7-1.2-2.7-2.7s1.2-2.7,2.7-2.7h.1c1.5,0,2.7,1.2,2.7,2.7s-1.2,2.7-2.7,2.7h0ZM372.2,129.1h-.1c-1.5,0-2.7-1.2-2.7-2.7s1.2-2.7,2.7-2.7h.1c1.5,0,2.7,1.2,2.7,2.7s-1.2,2.7-2.7,2.7h0ZM358.5,129.1h-.1c-1.5,0-2.7-1.2-2.7-2.7s1.2-2.7,2.7-2.7h.1c1.5,0,2.7,1.2,2.7,2.7s-1.2,2.7-2.7,2.7h0ZM344.8,129.1h-.1c-1.5,0-2.7-1.2-2.7-2.7s1.2-2.7,2.7-2.7h.1c1.5,0,2.7,1.2,2.7,2.7s-1.2,2.7-2.7,2.7h0ZM331.1,129.1h-.1c-1.5,0-2.7-1.2-2.7-2.7s1.2-2.7,2.7-2.7h.1c1.5,0,2.7,1.2,2.7,2.7s-1.2,2.7-2.7,2.7h0ZM317.5,129.1h-.1c-1.5,0-2.7-1.2-2.7-2.7s1.2-2.7,2.7-2.7h.1c1.5,0,2.7,1.2,2.7,2.7s-1.2,2.7-2.7,2.7h0ZM303.8,129.1h-.1c-1.5,0-2.7-1.2-2.7-2.7s1.2-2.7,2.7-2.7h.1c1.5,0,2.7,1.2,2.7,2.7s-1.2,2.7-2.7,2.7h0ZM290.1,129.1h-.1c-1.5,0-2.7-1.2-2.7-2.7s1.2-2.7,2.7-2.7h.1c1.5,0,2.7,1.2,2.7,2.7s-1.2,2.7-2.7,2.7h0ZM276.4,129.1h-.1c-1.5,0-2.7-1.2-2.7-2.7s1.2-2.7,2.7-2.7h.1c1.5,0,2.7,1.2,2.7,2.7s-1.2,2.7-2.7,2.7h0ZM262.7,129.1h-.1c-1.5,0-2.7-1.2-2.7-2.7s1.2-2.7,2.7-2.7h.1c1.5,0,2.7,1.2,2.7,2.7s-1.2,2.7-2.7,2.7h0ZM249.1,129.1h-.1c-1.5,0-2.7-1.2-2.7-2.7s1.2-2.7,2.7-2.7h.1c1.5,0,2.7,1.2,2.7,2.7s-1.2,2.7-2.7,2.7h0ZM235.4,129.1h-.1c-1.5,0-2.7-1.2-2.7-2.7s1.2-2.7,2.7-2.7h.1c1.5,0,2.7,1.2,2.7,2.7s-1.2,2.7-2.7,2.7h0ZM221.7,129.1h-.1c-1.5,0-2.7-1.2-2.7-2.7s1.2-2.7,2.7-2.7h.1c1.5,0,2.7,1.2,2.7,2.7s-1.2,2.7-2.7,2.7h0ZM208,129.1h-.1c-1.5,0-2.7-1.2-2.7-2.7s1.2-2.7,2.7-2.7h.1c1.5,0,2.7,1.2,2.7,2.7s-1.2,2.7-2.7,2.7h0ZM194.3,129.1h-.1c-1.5,0-2.7-1.2-2.7-2.7s1.2-2.7,2.7-2.7h.1c1.5,0,2.7,1.2,2.7,2.7s-1.2,2.7-2.7,2.7h0ZM180.7,129.1h-.1c-1.5,0-2.7-1.2-2.7-2.7s1.2-2.7,2.7-2.7h.1c1.5,0,2.7,1.2,2.7,2.7s-1.2,2.7-2.7,2.7h0ZM167,129.1h-.1c-1.5,0-2.7-1.2-2.7-2.7s1.2-2.7,2.7-2.7h.1c1.5,0,2.7,1.2,2.7,2.7s-1.2,2.7-2.7,2.7h0ZM153.3,129.1h-.1c-1.5,0-2.7-1.2-2.7-2.7s1.2-2.7,2.7-2.7h.1c1.5,0,2.7,1.2,2.7,2.7s-1.2,2.7-2.7,2.7h0ZM139.6,129.1h-.1c-1.5,0-2.7-1.2-2.7-2.7s1.2-2.7,2.7-2.7h.1c1.5,0,2.7,1.2,2.7,2.7s-1.2,2.7-2.7,2.7h0ZM126,129.1h-.1c-1.5,0-2.7-1.2-2.7-2.7s1.2-2.7,2.7-2.7h.1c1.5,0,2.7,1.2,2.7,2.7s-1.2,2.7-2.7,2.7h0ZM112.3,129.1h-.1c-1.5,0-2.7-1.2-2.7-2.7s1.2-2.7,2.7-2.7h.1c1.5,0,2.7,1.2,2.7,2.7s-1.2,2.7-2.7,2.7h0ZM98.6,129.1h-.1c-1.5,0-2.7-1.2-2.7-2.7s1.2-2.7,2.7-2.7h.1c1.5,0,2.7,1.2,2.7,2.7s-1.2,2.7-2.7,2.7h0ZM84.9,129.1h-.1c-1.5,0-2.7-1.2-2.7-2.7s1.2-2.7,2.7-2.7h.1c1.5,0,2.7,1.2,2.7,2.7s-1.2,2.7-2.7,2.7h0ZM71.2,129.1h-.1c-1.5,0-2.7-1.2-2.7-2.7s1.2-2.7,2.7-2.7h.1c1.5,0,2.7,1.2,2.7,2.7s-1.2,2.7-2.7,2.7h0ZM57.6,129.1h-.1c-1.5,0-2.7-1.2-2.7-2.7s1.2-2.7,2.7-2.7h.1c1.5,0,2.7,1.2,2.7,2.7s-1.2,2.7-2.7,2.7h0ZM43.9,129.1h-.1c-1.5,0-2.7-1.2-2.7-2.7s1.2-2.7,2.7-2.7h.1c1.5,0,2.7,1.2,2.7,2.7s-1.2,2.7-2.7,2.7h0ZM30.2,129.1h-.1c-1.5,0-2.7-1.2-2.7-2.7s1.2-2.7,2.7-2.7h.1c1.5,0,2.7,1.2,2.7,2.7s-1.2,2.7-2.7,2.7h0ZM16.5,129.1h-.1c-1.5,0-2.7-1.2-2.7-2.7s1.2-2.7,2.7-2.7h.1c1.5,0,2.7,1.2,2.7,2.7s-1.2,2.7-2.7,2.7h0ZM2.8,129.1h-.1c-1.5,0-2.7-1.2-2.7-2.7s1.2-2.7,2.7-2.7h.1c1.5,0,2.7,1.2,2.7,2.7s-1.2,2.7-2.7,2.7h0Z"/>
        <path class="cls-3" d="M719.2,15h-.1c-1.5,0-2.7-1.2-2.7-2.7s1.2-2.7,2.7-2.7h.1c1.5,0,2.7,1.2,2.7,2.7s-1.2,2.7-2.7,2.7h0ZM705.5,15h-.1c-1.5,0-2.7-1.2-2.7-2.7s1.2-2.7,2.7-2.7h.1c1.5,0,2.7,1.2,2.7,2.7s-1.2,2.7-2.7,2.7h0ZM691.8,15h-.1c-1.5,0-2.7-1.2-2.7-2.7s1.2-2.7,2.7-2.7h.1c1.5,0,2.7,1.2,2.7,2.7s-1.2,2.7-2.7,2.7h0ZM678.2,15h-.1c-1.5,0-2.7-1.2-2.7-2.7s1.2-2.7,2.7-2.7h.1c1.5,0,2.7,1.2,2.7,2.7s-1.2,2.7-2.7,2.7h0ZM664.5,15h-.1c-1.5,0-2.7-1.2-2.7-2.7s1.2-2.7,2.7-2.7h.1c1.5,0,2.7,1.2,2.7,2.7s-1.2,2.7-2.7,2.7h0ZM650.8,15h-.1c-1.5,0-2.7-1.2-2.7-2.7s1.2-2.7,2.7-2.7h.1c1.5,0,2.7,1.2,2.7,2.7s-1.2,2.7-2.7,2.7h0ZM637.1,15h-.1c-1.5,0-2.7-1.2-2.7-2.7s1.2-2.7,2.7-2.7h.1c1.5,0,2.7,1.2,2.7,2.7s-1.2,2.7-2.7,2.7h0ZM623.4,15h-.1c-1.5,0-2.7-1.2-2.7-2.7s1.2-2.7,2.7-2.7h.1c1.5,0,2.7,1.2,2.7,2.7s-1.2,2.7-2.7,2.7h0ZM609.8,15h-.1c-1.5,0-2.7-1.2-2.7-2.7s1.2-2.7,2.7-2.7h.1c1.5,0,2.7,1.2,2.7,2.7s-1.2,2.7-2.7,2.7h0ZM596.1,15h-.1c-1.5,0-2.7-1.2-2.7-2.7s1.2-2.7,2.7-2.7h.1c1.5,0,2.7,1.2,2.7,2.7s-1.2,2.7-2.7,2.7h0ZM582.4,15h-.1c-1.5,0-2.7-1.2-2.7-2.7s1.2-2.7,2.7-2.7h.1c1.5,0,2.7,1.2,2.7,2.7s-1.2,2.7-2.7,2.7h0ZM568.7,15h-.1c-1.5,0-2.7-1.2-2.7-2.7s1.2-2.7,2.7-2.7h.1c1.5,0,2.7,1.2,2.7,2.7s-1.2,2.7-2.7,2.7h0ZM555,15h-.1c-1.5,0-2.7-1.2-2.7-2.7s1.2-2.7,2.7-2.7h.1c1.5,0,2.7,1.2,2.7,2.7s-1.2,2.7-2.7,2.7h0ZM541.4,15h-.1c-1.5,0-2.7-1.2-2.7-2.7s1.2-2.7,2.7-2.7h.1c1.5,0,2.7,1.2,2.7,2.7s-1.2,2.7-2.7,2.7h0ZM527.7,15h-.1c-1.5,0-2.7-1.2-2.7-2.7s1.2-2.7,2.7-2.7h.1c1.5,0,2.7,1.2,2.7,2.7s-1.2,2.7-2.7,2.7h0ZM514,15h-.1c-1.5,0-2.7-1.2-2.7-2.7s1.2-2.7,2.7-2.7h.1c1.5,0,2.7,1.2,2.7,2.7s-1.2,2.7-2.7,2.7h0ZM500.3,15h-.1c-1.5,0-2.7-1.2-2.7-2.7s1.2-2.7,2.7-2.7h.1c1.5,0,2.7,1.2,2.7,2.7s-1.2,2.7-2.7,2.7h0ZM486.7,15h-.1c-1.5,0-2.7-1.2-2.7-2.7s1.2-2.7,2.7-2.7h.1c1.5,0,2.7,1.2,2.7,2.7s-1.2,2.7-2.7,2.7h0Z"/>
        <g>
          <path class="cls-1" d="M498.8,105.3l5.9-26.3h1.8c-.2,2.5-.4,4.6-.4,6.3,0,4.8,1.5,8.7,4.6,11.6,3,3,7,4.5,11.9,4.5s8-1.4,10.4-4.2c2.4-2.8,3.6-6,3.6-9.7s-.5-4.5-1.6-6.5c-1.6-2.9-6-8-13.1-15.3-3.4-3.5-5.7-6.1-6.6-7.8-1.6-2.8-2.4-5.8-2.4-8.9,0-4.9,1.8-9.2,5.5-12.7,3.7-3.5,8.4-5.3,14.2-5.3s3.8.2,5.5.6c1.1.2,3,.9,5.9,2.1,2,.8,3.1,1.2,3.3,1.3.5.1,1,.2,1.6.2,1,0,1.9-.3,2.6-.8.7-.5,1.6-1.6,2.6-3.3h2l-5.4,23.5h-1.8c.1-2.1.2-3.8.2-5.1,0-4.2-1.4-7.7-4.2-10.3-2.8-2.7-6.5-4-11-4s-6.6,1.1-8.8,3.2c-2.3,2.1-3.4,4.6-3.4,7.4s.7,4.8,2.2,7c1.4,2.2,4.8,5.8,10,10.8,5.2,5,8.6,8.9,10.1,11.7,1.5,2.8,2.3,5.8,2.3,9s-.9,7.1-2.8,10.4c-1.9,3.4-4.6,6-8.2,7.8s-7.4,2.8-11.7,2.8-4-.2-5.9-.6c-1.8-.4-4.7-1.3-8.7-2.8-1.4-.5-2.5-.8-3.4-.8-2.1,0-3.7,1.4-4.8,4.2h-2Z"/>
          <path class="cls-1" d="M580.4,43.4l-4.1,14.2h8.2l-.9,3.3h-8.1l-9,30.8c-1,3.3-1.5,5.5-1.5,6.4s.1,1,.4,1.4c.3.3.6.5,1,.5.9,0,2-.6,3.4-1.8.8-.7,2.7-2.8,5.6-6.4l1.7,1.3c-3.2,4.7-6.2,8-9.1,9.9-2,1.3-3.9,2-5.9,2s-2.8-.5-3.8-1.4c-1-1-1.5-2.2-1.5-3.7s.6-4.8,1.7-8.6l8.7-30.2h-7.9l.5-2c3.8-1,7-2.6,9.6-4.7,2.5-2.1,5.4-5.7,8.5-10.8h2.3Z"/>
          <path class="cls-1" d="M604.8,56.4c1.2,2,2,3.9,2.5,5.7.5,1.8.9,5.2,1.4,10.4l2.3,25.7c2.1-2.5,5.1-6.5,9.1-11.9,1.9-2.6,4.3-6.3,7.1-10.8,1.7-2.8,2.8-4.7,3.1-5.9.2-.6.3-1.1.3-1.7s-.1-.7-.4-.9c-.2-.2-.9-.5-1.9-.9-1-.3-1.9-.9-2.6-1.8-.7-.9-1-1.9-1-3.1s.4-2.6,1.3-3.4c.8-.9,1.9-1.3,3.1-1.3s2.8.6,3.9,1.9c1.1,1.3,1.6,3,1.6,5.3s-.9,5.9-2.8,9.4c-1.9,3.5-5.5,9-10.9,16.3-5.4,7.3-11.9,15.3-19.5,23.9-5.3,6-9.2,9.7-11.7,11.3-2.5,1.5-4.7,2.3-6.5,2.3s-2-.4-2.8-1.2c-.8-.8-1.2-1.8-1.2-2.8s.6-2.6,1.7-3.7c1.1-1.1,2.4-1.7,3.7-1.7s1.3.2,1.7.5c.3.2.6.7.9,1.5.3.8.6,1.4.9,1.6.2.2.4.3.6.3s.6-.2,1.1-.5c1.9-1.2,4.1-3.1,6.7-5.6,3.3-3.4,5.8-6.2,7.4-8.4l-2.9-33.1c-.5-5.5-1.2-8.8-2.2-10-1-1.2-2.6-1.8-4.9-1.8s-2,.1-3.9.3l-.5-1.9,15.3-3.8Z"/>
          <path class="cls-1" d="M668.1,29.4l-17.9,62.2c-.9,3.1-1.3,5-1.3,5.7s.2,1,.5,1.3c.3.3.7.5,1.2.5s1.4-.3,2.1-.9c1.8-1.4,3.7-3.6,5.7-6.6l1.6,1.6c-3.3,4.7-6.4,7.9-9.1,9.8-2.1,1.3-4,2-5.9,2s-2.4-.5-3.3-1.4c-.9-.9-1.3-2-1.3-3.1s.6-3.8,1.7-7.7l14.2-49c1.1-4,1.7-6.3,1.7-6.9s-.3-1.5-1-2.1c-.7-.5-1.7-.8-3.1-.8s-2,.1-3.7.4v-1.9l17.9-3Z"/>
          <path class="cls-1" d="M680.9,84c-.2,1.7-.4,3.2-.4,4.3,0,3.1,1.1,5.7,3.3,7.9,2.2,2.2,4.9,3.3,8,3.3s4.9-.5,7.2-1.5c2.3-1,5.8-3.3,10.3-6.8l1.1,1.5c-8.3,8.2-16.1,12.3-23.6,12.3s-8.9-1.6-11.5-4.8c-2.6-3.2-3.9-6.7-3.9-10.6s1.6-10.5,4.8-15.9c3.2-5.4,7.2-9.7,12.1-12.7,4.8-3,9.8-4.5,14.9-4.5s6.4.7,8.2,2.2c1.8,1.5,2.7,3.3,2.7,5.3s-1.2,5.7-3.4,8.3c-3,3.4-7.5,6.2-13.4,8.4-3.9,1.4-9.4,2.5-16.5,3.3ZM681.2,81.4c5.2-.6,9.4-1.6,12.6-3,4.3-1.9,7.5-4.2,9.6-6.9,2.1-2.7,3.2-5.2,3.2-7.6s-.5-2.6-1.4-3.6c-.9-.9-2.2-1.4-3.9-1.4-3.6,0-7.3,1.9-11.3,5.7-4,3.8-6.9,9.4-8.8,16.7Z"/>
        </g>
      </g>
    </g>
  </g>
</svg>