<?xml version="1.0" encoding="UTF-8"?>
<svg xmlns="http://www.w3.org/2000/svg" width="135.4" height="27.1" version="1.1" viewBox="0 0 135.4 27.1">
  <defs>
    <style>
      .cls-1 {
        fill: #231815;
      }

      .cls-2 {
        fill: #fff;
      }

      .cls-3 {
        fill: #f5b4ab;
      }
    </style>
  </defs>
  <!-- Generator: Adobe Illustrator 28.7.5, SVG Export Plug-In . SVG Version: 1.2.0 Build 176)  -->
  <g>
    <g id="_文字" data-name="文字">
      <g>
        <g>
          <path class="cls-1" d="M47.7,8.2c.6,4.3,3.5,9.6,7.9,12,.5.3.7.6.7,1,0,.7-.6,1.4-1.4,1.4s-.5,0-.8-.2c-3.4-2.1-5.9-5.9-7.3-9.7-1.3,4-3.7,7.8-8,10-.2.1-.5.2-.7.2-.7,0-1.2-.6-1.2-1.2s.2-.8.7-1.1c5.3-2.7,7.6-7.8,8-12.5,0-.8-.1-1.1-.7-1.1h0l-3.1.2h0c-.6,0-1-.5-1-1.1s.3-1.1,1-1.1c.9,0,1.8,0,2.8,0h.7c1.3,0,2.3.7,2.4,1.9,0,.4,0,.8.1,1.2h0,0Z"/>
          <path class="cls-1" d="M60.6,23.1c-.5,0-1-.3-1-.9h0c.2-4,.1-10.9.2-15.6,0-2.1,1.5-2.1,3.7-2.1s1.7,0,2.1,0c1.1,0,1.9.7,2,1.7,0,.8,0,1.5,0,2.3,0,2.7,0,3.3-4.3,3.3s-1.1,0-1.5,0v2c0,2.3,0,5.4,0,8.4,0,.6-.5.9-1,.9ZM65.6,7.5c0-.2,0-.5,0-.7,0-.6-.2-.7-1.9-.7s-1.9,0-2,.8c0,.2,0,.3,0,.5h3.9ZM61.7,8.9v1.3c.3,0,1,0,1.6,0,2.1,0,2.3,0,2.3-.7,0-.2,0-.4,0-.6h-3.9ZM70.1,20.7c-.6,0-1.2,0-1.9,0s-1.3,0-1.9,0c-1.3-.1-2.1-.9-2.1-2,0-.3,0-.7,0-1,0-1,0-2.1,0-3,0-1,.7-1.9,2-1.9.6,0,1.2,0,1.8,0s1.4,0,2.1,0c1.1,0,1.9.9,2,1.8,0,.8,0,1.7,0,2.6s0,1.1,0,1.5c0,1.1-.9,2-2.1,2ZM65.9,17.4c0,1.7,0,1.7,2.3,1.7s2.2,0,2.3-.9c0-.2,0-.5,0-.8h-4.6ZM70.4,15.8c0-.3,0-.5,0-.7,0-.8-.5-.9-1.9-.9s-1.1,0-1.6,0c-.6,0-.8.5-.8.9,0,.2,0,.4,0,.7h4.5ZM73.5,11.8c-2.6,0-4.4,0-4.4-1.9,0-.4,0-.9,0-1.4,0-.8,0-1.5,0-2.3,0-1,.8-1.7,1.9-1.7.4,0,1.3,0,2.2,0s1.2,0,1.6,0c1.6,0,2.3,1,2.3,1.9v1.6c0,3.3,0,6.6,0,9.4s0,1.9,0,2.7c0,1.5-.8,2.9-3.2,2.9s-2.3-.2-2.3-1.1.3-1,.8-1,.1,0,.2,0c.4,0,.8.1,1.1.1.7,0,1.3-.3,1.3-1.3,0-.9,0-1.8,0-2.8,0-1.5,0-2.9,0-4.3v-.9c-.4,0-1,0-1.6,0ZM75,7.5c0-1.3,0-1.3-2-1.3s-2,0-2,.7c0,.2,0,.4,0,.7h4.1ZM75,8.9h-4.1c0,.2,0,.5,0,.6,0,.6,0,.7,2.4.7s1.4,0,1.7,0v-1.3Z"/>
          <path class="cls-1" d="M97.5,8.6c-1.6,0-5.1,0-8,0s-3.1,0-4,0-1,.4-1,1c0,4,.3,9.3-2.2,12.4-.3.4-.6.5-1,.5-.6,0-1.1-.5-1.1-1s0-.3.2-.5c1.8-2.3,2.1-5.4,2.1-8.4s0-2.1,0-3.1h0c0-1.8.8-2.7,2.8-2.8,1,0,2.4,0,3.9,0v-1.6c0-.7.6-1.1,1.1-1.1s1.1.3,1.1,1.1v1.6c2.4,0,4.8,0,6.2,0,.7,0,1,.5,1,.9s-.3,1-1,1h0ZM92.1,13.4v2.4c1,0,2,0,2.9,0,1.3,0,2.1.9,2.2,1.9,0,.4,0,.9,0,1.3s0,.9,0,1.4c0,1.1-.9,2.1-2.3,2.1-1.2,0-2.4,0-3.6,0s-2.3,0-3.3,0c-1.5,0-2.3-.9-2.3-2.1,0-.5,0-.8,0-1.2,0-.5,0-.9,0-1.4,0-1,.7-2,2.3-2,.6,0,1.3,0,2.1,0v-5.9c0-.6.5-.9,1-.9s1.1.3,1.1.9v1.7s5.2,0,5.2,0c.7,0,1,.5,1,.9s-.3.9-1,.9h-5.2ZM95.2,19.2c0-1.1,0-1.6-1-1.6-.7,0-1.6,0-2.5,0s-2.2,0-3.1,0c-.8,0-.9.5-.9,1.6s0,.5,0,.7c0,.9.4.9,3.9.9s3.6,0,3.7-.9c0-.3,0-.5,0-.8Z"/>
        </g>
        <rect class="cls-3" x="0" width="135.4" height="27.1" rx="9.5" ry="9.5"/>
        <g>
          <path class="cls-2" d="M47.7,8.2c.6,4.3,3.5,9.6,7.9,12,.5.3.7.6.7,1,0,.7-.6,1.4-1.4,1.4s-.5,0-.8-.2c-3.4-2.1-5.9-5.9-7.3-9.7-1.3,4-3.7,7.8-8,10-.2.1-.5.2-.7.2-.7,0-1.2-.6-1.2-1.2s.2-.8.7-1.1c5.3-2.7,7.6-7.8,8-12.5,0-.8-.1-1.1-.7-1.1h0l-3.1.2h0c-.6,0-1-.5-1-1.1s.3-1.1,1-1.1c.9,0,1.8,0,2.8,0h.7c1.3,0,2.3.7,2.4,1.9,0,.4,0,.8.1,1.2h0,0Z"/>
          <path class="cls-2" d="M60.6,23.1c-.5,0-1-.3-1-.9h0c.2-4,.1-10.9.2-15.6,0-2.1,1.5-2.1,3.7-2.1s1.7,0,2.1,0c1.1,0,1.9.7,2,1.7,0,.8,0,1.5,0,2.3,0,2.7,0,3.3-4.3,3.3s-1.1,0-1.5,0v2c0,2.3,0,5.4,0,8.4,0,.6-.5.9-1,.9ZM65.6,7.5c0-.2,0-.5,0-.7,0-.6-.2-.7-1.9-.7s-1.9,0-2,.8c0,.2,0,.3,0,.5h3.9ZM61.7,8.9v1.3c.3,0,1,0,1.6,0,2.1,0,2.3,0,2.3-.7,0-.2,0-.4,0-.6h-3.9ZM70.1,20.7c-.6,0-1.2,0-1.9,0s-1.3,0-1.9,0c-1.3-.1-2.1-.9-2.1-2,0-.3,0-.7,0-1,0-1,0-2.1,0-3,0-1,.7-1.9,2-1.9.6,0,1.2,0,1.8,0s1.4,0,2.1,0c1.1,0,1.9.9,2,1.8,0,.8,0,1.7,0,2.6s0,1.1,0,1.5c0,1.1-.9,2-2.1,2ZM65.9,17.4c0,1.7,0,1.7,2.3,1.7s2.2,0,2.3-.9c0-.2,0-.5,0-.8h-4.6ZM70.4,15.8c0-.3,0-.5,0-.7,0-.8-.5-.9-1.9-.9s-1.1,0-1.6,0c-.6,0-.8.5-.8.9,0,.2,0,.4,0,.7h4.5ZM73.5,11.8c-2.6,0-4.4,0-4.4-1.9,0-.4,0-.9,0-1.4,0-.8,0-1.5,0-2.3,0-1,.8-1.7,1.9-1.7.4,0,1.3,0,2.2,0s1.2,0,1.6,0c1.6,0,2.3,1,2.3,1.9v1.6c0,3.3,0,6.6,0,9.4s0,1.9,0,2.7c0,1.5-.8,2.9-3.2,2.9s-2.3-.2-2.3-1.1.3-1,.8-1,.1,0,.2,0c.4,0,.8.1,1.1.1.7,0,1.3-.3,1.3-1.3,0-.9,0-1.8,0-2.8,0-1.5,0-2.9,0-4.3v-.9c-.4,0-1,0-1.6,0ZM75,7.5c0-1.3,0-1.3-2-1.3s-2,0-2,.7c0,.2,0,.4,0,.7h4.1ZM75,8.9h-4.1c0,.2,0,.5,0,.6,0,.6,0,.7,2.4.7s1.4,0,1.7,0v-1.3Z"/>
          <path class="cls-2" d="M97.5,8.6c-1.6,0-5.1,0-8,0s-3.1,0-4,0-1,.4-1,1c0,4,.3,9.3-2.2,12.4-.3.4-.6.5-1,.5-.6,0-1.1-.5-1.1-1s0-.3.2-.5c1.8-2.3,2.1-5.4,2.1-8.4s0-2.1,0-3.1h0c0-1.8.8-2.7,2.8-2.8,1,0,2.4,0,3.9,0v-1.6c0-.7.6-1.1,1.1-1.1s1.1.3,1.1,1.1v1.6c2.4,0,4.8,0,6.2,0,.7,0,1,.5,1,.9s-.3,1-1,1h0ZM92.1,13.4v2.4c1,0,2,0,2.9,0,1.3,0,2.1.9,2.2,1.9,0,.4,0,.9,0,1.3s0,.9,0,1.4c0,1.1-.9,2.1-2.3,2.1-1.2,0-2.4,0-3.6,0s-2.3,0-3.3,0c-1.5,0-2.3-.9-2.3-2.1,0-.5,0-.8,0-1.2,0-.5,0-.9,0-1.4,0-1,.7-2,2.3-2,.6,0,1.3,0,2.1,0v-5.9c0-.6.5-.9,1-.9s1.1.3,1.1.9v1.7s5.2,0,5.2,0c.7,0,1,.5,1,.9s-.3.9-1,.9h-5.2ZM95.2,19.2c0-1.1,0-1.6-1-1.6-.7,0-1.6,0-2.5,0s-2.2,0-3.1,0c-.8,0-.9.5-.9,1.6s0,.5,0,.7c0,.9.4.9,3.9.9s3.6,0,3.7-.9c0-.3,0-.5,0-.8Z"/>
        </g>
      </g>
    </g>
  </g>
</svg>