<?xml version="1.0" encoding="UTF-8"?>
<svg xmlns="http://www.w3.org/2000/svg" width="135.4" height="27.1" version="1.1" viewBox="0 0 135.4 27.1">
  <defs>
    <style>
      .cls-1 {
        fill: #231815;
      }

      .cls-2 {
        fill: #fff;
      }

      .cls-3 {
        fill: #f5b4ab;
      }
    </style>
  </defs>
  <!-- Generator: Adobe Illustrator 28.7.5, SVG Export Plug-In . SVG Version: 1.2.0 Build 176)  -->
  <g>
    <g id="_文字" data-name="文字">
      <g>
        <g>
          <path class="cls-1" d="M43.4,20.1c-1.3.6-5.3,2.3-5.7,2.3s-.9-.5-.9-1,.2-.6.6-.8c.3-.1.8-.2,1.2-.4v-1.7c0-2.6,0-6.2,0-6.9,0-1.1,1-1.7,2.2-1.7v-1.1c0-.5.5-.8,1-.8s1,.3,1,.8v1.1c.2,0,.3,0,.4,0,1,0,1.8.5,1.9,1.7,0,.6,0,1.5,0,2.2,0,2.3,0,3.1-3.6,3.1s-.8,0-1.1,0v2.6c.7-.3,1.4-.5,2-.7l-.2-.2c-.2-.2-.3-.4-.3-.6,0-.4.4-.7.9-.7.7,0,2.2,1.8,2.3,2.2,1.2-2.4,1.5-5.2,1.5-7.9s0-2.8,0-4.1.7-2,2.2-2.1c1.1,0,2.2,0,3.3,0s2.1,0,3.2,0c.6,0,1,.5,1,.9s-.3.9-1,.9h0c-1.3,0-2.6,0-3.8,0-2.6,0-2.9,0-2.9.9v2h5.1c1.1,0,1.8.6,1.8,1.7s-.9,3.7-2.4,6.3c.9,1.1,2,2.1,3.2,2.6.4.2.6.6.6,1,0,.6-.4,1.1-1.1,1.1s-2.1-.7-3.8-3.1c-1.6,2.1-3.6,3.3-4.3,3.3s-.9-.5-.9-1,.2-.7.6-.9c1.4-.6,2.6-1.8,3.6-3.1-1.1-2-1.8-4.2-2-6.2h-.3c0,3.6-.5,7.7-2.6,10.4-.2.3-.5.4-.8.4-.6,0-1.1-.5-1.1-1s0-.4.2-.6c.2-.2.3-.3.4-.5,0,0-.2,0-.2,0-.3,0-.5-.1-.7-.4h0ZM44.1,9.3c-.7-.8-1.2-1.8-1.8-2.7,0,0-.2-.1-.3-.1s-.2,0-.3.2c-.7,1.2-1.8,2.7-2.8,3.7-.2.2-.5.3-.8.3-.6,0-1.1-.4-1.1-1s.1-.5.3-.7c1-1,2.2-2.7,2.7-3.5.4-.7,1.1-1.1,1.7-1.1s1.3.3,1.9,1.1c.5.6,1.2,1.7,1.9,2.4.2.2.2.4.2.6,0,.5-.5,1.1-1.1,1.1s-.5-.1-.7-.4ZM43.4,12.5c0-.2,0-.4,0-.6,0-.5-.2-.6-1.5-.6s-1.4,0-1.4.6c0,.2,0,.3,0,.6h2.9ZM40.4,14c0,.5,0,1.1,0,1.4.2,0,.5,0,.9,0q2,0,2-1.4h-2.9ZM53.2,12.3c0-.3-.2-.4-.5-.4s-1.4,0-2.3,0c.2,1.5.7,3.1,1.4,4.5,1.2-2.2,1.5-3.9,1.5-4Z"/>
          <path class="cls-1" d="M59.9,10.6c-.7,0-1-.5-1-.9s.3-.9,1-.9.6,0,1,0c.5-.9,1.3-2.8,1.6-3.9.1-.5.5-.7.9-.7s1.1.4,1.1,1-.1,1-1.6,3.5c1,0,1.9-.2,2.8-.3-.1-.1-.2-.2-.3-.3-.2-.2-.3-.4-.3-.6,0-.4.5-.8,1-.8s2.8,1.9,2.8,2.9-.5,1-.9,1-.6-.2-1-.8c-2.6.6-5.8,1-6.9,1ZM62.1,18.9c0,1.2,0,2.4,0,3.3h0c0,.6-.5.9-.9.9s-.9-.3-1-.9c0-1.2,0-2.8,0-4.4s0-3.3,0-4.4c0-1.9,1.1-1.9,3.6-1.9s1.4,0,1.8,0c1.2,0,1.8.7,1.8,1.9,0,.3,0,3.7,0,4.4,0,.4,0,.9,0,1.5v1.4h0c0,1.5-.9,2.3-2.4,2.3s-1.8-.2-1.8-1.1.3-.8.8-.8.1,0,.2,0c.3,0,.5.1.7.1.5,0,.7-.2.7-.9,0-.3,0-.8,0-1.3h-3.7ZM62.1,16v1.4h3.7c0-.5,0-.9,0-1.4h-3.7ZM65.8,14.5c0-.3,0-.5,0-.8,0-.7-.2-.7-1.8-.7s-1.7,0-1.8.7c0,.2,0,.5,0,.8h3.6ZM71.1,10.3c0,1,.9,1,2,1,2,0,2.4-.6,2.4-1.6s.5-.9,1-.9,1.1,0,1.1,1.1c0,2.4-1.7,3.1-4.6,3.1s-4-.8-4-2.5,0-4.2,0-5.4c0-.6.5-.9,1-.9s1,.3,1,.9h0c0,.6,0,1.3,0,2.1,1.4-.5,3-1.1,4.1-1.6.2,0,.3-.1.5-.1.6,0,1,.5,1,1s-.2.7-.7.9c-1.3.5-3.3,1.2-4.8,1.5v1.2ZM71.1,19.8c0,1,.8,1,2,1s2.5-.3,2.5-1.6.5-.9,1-.9,1.2,0,1.2,1.1c0,2.4-1.7,3.2-4.7,3.2s-4-.1-4-2.5,0-4.5,0-5.6c0-.6.5-.9,1-.9s1,.3,1,.9h0c0,.5,0,1.3,0,2.1,1.4-.5,2.9-1.2,4-1.7.2,0,.3-.1.5-.1.6,0,1,.5,1,1.1s-.2.7-.7.9c-1.3.6-3.3,1.3-4.8,1.6v1.5Z"/>
          <path class="cls-1" d="M97.6,8.6c-1.6,0-5.1,0-8,0s-3.1,0-4,0-1,.4-1,1c0,4,.3,9.3-2.2,12.4-.3.4-.6.5-1,.5-.6,0-1.1-.5-1.1-1s0-.3.2-.5c1.8-2.3,2.1-5.4,2.1-8.4s0-2.1,0-3.1h0c0-1.8.8-2.7,2.8-2.8,1,0,2.4,0,3.9,0v-1.6c0-.7.6-1.1,1.1-1.1s1.1.3,1.1,1.1v1.6c2.4,0,4.8,0,6.2,0,.7,0,1,.5,1,.9s-.3,1-1,1h0ZM92.2,13.5v2.4c1,0,2,0,2.9,0,1.3,0,2.1.9,2.2,1.9,0,.4,0,.9,0,1.3s0,.9,0,1.4c0,1.1-.9,2.1-2.3,2.1-1.2,0-2.4,0-3.6,0s-2.3,0-3.3,0c-1.5,0-2.3-.9-2.3-2.1,0-.5,0-.8,0-1.2,0-.5,0-.9,0-1.4,0-1,.7-2,2.3-2,.6,0,1.3,0,2.1,0v-5.9c0-.6.5-.9,1-.9s1.1.3,1.1.9v1.7s5.2,0,5.2,0c.7,0,1,.5,1,.9s-.3.9-1,.9h-5.2ZM95.3,19.2c0-1.1,0-1.6-1-1.6-.7,0-1.6,0-2.5,0s-2.2,0-3.1,0c-.8,0-.9.5-.9,1.6s0,.5,0,.7c0,.9.4.9,3.9.9s3.6,0,3.7-.9c0-.3,0-.5,0-.8Z"/>
        </g>
        <rect class="cls-3" width="135.4" height="27.1" rx="9.5" ry="9.5"/>
        <g>
          <path class="cls-2" d="M43.4,20.1c-1.3.6-5.3,2.3-5.7,2.3s-.9-.5-.9-1,.2-.6.6-.8c.3-.1.8-.2,1.2-.4v-1.7c0-2.6,0-6.2,0-6.9,0-1.1,1-1.7,2.2-1.7v-1.1c0-.5.5-.8,1-.8s1,.3,1,.8v1.1c.2,0,.3,0,.4,0,1,0,1.8.5,1.9,1.7,0,.6,0,1.5,0,2.2,0,2.3,0,3.1-3.6,3.1s-.8,0-1.1,0v2.6c.7-.3,1.4-.5,2-.7l-.2-.2c-.2-.2-.3-.4-.3-.6,0-.4.4-.7.9-.7.7,0,2.2,1.8,2.3,2.2,1.2-2.4,1.5-5.2,1.5-7.9s0-2.8,0-4.1.7-2,2.2-2.1c1.1,0,2.2,0,3.3,0s2.1,0,3.2,0c.6,0,1,.5,1,.9s-.3.9-1,.9h0c-1.3,0-2.6,0-3.8,0-2.6,0-2.9,0-2.9.9v2h5.1c1.1,0,1.8.6,1.8,1.7s-.9,3.7-2.4,6.3c.9,1.1,2,2.1,3.2,2.6.4.2.6.6.6,1,0,.6-.4,1.1-1.1,1.1s-2.1-.7-3.8-3.1c-1.6,2.1-3.6,3.3-4.3,3.3s-.9-.5-.9-1,.2-.7.6-.9c1.4-.6,2.6-1.8,3.6-3.1-1.1-2-1.8-4.2-2-6.2h-.3c0,3.6-.5,7.7-2.6,10.4-.2.3-.5.4-.8.4-.6,0-1.1-.5-1.1-1s0-.4.2-.6c.2-.2.3-.3.4-.5,0,0-.2,0-.2,0-.3,0-.5-.1-.7-.4h0ZM44.1,9.3c-.7-.8-1.2-1.8-1.8-2.7,0,0-.2-.1-.3-.1s-.2,0-.3.2c-.7,1.2-1.8,2.7-2.8,3.7-.2.2-.5.3-.8.3-.6,0-1.1-.4-1.1-1s.1-.5.3-.7c1-1,2.2-2.7,2.7-3.5.4-.7,1.1-1.1,1.7-1.1s1.3.3,1.9,1.1c.5.6,1.2,1.7,1.9,2.4.2.2.2.4.2.6,0,.5-.5,1.1-1.1,1.1s-.5-.1-.7-.4ZM43.4,12.5c0-.2,0-.4,0-.6,0-.5-.2-.6-1.5-.6s-1.4,0-1.4.6c0,.2,0,.3,0,.6h2.9ZM40.4,14c0,.5,0,1.1,0,1.4.2,0,.5,0,.9,0q2,0,2-1.4h-2.9ZM53.2,12.3c0-.3-.2-.4-.5-.4s-1.4,0-2.3,0c.2,1.5.7,3.1,1.4,4.5,1.2-2.2,1.5-3.9,1.5-4Z"/>
          <path class="cls-2" d="M59.9,10.6c-.7,0-1-.5-1-.9s.3-.9,1-.9.6,0,1,0c.5-.9,1.3-2.8,1.6-3.9.1-.5.5-.7.9-.7s1.1.4,1.1,1-.1,1-1.6,3.5c1,0,1.9-.2,2.8-.3-.1-.1-.2-.2-.3-.3-.2-.2-.3-.4-.3-.6,0-.4.5-.8,1-.8s2.8,1.9,2.8,2.9-.5,1-.9,1-.6-.2-1-.8c-2.6.6-5.8,1-6.9,1ZM62.1,18.9c0,1.2,0,2.4,0,3.3h0c0,.6-.5.9-.9.9s-.9-.3-1-.9c0-1.2,0-2.8,0-4.4s0-3.3,0-4.4c0-1.9,1.1-1.9,3.6-1.9s1.4,0,1.8,0c1.2,0,1.8.7,1.8,1.9,0,.3,0,3.7,0,4.4,0,.4,0,.9,0,1.5v1.4h0c0,1.5-.9,2.3-2.4,2.3s-1.8-.2-1.8-1.1.3-.8.8-.8.1,0,.2,0c.3,0,.5.1.7.1.5,0,.7-.2.7-.9,0-.3,0-.8,0-1.3h-3.7ZM62.1,16v1.4h3.7c0-.5,0-.9,0-1.4h-3.7ZM65.8,14.5c0-.3,0-.5,0-.8,0-.7-.2-.7-1.8-.7s-1.7,0-1.8.7c0,.2,0,.5,0,.8h3.6ZM71.1,10.3c0,1,.9,1,2,1,2,0,2.4-.6,2.4-1.6s.5-.9,1-.9,1.1,0,1.1,1.1c0,2.4-1.7,3.1-4.6,3.1s-4-.8-4-2.5,0-4.2,0-5.4c0-.6.5-.9,1-.9s1,.3,1,.9h0c0,.6,0,1.3,0,2.1,1.4-.5,3-1.1,4.1-1.6.2,0,.3-.1.5-.1.6,0,1,.5,1,1s-.2.7-.7.9c-1.3.5-3.3,1.2-4.8,1.5v1.2ZM71.1,19.8c0,1,.8,1,2,1s2.5-.3,2.5-1.6.5-.9,1-.9,1.2,0,1.2,1.1c0,2.4-1.7,3.2-4.7,3.2s-4-.1-4-2.5,0-4.5,0-5.6c0-.6.5-.9,1-.9s1,.3,1,.9h0c0,.5,0,1.3,0,2.1,1.4-.5,2.9-1.2,4-1.7.2,0,.3-.1.5-.1.6,0,1,.5,1,1.1s-.2.7-.7.9c-1.3.6-3.3,1.3-4.8,1.6v1.5Z"/>
          <path class="cls-2" d="M97.6,8.6c-1.6,0-5.1,0-8,0s-3.1,0-4,0-1,.4-1,1c0,4,.3,9.3-2.2,12.4-.3.4-.6.5-1,.5-.6,0-1.1-.5-1.1-1s0-.3.2-.5c1.8-2.3,2.1-5.4,2.1-8.4s0-2.1,0-3.1h0c0-1.8.8-2.7,2.8-2.8,1,0,2.4,0,3.9,0v-1.6c0-.7.6-1.1,1.1-1.1s1.1.3,1.1,1.1v1.6c2.4,0,4.8,0,6.2,0,.7,0,1,.5,1,.9s-.3,1-1,1h0ZM92.2,13.5v2.4c1,0,2,0,2.9,0,1.3,0,2.1.9,2.2,1.9,0,.4,0,.9,0,1.3s0,.9,0,1.4c0,1.1-.9,2.1-2.3,2.1-1.2,0-2.4,0-3.6,0s-2.3,0-3.3,0c-1.5,0-2.3-.9-2.3-2.1,0-.5,0-.8,0-1.2,0-.5,0-.9,0-1.4,0-1,.7-2,2.3-2,.6,0,1.3,0,2.1,0v-5.9c0-.6.5-.9,1-.9s1.1.3,1.1.9v1.7s5.2,0,5.2,0c.7,0,1,.5,1,.9s-.3.9-1,.9h-5.2ZM95.3,19.2c0-1.1,0-1.6-1-1.6-.7,0-1.6,0-2.5,0s-2.2,0-3.1,0c-.8,0-.9.5-.9,1.6s0,.5,0,.7c0,.9.4.9,3.9.9s3.6,0,3.7-.9c0-.3,0-.5,0-.8Z"/>
        </g>
      </g>
    </g>
  </g>
</svg>