<?xml version="1.0" encoding="UTF-8"?>
<svg xmlns="http://www.w3.org/2000/svg" width="135.4" height="27.1" version="1.1" viewBox="0 0 135.4 27.1">
  <defs>
    <style>
      .cls-1 {
        fill: #231815;
      }

      .cls-2 {
        fill: #fff;
      }

      .cls-3 {
        fill: #f5b4ab;
      }
    </style>
  </defs>
  <!-- Generator: Adobe Illustrator 28.7.5, SVG Export Plug-In . SVG Version: 1.2.0 Build 176)  -->
  <g>
    <g id="_文字" data-name="文字">
      <g>
        <g>
          <path class="cls-1" d="M38.1,22.3c-.6,0-1-.5-1-1s.3-1,1-1h6.7V5.6c0-.7.6-1.1,1.1-1.1s1.1.3,1.1,1.1v5.5h5.9c.6,0,1,.5,1,1s-.3,1-1,1h-5.9v7.1h7.7c.6,0,.9.5.9,1s-.3,1-.9,1h-16.7Z"/>
          <path class="cls-1" d="M62.9,10.8c0,4.2-.3,8.5-2.5,11.4-.3.4-.8.6-1.1.6-.6,0-1-.4-1-.9s0-.5.3-.7c1.9-2.7,2.3-6.2,2.3-9.7s0-3.1,0-4.6h0c0-1.2.6-2,2.1-2.1,1.4,0,3.2,0,5.1,0s3.8,0,5.2,0c2.3,0,2.3,1.3,2.3,2.6s-.2,2.4-2.5,2.4c-1.9,0-4.3,0-6.9,0s-2,0-3,0v1ZM69.5,19v1.1c0,.8.3,1,2.6,1s2.7-.3,2.7-1.5.5-.8,1-.8,1.2.2,1.2,1c0,3-2.8,3.1-5.2,3.1s-4.2,0-4.2-2.4,0-.7,0-1.3l-4.1.4h-.1c-.6,0-.9-.4-.9-.8s.3-.8.8-.9l4.3-.4v-1.5l-3.4.4h-.2c-.6,0-.9-.4-.9-.8s.3-.8.8-.9l3.6-.4v-1.2c-2.5.3-3.1.3-3.2.3-.6,0-.9-.5-.9-.9s.2-.8.8-.9c2.6-.2,5.3-.5,8.2-1.3.1,0,.2,0,.3,0,.6,0,1,.5,1,1,0,.8-.7,1-4.2,1.5v1.3s4.7-.5,4.7-.5h.1c.5,0,.8.4.8.9s-.3.8-.8.8l-5,.5v1.5l5.7-.6h.1c.5,0,.8.4.8.9s-.3.8-.8.8l-5.9.6ZM62.9,8c1.2,0,2.4,0,3.5,0,2.3,0,4.4,0,6,0,.5,0,.7-.3.8-.5v-.5q0-.5-4.7-.5c-1.7,0-3.3,0-4.6,0-.5,0-.9.4-.9.9v.7Z"/>
          <path class="cls-1" d="M97.2,8.7c-1.6,0-5.1,0-8,0s-3.1,0-4,0-1,.4-1,1c0,4,.3,9.3-2.2,12.4-.3.4-.6.5-1,.5-.6,0-1.1-.5-1.1-1s0-.3.2-.5c1.8-2.3,2.1-5.4,2.1-8.4s0-2.1,0-3.1h0c0-1.8.8-2.7,2.8-2.8,1,0,2.4,0,3.9,0v-1.6c0-.7.6-1.1,1.1-1.1s1.1.3,1.1,1.1v1.6c2.4,0,4.8,0,6.2,0,.7,0,1,.5,1,.9s-.3,1-1,1h0ZM91.9,13.6v2.4c1,0,2,0,2.9,0,1.3,0,2.1.9,2.2,1.9,0,.4,0,.9,0,1.3s0,.9,0,1.4c0,1.1-.9,2.1-2.3,2.1-1.2,0-2.4,0-3.6,0s-2.3,0-3.3,0c-1.5,0-2.3-.9-2.3-2.1,0-.5,0-.8,0-1.2,0-.5,0-.9,0-1.4,0-1,.7-2,2.3-2,.6,0,1.3,0,2.1,0v-5.9c0-.6.5-.9,1-.9s1.1.3,1.1.9v1.7s5.2,0,5.2,0c.7,0,1,.5,1,.9s-.3.9-1,.9h-5.2ZM94.9,19.3c0-1.1,0-1.6-1-1.6-.7,0-1.6,0-2.5,0s-2.2,0-3.1,0c-.8,0-.9.5-.9,1.6s0,.5,0,.7c0,.9.4.9,3.9.9s3.6,0,3.7-.9c0-.3,0-.5,0-.8Z"/>
        </g>
        <rect class="cls-3" width="135.4" height="27.1" rx="9.5" ry="9.5"/>
        <g>
          <path class="cls-2" d="M38.1,22.3c-.6,0-1-.5-1-1s.3-1,1-1h6.7V5.6c0-.7.6-1.1,1.1-1.1s1.1.3,1.1,1.1v5.5h5.9c.6,0,1,.5,1,1s-.3,1-1,1h-5.9v7.1h7.7c.6,0,.9.5.9,1s-.3,1-.9,1h-16.7Z"/>
          <path class="cls-2" d="M62.9,10.8c0,4.2-.3,8.5-2.5,11.4-.3.4-.8.6-1.1.6-.6,0-1-.4-1-.9s0-.5.3-.7c1.9-2.7,2.3-6.2,2.3-9.7s0-3.1,0-4.6h0c0-1.2.6-2,2.1-2.1,1.4,0,3.2,0,5.1,0s3.8,0,5.2,0c2.3,0,2.3,1.3,2.3,2.6s-.2,2.4-2.5,2.4c-1.9,0-4.3,0-6.9,0s-2,0-3,0v1ZM69.5,19v1.1c0,.8.3,1,2.6,1s2.7-.3,2.7-1.5.5-.8,1-.8,1.2.2,1.2,1c0,3-2.8,3.1-5.2,3.1s-4.2,0-4.2-2.4,0-.7,0-1.3l-4.1.4h-.1c-.6,0-.9-.4-.9-.8s.3-.8.8-.9l4.3-.4v-1.5l-3.4.4h-.2c-.6,0-.9-.4-.9-.8s.3-.8.8-.9l3.6-.4v-1.2c-2.5.3-3.1.3-3.2.3-.6,0-.9-.5-.9-.9s.2-.8.8-.9c2.6-.2,5.3-.5,8.2-1.3.1,0,.2,0,.3,0,.6,0,1,.5,1,1,0,.8-.7,1-4.2,1.5v1.3s4.7-.5,4.7-.5h.1c.5,0,.8.4.8.9s-.3.8-.8.8l-5,.5v1.5l5.7-.6h.1c.5,0,.8.4.8.9s-.3.8-.8.8l-5.9.6ZM62.9,8c1.2,0,2.4,0,3.5,0,2.3,0,4.4,0,6,0,.5,0,.7-.3.8-.5v-.5q0-.5-4.7-.5c-1.7,0-3.3,0-4.6,0-.5,0-.9.4-.9.9v.7Z"/>
          <path class="cls-2" d="M97.2,8.7c-1.6,0-5.1,0-8,0s-3.1,0-4,0-1,.4-1,1c0,4,.3,9.3-2.2,12.4-.3.4-.6.5-1,.5-.6,0-1.1-.5-1.1-1s0-.3.2-.5c1.8-2.3,2.1-5.4,2.1-8.4s0-2.1,0-3.1h0c0-1.8.8-2.7,2.8-2.8,1,0,2.4,0,3.9,0v-1.6c0-.7.6-1.1,1.1-1.1s1.1.3,1.1,1.1v1.6c2.4,0,4.8,0,6.2,0,.7,0,1,.5,1,.9s-.3,1-1,1h0ZM91.9,13.6v2.4c1,0,2,0,2.9,0,1.3,0,2.1.9,2.2,1.9,0,.4,0,.9,0,1.3s0,.9,0,1.4c0,1.1-.9,2.1-2.3,2.1-1.2,0-2.4,0-3.6,0s-2.3,0-3.3,0c-1.5,0-2.3-.9-2.3-2.1,0-.5,0-.8,0-1.2,0-.5,0-.9,0-1.4,0-1,.7-2,2.3-2,.6,0,1.3,0,2.1,0v-5.9c0-.6.5-.9,1-.9s1.1.3,1.1.9v1.7s5.2,0,5.2,0c.7,0,1,.5,1,.9s-.3.9-1,.9h-5.2ZM94.9,19.3c0-1.1,0-1.6-1-1.6-.7,0-1.6,0-2.5,0s-2.2,0-3.1,0c-.8,0-.9.5-.9,1.6s0,.5,0,.7c0,.9.4.9,3.9.9s3.6,0,3.7-.9c0-.3,0-.5,0-.8Z"/>
        </g>
      </g>
    </g>
  </g>
</svg>